<?xml version="1.0" encoding="UTF-8" standalone="no"?>
<!DOCTYPE svg PUBLIC "-//W3C//DTD SVG 1.1//EN"
 "http://www.w3.org/Graphics/SVG/1.1/DTD/svg11.dtd">
<!-- Generated by graphviz version 2.40.1 (20161225.0304)
 -->
<!-- Title: oneDegreeRelationshipsDiagram Pages: 1 -->
<svg width="376pt" height="162pt"
 viewBox="0.00 0.00 376.00 162.20" xmlns="http://www.w3.org/2000/svg" xmlns:xlink="http://www.w3.org/1999/xlink">
<g id="graph0" class="graph" transform="scale(1 1) rotate(0) translate(4 158.2)">
<title>oneDegreeRelationshipsDiagram</title>
<polygon fill="#ffffff" stroke="transparent" points="-4,4 -4,-158.2 372,-158.2 372,4 -4,4"/>
<text text-anchor="middle" x="72.4936" y="-7.3" font-family="Helvetica,sans-Serif" font-size="11.00" fill="#000000">Generated by SchemaSpy</text>
<!-- administrator -->
<g id="node1" class="node">
<title>administrator</title>
<g id="a_node1"><a xlink:href="../../tables/administrator.html" xlink:title="administrator" target="_top">
<polygon fill="#ffffff" stroke="transparent" points="149,-38.2 149,-150.2 360,-150.2 360,-38.2 149,-38.2"/>
<polygon fill="#f5f5f5" stroke="transparent" points="151.5,-125.2 151.5,-148.2 358.5,-148.2 358.5,-125.2 151.5,-125.2"/>
<polygon fill="none" stroke="#000000" points="151.5,-125.2 151.5,-148.2 358.5,-148.2 358.5,-125.2 151.5,-125.2"/>
<text text-anchor="start" x="156.5" y="-133.8" font-family="Helvetica,sans-Serif" font-weight="bold" font-size="11.00" fill="#000000">administrator</text>
<text text-anchor="start" x="323.5437" y="-133.3" font-family="Helvetica,sans-Serif" font-size="11.00" fill="#000000">[table]</text>
<polygon fill="none" stroke="#000000" points="151.5,-103.2 151.5,-125.2 275.5,-125.2 275.5,-103.2 151.5,-103.2"/>
<image xlink:href="../../images/primaryKeys.png" width="11px" height="12px" preserveAspectRatio="xMinYMin meet" x="156.5" y="-120.2"/>
<text text-anchor="start" x="171.5" y="-110.3" font-family="Helvetica,sans-Serif" font-size="11.00" fill="#000000">user_id</text>
<polygon fill="none" stroke="#000000" points="275.5,-103.2 275.5,-125.2 358.5,-125.2 358.5,-103.2 275.5,-103.2"/>
<text text-anchor="start" x="278.1783" y="-110.9" font-family="Helvetica,sans-Serif" font-size="11.00" fill="#000000">int unsigned[10]</text>
<polygon fill="none" stroke="#000000" points="151.5,-81.2 151.5,-103.2 275.5,-103.2 275.5,-81.2 151.5,-81.2"/>
<text text-anchor="start" x="171.5" y="-88.3" font-family="Helvetica,sans-Serif" font-size="11.00" fill="#000000">job_title</text>
<polygon fill="none" stroke="#000000" points="275.5,-81.2 275.5,-103.2 358.5,-103.2 358.5,-81.2 275.5,-81.2"/>
<text text-anchor="start" x="278.5" y="-88.9" font-family="Helvetica,sans-Serif" font-size="11.00" fill="#000000">varchar[255]</text>
<polygon fill="none" stroke="#000000" points="151.5,-59.2 151.5,-81.2 275.5,-81.2 275.5,-59.2 151.5,-59.2"/>
<text text-anchor="start" x="171.5" y="-66.3" font-family="Helvetica,sans-Serif" font-size="11.00" fill="#000000">is_super_admin</text>
<polygon fill="none" stroke="#000000" points="275.5,-59.2 275.5,-81.2 358.5,-81.2 358.5,-59.2 275.5,-59.2"/>
<text text-anchor="start" x="278.5" y="-66.9" font-family="Helvetica,sans-Serif" font-size="11.00" fill="#000000">bit[1]</text>
<polygon fill="#ffffff" stroke="transparent" points="151.5,-40.2 151.5,-59.2 204.5,-59.2 204.5,-40.2 151.5,-40.2"/>
<polygon fill="none" stroke="#000000" points="151.5,-40.2 151.5,-59.2 204.5,-59.2 204.5,-40.2 151.5,-40.2"/>
<text text-anchor="start" x="154.5" y="-46.3" font-family="Helvetica,sans-Serif" font-size="11.00" fill="#000000">&lt; 1</text>
<polygon fill="#ffffff" stroke="transparent" points="204.5,-40.2 204.5,-59.2 275.5,-59.2 275.5,-40.2 204.5,-40.2"/>
<polygon fill="none" stroke="#000000" points="204.5,-40.2 204.5,-59.2 275.5,-59.2 275.5,-40.2 204.5,-40.2"/>
<text text-anchor="start" x="240.1105" y="-46.3" font-family="Helvetica,sans-Serif" font-size="11.00" fill="#000000">0 rows</text>
<polygon fill="#ffffff" stroke="transparent" points="275.5,-40.2 275.5,-59.2 358.5,-59.2 358.5,-40.2 275.5,-40.2"/>
<polygon fill="none" stroke="#000000" points="275.5,-40.2 275.5,-59.2 358.5,-59.2 358.5,-40.2 275.5,-40.2"/>
<text text-anchor="start" x="339.9053" y="-46.3" font-family="Helvetica,sans-Serif" font-size="11.00" fill="#000000">0 &gt;</text>
<polygon fill="none" stroke="#000000" stroke-width="2" points="150,-39.2 150,-149.2 359,-149.2 359,-39.2 150,-39.2"/>
</a>
</g>
</g>
<!-- user -->
<g id="node2" class="node">
<title>user</title>
<g id="a_node2"><a xlink:href="../../tables/user.html" xlink:title="user" target="_top">
<polygon fill="#ffffff" stroke="transparent" points="8,-43.7 8,-148.7 100,-148.7 100,-43.7 8,-43.7"/>
<polygon fill="#f5f5f5" stroke="transparent" points="8,-125.2 8,-148.2 100,-148.2 100,-125.2 8,-125.2"/>
<polygon fill="none" stroke="#000000" points="8,-125.2 8,-148.2 100,-148.2 100,-125.2 8,-125.2"/>
<text text-anchor="start" x="13" y="-133.8" font-family="Helvetica,sans-Serif" font-weight="bold" font-size="11.00" fill="#000000">user</text>
<text text-anchor="start" x="65.0437" y="-133.3" font-family="Helvetica,sans-Serif" font-size="11.00" fill="#000000">[table]</text>
<polygon fill="none" stroke="#000000" points="8,-103.2 8,-125.2 100,-125.2 100,-103.2 8,-103.2"/>
<image xlink:href="../../images/primaryKeys.png" width="11px" height="12px" preserveAspectRatio="xMinYMin meet" x="13" y="-120.2"/>
<text text-anchor="start" x="28" y="-110.3" font-family="Helvetica,sans-Serif" font-size="11.00" fill="#000000">user_id</text>
<polygon fill="#ffffff" stroke="transparent" points="8,-81.2 8,-103.2 100,-103.2 100,-81.2 8,-81.2"/>
<polygon fill="none" stroke="#000000" points="8,-81.2 8,-103.2 100,-103.2 100,-81.2 8,-81.2"/>
<text text-anchor="start" x="28" y="-88.3" font-family="Helvetica,sans-Serif" font-size="11.00" fill="#000000">email</text>
<polygon fill="none" stroke="#000000" points="8,-62.2 8,-81.2 100,-81.2 100,-62.2 8,-62.2"/>
<text text-anchor="start" x="11" y="-68.3" font-family="Helvetica,sans-Serif" font-size="11.00" fill="#000000">...</text>
<polygon fill="#ffffff" stroke="transparent" points="8,-43.2 8,-62.2 30,-62.2 30,-43.2 8,-43.2"/>
<polygon fill="none" stroke="#000000" points="8,-43.2 8,-62.2 30,-62.2 30,-43.2 8,-43.2"/>
<text text-anchor="start" x="11" y="-49.3" font-family="Helvetica,sans-Serif" font-size="11.00" fill="#000000"> &#160;</text>
<polygon fill="#ffffff" stroke="transparent" points="30,-43.2 30,-62.2 73,-62.2 73,-43.2 30,-43.2"/>
<polygon fill="none" stroke="#000000" points="30,-43.2 30,-62.2 73,-62.2 73,-43.2 30,-43.2"/>
<text text-anchor="start" x="37.6105" y="-49.3" font-family="Helvetica,sans-Serif" font-size="11.00" fill="#000000">0 rows</text>
<polygon fill="#ffffff" stroke="transparent" points="73,-43.2 73,-62.2 100,-62.2 100,-43.2 73,-43.2"/>
<polygon fill="none" stroke="#000000" points="73,-43.2 73,-62.2 100,-62.2 100,-43.2 73,-43.2"/>
<text text-anchor="start" x="81.4053" y="-49.3" font-family="Helvetica,sans-Serif" font-size="11.00" fill="#000000">4 &gt;</text>
</a>
</g>
</g>
<!-- administrator&#45;&gt;user -->
<g id="edge1" class="edge">
<title>administrator:w&#45;&gt;user:e</title>
<path fill="none" stroke="#000000" d="M141.045,-114.2C126.137,-114.2 118.9549,-114.2 100,-114.2"/>
<polygon fill="#000000" stroke="#000000" points="150.7,-110.2 150.7,-118.2 149.1,-118.2 149.1,-110.2 150.7,-110.2"/>
<polyline fill="none" stroke="#000000" points="151.5,-114.2 147.5,-114.2 "/>
<ellipse fill="none" stroke="#000000" cx="144.3" cy="-114.2001" rx="3.2" ry="3.2"/>
</g>
</g>
</svg>
