<?xml version="1.0" encoding="UTF-8" standalone="no"?>
<!DOCTYPE svg PUBLIC "-//W3C//DTD SVG 1.1//EN"
 "http://www.w3.org/Graphics/SVG/1.1/DTD/svg11.dtd">
<!-- Generated by graphviz version 2.40.1 (20161225.0304)
 -->
<!-- Title: twoDegreesRelationshipsDiagram Pages: 1 -->
<svg width="382pt" height="409pt"
 viewBox="0.00 0.00 382.00 408.70" xmlns="http://www.w3.org/2000/svg" xmlns:xlink="http://www.w3.org/1999/xlink">
<g id="graph0" class="graph" transform="scale(1 1) rotate(0) translate(4 404.7)">
<title>twoDegreesRelationshipsDiagram</title>
<polygon fill="#ffffff" stroke="transparent" points="-4,4 -4,-404.7 378,-404.7 378,4 -4,4"/>
<text text-anchor="middle" x="72.4936" y="-7.3" font-family="Helvetica,sans-Serif" font-size="11.00" fill="#000000">Generated by SchemaSpy</text>
<!-- administrator -->
<g id="node1" class="node">
<title>administrator</title>
<g id="a_node1"><a xlink:href="../../tables/administrator.html" xlink:title="administrator" target="_top">
<polygon fill="#ffffff" stroke="transparent" points="152,-284.7 152,-396.7 363,-396.7 363,-284.7 152,-284.7"/>
<polygon fill="#f5f5f5" stroke="transparent" points="154.5,-371.7 154.5,-394.7 361.5,-394.7 361.5,-371.7 154.5,-371.7"/>
<polygon fill="none" stroke="#000000" points="154.5,-371.7 154.5,-394.7 361.5,-394.7 361.5,-371.7 154.5,-371.7"/>
<text text-anchor="start" x="159.5" y="-380.3" font-family="Helvetica,sans-Serif" font-weight="bold" font-size="11.00" fill="#000000">administrator</text>
<text text-anchor="start" x="326.5437" y="-379.8" font-family="Helvetica,sans-Serif" font-size="11.00" fill="#000000">[table]</text>
<polygon fill="none" stroke="#000000" points="154.5,-349.7 154.5,-371.7 278.5,-371.7 278.5,-349.7 154.5,-349.7"/>
<image xlink:href="../../images/primaryKeys.png" width="11px" height="12px" preserveAspectRatio="xMinYMin meet" x="159.5" y="-366.7"/>
<text text-anchor="start" x="174.5" y="-356.8" font-family="Helvetica,sans-Serif" font-size="11.00" fill="#000000">user_id</text>
<polygon fill="none" stroke="#000000" points="278.5,-349.7 278.5,-371.7 361.5,-371.7 361.5,-349.7 278.5,-349.7"/>
<text text-anchor="start" x="281.1783" y="-357.4" font-family="Helvetica,sans-Serif" font-size="11.00" fill="#000000">int unsigned[10]</text>
<polygon fill="none" stroke="#000000" points="154.5,-327.7 154.5,-349.7 278.5,-349.7 278.5,-327.7 154.5,-327.7"/>
<text text-anchor="start" x="174.5" y="-334.8" font-family="Helvetica,sans-Serif" font-size="11.00" fill="#000000">job_title</text>
<polygon fill="none" stroke="#000000" points="278.5,-327.7 278.5,-349.7 361.5,-349.7 361.5,-327.7 278.5,-327.7"/>
<text text-anchor="start" x="281.5" y="-335.4" font-family="Helvetica,sans-Serif" font-size="11.00" fill="#000000">varchar[255]</text>
<polygon fill="none" stroke="#000000" points="154.5,-305.7 154.5,-327.7 278.5,-327.7 278.5,-305.7 154.5,-305.7"/>
<text text-anchor="start" x="174.5" y="-312.8" font-family="Helvetica,sans-Serif" font-size="11.00" fill="#000000">is_super_admin</text>
<polygon fill="none" stroke="#000000" points="278.5,-305.7 278.5,-327.7 361.5,-327.7 361.5,-305.7 278.5,-305.7"/>
<text text-anchor="start" x="281.5" y="-313.4" font-family="Helvetica,sans-Serif" font-size="11.00" fill="#000000">bit[1]</text>
<polygon fill="#ffffff" stroke="transparent" points="154.5,-286.7 154.5,-305.7 207.5,-305.7 207.5,-286.7 154.5,-286.7"/>
<polygon fill="none" stroke="#000000" points="154.5,-286.7 154.5,-305.7 207.5,-305.7 207.5,-286.7 154.5,-286.7"/>
<text text-anchor="start" x="157.5" y="-292.8" font-family="Helvetica,sans-Serif" font-size="11.00" fill="#000000">&lt; 1</text>
<polygon fill="#ffffff" stroke="transparent" points="207.5,-286.7 207.5,-305.7 278.5,-305.7 278.5,-286.7 207.5,-286.7"/>
<polygon fill="none" stroke="#000000" points="207.5,-286.7 207.5,-305.7 278.5,-305.7 278.5,-286.7 207.5,-286.7"/>
<text text-anchor="start" x="243.1105" y="-292.8" font-family="Helvetica,sans-Serif" font-size="11.00" fill="#000000">0 rows</text>
<polygon fill="#ffffff" stroke="transparent" points="278.5,-286.7 278.5,-305.7 361.5,-305.7 361.5,-286.7 278.5,-286.7"/>
<polygon fill="none" stroke="#000000" points="278.5,-286.7 278.5,-305.7 361.5,-305.7 361.5,-286.7 278.5,-286.7"/>
<text text-anchor="start" x="342.9053" y="-292.8" font-family="Helvetica,sans-Serif" font-size="11.00" fill="#000000">0 &gt;</text>
<polygon fill="none" stroke="#000000" stroke-width="2" points="153,-285.7 153,-395.7 362,-395.7 362,-285.7 153,-285.7"/>
</a>
</g>
</g>
<!-- user -->
<g id="node2" class="node">
<title>user</title>
<g id="a_node2"><a xlink:href="../../tables/user.html" xlink:title="user" target="_top">
<polygon fill="#ffffff" stroke="transparent" points="8,-118.2 8,-223.2 100,-223.2 100,-118.2 8,-118.2"/>
<polygon fill="#f5f5f5" stroke="transparent" points="8,-199.7 8,-222.7 100,-222.7 100,-199.7 8,-199.7"/>
<polygon fill="none" stroke="#000000" points="8,-199.7 8,-222.7 100,-222.7 100,-199.7 8,-199.7"/>
<text text-anchor="start" x="13" y="-208.3" font-family="Helvetica,sans-Serif" font-weight="bold" font-size="11.00" fill="#000000">user</text>
<text text-anchor="start" x="65.0437" y="-207.8" font-family="Helvetica,sans-Serif" font-size="11.00" fill="#000000">[table]</text>
<polygon fill="none" stroke="#000000" points="8,-177.7 8,-199.7 100,-199.7 100,-177.7 8,-177.7"/>
<image xlink:href="../../images/primaryKeys.png" width="11px" height="12px" preserveAspectRatio="xMinYMin meet" x="13" y="-194.7"/>
<text text-anchor="start" x="28" y="-184.8" font-family="Helvetica,sans-Serif" font-size="11.00" fill="#000000">user_id</text>
<polygon fill="#ffffff" stroke="transparent" points="8,-155.7 8,-177.7 100,-177.7 100,-155.7 8,-155.7"/>
<polygon fill="none" stroke="#000000" points="8,-155.7 8,-177.7 100,-177.7 100,-155.7 8,-155.7"/>
<text text-anchor="start" x="28" y="-162.8" font-family="Helvetica,sans-Serif" font-size="11.00" fill="#000000">email</text>
<polygon fill="none" stroke="#000000" points="8,-136.7 8,-155.7 100,-155.7 100,-136.7 8,-136.7"/>
<text text-anchor="start" x="11" y="-142.8" font-family="Helvetica,sans-Serif" font-size="11.00" fill="#000000">...</text>
<polygon fill="#ffffff" stroke="transparent" points="8,-117.7 8,-136.7 30,-136.7 30,-117.7 8,-117.7"/>
<polygon fill="none" stroke="#000000" points="8,-117.7 8,-136.7 30,-136.7 30,-117.7 8,-117.7"/>
<text text-anchor="start" x="11" y="-123.8" font-family="Helvetica,sans-Serif" font-size="11.00" fill="#000000"> &#160;</text>
<polygon fill="#ffffff" stroke="transparent" points="30,-117.7 30,-136.7 73,-136.7 73,-117.7 30,-117.7"/>
<polygon fill="none" stroke="#000000" points="30,-117.7 30,-136.7 73,-136.7 73,-117.7 30,-117.7"/>
<text text-anchor="start" x="37.6105" y="-123.8" font-family="Helvetica,sans-Serif" font-size="11.00" fill="#000000">0 rows</text>
<polygon fill="#ffffff" stroke="transparent" points="73,-117.7 73,-136.7 100,-136.7 100,-117.7 73,-117.7"/>
<polygon fill="none" stroke="#000000" points="73,-117.7 73,-136.7 100,-136.7 100,-117.7 73,-117.7"/>
<text text-anchor="start" x="81.4053" y="-123.8" font-family="Helvetica,sans-Serif" font-size="11.00" fill="#000000">4 &gt;</text>
</a>
</g>
</g>
<!-- administrator&#45;&gt;user -->
<g id="edge1" class="edge">
<title>administrator:w&#45;&gt;user:e</title>
<path fill="none" stroke="#000000" d="M144.0409,-359.5098C84.2061,-344.3132 176.2747,-188.7 100,-188.7"/>
<polygon fill="#000000" stroke="#000000" points="154.1574,-356.6352 153.2528,-364.5839 151.6631,-364.403 152.5677,-356.4543 154.1574,-356.6352"/>
<polyline fill="none" stroke="#000000" points="154.5,-360.7 150.5256,-360.2477 "/>
<ellipse fill="none" stroke="#000000" cx="147.3462" cy="-359.8859" rx="3.2" ry="3.2"/>
</g>
<!-- client -->
<g id="node3" class="node">
<title>client</title>
<g id="a_node3"><a xlink:href="../../tables/client.html" xlink:title="client" target="_top">
<polygon fill="#ffffff" stroke="transparent" points="217.5,-202.2 217.5,-263.2 297.5,-263.2 297.5,-202.2 217.5,-202.2"/>
<polygon fill="#f5f5f5" stroke="transparent" points="217.5,-239.7 217.5,-262.7 297.5,-262.7 297.5,-239.7 217.5,-239.7"/>
<polygon fill="none" stroke="#000000" points="217.5,-239.7 217.5,-262.7 297.5,-262.7 297.5,-239.7 217.5,-239.7"/>
<text text-anchor="start" x="222.5" y="-248.3" font-family="Helvetica,sans-Serif" font-weight="bold" font-size="11.00" fill="#000000">client</text>
<text text-anchor="start" x="262.5437" y="-247.8" font-family="Helvetica,sans-Serif" font-size="11.00" fill="#000000">[table]</text>
<polygon fill="none" stroke="#000000" points="217.5,-220.7 217.5,-239.7 297.5,-239.7 297.5,-220.7 217.5,-220.7"/>
<text text-anchor="start" x="220.5" y="-226.8" font-family="Helvetica,sans-Serif" font-size="11.00" fill="#000000">...</text>
<polygon fill="#ffffff" stroke="transparent" points="217.5,-201.7 217.5,-220.7 238.5,-220.7 238.5,-201.7 217.5,-201.7"/>
<polygon fill="none" stroke="#000000" points="217.5,-201.7 217.5,-220.7 238.5,-220.7 238.5,-201.7 217.5,-201.7"/>
<text text-anchor="start" x="220.2027" y="-207.8" font-family="Helvetica,sans-Serif" font-size="11.00" fill="#000000">&lt; 2</text>
<polygon fill="#ffffff" stroke="transparent" points="238.5,-201.7 238.5,-220.7 276.5,-220.7 276.5,-201.7 238.5,-201.7"/>
<polygon fill="none" stroke="#000000" points="238.5,-201.7 238.5,-220.7 276.5,-220.7 276.5,-201.7 238.5,-201.7"/>
<text text-anchor="start" x="241.3053" y="-207.8" font-family="Helvetica,sans-Serif" font-size="11.00" fill="#000000">0 rows</text>
<polygon fill="#ffffff" stroke="transparent" points="276.5,-201.7 276.5,-220.7 297.5,-220.7 297.5,-201.7 276.5,-201.7"/>
<polygon fill="none" stroke="#000000" points="276.5,-201.7 276.5,-220.7 297.5,-220.7 297.5,-201.7 276.5,-201.7"/>
<text text-anchor="start" x="279.2027" y="-207.8" font-family="Helvetica,sans-Serif" font-size="11.00" fill="#000000">2 &gt;</text>
</a>
</g>
</g>
<!-- client&#45;&gt;user -->
<g id="edge2" class="edge">
<title>client:w&#45;&gt;user:e</title>
<path fill="none" stroke="#000000" d="M207.0935,-229.1816C161.0626,-224.4355 151.6372,-188.7 100,-188.7"/>
<polygon fill="#000000" stroke="#000000" points="216.9,-225.6651 216.5019,-233.6552 214.9039,-233.5756 215.302,-225.5855 216.9,-225.6651"/>
<polyline fill="none" stroke="#000000" points="217.5,-229.7 213.505,-229.501 "/>
<ellipse fill="none" stroke="#000000" cx="210.3089" cy="-229.3417" rx="3.2" ry="3.2"/>
</g>
<!-- comment -->
<g id="node4" class="node">
<title>comment</title>
<g id="a_node4"><a xlink:href="../../tables/comment.html" xlink:title="comment" target="_top">
<polygon fill="#ffffff" stroke="transparent" points="207,-120.2 207,-181.2 308,-181.2 308,-120.2 207,-120.2"/>
<polygon fill="#f5f5f5" stroke="transparent" points="207.5,-157.7 207.5,-180.7 308.5,-180.7 308.5,-157.7 207.5,-157.7"/>
<polygon fill="none" stroke="#000000" points="207.5,-157.7 207.5,-180.7 308.5,-180.7 308.5,-157.7 207.5,-157.7"/>
<text text-anchor="start" x="212.5" y="-166.3" font-family="Helvetica,sans-Serif" font-weight="bold" font-size="11.00" fill="#000000">comment</text>
<text text-anchor="start" x="274.0219" y="-165.8" font-family="Helvetica,sans-Serif" font-size="11.00" fill="#000000">[table]</text>
<polygon fill="none" stroke="#000000" points="207.5,-138.7 207.5,-157.7 308.5,-157.7 308.5,-138.7 207.5,-138.7"/>
<text text-anchor="start" x="210.5" y="-144.8" font-family="Helvetica,sans-Serif" font-size="11.00" fill="#000000">...</text>
<polygon fill="#ffffff" stroke="transparent" points="207.5,-119.7 207.5,-138.7 238.5,-138.7 238.5,-119.7 207.5,-119.7"/>
<polygon fill="none" stroke="#000000" points="207.5,-119.7 207.5,-138.7 238.5,-138.7 238.5,-119.7 207.5,-119.7"/>
<text text-anchor="start" x="210.5" y="-125.8" font-family="Helvetica,sans-Serif" font-size="11.00" fill="#000000">&lt; 3</text>
<polygon fill="#ffffff" stroke="transparent" points="238.5,-119.7 238.5,-138.7 281.5,-138.7 281.5,-119.7 238.5,-119.7"/>
<polygon fill="none" stroke="#000000" points="238.5,-119.7 238.5,-138.7 281.5,-138.7 281.5,-119.7 238.5,-119.7"/>
<text text-anchor="start" x="246.1105" y="-125.8" font-family="Helvetica,sans-Serif" font-size="11.00" fill="#000000">0 rows</text>
<polygon fill="#ffffff" stroke="transparent" points="281.5,-119.7 281.5,-138.7 308.5,-138.7 308.5,-119.7 281.5,-119.7"/>
<polygon fill="none" stroke="#000000" points="281.5,-119.7 281.5,-138.7 308.5,-138.7 308.5,-119.7 281.5,-119.7"/>
<text text-anchor="start" x="289.9053" y="-125.8" font-family="Helvetica,sans-Serif" font-size="11.00" fill="#000000">1 &gt;</text>
</a>
</g>
</g>
<!-- comment&#45;&gt;user -->
<g id="edge3" class="edge">
<title>comment:w&#45;&gt;user:e</title>
<path fill="none" stroke="#000000" d="M192.7448,-148.972C154.7513,-155.8924 145.7417,-188.7 100,-188.7"/>
<polygon fill="#000000" stroke="#000000" points="199.5296,-148.3872 207.8092,-151.2867 203.5148,-148.0436 207.5,-147.7 207.5,-147.7 207.5,-147.7 203.5148,-148.0436 207.1908,-144.1133 199.5296,-148.3872 199.5296,-148.3872"/>
<ellipse fill="none" stroke="#000000" cx="196.3414" cy="-148.662" rx="3.2" ry="3.2"/>
</g>
<!-- password_change_request -->
<g id="node5" class="node">
<title>password_change_request</title>
<g id="a_node5"><a xlink:href="../../tables/password_change_request.html" xlink:title="password_change_request" target="_top">
<polygon fill="#ffffff" stroke="transparent" points="149,-38.2 149,-99.2 366,-99.2 366,-38.2 149,-38.2"/>
<polygon fill="#f5f5f5" stroke="transparent" points="149.5,-75.7 149.5,-98.7 366.5,-98.7 366.5,-75.7 149.5,-75.7"/>
<polygon fill="none" stroke="#000000" points="149.5,-75.7 149.5,-98.7 366.5,-98.7 366.5,-75.7 149.5,-75.7"/>
<text text-anchor="start" x="154.5" y="-84.3" font-family="Helvetica,sans-Serif" font-weight="bold" font-size="11.00" fill="#000000">password_change_request</text>
<text text-anchor="start" x="332.0219" y="-83.8" font-family="Helvetica,sans-Serif" font-size="11.00" fill="#000000">[table]</text>
<polygon fill="none" stroke="#000000" points="149.5,-56.7 149.5,-75.7 366.5,-75.7 366.5,-56.7 149.5,-56.7"/>
<text text-anchor="start" x="152.5" y="-62.8" font-family="Helvetica,sans-Serif" font-size="11.00" fill="#000000">...</text>
<polygon fill="#ffffff" stroke="transparent" points="149.5,-37.7 149.5,-56.7 243.5,-56.7 243.5,-37.7 149.5,-37.7"/>
<polygon fill="none" stroke="#000000" points="149.5,-37.7 149.5,-56.7 243.5,-56.7 243.5,-37.7 149.5,-37.7"/>
<text text-anchor="start" x="152.5" y="-43.8" font-family="Helvetica,sans-Serif" font-size="11.00" fill="#000000">&lt; 1</text>
<polygon fill="#ffffff" stroke="transparent" points="243.5,-37.7 243.5,-56.7 317.5,-56.7 317.5,-37.7 243.5,-37.7"/>
<polygon fill="none" stroke="#000000" points="243.5,-37.7 243.5,-56.7 317.5,-56.7 317.5,-37.7 243.5,-37.7"/>
<text text-anchor="start" x="282.1105" y="-43.8" font-family="Helvetica,sans-Serif" font-size="11.00" fill="#000000">0 rows</text>
<polygon fill="#ffffff" stroke="transparent" points="317.5,-37.7 317.5,-56.7 366.5,-56.7 366.5,-37.7 317.5,-37.7"/>
<polygon fill="none" stroke="#000000" points="317.5,-37.7 317.5,-56.7 366.5,-56.7 366.5,-37.7 317.5,-37.7"/>
<text text-anchor="start" x="357.3862" y="-43.8" font-family="Helvetica,sans-Serif" font-size="11.00" fill="#000000"> &#160;</text>
</a>
</g>
</g>
<!-- password_change_request&#45;&gt;user -->
<g id="edge4" class="edge">
<title>password_change_request:w&#45;&gt;user:e</title>
<path fill="none" stroke="#000000" d="M135.2176,-69.2485C103.1442,-89.4156 152.9426,-188.7 100,-188.7"/>
<polygon fill="#000000" stroke="#000000" points="141.736,-67.629 150.3681,-69.1938 145.618,-66.6645 149.5,-65.7 149.5,-65.7 149.5,-65.7 145.618,-66.6645 148.6319,-62.2062 141.736,-67.629 141.736,-67.629"/>
<ellipse fill="none" stroke="#000000" cx="138.6305" cy="-68.4006" rx="3.2" ry="3.2"/>
</g>
</g>
</svg>
