<?xml version="1.0" encoding="UTF-8" standalone="no"?>
<!DOCTYPE svg PUBLIC "-//W3C//DTD SVG 1.1//EN"
 "http://www.w3.org/Graphics/SVG/1.1/DTD/svg11.dtd">
<!-- Generated by graphviz version 2.40.1 (20161225.0304)
 -->
<!-- Title: oneDegreeRelationshipsDiagram Pages: 1 -->
<svg width="498pt" height="329pt"
 viewBox="0.00 0.00 498.00 328.70" xmlns="http://www.w3.org/2000/svg" xmlns:xlink="http://www.w3.org/1999/xlink">
<g id="graph0" class="graph" transform="scale(1 1) rotate(0) translate(4 324.7)">
<title>oneDegreeRelationshipsDiagram</title>
<polygon fill="#ffffff" stroke="transparent" points="-4,4 -4,-324.7 494,-324.7 494,4 -4,4"/>
<text text-anchor="middle" x="72.4936" y="-7.3" font-family="Helvetica,sans-Serif" font-size="11.00" fill="#000000">Generated by SchemaSpy</text>
<!-- client -->
<g id="node1" class="node">
<title>client</title>
<g id="a_node1"><a xlink:href="../../tables/client.html" xlink:title="client" target="_top">
<polygon fill="#ffffff" stroke="transparent" points="149,-88.2 149,-222.2 324,-222.2 324,-88.2 149,-88.2"/>
<polygon fill="#f5f5f5" stroke="transparent" points="151.5,-197.2 151.5,-220.2 322.5,-220.2 322.5,-197.2 151.5,-197.2"/>
<polygon fill="none" stroke="#000000" points="151.5,-197.2 151.5,-220.2 322.5,-220.2 322.5,-197.2 151.5,-197.2"/>
<text text-anchor="start" x="156.5" y="-205.8" font-family="Helvetica,sans-Serif" font-weight="bold" font-size="11.00" fill="#000000">client</text>
<text text-anchor="start" x="287.5437" y="-205.3" font-family="Helvetica,sans-Serif" font-size="11.00" fill="#000000">[table]</text>
<polygon fill="none" stroke="#000000" points="151.5,-175.2 151.5,-197.2 239.5,-197.2 239.5,-175.2 151.5,-175.2"/>
<image xlink:href="../../images/primaryKeys.png" width="11px" height="12px" preserveAspectRatio="xMinYMin meet" x="156.5" y="-192.2"/>
<text text-anchor="start" x="171.5" y="-182.3" font-family="Helvetica,sans-Serif" font-size="11.00" fill="#000000">user_id</text>
<polygon fill="none" stroke="#000000" points="239.5,-175.2 239.5,-197.2 322.5,-197.2 322.5,-175.2 239.5,-175.2"/>
<text text-anchor="start" x="242.1783" y="-182.9" font-family="Helvetica,sans-Serif" font-size="11.00" fill="#000000">int unsigned[10]</text>
<polygon fill="none" stroke="#000000" points="151.5,-153.2 151.5,-175.2 239.5,-175.2 239.5,-153.2 151.5,-153.2"/>
<text text-anchor="start" x="171.5" y="-160.3" font-family="Helvetica,sans-Serif" font-size="11.00" fill="#000000">street</text>
<polygon fill="none" stroke="#000000" points="239.5,-153.2 239.5,-175.2 322.5,-175.2 322.5,-153.2 239.5,-153.2"/>
<text text-anchor="start" x="242.5" y="-160.9" font-family="Helvetica,sans-Serif" font-size="11.00" fill="#000000">varchar[255]</text>
<polygon fill="none" stroke="#000000" points="151.5,-131.2 151.5,-153.2 239.5,-153.2 239.5,-131.2 151.5,-131.2"/>
<text text-anchor="start" x="171.5" y="-138.3" font-family="Helvetica,sans-Serif" font-size="11.00" fill="#000000">city</text>
<polygon fill="none" stroke="#000000" points="239.5,-131.2 239.5,-153.2 322.5,-153.2 322.5,-131.2 239.5,-131.2"/>
<text text-anchor="start" x="242.5" y="-138.9" font-family="Helvetica,sans-Serif" font-size="11.00" fill="#000000">varchar[255]</text>
<polygon fill="#ffffff" stroke="transparent" points="151.5,-109.2 151.5,-131.2 239.5,-131.2 239.5,-109.2 151.5,-109.2"/>
<polygon fill="none" stroke="#000000" points="151.5,-109.2 151.5,-131.2 239.5,-131.2 239.5,-109.2 151.5,-109.2"/>
<image xlink:href="../../images/foreignKeys.png" width="11px" height="12px" preserveAspectRatio="xMinYMin meet" x="156.5" y="-126.2"/>
<text text-anchor="start" x="171.5" y="-116.3" font-family="Helvetica,sans-Serif" font-size="11.00" fill="#000000">district_id</text>
<polygon fill="none" stroke="#000000" points="239.5,-109.2 239.5,-131.2 322.5,-131.2 322.5,-109.2 239.5,-109.2"/>
<text text-anchor="start" x="242.1783" y="-116.9" font-family="Helvetica,sans-Serif" font-size="11.00" fill="#000000">int unsigned[10]</text>
<polygon fill="#ffffff" stroke="transparent" points="151.5,-90.2 151.5,-109.2 186.5,-109.2 186.5,-90.2 151.5,-90.2"/>
<polygon fill="none" stroke="#000000" points="151.5,-90.2 151.5,-109.2 186.5,-109.2 186.5,-90.2 151.5,-90.2"/>
<text text-anchor="start" x="154.5" y="-96.3" font-family="Helvetica,sans-Serif" font-size="11.00" fill="#000000">&lt; 2</text>
<polygon fill="#ffffff" stroke="transparent" points="186.5,-90.2 186.5,-109.2 239.5,-109.2 239.5,-90.2 186.5,-90.2"/>
<polygon fill="none" stroke="#000000" points="186.5,-90.2 186.5,-109.2 239.5,-109.2 239.5,-90.2 186.5,-90.2"/>
<text text-anchor="start" x="204.1105" y="-96.3" font-family="Helvetica,sans-Serif" font-size="11.00" fill="#000000">0 rows</text>
<polygon fill="#ffffff" stroke="transparent" points="239.5,-90.2 239.5,-109.2 322.5,-109.2 322.5,-90.2 239.5,-90.2"/>
<polygon fill="none" stroke="#000000" points="239.5,-90.2 239.5,-109.2 322.5,-109.2 322.5,-90.2 239.5,-90.2"/>
<text text-anchor="start" x="303.9053" y="-96.3" font-family="Helvetica,sans-Serif" font-size="11.00" fill="#000000">2 &gt;</text>
<polygon fill="none" stroke="#000000" stroke-width="2" points="150,-89.2 150,-221.2 323,-221.2 323,-89.2 150,-89.2"/>
</a>
</g>
</g>
<!-- district -->
<g id="node2" class="node">
<title>district</title>
<g id="a_node2"><a xlink:href="../../tables/district.html" xlink:title="district" target="_top">
<polygon fill="#ffffff" stroke="transparent" points="10,-38.2 10,-124.2 98,-124.2 98,-38.2 10,-38.2"/>
<polygon fill="#f5f5f5" stroke="transparent" points="10,-101.2 10,-124.2 98,-124.2 98,-101.2 10,-101.2"/>
<polygon fill="none" stroke="#000000" points="10,-101.2 10,-124.2 98,-124.2 98,-101.2 10,-101.2"/>
<text text-anchor="start" x="15" y="-109.8" font-family="Helvetica,sans-Serif" font-weight="bold" font-size="11.00" fill="#000000">district</text>
<text text-anchor="start" x="63.5219" y="-109.3" font-family="Helvetica,sans-Serif" font-size="11.00" fill="#000000">[table]</text>
<polygon fill="none" stroke="#000000" points="10,-79.2 10,-101.2 98,-101.2 98,-79.2 10,-79.2"/>
<image xlink:href="../../images/primaryKeys.png" width="11px" height="12px" preserveAspectRatio="xMinYMin meet" x="15" y="-96.2"/>
<text text-anchor="start" x="30" y="-86.3" font-family="Helvetica,sans-Serif" font-size="11.00" fill="#000000">district_id</text>
<polygon fill="#ffffff" stroke="transparent" points="10,-57.2 10,-79.2 98,-79.2 98,-57.2 10,-57.2"/>
<polygon fill="none" stroke="#000000" points="10,-57.2 10,-79.2 98,-79.2 98,-57.2 10,-57.2"/>
<text text-anchor="start" x="30" y="-64.3" font-family="Helvetica,sans-Serif" font-size="11.00" fill="#000000">name</text>
<polygon fill="#ffffff" stroke="transparent" points="10,-38.2 10,-57.2 30,-57.2 30,-38.2 10,-38.2"/>
<polygon fill="none" stroke="#000000" points="10,-38.2 10,-57.2 30,-57.2 30,-38.2 10,-38.2"/>
<text text-anchor="start" x="13" y="-44.3" font-family="Helvetica,sans-Serif" font-size="11.00" fill="#000000"> &#160;</text>
<polygon fill="#ffffff" stroke="transparent" points="30,-38.2 30,-57.2 72,-57.2 72,-38.2 30,-38.2"/>
<polygon fill="none" stroke="#000000" points="30,-38.2 30,-57.2 72,-57.2 72,-38.2 30,-38.2"/>
<text text-anchor="start" x="36.6105" y="-44.3" font-family="Helvetica,sans-Serif" font-size="11.00" fill="#000000">0 rows</text>
<polygon fill="#ffffff" stroke="transparent" points="72,-38.2 72,-57.2 98,-57.2 98,-38.2 72,-38.2"/>
<polygon fill="none" stroke="#000000" points="72,-38.2 72,-57.2 98,-57.2 98,-38.2 72,-38.2"/>
<text text-anchor="start" x="79.4053" y="-44.3" font-family="Helvetica,sans-Serif" font-size="11.00" fill="#000000">2 &gt;</text>
</a>
</g>
</g>
<!-- client&#45;&gt;district -->
<g id="edge1" class="edge">
<title>client:w&#45;&gt;district:e</title>
<path fill="none" stroke="#000000" d="M137.4933,-116.7586C123.4117,-108.8786 119.5106,-90.2 98,-90.2"/>
<polygon fill="#000000" stroke="#000000" points="143.7311,-118.2912 150.641,-123.696 147.6155,-119.2456 151.5,-120.2 151.5,-120.2 151.5,-120.2 147.6155,-119.2456 152.359,-116.704 143.7311,-118.2912 143.7311,-118.2912"/>
<ellipse fill="none" stroke="#000000" cx="140.6235" cy="-117.5276" rx="3.2" ry="3.2"/>
</g>
<!-- user -->
<g id="node3" class="node">
<title>user</title>
<g id="a_node3"><a xlink:href="../../tables/user.html" xlink:title="user" target="_top">
<polygon fill="#ffffff" stroke="transparent" points="8,-145.7 8,-250.7 100,-250.7 100,-145.7 8,-145.7"/>
<polygon fill="#f5f5f5" stroke="transparent" points="8,-227.2 8,-250.2 100,-250.2 100,-227.2 8,-227.2"/>
<polygon fill="none" stroke="#000000" points="8,-227.2 8,-250.2 100,-250.2 100,-227.2 8,-227.2"/>
<text text-anchor="start" x="13" y="-235.8" font-family="Helvetica,sans-Serif" font-weight="bold" font-size="11.00" fill="#000000">user</text>
<text text-anchor="start" x="65.0437" y="-235.3" font-family="Helvetica,sans-Serif" font-size="11.00" fill="#000000">[table]</text>
<polygon fill="none" stroke="#000000" points="8,-205.2 8,-227.2 100,-227.2 100,-205.2 8,-205.2"/>
<image xlink:href="../../images/primaryKeys.png" width="11px" height="12px" preserveAspectRatio="xMinYMin meet" x="13" y="-222.2"/>
<text text-anchor="start" x="28" y="-212.3" font-family="Helvetica,sans-Serif" font-size="11.00" fill="#000000">user_id</text>
<polygon fill="#ffffff" stroke="transparent" points="8,-183.2 8,-205.2 100,-205.2 100,-183.2 8,-183.2"/>
<polygon fill="none" stroke="#000000" points="8,-183.2 8,-205.2 100,-205.2 100,-183.2 8,-183.2"/>
<text text-anchor="start" x="28" y="-190.3" font-family="Helvetica,sans-Serif" font-size="11.00" fill="#000000">email</text>
<polygon fill="none" stroke="#000000" points="8,-164.2 8,-183.2 100,-183.2 100,-164.2 8,-164.2"/>
<text text-anchor="start" x="11" y="-170.3" font-family="Helvetica,sans-Serif" font-size="11.00" fill="#000000">...</text>
<polygon fill="#ffffff" stroke="transparent" points="8,-145.2 8,-164.2 30,-164.2 30,-145.2 8,-145.2"/>
<polygon fill="none" stroke="#000000" points="8,-145.2 8,-164.2 30,-164.2 30,-145.2 8,-145.2"/>
<text text-anchor="start" x="11" y="-151.3" font-family="Helvetica,sans-Serif" font-size="11.00" fill="#000000"> &#160;</text>
<polygon fill="#ffffff" stroke="transparent" points="30,-145.2 30,-164.2 73,-164.2 73,-145.2 30,-145.2"/>
<polygon fill="none" stroke="#000000" points="30,-145.2 30,-164.2 73,-164.2 73,-145.2 30,-145.2"/>
<text text-anchor="start" x="37.6105" y="-151.3" font-family="Helvetica,sans-Serif" font-size="11.00" fill="#000000">0 rows</text>
<polygon fill="#ffffff" stroke="transparent" points="73,-145.2 73,-164.2 100,-164.2 100,-145.2 73,-145.2"/>
<polygon fill="none" stroke="#000000" points="73,-145.2 73,-164.2 100,-164.2 100,-145.2 73,-145.2"/>
<text text-anchor="start" x="81.4053" y="-151.3" font-family="Helvetica,sans-Serif" font-size="11.00" fill="#000000">4 &gt;</text>
</a>
</g>
</g>
<!-- client&#45;&gt;user -->
<g id="edge2" class="edge">
<title>client:w&#45;&gt;user:e</title>
<path fill="none" stroke="#000000" d="M140.9182,-188.1684C124.79,-194.8426 122.3503,-216.2 100,-216.2"/>
<polygon fill="#000000" stroke="#000000" points="149.9819,-182.4138 151.445,-190.2789 149.872,-190.5715 148.4089,-182.7064 149.9819,-182.4138"/>
<polyline fill="none" stroke="#000000" points="151.5,-186.2 147.5675,-186.9315 "/>
<ellipse fill="none" stroke="#000000" cx="144.4214" cy="-187.5168" rx="3.2" ry="3.2"/>
</g>
<!-- order -->
<g id="node4" class="node">
<title>order</title>
<g id="a_node4"><a xlink:href="../../tables/order.html" xlink:title="order" target="_top">
<polygon fill="#ffffff" stroke="transparent" points="373,-189.7 373,-316.7 482,-316.7 482,-189.7 373,-189.7"/>
<polygon fill="#f5f5f5" stroke="transparent" points="373.5,-293.2 373.5,-316.2 482.5,-316.2 482.5,-293.2 373.5,-293.2"/>
<polygon fill="none" stroke="#000000" points="373.5,-293.2 373.5,-316.2 482.5,-316.2 482.5,-293.2 373.5,-293.2"/>
<text text-anchor="start" x="378.5" y="-301.8" font-family="Helvetica,sans-Serif" font-weight="bold" font-size="11.00" fill="#000000">order</text>
<text text-anchor="start" x="447.5437" y="-301.3" font-family="Helvetica,sans-Serif" font-size="11.00" fill="#000000">[table]</text>
<polygon fill="none" stroke="#000000" points="373.5,-271.2 373.5,-293.2 482.5,-293.2 482.5,-271.2 373.5,-271.2"/>
<image xlink:href="../../images/primaryKeys.png" width="11px" height="12px" preserveAspectRatio="xMinYMin meet" x="378.5" y="-288.2"/>
<text text-anchor="start" x="393.5" y="-278.3" font-family="Helvetica,sans-Serif" font-size="11.00" fill="#000000">order_id</text>
<polygon fill="#ffffff" stroke="transparent" points="373.5,-249.2 373.5,-271.2 482.5,-271.2 482.5,-249.2 373.5,-249.2"/>
<polygon fill="none" stroke="#000000" points="373.5,-249.2 373.5,-271.2 482.5,-271.2 482.5,-249.2 373.5,-249.2"/>
<image xlink:href="../../images/foreignKeys.png" width="11px" height="12px" preserveAspectRatio="xMinYMin meet" x="378.5" y="-266.2"/>
<text text-anchor="start" x="393.5" y="-256.3" font-family="Helvetica,sans-Serif" font-size="11.00" fill="#000000">client_id</text>
<polygon fill="#ffffff" stroke="transparent" points="373.5,-227.2 373.5,-249.2 482.5,-249.2 482.5,-227.2 373.5,-227.2"/>
<polygon fill="none" stroke="#000000" points="373.5,-227.2 373.5,-249.2 482.5,-249.2 482.5,-227.2 373.5,-227.2"/>
<image xlink:href="../../images/foreignKeys.png" width="11px" height="12px" preserveAspectRatio="xMinYMin meet" x="378.5" y="-244.2"/>
<text text-anchor="start" x="393.5" y="-234.3" font-family="Helvetica,sans-Serif" font-size="11.00" fill="#000000">store_id</text>
<polygon fill="none" stroke="#000000" points="373.5,-208.2 373.5,-227.2 482.5,-227.2 482.5,-208.2 373.5,-208.2"/>
<text text-anchor="start" x="376.5" y="-214.3" font-family="Helvetica,sans-Serif" font-size="11.00" fill="#000000">...</text>
<polygon fill="#ffffff" stroke="transparent" points="373.5,-189.2 373.5,-208.2 408.5,-208.2 408.5,-189.2 373.5,-189.2"/>
<polygon fill="none" stroke="#000000" points="373.5,-189.2 373.5,-208.2 408.5,-208.2 408.5,-189.2 373.5,-189.2"/>
<text text-anchor="start" x="376.5" y="-195.3" font-family="Helvetica,sans-Serif" font-size="11.00" fill="#000000">&lt; 2</text>
<polygon fill="#ffffff" stroke="transparent" points="408.5,-189.2 408.5,-208.2 453.5,-208.2 453.5,-189.2 408.5,-189.2"/>
<polygon fill="none" stroke="#000000" points="408.5,-189.2 408.5,-208.2 453.5,-208.2 453.5,-189.2 408.5,-189.2"/>
<text text-anchor="start" x="418.1105" y="-195.3" font-family="Helvetica,sans-Serif" font-size="11.00" fill="#000000">0 rows</text>
<polygon fill="#ffffff" stroke="transparent" points="453.5,-189.2 453.5,-208.2 482.5,-208.2 482.5,-189.2 453.5,-189.2"/>
<polygon fill="none" stroke="#000000" points="453.5,-189.2 453.5,-208.2 482.5,-208.2 482.5,-189.2 453.5,-189.2"/>
<text text-anchor="start" x="463.9053" y="-195.3" font-family="Helvetica,sans-Serif" font-size="11.00" fill="#000000">1 &gt;</text>
</a>
</g>
</g>
<!-- order&#45;&gt;client -->
<g id="edge3" class="edge">
<title>order:w&#45;&gt;client:e</title>
<path fill="none" stroke="#000000" d="M359.5503,-255.571C340.7607,-239.3706 356.3581,-186.2 322.5,-186.2"/>
<polygon fill="#000000" stroke="#000000" points="365.9071,-257.6804 372.3662,-263.6168 369.7036,-258.9402 373.5,-260.2 373.5,-260.2 373.5,-260.2 369.7036,-258.9402 374.6338,-256.7832 365.9071,-257.6804 365.9071,-257.6804"/>
<ellipse fill="none" stroke="#000000" cx="362.87" cy="-256.6725" rx="3.2" ry="3.2"/>
</g>
<!-- review -->
<g id="node5" class="node">
<title>review</title>
<g id="a_node5"><a xlink:href="../../tables/review.html" xlink:title="review" target="_top">
<polygon fill="#ffffff" stroke="transparent" points="373,-41.7 373,-168.7 482,-168.7 482,-41.7 373,-41.7"/>
<polygon fill="#f5f5f5" stroke="transparent" points="373.5,-145.2 373.5,-168.2 482.5,-168.2 482.5,-145.2 373.5,-145.2"/>
<polygon fill="none" stroke="#000000" points="373.5,-145.2 373.5,-168.2 482.5,-168.2 482.5,-145.2 373.5,-145.2"/>
<text text-anchor="start" x="378.5" y="-153.8" font-family="Helvetica,sans-Serif" font-weight="bold" font-size="11.00" fill="#000000">review</text>
<text text-anchor="start" x="447.5437" y="-153.3" font-family="Helvetica,sans-Serif" font-size="11.00" fill="#000000">[table]</text>
<polygon fill="none" stroke="#000000" points="373.5,-123.2 373.5,-145.2 482.5,-145.2 482.5,-123.2 373.5,-123.2"/>
<image xlink:href="../../images/primaryKeys.png" width="11px" height="12px" preserveAspectRatio="xMinYMin meet" x="378.5" y="-140.2"/>
<text text-anchor="start" x="393.5" y="-130.3" font-family="Helvetica,sans-Serif" font-size="11.00" fill="#000000">review_id</text>
<polygon fill="#ffffff" stroke="transparent" points="373.5,-101.2 373.5,-123.2 482.5,-123.2 482.5,-101.2 373.5,-101.2"/>
<polygon fill="none" stroke="#000000" points="373.5,-101.2 373.5,-123.2 482.5,-123.2 482.5,-101.2 373.5,-101.2"/>
<image xlink:href="../../images/foreignKeys.png" width="11px" height="12px" preserveAspectRatio="xMinYMin meet" x="378.5" y="-118.2"/>
<text text-anchor="start" x="393.5" y="-108.3" font-family="Helvetica,sans-Serif" font-size="11.00" fill="#000000">client_id</text>
<polygon fill="#ffffff" stroke="transparent" points="373.5,-79.2 373.5,-101.2 482.5,-101.2 482.5,-79.2 373.5,-79.2"/>
<polygon fill="none" stroke="#000000" points="373.5,-79.2 373.5,-101.2 482.5,-101.2 482.5,-79.2 373.5,-79.2"/>
<image xlink:href="../../images/foreignKeys.png" width="11px" height="12px" preserveAspectRatio="xMinYMin meet" x="378.5" y="-96.2"/>
<text text-anchor="start" x="393.5" y="-86.3" font-family="Helvetica,sans-Serif" font-size="11.00" fill="#000000">product_id</text>
<polygon fill="none" stroke="#000000" points="373.5,-60.2 373.5,-79.2 482.5,-79.2 482.5,-60.2 373.5,-60.2"/>
<text text-anchor="start" x="376.5" y="-66.3" font-family="Helvetica,sans-Serif" font-size="11.00" fill="#000000">...</text>
<polygon fill="#ffffff" stroke="transparent" points="373.5,-41.2 373.5,-60.2 408.5,-60.2 408.5,-41.2 373.5,-41.2"/>
<polygon fill="none" stroke="#000000" points="373.5,-41.2 373.5,-60.2 408.5,-60.2 408.5,-41.2 373.5,-41.2"/>
<text text-anchor="start" x="376.5" y="-47.3" font-family="Helvetica,sans-Serif" font-size="11.00" fill="#000000">&lt; 2</text>
<polygon fill="#ffffff" stroke="transparent" points="408.5,-41.2 408.5,-60.2 453.5,-60.2 453.5,-41.2 408.5,-41.2"/>
<polygon fill="none" stroke="#000000" points="408.5,-41.2 408.5,-60.2 453.5,-60.2 453.5,-41.2 408.5,-41.2"/>
<text text-anchor="start" x="418.1105" y="-47.3" font-family="Helvetica,sans-Serif" font-size="11.00" fill="#000000">0 rows</text>
<polygon fill="#ffffff" stroke="transparent" points="453.5,-41.2 453.5,-60.2 482.5,-60.2 482.5,-41.2 453.5,-41.2"/>
<polygon fill="none" stroke="#000000" points="453.5,-41.2 453.5,-60.2 482.5,-60.2 482.5,-41.2 453.5,-41.2"/>
<text text-anchor="start" x="463.9053" y="-47.3" font-family="Helvetica,sans-Serif" font-size="11.00" fill="#000000">1 &gt;</text>
</a>
</g>
</g>
<!-- review&#45;&gt;client -->
<g id="edge4" class="edge">
<title>review:w&#45;&gt;client:e</title>
<path fill="none" stroke="#000000" d="M359.5503,-116.829C340.7607,-133.0294 356.3581,-186.2 322.5,-186.2"/>
<polygon fill="#000000" stroke="#000000" points="365.9071,-114.7196 374.6338,-115.6168 369.7036,-113.4598 373.5,-112.2 373.5,-112.2 373.5,-112.2 369.7036,-113.4598 372.3662,-108.7832 365.9071,-114.7196 365.9071,-114.7196"/>
<ellipse fill="none" stroke="#000000" cx="362.87" cy="-115.7275" rx="3.2" ry="3.2"/>
</g>
</g>
</svg>
