<?xml version="1.0" encoding="UTF-8" standalone="no"?>
<!DOCTYPE svg PUBLIC "-//W3C//DTD SVG 1.1//EN"
 "http://www.w3.org/Graphics/SVG/1.1/DTD/svg11.dtd">
<!-- Generated by graphviz version 2.40.1 (20161225.0304)
 -->
<!-- Title: twoDegreesRelationshipsDiagram Pages: 1 -->
<svg width="723pt" height="541pt"
 viewBox="0.00 0.00 723.00 541.20" xmlns="http://www.w3.org/2000/svg" xmlns:xlink="http://www.w3.org/1999/xlink">
<g id="graph0" class="graph" transform="scale(1 1) rotate(0) translate(4 537.2)">
<title>twoDegreesRelationshipsDiagram</title>
<polygon fill="#ffffff" stroke="transparent" points="-4,4 -4,-537.2 719,-537.2 719,4 -4,4"/>
<text text-anchor="middle" x="72.4936" y="-7.3" font-family="Helvetica,sans-Serif" font-size="11.00" fill="#000000">Generated by SchemaSpy</text>
<!-- administrator -->
<g id="node1" class="node">
<title>administrator</title>
<g id="a_node1"><a xlink:href="../../tables/administrator.html" xlink:title="administrator" target="_top">
<polygon fill="#ffffff" stroke="transparent" points="192,-468.2 192,-529.2 323,-529.2 323,-468.2 192,-468.2"/>
<polygon fill="#f5f5f5" stroke="transparent" points="192.5,-505.7 192.5,-528.7 323.5,-528.7 323.5,-505.7 192.5,-505.7"/>
<polygon fill="none" stroke="#000000" points="192.5,-505.7 192.5,-528.7 323.5,-528.7 323.5,-505.7 192.5,-505.7"/>
<text text-anchor="start" x="197.5" y="-514.3" font-family="Helvetica,sans-Serif" font-weight="bold" font-size="11.00" fill="#000000">administrator</text>
<text text-anchor="start" x="289.0219" y="-513.8" font-family="Helvetica,sans-Serif" font-size="11.00" fill="#000000">[table]</text>
<polygon fill="none" stroke="#000000" points="192.5,-486.7 192.5,-505.7 323.5,-505.7 323.5,-486.7 192.5,-486.7"/>
<text text-anchor="start" x="195.5" y="-492.8" font-family="Helvetica,sans-Serif" font-size="11.00" fill="#000000">...</text>
<polygon fill="#ffffff" stroke="transparent" points="192.5,-467.7 192.5,-486.7 243.5,-486.7 243.5,-467.7 192.5,-467.7"/>
<polygon fill="none" stroke="#000000" points="192.5,-467.7 192.5,-486.7 243.5,-486.7 243.5,-467.7 192.5,-467.7"/>
<text text-anchor="start" x="195.5" y="-473.8" font-family="Helvetica,sans-Serif" font-size="11.00" fill="#000000">&lt; 1</text>
<polygon fill="#ffffff" stroke="transparent" points="243.5,-467.7 243.5,-486.7 296.5,-486.7 296.5,-467.7 243.5,-467.7"/>
<polygon fill="none" stroke="#000000" points="243.5,-467.7 243.5,-486.7 296.5,-486.7 296.5,-467.7 243.5,-467.7"/>
<text text-anchor="start" x="261.1105" y="-473.8" font-family="Helvetica,sans-Serif" font-size="11.00" fill="#000000">0 rows</text>
<polygon fill="#ffffff" stroke="transparent" points="296.5,-467.7 296.5,-486.7 323.5,-486.7 323.5,-467.7 296.5,-467.7"/>
<polygon fill="none" stroke="#000000" points="296.5,-467.7 296.5,-486.7 323.5,-486.7 323.5,-467.7 296.5,-467.7"/>
<text text-anchor="start" x="314.3862" y="-473.8" font-family="Helvetica,sans-Serif" font-size="11.00" fill="#000000"> &#160;</text>
</a>
</g>
</g>
<!-- user -->
<g id="node2" class="node">
<title>user</title>
<g id="a_node2"><a xlink:href="../../tables/user.html" xlink:title="user" target="_top">
<polygon fill="#ffffff" stroke="transparent" points="8,-344.2 8,-449.2 100,-449.2 100,-344.2 8,-344.2"/>
<polygon fill="#f5f5f5" stroke="transparent" points="8,-425.7 8,-448.7 100,-448.7 100,-425.7 8,-425.7"/>
<polygon fill="none" stroke="#000000" points="8,-425.7 8,-448.7 100,-448.7 100,-425.7 8,-425.7"/>
<text text-anchor="start" x="13" y="-434.3" font-family="Helvetica,sans-Serif" font-weight="bold" font-size="11.00" fill="#000000">user</text>
<text text-anchor="start" x="65.0437" y="-433.8" font-family="Helvetica,sans-Serif" font-size="11.00" fill="#000000">[table]</text>
<polygon fill="none" stroke="#000000" points="8,-403.7 8,-425.7 100,-425.7 100,-403.7 8,-403.7"/>
<image xlink:href="../../images/primaryKeys.png" width="11px" height="12px" preserveAspectRatio="xMinYMin meet" x="13" y="-420.7"/>
<text text-anchor="start" x="28" y="-410.8" font-family="Helvetica,sans-Serif" font-size="11.00" fill="#000000">user_id</text>
<polygon fill="#ffffff" stroke="transparent" points="8,-381.7 8,-403.7 100,-403.7 100,-381.7 8,-381.7"/>
<polygon fill="none" stroke="#000000" points="8,-381.7 8,-403.7 100,-403.7 100,-381.7 8,-381.7"/>
<text text-anchor="start" x="28" y="-388.8" font-family="Helvetica,sans-Serif" font-size="11.00" fill="#000000">email</text>
<polygon fill="none" stroke="#000000" points="8,-362.7 8,-381.7 100,-381.7 100,-362.7 8,-362.7"/>
<text text-anchor="start" x="11" y="-368.8" font-family="Helvetica,sans-Serif" font-size="11.00" fill="#000000">...</text>
<polygon fill="#ffffff" stroke="transparent" points="8,-343.7 8,-362.7 30,-362.7 30,-343.7 8,-343.7"/>
<polygon fill="none" stroke="#000000" points="8,-343.7 8,-362.7 30,-362.7 30,-343.7 8,-343.7"/>
<text text-anchor="start" x="11" y="-349.8" font-family="Helvetica,sans-Serif" font-size="11.00" fill="#000000"> &#160;</text>
<polygon fill="#ffffff" stroke="transparent" points="30,-343.7 30,-362.7 73,-362.7 73,-343.7 30,-343.7"/>
<polygon fill="none" stroke="#000000" points="30,-343.7 30,-362.7 73,-362.7 73,-343.7 30,-343.7"/>
<text text-anchor="start" x="37.6105" y="-349.8" font-family="Helvetica,sans-Serif" font-size="11.00" fill="#000000">0 rows</text>
<polygon fill="#ffffff" stroke="transparent" points="73,-343.7 73,-362.7 100,-362.7 100,-343.7 73,-343.7"/>
<polygon fill="none" stroke="#000000" points="73,-343.7 73,-362.7 100,-362.7 100,-343.7 73,-343.7"/>
<text text-anchor="start" x="81.4053" y="-349.8" font-family="Helvetica,sans-Serif" font-size="11.00" fill="#000000">4 &gt;</text>
</a>
</g>
</g>
<!-- administrator&#45;&gt;user -->
<g id="edge1" class="edge">
<title>administrator:w&#45;&gt;user:e</title>
<path fill="none" stroke="#000000" d="M181.9199,-494.5047C162.6002,-489.6098 160.1309,-470.5561 141,-453.7 122.1302,-437.0739 125.1494,-414.7 100,-414.7"/>
<polygon fill="#000000" stroke="#000000" points="192.1541,-491.6355 191.256,-499.5849 189.6661,-499.4053 190.5643,-491.4558 192.1541,-491.6355"/>
<polyline fill="none" stroke="#000000" points="192.5,-495.7 188.5253,-495.2509 "/>
<ellipse fill="none" stroke="#000000" cx="185.3455" cy="-494.8916" rx="3.2" ry="3.2"/>
</g>
<!-- client -->
<g id="node3" class="node">
<title>client</title>
<g id="a_node3"><a xlink:href="../../tables/client.html" xlink:title="client" target="_top">
<polygon fill="#ffffff" stroke="transparent" points="170,-202.7 170,-336.7 345,-336.7 345,-202.7 170,-202.7"/>
<polygon fill="#f5f5f5" stroke="transparent" points="172.5,-311.7 172.5,-334.7 343.5,-334.7 343.5,-311.7 172.5,-311.7"/>
<polygon fill="none" stroke="#000000" points="172.5,-311.7 172.5,-334.7 343.5,-334.7 343.5,-311.7 172.5,-311.7"/>
<text text-anchor="start" x="177.5" y="-320.3" font-family="Helvetica,sans-Serif" font-weight="bold" font-size="11.00" fill="#000000">client</text>
<text text-anchor="start" x="308.5437" y="-319.8" font-family="Helvetica,sans-Serif" font-size="11.00" fill="#000000">[table]</text>
<polygon fill="none" stroke="#000000" points="172.5,-289.7 172.5,-311.7 260.5,-311.7 260.5,-289.7 172.5,-289.7"/>
<image xlink:href="../../images/primaryKeys.png" width="11px" height="12px" preserveAspectRatio="xMinYMin meet" x="177.5" y="-306.7"/>
<text text-anchor="start" x="192.5" y="-296.8" font-family="Helvetica,sans-Serif" font-size="11.00" fill="#000000">user_id</text>
<polygon fill="none" stroke="#000000" points="260.5,-289.7 260.5,-311.7 343.5,-311.7 343.5,-289.7 260.5,-289.7"/>
<text text-anchor="start" x="263.1783" y="-297.4" font-family="Helvetica,sans-Serif" font-size="11.00" fill="#000000">int unsigned[10]</text>
<polygon fill="none" stroke="#000000" points="172.5,-267.7 172.5,-289.7 260.5,-289.7 260.5,-267.7 172.5,-267.7"/>
<text text-anchor="start" x="192.5" y="-274.8" font-family="Helvetica,sans-Serif" font-size="11.00" fill="#000000">street</text>
<polygon fill="none" stroke="#000000" points="260.5,-267.7 260.5,-289.7 343.5,-289.7 343.5,-267.7 260.5,-267.7"/>
<text text-anchor="start" x="263.5" y="-275.4" font-family="Helvetica,sans-Serif" font-size="11.00" fill="#000000">varchar[255]</text>
<polygon fill="none" stroke="#000000" points="172.5,-245.7 172.5,-267.7 260.5,-267.7 260.5,-245.7 172.5,-245.7"/>
<text text-anchor="start" x="192.5" y="-252.8" font-family="Helvetica,sans-Serif" font-size="11.00" fill="#000000">city</text>
<polygon fill="none" stroke="#000000" points="260.5,-245.7 260.5,-267.7 343.5,-267.7 343.5,-245.7 260.5,-245.7"/>
<text text-anchor="start" x="263.5" y="-253.4" font-family="Helvetica,sans-Serif" font-size="11.00" fill="#000000">varchar[255]</text>
<polygon fill="#ffffff" stroke="transparent" points="172.5,-223.7 172.5,-245.7 260.5,-245.7 260.5,-223.7 172.5,-223.7"/>
<polygon fill="none" stroke="#000000" points="172.5,-223.7 172.5,-245.7 260.5,-245.7 260.5,-223.7 172.5,-223.7"/>
<image xlink:href="../../images/foreignKeys.png" width="11px" height="12px" preserveAspectRatio="xMinYMin meet" x="177.5" y="-240.7"/>
<text text-anchor="start" x="192.5" y="-230.8" font-family="Helvetica,sans-Serif" font-size="11.00" fill="#000000">district_id</text>
<polygon fill="none" stroke="#000000" points="260.5,-223.7 260.5,-245.7 343.5,-245.7 343.5,-223.7 260.5,-223.7"/>
<text text-anchor="start" x="263.1783" y="-231.4" font-family="Helvetica,sans-Serif" font-size="11.00" fill="#000000">int unsigned[10]</text>
<polygon fill="#ffffff" stroke="transparent" points="172.5,-204.7 172.5,-223.7 207.5,-223.7 207.5,-204.7 172.5,-204.7"/>
<polygon fill="none" stroke="#000000" points="172.5,-204.7 172.5,-223.7 207.5,-223.7 207.5,-204.7 172.5,-204.7"/>
<text text-anchor="start" x="175.5" y="-210.8" font-family="Helvetica,sans-Serif" font-size="11.00" fill="#000000">&lt; 2</text>
<polygon fill="#ffffff" stroke="transparent" points="207.5,-204.7 207.5,-223.7 260.5,-223.7 260.5,-204.7 207.5,-204.7"/>
<polygon fill="none" stroke="#000000" points="207.5,-204.7 207.5,-223.7 260.5,-223.7 260.5,-204.7 207.5,-204.7"/>
<text text-anchor="start" x="225.1105" y="-210.8" font-family="Helvetica,sans-Serif" font-size="11.00" fill="#000000">0 rows</text>
<polygon fill="#ffffff" stroke="transparent" points="260.5,-204.7 260.5,-223.7 343.5,-223.7 343.5,-204.7 260.5,-204.7"/>
<polygon fill="none" stroke="#000000" points="260.5,-204.7 260.5,-223.7 343.5,-223.7 343.5,-204.7 260.5,-204.7"/>
<text text-anchor="start" x="324.9053" y="-210.8" font-family="Helvetica,sans-Serif" font-size="11.00" fill="#000000">2 &gt;</text>
<polygon fill="none" stroke="#000000" stroke-width="2" points="171,-203.7 171,-335.7 344,-335.7 344,-203.7 171,-203.7"/>
</a>
</g>
</g>
<!-- client&#45;&gt;user -->
<g id="edge3" class="edge">
<title>client:w&#45;&gt;user:e</title>
<path fill="none" stroke="#000000" d="M162.1735,-302.0597C118.1426,-314.9217 156.1748,-414.7 100,-414.7"/>
<polygon fill="#000000" stroke="#000000" points="171.1846,-296.8387 172.2291,-304.7702 170.6427,-304.9791 169.5983,-297.0476 171.1846,-296.8387"/>
<polyline fill="none" stroke="#000000" points="172.5,-300.7 168.5342,-301.2222 "/>
<ellipse fill="none" stroke="#000000" cx="165.3616" cy="-301.64" rx="3.2" ry="3.2"/>
</g>
<!-- district -->
<g id="node4" class="node">
<title>district</title>
<g id="a_node4"><a xlink:href="../../tables/district.html" xlink:title="district" target="_top">
<polygon fill="#ffffff" stroke="transparent" points="10,-98.7 10,-184.7 98,-184.7 98,-98.7 10,-98.7"/>
<polygon fill="#f5f5f5" stroke="transparent" points="10,-161.7 10,-184.7 98,-184.7 98,-161.7 10,-161.7"/>
<polygon fill="none" stroke="#000000" points="10,-161.7 10,-184.7 98,-184.7 98,-161.7 10,-161.7"/>
<text text-anchor="start" x="15" y="-170.3" font-family="Helvetica,sans-Serif" font-weight="bold" font-size="11.00" fill="#000000">district</text>
<text text-anchor="start" x="63.5219" y="-169.8" font-family="Helvetica,sans-Serif" font-size="11.00" fill="#000000">[table]</text>
<polygon fill="none" stroke="#000000" points="10,-139.7 10,-161.7 98,-161.7 98,-139.7 10,-139.7"/>
<image xlink:href="../../images/primaryKeys.png" width="11px" height="12px" preserveAspectRatio="xMinYMin meet" x="15" y="-156.7"/>
<text text-anchor="start" x="30" y="-146.8" font-family="Helvetica,sans-Serif" font-size="11.00" fill="#000000">district_id</text>
<polygon fill="#ffffff" stroke="transparent" points="10,-117.7 10,-139.7 98,-139.7 98,-117.7 10,-117.7"/>
<polygon fill="none" stroke="#000000" points="10,-117.7 10,-139.7 98,-139.7 98,-117.7 10,-117.7"/>
<text text-anchor="start" x="30" y="-124.8" font-family="Helvetica,sans-Serif" font-size="11.00" fill="#000000">name</text>
<polygon fill="#ffffff" stroke="transparent" points="10,-98.7 10,-117.7 30,-117.7 30,-98.7 10,-98.7"/>
<polygon fill="none" stroke="#000000" points="10,-98.7 10,-117.7 30,-117.7 30,-98.7 10,-98.7"/>
<text text-anchor="start" x="13" y="-104.8" font-family="Helvetica,sans-Serif" font-size="11.00" fill="#000000"> &#160;</text>
<polygon fill="#ffffff" stroke="transparent" points="30,-98.7 30,-117.7 72,-117.7 72,-98.7 30,-98.7"/>
<polygon fill="none" stroke="#000000" points="30,-98.7 30,-117.7 72,-117.7 72,-98.7 30,-98.7"/>
<text text-anchor="start" x="36.6105" y="-104.8" font-family="Helvetica,sans-Serif" font-size="11.00" fill="#000000">0 rows</text>
<polygon fill="#ffffff" stroke="transparent" points="72,-98.7 72,-117.7 98,-117.7 98,-98.7 72,-98.7"/>
<polygon fill="none" stroke="#000000" points="72,-98.7 72,-117.7 98,-117.7 98,-98.7 72,-98.7"/>
<text text-anchor="start" x="79.4053" y="-104.8" font-family="Helvetica,sans-Serif" font-size="11.00" fill="#000000">2 &gt;</text>
</a>
</g>
</g>
<!-- client&#45;&gt;district -->
<g id="edge2" class="edge">
<title>client:w&#45;&gt;district:e</title>
<path fill="none" stroke="#000000" d="M158.2179,-231.7104C127.3664,-216.7467 142.2483,-150.7 98,-150.7"/>
<polygon fill="#000000" stroke="#000000" points="164.6697,-233.0609 171.7624,-238.2236 168.5849,-233.8804 172.5,-234.7 172.5,-234.7 172.5,-234.7 168.5849,-233.8804 173.2376,-231.1764 164.6697,-233.0609 164.6697,-233.0609"/>
<ellipse fill="none" stroke="#000000" cx="161.5376" cy="-232.4052" rx="3.2" ry="3.2"/>
</g>
<!-- comment -->
<g id="node5" class="node">
<title>comment</title>
<g id="a_node5"><a xlink:href="../../tables/comment.html" xlink:title="comment" target="_top">
<polygon fill="#ffffff" stroke="transparent" points="589.5,-385.2 589.5,-446.2 690.5,-446.2 690.5,-385.2 589.5,-385.2"/>
<polygon fill="#f5f5f5" stroke="transparent" points="590,-422.7 590,-445.7 691,-445.7 691,-422.7 590,-422.7"/>
<polygon fill="none" stroke="#000000" points="590,-422.7 590,-445.7 691,-445.7 691,-422.7 590,-422.7"/>
<text text-anchor="start" x="595" y="-431.3" font-family="Helvetica,sans-Serif" font-weight="bold" font-size="11.00" fill="#000000">comment</text>
<text text-anchor="start" x="656.5219" y="-430.8" font-family="Helvetica,sans-Serif" font-size="11.00" fill="#000000">[table]</text>
<polygon fill="none" stroke="#000000" points="590,-403.7 590,-422.7 691,-422.7 691,-403.7 590,-403.7"/>
<text text-anchor="start" x="593" y="-409.8" font-family="Helvetica,sans-Serif" font-size="11.00" fill="#000000">...</text>
<polygon fill="#ffffff" stroke="transparent" points="590,-384.7 590,-403.7 621,-403.7 621,-384.7 590,-384.7"/>
<polygon fill="none" stroke="#000000" points="590,-384.7 590,-403.7 621,-403.7 621,-384.7 590,-384.7"/>
<text text-anchor="start" x="593" y="-390.8" font-family="Helvetica,sans-Serif" font-size="11.00" fill="#000000">&lt; 3</text>
<polygon fill="#ffffff" stroke="transparent" points="621,-384.7 621,-403.7 664,-403.7 664,-384.7 621,-384.7"/>
<polygon fill="none" stroke="#000000" points="621,-384.7 621,-403.7 664,-403.7 664,-384.7 621,-384.7"/>
<text text-anchor="start" x="628.6105" y="-390.8" font-family="Helvetica,sans-Serif" font-size="11.00" fill="#000000">0 rows</text>
<polygon fill="#ffffff" stroke="transparent" points="664,-384.7 664,-403.7 691,-403.7 691,-384.7 664,-384.7"/>
<polygon fill="none" stroke="#000000" points="664,-384.7 664,-403.7 691,-403.7 691,-384.7 664,-384.7"/>
<text text-anchor="start" x="672.4053" y="-390.8" font-family="Helvetica,sans-Serif" font-size="11.00" fill="#000000">1 &gt;</text>
</a>
</g>
</g>
<!-- comment&#45;&gt;user -->
<g id="edge5" class="edge">
<title>comment:w&#45;&gt;user:e</title>
<path fill="none" stroke="#000000" d="M575.3502,-412.7943C387.5892,-415.2282 332.7391,-463.6731 141,-429.7 121.8941,-426.3147 119.4034,-414.7 100,-414.7"/>
<polygon fill="#000000" stroke="#000000" points="582.0002,-412.7516 590.0232,-416.2999 586.0001,-412.7258 590,-412.7 590,-412.7 590,-412.7 586.0001,-412.7258 589.9768,-409.1001 582.0002,-412.7516 582.0002,-412.7516"/>
<ellipse fill="none" stroke="#000000" cx="578.8002" cy="-412.7722" rx="3.2" ry="3.2"/>
</g>
<!-- review -->
<g id="node6" class="node">
<title>review</title>
<g id="a_node6"><a xlink:href="../../tables/review.html" xlink:title="review" target="_top">
<polygon fill="#ffffff" stroke="transparent" points="415,-260.2 415,-387.2 524,-387.2 524,-260.2 415,-260.2"/>
<polygon fill="#f5f5f5" stroke="transparent" points="415.5,-363.7 415.5,-386.7 524.5,-386.7 524.5,-363.7 415.5,-363.7"/>
<polygon fill="none" stroke="#000000" points="415.5,-363.7 415.5,-386.7 524.5,-386.7 524.5,-363.7 415.5,-363.7"/>
<text text-anchor="start" x="420.5" y="-372.3" font-family="Helvetica,sans-Serif" font-weight="bold" font-size="11.00" fill="#000000">review</text>
<text text-anchor="start" x="489.5437" y="-371.8" font-family="Helvetica,sans-Serif" font-size="11.00" fill="#000000">[table]</text>
<polygon fill="none" stroke="#000000" points="415.5,-341.7 415.5,-363.7 524.5,-363.7 524.5,-341.7 415.5,-341.7"/>
<image xlink:href="../../images/primaryKeys.png" width="11px" height="12px" preserveAspectRatio="xMinYMin meet" x="420.5" y="-358.7"/>
<text text-anchor="start" x="435.5" y="-348.8" font-family="Helvetica,sans-Serif" font-size="11.00" fill="#000000">review_id</text>
<polygon fill="#ffffff" stroke="transparent" points="415.5,-319.7 415.5,-341.7 524.5,-341.7 524.5,-319.7 415.5,-319.7"/>
<polygon fill="none" stroke="#000000" points="415.5,-319.7 415.5,-341.7 524.5,-341.7 524.5,-319.7 415.5,-319.7"/>
<image xlink:href="../../images/foreignKeys.png" width="11px" height="12px" preserveAspectRatio="xMinYMin meet" x="420.5" y="-336.7"/>
<text text-anchor="start" x="435.5" y="-326.8" font-family="Helvetica,sans-Serif" font-size="11.00" fill="#000000">client_id</text>
<polygon fill="#ffffff" stroke="transparent" points="415.5,-297.7 415.5,-319.7 524.5,-319.7 524.5,-297.7 415.5,-297.7"/>
<polygon fill="none" stroke="#000000" points="415.5,-297.7 415.5,-319.7 524.5,-319.7 524.5,-297.7 415.5,-297.7"/>
<image xlink:href="../../images/foreignKeys.png" width="11px" height="12px" preserveAspectRatio="xMinYMin meet" x="420.5" y="-314.7"/>
<text text-anchor="start" x="435.5" y="-304.8" font-family="Helvetica,sans-Serif" font-size="11.00" fill="#000000">product_id</text>
<polygon fill="none" stroke="#000000" points="415.5,-278.7 415.5,-297.7 524.5,-297.7 524.5,-278.7 415.5,-278.7"/>
<text text-anchor="start" x="418.5" y="-284.8" font-family="Helvetica,sans-Serif" font-size="11.00" fill="#000000">...</text>
<polygon fill="#ffffff" stroke="transparent" points="415.5,-259.7 415.5,-278.7 450.5,-278.7 450.5,-259.7 415.5,-259.7"/>
<polygon fill="none" stroke="#000000" points="415.5,-259.7 415.5,-278.7 450.5,-278.7 450.5,-259.7 415.5,-259.7"/>
<text text-anchor="start" x="418.5" y="-265.8" font-family="Helvetica,sans-Serif" font-size="11.00" fill="#000000">&lt; 2</text>
<polygon fill="#ffffff" stroke="transparent" points="450.5,-259.7 450.5,-278.7 495.5,-278.7 495.5,-259.7 450.5,-259.7"/>
<polygon fill="none" stroke="#000000" points="450.5,-259.7 450.5,-278.7 495.5,-278.7 495.5,-259.7 450.5,-259.7"/>
<text text-anchor="start" x="460.1105" y="-265.8" font-family="Helvetica,sans-Serif" font-size="11.00" fill="#000000">0 rows</text>
<polygon fill="#ffffff" stroke="transparent" points="495.5,-259.7 495.5,-278.7 524.5,-278.7 524.5,-259.7 495.5,-259.7"/>
<polygon fill="none" stroke="#000000" points="495.5,-259.7 495.5,-278.7 524.5,-278.7 524.5,-259.7 495.5,-259.7"/>
<text text-anchor="start" x="505.9053" y="-265.8" font-family="Helvetica,sans-Serif" font-size="11.00" fill="#000000">1 &gt;</text>
</a>
</g>
</g>
<!-- comment&#45;&gt;review -->
<g id="edge4" class="edge">
<title>comment:w&#45;&gt;review:e</title>
<path fill="none" stroke="#000000" d="M575.88,-409.3022C553.3055,-396.6096 558.2728,-352.7 524.5,-352.7"/>
<polygon fill="#000000" stroke="#000000" points="582.222,-410.8283 589.1577,-416.2001 586.111,-411.7641 590,-412.7 590,-412.7 590,-412.7 586.111,-411.7641 590.8423,-409.1999 582.222,-410.8283 582.222,-410.8283"/>
<ellipse fill="none" stroke="#000000" cx="579.1108" cy="-410.0796" rx="3.2" ry="3.2"/>
</g>
<!-- review&#45;&gt;client -->
<g id="edge11" class="edge">
<title>review:w&#45;&gt;client:e</title>
<path fill="none" stroke="#000000" d="M401.0432,-328.638C379.1584,-321.8601 372.6146,-300.7 343.5,-300.7"/>
<polygon fill="#000000" stroke="#000000" points="407.5802,-329.5703 414.9916,-334.2639 411.5401,-330.1352 415.5,-330.7 415.5,-330.7 415.5,-330.7 411.5401,-330.1352 416.0084,-327.1361 407.5802,-329.5703 407.5802,-329.5703"/>
<ellipse fill="none" stroke="#000000" cx="404.4122" cy="-329.1184" rx="3.2" ry="3.2"/>
</g>
<!-- product -->
<g id="node10" class="node">
<title>product</title>
<g id="a_node10"><a xlink:href="../../tables/product.html" xlink:title="product" target="_top">
<polygon fill="#ffffff" stroke="transparent" points="212,-120.2 212,-181.2 303,-181.2 303,-120.2 212,-120.2"/>
<polygon fill="#f5f5f5" stroke="transparent" points="212.5,-157.7 212.5,-180.7 303.5,-180.7 303.5,-157.7 212.5,-157.7"/>
<polygon fill="none" stroke="#000000" points="212.5,-157.7 212.5,-180.7 303.5,-180.7 303.5,-157.7 212.5,-157.7"/>
<text text-anchor="start" x="217.5" y="-166.3" font-family="Helvetica,sans-Serif" font-weight="bold" font-size="11.00" fill="#000000">product</text>
<text text-anchor="start" x="269.0219" y="-165.8" font-family="Helvetica,sans-Serif" font-size="11.00" fill="#000000">[table]</text>
<polygon fill="none" stroke="#000000" points="212.5,-138.7 212.5,-157.7 303.5,-157.7 303.5,-138.7 212.5,-138.7"/>
<text text-anchor="start" x="215.5" y="-144.8" font-family="Helvetica,sans-Serif" font-size="11.00" fill="#000000">...</text>
<polygon fill="#ffffff" stroke="transparent" points="212.5,-119.7 212.5,-138.7 234.5,-138.7 234.5,-119.7 212.5,-119.7"/>
<polygon fill="none" stroke="#000000" points="212.5,-119.7 212.5,-138.7 234.5,-138.7 234.5,-119.7 212.5,-119.7"/>
<text text-anchor="start" x="215.5" y="-125.8" font-family="Helvetica,sans-Serif" font-size="11.00" fill="#000000"> &#160;</text>
<polygon fill="#ffffff" stroke="transparent" points="234.5,-119.7 234.5,-138.7 277.5,-138.7 277.5,-119.7 234.5,-119.7"/>
<polygon fill="none" stroke="#000000" points="234.5,-119.7 234.5,-138.7 277.5,-138.7 277.5,-119.7 234.5,-119.7"/>
<text text-anchor="start" x="242.1105" y="-125.8" font-family="Helvetica,sans-Serif" font-size="11.00" fill="#000000">0 rows</text>
<polygon fill="#ffffff" stroke="transparent" points="277.5,-119.7 277.5,-138.7 303.5,-138.7 303.5,-119.7 277.5,-119.7"/>
<polygon fill="none" stroke="#000000" points="277.5,-119.7 277.5,-138.7 303.5,-138.7 303.5,-119.7 277.5,-119.7"/>
<text text-anchor="start" x="284.9053" y="-125.8" font-family="Helvetica,sans-Serif" font-size="11.00" fill="#000000">3 &gt;</text>
</a>
</g>
</g>
<!-- review&#45;&gt;product -->
<g id="edge12" class="edge">
<title>review:w&#45;&gt;product:e</title>
<path fill="none" stroke="#000000" d="M401.2748,-306.3541C369.5788,-293.4376 404.9129,-230.1749 374,-191.7 350.8662,-162.9072 340.435,-147.7 303.5,-147.7"/>
<polygon fill="#000000" stroke="#000000" points="407.6066,-307.3982 414.9142,-312.252 411.5533,-308.0491 415.5,-308.7 415.5,-308.7 415.5,-308.7 411.5533,-308.0491 416.0858,-305.148 407.6066,-307.3982 407.6066,-307.3982"/>
<ellipse fill="none" stroke="#000000" cx="404.4493" cy="-306.8775" rx="3.2" ry="3.2"/>
</g>
<!-- order -->
<g id="node7" class="node">
<title>order</title>
<g id="a_node7"><a xlink:href="../../tables/order.html" xlink:title="order" target="_top">
<polygon fill="#ffffff" stroke="transparent" points="415,-112.2 415,-239.2 524,-239.2 524,-112.2 415,-112.2"/>
<polygon fill="#f5f5f5" stroke="transparent" points="415.5,-215.7 415.5,-238.7 524.5,-238.7 524.5,-215.7 415.5,-215.7"/>
<polygon fill="none" stroke="#000000" points="415.5,-215.7 415.5,-238.7 524.5,-238.7 524.5,-215.7 415.5,-215.7"/>
<text text-anchor="start" x="420.5" y="-224.3" font-family="Helvetica,sans-Serif" font-weight="bold" font-size="11.00" fill="#000000">order</text>
<text text-anchor="start" x="489.5437" y="-223.8" font-family="Helvetica,sans-Serif" font-size="11.00" fill="#000000">[table]</text>
<polygon fill="none" stroke="#000000" points="415.5,-193.7 415.5,-215.7 524.5,-215.7 524.5,-193.7 415.5,-193.7"/>
<image xlink:href="../../images/primaryKeys.png" width="11px" height="12px" preserveAspectRatio="xMinYMin meet" x="420.5" y="-210.7"/>
<text text-anchor="start" x="435.5" y="-200.8" font-family="Helvetica,sans-Serif" font-size="11.00" fill="#000000">order_id</text>
<polygon fill="#ffffff" stroke="transparent" points="415.5,-171.7 415.5,-193.7 524.5,-193.7 524.5,-171.7 415.5,-171.7"/>
<polygon fill="none" stroke="#000000" points="415.5,-171.7 415.5,-193.7 524.5,-193.7 524.5,-171.7 415.5,-171.7"/>
<image xlink:href="../../images/foreignKeys.png" width="11px" height="12px" preserveAspectRatio="xMinYMin meet" x="420.5" y="-188.7"/>
<text text-anchor="start" x="435.5" y="-178.8" font-family="Helvetica,sans-Serif" font-size="11.00" fill="#000000">client_id</text>
<polygon fill="#ffffff" stroke="transparent" points="415.5,-149.7 415.5,-171.7 524.5,-171.7 524.5,-149.7 415.5,-149.7"/>
<polygon fill="none" stroke="#000000" points="415.5,-149.7 415.5,-171.7 524.5,-171.7 524.5,-149.7 415.5,-149.7"/>
<image xlink:href="../../images/foreignKeys.png" width="11px" height="12px" preserveAspectRatio="xMinYMin meet" x="420.5" y="-166.7"/>
<text text-anchor="start" x="435.5" y="-156.8" font-family="Helvetica,sans-Serif" font-size="11.00" fill="#000000">store_id</text>
<polygon fill="none" stroke="#000000" points="415.5,-130.7 415.5,-149.7 524.5,-149.7 524.5,-130.7 415.5,-130.7"/>
<text text-anchor="start" x="418.5" y="-136.8" font-family="Helvetica,sans-Serif" font-size="11.00" fill="#000000">...</text>
<polygon fill="#ffffff" stroke="transparent" points="415.5,-111.7 415.5,-130.7 450.5,-130.7 450.5,-111.7 415.5,-111.7"/>
<polygon fill="none" stroke="#000000" points="415.5,-111.7 415.5,-130.7 450.5,-130.7 450.5,-111.7 415.5,-111.7"/>
<text text-anchor="start" x="418.5" y="-117.8" font-family="Helvetica,sans-Serif" font-size="11.00" fill="#000000">&lt; 2</text>
<polygon fill="#ffffff" stroke="transparent" points="450.5,-111.7 450.5,-130.7 495.5,-130.7 495.5,-111.7 450.5,-111.7"/>
<polygon fill="none" stroke="#000000" points="450.5,-111.7 450.5,-130.7 495.5,-130.7 495.5,-111.7 450.5,-111.7"/>
<text text-anchor="start" x="460.1105" y="-117.8" font-family="Helvetica,sans-Serif" font-size="11.00" fill="#000000">0 rows</text>
<polygon fill="#ffffff" stroke="transparent" points="495.5,-111.7 495.5,-130.7 524.5,-130.7 524.5,-111.7 495.5,-111.7"/>
<polygon fill="none" stroke="#000000" points="495.5,-111.7 495.5,-130.7 524.5,-130.7 524.5,-111.7 495.5,-111.7"/>
<text text-anchor="start" x="505.9053" y="-117.8" font-family="Helvetica,sans-Serif" font-size="11.00" fill="#000000">1 &gt;</text>
</a>
</g>
</g>
<!-- order&#45;&gt;client -->
<g id="edge6" class="edge">
<title>order:w&#45;&gt;client:e</title>
<path fill="none" stroke="#000000" d="M401.2464,-185.5005C362.4572,-203.3697 399.2966,-300.7 343.5,-300.7"/>
<polygon fill="#000000" stroke="#000000" points="407.6501,-184.2424 416.1941,-186.2325 411.575,-183.4712 415.5,-182.7 415.5,-182.7 415.5,-182.7 411.575,-183.4712 414.8059,-179.1675 407.6501,-184.2424 407.6501,-184.2424"/>
<ellipse fill="none" stroke="#000000" cx="404.5101" cy="-184.8593" rx="3.2" ry="3.2"/>
</g>
<!-- store -->
<g id="node8" class="node">
<title>store</title>
<g id="a_node8"><a xlink:href="../../tables/store.html" xlink:title="store" target="_top">
<polygon fill="#ffffff" stroke="transparent" points="217.5,-38.2 217.5,-99.2 297.5,-99.2 297.5,-38.2 217.5,-38.2"/>
<polygon fill="#f5f5f5" stroke="transparent" points="217.5,-75.7 217.5,-98.7 297.5,-98.7 297.5,-75.7 217.5,-75.7"/>
<polygon fill="none" stroke="#000000" points="217.5,-75.7 217.5,-98.7 297.5,-98.7 297.5,-75.7 217.5,-75.7"/>
<text text-anchor="start" x="222.5" y="-84.3" font-family="Helvetica,sans-Serif" font-weight="bold" font-size="11.00" fill="#000000">store</text>
<text text-anchor="start" x="262.5437" y="-83.8" font-family="Helvetica,sans-Serif" font-size="11.00" fill="#000000">[table]</text>
<polygon fill="none" stroke="#000000" points="217.5,-56.7 217.5,-75.7 297.5,-75.7 297.5,-56.7 217.5,-56.7"/>
<text text-anchor="start" x="220.5" y="-62.8" font-family="Helvetica,sans-Serif" font-size="11.00" fill="#000000">...</text>
<polygon fill="#ffffff" stroke="transparent" points="217.5,-37.7 217.5,-56.7 238.5,-56.7 238.5,-37.7 217.5,-37.7"/>
<polygon fill="none" stroke="#000000" points="217.5,-37.7 217.5,-56.7 238.5,-56.7 238.5,-37.7 217.5,-37.7"/>
<text text-anchor="start" x="220.2027" y="-43.8" font-family="Helvetica,sans-Serif" font-size="11.00" fill="#000000">&lt; 1</text>
<polygon fill="#ffffff" stroke="transparent" points="238.5,-37.7 238.5,-56.7 276.5,-56.7 276.5,-37.7 238.5,-37.7"/>
<polygon fill="none" stroke="#000000" points="238.5,-37.7 238.5,-56.7 276.5,-56.7 276.5,-37.7 238.5,-37.7"/>
<text text-anchor="start" x="241.3053" y="-43.8" font-family="Helvetica,sans-Serif" font-size="11.00" fill="#000000">0 rows</text>
<polygon fill="#ffffff" stroke="transparent" points="276.5,-37.7 276.5,-56.7 297.5,-56.7 297.5,-37.7 276.5,-37.7"/>
<polygon fill="none" stroke="#000000" points="276.5,-37.7 276.5,-56.7 297.5,-56.7 297.5,-37.7 276.5,-37.7"/>
<text text-anchor="start" x="279.2027" y="-43.8" font-family="Helvetica,sans-Serif" font-size="11.00" fill="#000000">2 &gt;</text>
</a>
</g>
</g>
<!-- order&#45;&gt;store -->
<g id="edge7" class="edge">
<title>order:w&#45;&gt;store:e</title>
<path fill="none" stroke="#000000" d="M401.5701,-156.8439C389.0538,-147.7565 391.564,-124.6401 374,-109.7 344.1237,-84.2869 336.7227,-65.7 297.5,-65.7"/>
<polygon fill="#000000" stroke="#000000" points="407.79,-158.5657 414.5395,-164.1695 411.645,-159.6328 415.5,-160.7 415.5,-160.7 415.5,-160.7 411.645,-159.6328 416.4605,-157.2305 407.79,-158.5657 407.79,-158.5657"/>
<ellipse fill="none" stroke="#000000" cx="404.7059" cy="-157.7119" rx="3.2" ry="3.2"/>
</g>
<!-- store&#45;&gt;district -->
<g id="edge13" class="edge">
<title>store:w&#45;&gt;district:e</title>
<path fill="none" stroke="#000000" d="M203.1329,-66.8058C176.1976,-71.3664 168.1232,-89.4307 141,-109.7 119.8478,-125.5072 124.4061,-150.7 98,-150.7"/>
<polygon fill="#000000" stroke="#000000" points="209.5236,-66.314 217.7763,-69.2894 213.5118,-66.007 217.5,-65.7 217.5,-65.7 217.5,-65.7 213.5118,-66.007 217.2237,-62.1106 209.5236,-66.314 209.5236,-66.314"/>
<ellipse fill="none" stroke="#000000" cx="206.333" cy="-66.5596" rx="3.2" ry="3.2"/>
</g>
<!-- order_product -->
<g id="node9" class="node">
<title>order_product</title>
<g id="a_node9"><a xlink:href="../../tables/order_product.html" xlink:title="order_product" target="_top">
<polygon fill="#ffffff" stroke="transparent" points="573,-118.2 573,-179.2 707,-179.2 707,-118.2 573,-118.2"/>
<polygon fill="#f5f5f5" stroke="transparent" points="573,-155.7 573,-178.7 707,-178.7 707,-155.7 573,-155.7"/>
<polygon fill="none" stroke="#000000" points="573,-155.7 573,-178.7 707,-178.7 707,-155.7 573,-155.7"/>
<text text-anchor="start" x="578" y="-164.3" font-family="Helvetica,sans-Serif" font-weight="bold" font-size="11.00" fill="#000000">order_product</text>
<text text-anchor="start" x="672.5219" y="-163.8" font-family="Helvetica,sans-Serif" font-size="11.00" fill="#000000">[table]</text>
<polygon fill="none" stroke="#000000" points="573,-136.7 573,-155.7 707,-155.7 707,-136.7 573,-136.7"/>
<text text-anchor="start" x="576" y="-142.8" font-family="Helvetica,sans-Serif" font-size="11.00" fill="#000000">...</text>
<polygon fill="#ffffff" stroke="transparent" points="573,-117.7 573,-136.7 625,-136.7 625,-117.7 573,-117.7"/>
<polygon fill="none" stroke="#000000" points="573,-117.7 573,-136.7 625,-136.7 625,-117.7 573,-117.7"/>
<text text-anchor="start" x="576" y="-123.8" font-family="Helvetica,sans-Serif" font-size="11.00" fill="#000000">&lt; 2</text>
<polygon fill="#ffffff" stroke="transparent" points="625,-117.7 625,-136.7 679,-136.7 679,-117.7 625,-117.7"/>
<polygon fill="none" stroke="#000000" points="625,-117.7 625,-136.7 679,-136.7 679,-117.7 625,-117.7"/>
<text text-anchor="start" x="643.6105" y="-123.8" font-family="Helvetica,sans-Serif" font-size="11.00" fill="#000000">0 rows</text>
<polygon fill="#ffffff" stroke="transparent" points="679,-117.7 679,-136.7 707,-136.7 707,-117.7 679,-117.7"/>
<polygon fill="none" stroke="#000000" points="679,-117.7 679,-136.7 707,-136.7 707,-117.7 679,-117.7"/>
<text text-anchor="start" x="697.8862" y="-123.8" font-family="Helvetica,sans-Serif" font-size="11.00" fill="#000000"> &#160;</text>
</a>
</g>
</g>
<!-- order_product&#45;&gt;order -->
<g id="edge8" class="edge">
<title>order_product:w&#45;&gt;order:e</title>
<path fill="none" stroke="#000000" d="M559.2489,-150.7303C544.3013,-164.9982 552.3453,-204.7 524.5,-204.7"/>
<polygon fill="#000000" stroke="#000000" points="565.4869,-148.4484 574.2368,-149.0809 569.2435,-147.0742 573,-145.7 573,-145.7 573,-145.7 569.2435,-147.0742 571.7632,-142.3191 565.4869,-148.4484 565.4869,-148.4484"/>
<ellipse fill="none" stroke="#000000" cx="562.4817" cy="-149.5478" rx="3.2" ry="3.2"/>
</g>
<!-- order_product&#45;&gt;product -->
<g id="edge9" class="edge">
<title>order_product:w&#45;&gt;product:e</title>
<path fill="none" stroke="#000000" d="M559.3748,-140.9273C549.1616,-131.3188 550.7659,-109.8638 532,-101.7 481.0563,-79.5378 461.3453,-90.1671 407,-101.7 357.758,-112.1499 353.8386,-147.7 303.5,-147.7"/>
<polygon fill="#000000" stroke="#000000" points="565.4498,-143.0553 571.8099,-149.0976 569.2249,-144.3776 573,-145.7 573,-145.7 573,-145.7 569.2249,-144.3776 574.1901,-142.3024 565.4498,-143.0553 565.4498,-143.0553"/>
<ellipse fill="none" stroke="#000000" cx="562.4297" cy="-141.9974" rx="3.2" ry="3.2"/>
</g>
<!-- password_change_request -->
<g id="node11" class="node">
<title>password_change_request</title>
<g id="a_node11"><a xlink:href="../../tables/password_change_request.html" xlink:title="password_change_request" target="_top">
<polygon fill="#ffffff" stroke="transparent" points="149,-358.2 149,-419.2 366,-419.2 366,-358.2 149,-358.2"/>
<polygon fill="#f5f5f5" stroke="transparent" points="149.5,-395.7 149.5,-418.7 366.5,-418.7 366.5,-395.7 149.5,-395.7"/>
<polygon fill="none" stroke="#000000" points="149.5,-395.7 149.5,-418.7 366.5,-418.7 366.5,-395.7 149.5,-395.7"/>
<text text-anchor="start" x="154.5" y="-404.3" font-family="Helvetica,sans-Serif" font-weight="bold" font-size="11.00" fill="#000000">password_change_request</text>
<text text-anchor="start" x="332.0219" y="-403.8" font-family="Helvetica,sans-Serif" font-size="11.00" fill="#000000">[table]</text>
<polygon fill="none" stroke="#000000" points="149.5,-376.7 149.5,-395.7 366.5,-395.7 366.5,-376.7 149.5,-376.7"/>
<text text-anchor="start" x="152.5" y="-382.8" font-family="Helvetica,sans-Serif" font-size="11.00" fill="#000000">...</text>
<polygon fill="#ffffff" stroke="transparent" points="149.5,-357.7 149.5,-376.7 243.5,-376.7 243.5,-357.7 149.5,-357.7"/>
<polygon fill="none" stroke="#000000" points="149.5,-357.7 149.5,-376.7 243.5,-376.7 243.5,-357.7 149.5,-357.7"/>
<text text-anchor="start" x="152.5" y="-363.8" font-family="Helvetica,sans-Serif" font-size="11.00" fill="#000000">&lt; 1</text>
<polygon fill="#ffffff" stroke="transparent" points="243.5,-357.7 243.5,-376.7 317.5,-376.7 317.5,-357.7 243.5,-357.7"/>
<polygon fill="none" stroke="#000000" points="243.5,-357.7 243.5,-376.7 317.5,-376.7 317.5,-357.7 243.5,-357.7"/>
<text text-anchor="start" x="282.1105" y="-363.8" font-family="Helvetica,sans-Serif" font-size="11.00" fill="#000000">0 rows</text>
<polygon fill="#ffffff" stroke="transparent" points="317.5,-357.7 317.5,-376.7 366.5,-376.7 366.5,-357.7 317.5,-357.7"/>
<polygon fill="none" stroke="#000000" points="317.5,-357.7 317.5,-376.7 366.5,-376.7 366.5,-357.7 317.5,-357.7"/>
<text text-anchor="start" x="357.3862" y="-363.8" font-family="Helvetica,sans-Serif" font-size="11.00" fill="#000000"> &#160;</text>
</a>
</g>
</g>
<!-- password_change_request&#45;&gt;user -->
<g id="edge10" class="edge">
<title>password_change_request:w&#45;&gt;user:e</title>
<path fill="none" stroke="#000000" d="M135.3253,-389.7323C123.2205,-397.7007 119.5215,-414.7 100,-414.7"/>
<polygon fill="#000000" stroke="#000000" points="141.8053,-387.889 150.485,-389.1626 145.6526,-386.7945 149.5,-385.7 149.5,-385.7 149.5,-385.7 145.6526,-386.7945 148.515,-382.2374 141.8053,-387.889 141.8053,-387.889"/>
<ellipse fill="none" stroke="#000000" cx="138.7274" cy="-388.7646" rx="3.2" ry="3.2"/>
</g>
</g>
</svg>
