<?xml version="1.0" encoding="UTF-8" standalone="no"?>
<!DOCTYPE svg PUBLIC "-//W3C//DTD SVG 1.1//EN"
 "http://www.w3.org/Graphics/SVG/1.1/DTD/svg11.dtd">
<!-- Generated by graphviz version 2.40.1 (20161225.0304)
 -->
<!-- Title: twoDegreesRelationshipsDiagram Pages: 1 -->
<svg width="852pt" height="423pt"
 viewBox="0.00 0.00 852.14 422.70" xmlns="http://www.w3.org/2000/svg" xmlns:xlink="http://www.w3.org/1999/xlink">
<g id="graph0" class="graph" transform="scale(1 1) rotate(0) translate(4 418.7)">
<title>twoDegreesRelationshipsDiagram</title>
<polygon fill="#ffffff" stroke="transparent" points="-4,4 -4,-418.7 848.1406,-418.7 848.1406,4 -4,4"/>
<text text-anchor="middle" x="72.4936" y="-7.3" font-family="Helvetica,sans-Serif" font-size="11.00" fill="#000000">Generated by SchemaSpy</text>
<!-- administrator -->
<g id="node1" class="node">
<title>administrator</title>
<g id="a_node1"><a xlink:href="../../tables/administrator.html" xlink:title="administrator" target="_top">
<polygon fill="#ffffff" stroke="transparent" points="192,-312.2 192,-373.2 323,-373.2 323,-312.2 192,-312.2"/>
<polygon fill="#f5f5f5" stroke="transparent" points="192.5,-349.7 192.5,-372.7 323.5,-372.7 323.5,-349.7 192.5,-349.7"/>
<polygon fill="none" stroke="#000000" points="192.5,-349.7 192.5,-372.7 323.5,-372.7 323.5,-349.7 192.5,-349.7"/>
<text text-anchor="start" x="197.5" y="-358.3" font-family="Helvetica,sans-Serif" font-weight="bold" font-size="11.00" fill="#000000">administrator</text>
<text text-anchor="start" x="289.0219" y="-357.8" font-family="Helvetica,sans-Serif" font-size="11.00" fill="#000000">[table]</text>
<polygon fill="none" stroke="#000000" points="192.5,-330.7 192.5,-349.7 323.5,-349.7 323.5,-330.7 192.5,-330.7"/>
<text text-anchor="start" x="195.5" y="-336.8" font-family="Helvetica,sans-Serif" font-size="11.00" fill="#000000">...</text>
<polygon fill="#ffffff" stroke="transparent" points="192.5,-311.7 192.5,-330.7 243.5,-330.7 243.5,-311.7 192.5,-311.7"/>
<polygon fill="none" stroke="#000000" points="192.5,-311.7 192.5,-330.7 243.5,-330.7 243.5,-311.7 192.5,-311.7"/>
<text text-anchor="start" x="195.5" y="-317.8" font-family="Helvetica,sans-Serif" font-size="11.00" fill="#000000">&lt; 1</text>
<polygon fill="#ffffff" stroke="transparent" points="243.5,-311.7 243.5,-330.7 296.5,-330.7 296.5,-311.7 243.5,-311.7"/>
<polygon fill="none" stroke="#000000" points="243.5,-311.7 243.5,-330.7 296.5,-330.7 296.5,-311.7 243.5,-311.7"/>
<text text-anchor="start" x="261.1105" y="-317.8" font-family="Helvetica,sans-Serif" font-size="11.00" fill="#000000">0 rows</text>
<polygon fill="#ffffff" stroke="transparent" points="296.5,-311.7 296.5,-330.7 323.5,-330.7 323.5,-311.7 296.5,-311.7"/>
<polygon fill="none" stroke="#000000" points="296.5,-311.7 296.5,-330.7 323.5,-330.7 323.5,-311.7 296.5,-311.7"/>
<text text-anchor="start" x="314.3862" y="-317.8" font-family="Helvetica,sans-Serif" font-size="11.00" fill="#000000"> &#160;</text>
</a>
</g>
</g>
<!-- user -->
<g id="node2" class="node">
<title>user</title>
<g id="a_node2"><a xlink:href="../../tables/user.html" xlink:title="user" target="_top">
<polygon fill="#ffffff" stroke="transparent" points="8,-188.2 8,-293.2 100,-293.2 100,-188.2 8,-188.2"/>
<polygon fill="#f5f5f5" stroke="transparent" points="8,-269.7 8,-292.7 100,-292.7 100,-269.7 8,-269.7"/>
<polygon fill="none" stroke="#000000" points="8,-269.7 8,-292.7 100,-292.7 100,-269.7 8,-269.7"/>
<text text-anchor="start" x="13" y="-278.3" font-family="Helvetica,sans-Serif" font-weight="bold" font-size="11.00" fill="#000000">user</text>
<text text-anchor="start" x="65.0437" y="-277.8" font-family="Helvetica,sans-Serif" font-size="11.00" fill="#000000">[table]</text>
<polygon fill="none" stroke="#000000" points="8,-247.7 8,-269.7 100,-269.7 100,-247.7 8,-247.7"/>
<image xlink:href="../../images/primaryKeys.png" width="11px" height="12px" preserveAspectRatio="xMinYMin meet" x="13" y="-264.7"/>
<text text-anchor="start" x="28" y="-254.8" font-family="Helvetica,sans-Serif" font-size="11.00" fill="#000000">user_id</text>
<polygon fill="#ffffff" stroke="transparent" points="8,-225.7 8,-247.7 100,-247.7 100,-225.7 8,-225.7"/>
<polygon fill="none" stroke="#000000" points="8,-225.7 8,-247.7 100,-247.7 100,-225.7 8,-225.7"/>
<text text-anchor="start" x="28" y="-232.8" font-family="Helvetica,sans-Serif" font-size="11.00" fill="#000000">email</text>
<polygon fill="none" stroke="#000000" points="8,-206.7 8,-225.7 100,-225.7 100,-206.7 8,-206.7"/>
<text text-anchor="start" x="11" y="-212.8" font-family="Helvetica,sans-Serif" font-size="11.00" fill="#000000">...</text>
<polygon fill="#ffffff" stroke="transparent" points="8,-187.7 8,-206.7 30,-206.7 30,-187.7 8,-187.7"/>
<polygon fill="none" stroke="#000000" points="8,-187.7 8,-206.7 30,-206.7 30,-187.7 8,-187.7"/>
<text text-anchor="start" x="11" y="-193.8" font-family="Helvetica,sans-Serif" font-size="11.00" fill="#000000"> &#160;</text>
<polygon fill="#ffffff" stroke="transparent" points="30,-187.7 30,-206.7 73,-206.7 73,-187.7 30,-187.7"/>
<polygon fill="none" stroke="#000000" points="30,-187.7 30,-206.7 73,-206.7 73,-187.7 30,-187.7"/>
<text text-anchor="start" x="37.6105" y="-193.8" font-family="Helvetica,sans-Serif" font-size="11.00" fill="#000000">0 rows</text>
<polygon fill="#ffffff" stroke="transparent" points="73,-187.7 73,-206.7 100,-206.7 100,-187.7 73,-187.7"/>
<polygon fill="none" stroke="#000000" points="73,-187.7 73,-206.7 100,-206.7 100,-187.7 73,-187.7"/>
<text text-anchor="start" x="81.4053" y="-193.8" font-family="Helvetica,sans-Serif" font-size="11.00" fill="#000000">4 &gt;</text>
</a>
</g>
</g>
<!-- administrator&#45;&gt;user -->
<g id="edge1" class="edge">
<title>administrator:w&#45;&gt;user:e</title>
<path fill="none" stroke="#000000" d="M181.9199,-338.5047C162.6002,-333.6098 160.1309,-314.5561 141,-297.7 122.1302,-281.0739 125.1494,-258.7 100,-258.7"/>
<polygon fill="#000000" stroke="#000000" points="192.1541,-335.6355 191.256,-343.5849 189.6661,-343.4053 190.5643,-335.4558 192.1541,-335.6355"/>
<polyline fill="none" stroke="#000000" points="192.5,-339.7 188.5253,-339.2509 "/>
<ellipse fill="none" stroke="#000000" cx="185.3455" cy="-338.8916" rx="3.2" ry="3.2"/>
</g>
<!-- client -->
<g id="node3" class="node">
<title>client</title>
<g id="a_node3"><a xlink:href="../../tables/client.html" xlink:title="client" target="_top">
<polygon fill="#ffffff" stroke="transparent" points="217.5,-202.2 217.5,-263.2 297.5,-263.2 297.5,-202.2 217.5,-202.2"/>
<polygon fill="#f5f5f5" stroke="transparent" points="217.5,-239.7 217.5,-262.7 297.5,-262.7 297.5,-239.7 217.5,-239.7"/>
<polygon fill="none" stroke="#000000" points="217.5,-239.7 217.5,-262.7 297.5,-262.7 297.5,-239.7 217.5,-239.7"/>
<text text-anchor="start" x="222.5" y="-248.3" font-family="Helvetica,sans-Serif" font-weight="bold" font-size="11.00" fill="#000000">client</text>
<text text-anchor="start" x="262.5437" y="-247.8" font-family="Helvetica,sans-Serif" font-size="11.00" fill="#000000">[table]</text>
<polygon fill="none" stroke="#000000" points="217.5,-220.7 217.5,-239.7 297.5,-239.7 297.5,-220.7 217.5,-220.7"/>
<text text-anchor="start" x="220.5" y="-226.8" font-family="Helvetica,sans-Serif" font-size="11.00" fill="#000000">...</text>
<polygon fill="#ffffff" stroke="transparent" points="217.5,-201.7 217.5,-220.7 238.5,-220.7 238.5,-201.7 217.5,-201.7"/>
<polygon fill="none" stroke="#000000" points="217.5,-201.7 217.5,-220.7 238.5,-220.7 238.5,-201.7 217.5,-201.7"/>
<text text-anchor="start" x="220.2027" y="-207.8" font-family="Helvetica,sans-Serif" font-size="11.00" fill="#000000">&lt; 2</text>
<polygon fill="#ffffff" stroke="transparent" points="238.5,-201.7 238.5,-220.7 276.5,-220.7 276.5,-201.7 238.5,-201.7"/>
<polygon fill="none" stroke="#000000" points="238.5,-201.7 238.5,-220.7 276.5,-220.7 276.5,-201.7 238.5,-201.7"/>
<text text-anchor="start" x="241.3053" y="-207.8" font-family="Helvetica,sans-Serif" font-size="11.00" fill="#000000">0 rows</text>
<polygon fill="#ffffff" stroke="transparent" points="276.5,-201.7 276.5,-220.7 297.5,-220.7 297.5,-201.7 276.5,-201.7"/>
<polygon fill="none" stroke="#000000" points="276.5,-201.7 276.5,-220.7 297.5,-220.7 297.5,-201.7 276.5,-201.7"/>
<text text-anchor="start" x="279.2027" y="-207.8" font-family="Helvetica,sans-Serif" font-size="11.00" fill="#000000">2 &gt;</text>
</a>
</g>
</g>
<!-- client&#45;&gt;user -->
<g id="edge2" class="edge">
<title>client:w&#45;&gt;user:e</title>
<path fill="none" stroke="#000000" d="M207.056,-230.088C162.1493,-233.5293 150.1123,-258.7 100,-258.7"/>
<polygon fill="#000000" stroke="#000000" points="216.552,-225.7325 216.8491,-233.727 215.2502,-233.7864 214.9531,-225.7919 216.552,-225.7325"/>
<polyline fill="none" stroke="#000000" points="217.5,-229.7 213.5028,-229.8485 "/>
<ellipse fill="none" stroke="#000000" cx="210.305" cy="-229.9674" rx="3.2" ry="3.2"/>
</g>
<!-- comment -->
<g id="node4" class="node">
<title>comment</title>
<g id="a_node4"><a xlink:href="../../tables/comment.html" xlink:title="comment" target="_top">
<polygon fill="#ffffff" stroke="transparent" points="573,-214.7 573,-392.7 813,-392.7 813,-214.7 573,-214.7"/>
<polygon fill="#f5f5f5" stroke="transparent" points="575,-367.7 575,-390.7 811,-390.7 811,-367.7 575,-367.7"/>
<polygon fill="none" stroke="#000000" points="575,-367.7 575,-390.7 811,-390.7 811,-367.7 575,-367.7"/>
<text text-anchor="start" x="580" y="-376.3" font-family="Helvetica,sans-Serif" font-weight="bold" font-size="11.00" fill="#000000">comment</text>
<text text-anchor="start" x="776.0437" y="-375.8" font-family="Helvetica,sans-Serif" font-size="11.00" fill="#000000">[table]</text>
<polygon fill="none" stroke="#000000" points="575,-345.7 575,-367.7 728,-367.7 728,-345.7 575,-345.7"/>
<image xlink:href="../../images/primaryKeys.png" width="11px" height="12px" preserveAspectRatio="xMinYMin meet" x="580" y="-362.7"/>
<text text-anchor="start" x="595" y="-352.8" font-family="Helvetica,sans-Serif" font-size="11.00" fill="#000000">comment_id</text>
<polygon fill="none" stroke="#000000" points="728,-345.7 728,-367.7 811,-367.7 811,-345.7 728,-345.7"/>
<text text-anchor="start" x="730.6783" y="-353.4" font-family="Helvetica,sans-Serif" font-size="11.00" fill="#000000">int unsigned[10]</text>
<polygon fill="none" stroke="#000000" points="575,-323.7 575,-345.7 728,-345.7 728,-323.7 575,-323.7"/>
<text text-anchor="start" x="595" y="-330.8" font-family="Helvetica,sans-Serif" font-size="11.00" fill="#000000">text</text>
<polygon fill="none" stroke="#000000" points="728,-323.7 728,-345.7 811,-345.7 811,-323.7 728,-323.7"/>
<text text-anchor="start" x="731" y="-331.4" font-family="Helvetica,sans-Serif" font-size="11.00" fill="#000000">varchar[2000]</text>
<polygon fill="none" stroke="#000000" points="575,-301.7 575,-323.7 728,-323.7 728,-301.7 575,-301.7"/>
<text text-anchor="start" x="595" y="-308.8" font-family="Helvetica,sans-Serif" font-size="11.00" fill="#000000">created_date</text>
<polygon fill="none" stroke="#000000" points="728,-301.7 728,-323.7 811,-323.7 811,-301.7 728,-301.7"/>
<text text-anchor="start" x="731" y="-309.4" font-family="Helvetica,sans-Serif" font-size="11.00" fill="#000000">datetime[19]</text>
<polygon fill="#ffffff" stroke="transparent" points="575,-279.7 575,-301.7 728,-301.7 728,-279.7 575,-279.7"/>
<polygon fill="none" stroke="#000000" points="575,-279.7 575,-301.7 728,-301.7 728,-279.7 575,-279.7"/>
<image xlink:href="../../images/foreignKeys.png" width="11px" height="12px" preserveAspectRatio="xMinYMin meet" x="580" y="-296.7"/>
<text text-anchor="start" x="595" y="-286.8" font-family="Helvetica,sans-Serif" font-size="11.00" fill="#000000">parent_comment_id</text>
<polygon fill="none" stroke="#000000" points="728,-279.7 728,-301.7 811,-301.7 811,-279.7 728,-279.7"/>
<text text-anchor="start" x="730.6783" y="-287.4" font-family="Helvetica,sans-Serif" font-size="11.00" fill="#000000">int unsigned[10]</text>
<polygon fill="#ffffff" stroke="transparent" points="575,-257.7 575,-279.7 728,-279.7 728,-257.7 575,-257.7"/>
<polygon fill="none" stroke="#000000" points="575,-257.7 575,-279.7 728,-279.7 728,-257.7 575,-257.7"/>
<image xlink:href="../../images/foreignKeys.png" width="11px" height="12px" preserveAspectRatio="xMinYMin meet" x="580" y="-274.7"/>
<text text-anchor="start" x="595" y="-264.8" font-family="Helvetica,sans-Serif" font-size="11.00" fill="#000000">user_id</text>
<polygon fill="none" stroke="#000000" points="728,-257.7 728,-279.7 811,-279.7 811,-257.7 728,-257.7"/>
<text text-anchor="start" x="730.6783" y="-265.4" font-family="Helvetica,sans-Serif" font-size="11.00" fill="#000000">int unsigned[10]</text>
<polygon fill="#ffffff" stroke="transparent" points="575,-235.7 575,-257.7 728,-257.7 728,-235.7 575,-235.7"/>
<polygon fill="none" stroke="#000000" points="575,-235.7 575,-257.7 728,-257.7 728,-235.7 575,-235.7"/>
<image xlink:href="../../images/foreignKeys.png" width="11px" height="12px" preserveAspectRatio="xMinYMin meet" x="580" y="-252.7"/>
<text text-anchor="start" x="595" y="-242.8" font-family="Helvetica,sans-Serif" font-size="11.00" fill="#000000">review_id</text>
<polygon fill="none" stroke="#000000" points="728,-235.7 728,-257.7 811,-257.7 811,-235.7 728,-235.7"/>
<text text-anchor="start" x="730.6783" y="-243.4" font-family="Helvetica,sans-Serif" font-size="11.00" fill="#000000">int unsigned[10]</text>
<polygon fill="#ffffff" stroke="transparent" points="575,-216.7 575,-235.7 643,-235.7 643,-216.7 575,-216.7"/>
<polygon fill="none" stroke="#000000" points="575,-216.7 575,-235.7 643,-235.7 643,-216.7 575,-216.7"/>
<text text-anchor="start" x="578" y="-222.8" font-family="Helvetica,sans-Serif" font-size="11.00" fill="#000000">&lt; 3</text>
<polygon fill="#ffffff" stroke="transparent" points="643,-216.7 643,-235.7 728,-235.7 728,-216.7 643,-216.7"/>
<polygon fill="none" stroke="#000000" points="643,-216.7 643,-235.7 728,-235.7 728,-216.7 643,-216.7"/>
<text text-anchor="start" x="692.6105" y="-222.8" font-family="Helvetica,sans-Serif" font-size="11.00" fill="#000000">0 rows</text>
<polygon fill="#ffffff" stroke="transparent" points="728,-216.7 728,-235.7 811,-235.7 811,-216.7 728,-216.7"/>
<polygon fill="none" stroke="#000000" points="728,-216.7 728,-235.7 811,-235.7 811,-216.7 728,-216.7"/>
<text text-anchor="start" x="792.4053" y="-222.8" font-family="Helvetica,sans-Serif" font-size="11.00" fill="#000000">1 &gt;</text>
<polygon fill="none" stroke="#000000" stroke-width="2" points="574,-215.7 574,-391.7 812,-391.7 812,-215.7 574,-215.7"/>
</a>
</g>
</g>
<!-- comment&#45;&gt;user -->
<g id="edge5" class="edge">
<title>comment:w&#45;&gt;user:e</title>
<path fill="none" stroke="#000000" d="M560.3701,-269.6355C551.4837,-270.8585 545.2053,-272.9348 532,-273.7 358.5132,-283.7526 312.1126,-304.0184 141,-273.7 121.8941,-270.3147 119.4034,-258.7 100,-258.7"/>
<polygon fill="#000000" stroke="#000000" points="567.0163,-269.2106 575.2298,-272.2927 571.0082,-268.9553 575,-268.7 575,-268.7 575,-268.7 571.0082,-268.9553 574.7702,-265.1073 567.0163,-269.2106 567.0163,-269.2106"/>
<ellipse fill="none" stroke="#000000" cx="563.8228" cy="-269.4148" rx="3.2" ry="3.2"/>
</g>
<!-- comment&#45;&gt;comment -->
<g id="edge3" class="edge">
<title>comment:w&#45;&gt;comment:e</title>
<path fill="none" stroke="#000000" d="M563.3356,-299.5572C520.5067,-338.294 532.7158,-409.7 693,-409.7 866.5,-409.7 866.5,-392.0333 811,-356.7"/>
<polygon fill="#000000" stroke="#000000" points="568.6287,-295.538 577.1771,-293.5671 571.8143,-293.119 575,-290.7 575,-290.7 575,-290.7 571.8143,-293.119 572.8229,-287.8329 568.6287,-295.538 568.6287,-295.538"/>
<ellipse fill="none" stroke="#000000" cx="566.0801" cy="-297.4732" rx="3.2" ry="3.2"/>
</g>
<!-- review -->
<g id="node5" class="node">
<title>review</title>
<g id="a_node5"><a xlink:href="../../tables/review.html" xlink:title="review" target="_top">
<polygon fill="#ffffff" stroke="transparent" points="415,-136.2 415,-263.2 524,-263.2 524,-136.2 415,-136.2"/>
<polygon fill="#f5f5f5" stroke="transparent" points="415.5,-239.7 415.5,-262.7 524.5,-262.7 524.5,-239.7 415.5,-239.7"/>
<polygon fill="none" stroke="#000000" points="415.5,-239.7 415.5,-262.7 524.5,-262.7 524.5,-239.7 415.5,-239.7"/>
<text text-anchor="start" x="420.5" y="-248.3" font-family="Helvetica,sans-Serif" font-weight="bold" font-size="11.00" fill="#000000">review</text>
<text text-anchor="start" x="489.5437" y="-247.8" font-family="Helvetica,sans-Serif" font-size="11.00" fill="#000000">[table]</text>
<polygon fill="none" stroke="#000000" points="415.5,-217.7 415.5,-239.7 524.5,-239.7 524.5,-217.7 415.5,-217.7"/>
<image xlink:href="../../images/primaryKeys.png" width="11px" height="12px" preserveAspectRatio="xMinYMin meet" x="420.5" y="-234.7"/>
<text text-anchor="start" x="435.5" y="-224.8" font-family="Helvetica,sans-Serif" font-size="11.00" fill="#000000">review_id</text>
<polygon fill="#ffffff" stroke="transparent" points="415.5,-195.7 415.5,-217.7 524.5,-217.7 524.5,-195.7 415.5,-195.7"/>
<polygon fill="none" stroke="#000000" points="415.5,-195.7 415.5,-217.7 524.5,-217.7 524.5,-195.7 415.5,-195.7"/>
<image xlink:href="../../images/foreignKeys.png" width="11px" height="12px" preserveAspectRatio="xMinYMin meet" x="420.5" y="-212.7"/>
<text text-anchor="start" x="435.5" y="-202.8" font-family="Helvetica,sans-Serif" font-size="11.00" fill="#000000">client_id</text>
<polygon fill="#ffffff" stroke="transparent" points="415.5,-173.7 415.5,-195.7 524.5,-195.7 524.5,-173.7 415.5,-173.7"/>
<polygon fill="none" stroke="#000000" points="415.5,-173.7 415.5,-195.7 524.5,-195.7 524.5,-173.7 415.5,-173.7"/>
<image xlink:href="../../images/foreignKeys.png" width="11px" height="12px" preserveAspectRatio="xMinYMin meet" x="420.5" y="-190.7"/>
<text text-anchor="start" x="435.5" y="-180.8" font-family="Helvetica,sans-Serif" font-size="11.00" fill="#000000">product_id</text>
<polygon fill="none" stroke="#000000" points="415.5,-154.7 415.5,-173.7 524.5,-173.7 524.5,-154.7 415.5,-154.7"/>
<text text-anchor="start" x="418.5" y="-160.8" font-family="Helvetica,sans-Serif" font-size="11.00" fill="#000000">...</text>
<polygon fill="#ffffff" stroke="transparent" points="415.5,-135.7 415.5,-154.7 450.5,-154.7 450.5,-135.7 415.5,-135.7"/>
<polygon fill="none" stroke="#000000" points="415.5,-135.7 415.5,-154.7 450.5,-154.7 450.5,-135.7 415.5,-135.7"/>
<text text-anchor="start" x="418.5" y="-141.8" font-family="Helvetica,sans-Serif" font-size="11.00" fill="#000000">&lt; 2</text>
<polygon fill="#ffffff" stroke="transparent" points="450.5,-135.7 450.5,-154.7 495.5,-154.7 495.5,-135.7 450.5,-135.7"/>
<polygon fill="none" stroke="#000000" points="450.5,-135.7 450.5,-154.7 495.5,-154.7 495.5,-135.7 450.5,-135.7"/>
<text text-anchor="start" x="460.1105" y="-141.8" font-family="Helvetica,sans-Serif" font-size="11.00" fill="#000000">0 rows</text>
<polygon fill="#ffffff" stroke="transparent" points="495.5,-135.7 495.5,-154.7 524.5,-154.7 524.5,-135.7 495.5,-135.7"/>
<polygon fill="none" stroke="#000000" points="495.5,-135.7 495.5,-154.7 524.5,-154.7 524.5,-135.7 495.5,-135.7"/>
<text text-anchor="start" x="505.9053" y="-141.8" font-family="Helvetica,sans-Serif" font-size="11.00" fill="#000000">1 &gt;</text>
</a>
</g>
</g>
<!-- comment&#45;&gt;review -->
<g id="edge4" class="edge">
<title>comment:w&#45;&gt;review:e</title>
<path fill="none" stroke="#000000" d="M560.7839,-244.044C548.5637,-239.037 542.5568,-228.7 524.5,-228.7"/>
<polygon fill="#000000" stroke="#000000" points="567.1361,-245.2308 574.3388,-250.2388 571.068,-245.9654 575,-246.7 575,-246.7 575,-246.7 571.068,-245.9654 575.6612,-243.1612 567.1361,-245.2308 567.1361,-245.2308"/>
<ellipse fill="none" stroke="#000000" cx="563.9905" cy="-244.6431" rx="3.2" ry="3.2"/>
</g>
<!-- review&#45;&gt;client -->
<g id="edge7" class="edge">
<title>review:w&#45;&gt;client:e</title>
<path fill="none" stroke="#000000" d="M400.9775,-207.3152C359.49,-210.9728 345.7135,-229.7 297.5,-229.7"/>
<polygon fill="#000000" stroke="#000000" points="407.5072,-207.0386 415.6524,-210.2968 411.5036,-206.8693 415.5,-206.7 415.5,-206.7 415.5,-206.7 411.5036,-206.8693 415.3476,-203.1032 407.5072,-207.0386 407.5072,-207.0386"/>
<ellipse fill="none" stroke="#000000" cx="404.31" cy="-207.1741" rx="3.2" ry="3.2"/>
</g>
<!-- product -->
<g id="node7" class="node">
<title>product</title>
<g id="a_node7"><a xlink:href="../../tables/product.html" xlink:title="product" target="_top">
<polygon fill="#ffffff" stroke="transparent" points="212,-120.2 212,-181.2 303,-181.2 303,-120.2 212,-120.2"/>
<polygon fill="#f5f5f5" stroke="transparent" points="212.5,-157.7 212.5,-180.7 303.5,-180.7 303.5,-157.7 212.5,-157.7"/>
<polygon fill="none" stroke="#000000" points="212.5,-157.7 212.5,-180.7 303.5,-180.7 303.5,-157.7 212.5,-157.7"/>
<text text-anchor="start" x="217.5" y="-166.3" font-family="Helvetica,sans-Serif" font-weight="bold" font-size="11.00" fill="#000000">product</text>
<text text-anchor="start" x="269.0219" y="-165.8" font-family="Helvetica,sans-Serif" font-size="11.00" fill="#000000">[table]</text>
<polygon fill="none" stroke="#000000" points="212.5,-138.7 212.5,-157.7 303.5,-157.7 303.5,-138.7 212.5,-138.7"/>
<text text-anchor="start" x="215.5" y="-144.8" font-family="Helvetica,sans-Serif" font-size="11.00" fill="#000000">...</text>
<polygon fill="#ffffff" stroke="transparent" points="212.5,-119.7 212.5,-138.7 234.5,-138.7 234.5,-119.7 212.5,-119.7"/>
<polygon fill="none" stroke="#000000" points="212.5,-119.7 212.5,-138.7 234.5,-138.7 234.5,-119.7 212.5,-119.7"/>
<text text-anchor="start" x="215.5" y="-125.8" font-family="Helvetica,sans-Serif" font-size="11.00" fill="#000000"> &#160;</text>
<polygon fill="#ffffff" stroke="transparent" points="234.5,-119.7 234.5,-138.7 277.5,-138.7 277.5,-119.7 234.5,-119.7"/>
<polygon fill="none" stroke="#000000" points="234.5,-119.7 234.5,-138.7 277.5,-138.7 277.5,-119.7 234.5,-119.7"/>
<text text-anchor="start" x="242.1105" y="-125.8" font-family="Helvetica,sans-Serif" font-size="11.00" fill="#000000">0 rows</text>
<polygon fill="#ffffff" stroke="transparent" points="277.5,-119.7 277.5,-138.7 303.5,-138.7 303.5,-119.7 277.5,-119.7"/>
<polygon fill="none" stroke="#000000" points="277.5,-119.7 277.5,-138.7 303.5,-138.7 303.5,-119.7 277.5,-119.7"/>
<text text-anchor="start" x="284.9053" y="-125.8" font-family="Helvetica,sans-Serif" font-size="11.00" fill="#000000">3 &gt;</text>
</a>
</g>
</g>
<!-- review&#45;&gt;product -->
<g id="edge8" class="edge">
<title>review:w&#45;&gt;product:e</title>
<path fill="none" stroke="#000000" d="M401.0924,-183.6718C361.2022,-177.696 350.7018,-147.7 303.5,-147.7"/>
<polygon fill="#000000" stroke="#000000" points="407.5203,-184.1305 415.2437,-188.2909 411.5101,-184.4152 415.5,-184.7 415.5,-184.7 415.5,-184.7 411.5101,-184.4152 415.7563,-181.1091 407.5203,-184.1305 407.5203,-184.1305"/>
<ellipse fill="none" stroke="#000000" cx="404.3284" cy="-183.9027" rx="3.2" ry="3.2"/>
</g>
<!-- password_change_request -->
<g id="node6" class="node">
<title>password_change_request</title>
<g id="a_node6"><a xlink:href="../../tables/password_change_request.html" xlink:title="password_change_request" target="_top">
<polygon fill="#ffffff" stroke="transparent" points="149,-38.2 149,-99.2 366,-99.2 366,-38.2 149,-38.2"/>
<polygon fill="#f5f5f5" stroke="transparent" points="149.5,-75.7 149.5,-98.7 366.5,-98.7 366.5,-75.7 149.5,-75.7"/>
<polygon fill="none" stroke="#000000" points="149.5,-75.7 149.5,-98.7 366.5,-98.7 366.5,-75.7 149.5,-75.7"/>
<text text-anchor="start" x="154.5" y="-84.3" font-family="Helvetica,sans-Serif" font-weight="bold" font-size="11.00" fill="#000000">password_change_request</text>
<text text-anchor="start" x="332.0219" y="-83.8" font-family="Helvetica,sans-Serif" font-size="11.00" fill="#000000">[table]</text>
<polygon fill="none" stroke="#000000" points="149.5,-56.7 149.5,-75.7 366.5,-75.7 366.5,-56.7 149.5,-56.7"/>
<text text-anchor="start" x="152.5" y="-62.8" font-family="Helvetica,sans-Serif" font-size="11.00" fill="#000000">...</text>
<polygon fill="#ffffff" stroke="transparent" points="149.5,-37.7 149.5,-56.7 243.5,-56.7 243.5,-37.7 149.5,-37.7"/>
<polygon fill="none" stroke="#000000" points="149.5,-37.7 149.5,-56.7 243.5,-56.7 243.5,-37.7 149.5,-37.7"/>
<text text-anchor="start" x="152.5" y="-43.8" font-family="Helvetica,sans-Serif" font-size="11.00" fill="#000000">&lt; 1</text>
<polygon fill="#ffffff" stroke="transparent" points="243.5,-37.7 243.5,-56.7 317.5,-56.7 317.5,-37.7 243.5,-37.7"/>
<polygon fill="none" stroke="#000000" points="243.5,-37.7 243.5,-56.7 317.5,-56.7 317.5,-37.7 243.5,-37.7"/>
<text text-anchor="start" x="282.1105" y="-43.8" font-family="Helvetica,sans-Serif" font-size="11.00" fill="#000000">0 rows</text>
<polygon fill="#ffffff" stroke="transparent" points="317.5,-37.7 317.5,-56.7 366.5,-56.7 366.5,-37.7 317.5,-37.7"/>
<polygon fill="none" stroke="#000000" points="317.5,-37.7 317.5,-56.7 366.5,-56.7 366.5,-37.7 317.5,-37.7"/>
<text text-anchor="start" x="357.3862" y="-43.8" font-family="Helvetica,sans-Serif" font-size="11.00" fill="#000000"> &#160;</text>
</a>
</g>
</g>
<!-- password_change_request&#45;&gt;user -->
<g id="edge6" class="edge">
<title>password_change_request:w&#45;&gt;user:e</title>
<path fill="none" stroke="#000000" d="M134.9554,-68.0019C76.4974,-89.7771 182.8465,-258.7 100,-258.7"/>
<polygon fill="#000000" stroke="#000000" points="141.5983,-66.9506 150.0628,-69.2557 145.5492,-66.3253 149.5,-65.7 149.5,-65.7 149.5,-65.7 145.5492,-66.3253 148.9372,-62.1443 141.5983,-66.9506 141.5983,-66.9506"/>
<ellipse fill="none" stroke="#000000" cx="138.4377" cy="-67.4509" rx="3.2" ry="3.2"/>
</g>
</g>
</svg>
