<?xml version="1.0" encoding="UTF-8" standalone="no"?>
<!DOCTYPE svg PUBLIC "-//W3C//DTD SVG 1.1//EN"
 "http://www.w3.org/Graphics/SVG/1.1/DTD/svg11.dtd">
<!-- Generated by graphviz version 2.40.1 (20161225.0304)
 -->
<!-- Title: oneDegreeRelationshipsDiagram Pages: 1 -->
<svg width="445pt" height="359pt"
 viewBox="0.00 0.00 445.14 358.70" xmlns="http://www.w3.org/2000/svg" xmlns:xlink="http://www.w3.org/1999/xlink">
<g id="graph0" class="graph" transform="scale(1 1) rotate(0) translate(4 354.7)">
<title>oneDegreeRelationshipsDiagram</title>
<polygon fill="#ffffff" stroke="transparent" points="-4,4 -4,-354.7 441.1406,-354.7 441.1406,4 -4,4"/>
<text text-anchor="middle" x="72.4936" y="-7.3" font-family="Helvetica,sans-Serif" font-size="11.00" fill="#000000">Generated by SchemaSpy</text>
<!-- comment -->
<g id="node1" class="node">
<title>comment</title>
<g id="a_node1"><a xlink:href="../../tables/comment.html" xlink:title="comment" target="_top">
<polygon fill="#ffffff" stroke="transparent" points="166,-150.7 166,-328.7 406,-328.7 406,-150.7 166,-150.7"/>
<polygon fill="#f5f5f5" stroke="transparent" points="168,-303.7 168,-326.7 404,-326.7 404,-303.7 168,-303.7"/>
<polygon fill="none" stroke="#000000" points="168,-303.7 168,-326.7 404,-326.7 404,-303.7 168,-303.7"/>
<text text-anchor="start" x="173" y="-312.3" font-family="Helvetica,sans-Serif" font-weight="bold" font-size="11.00" fill="#000000">comment</text>
<text text-anchor="start" x="369.0437" y="-311.8" font-family="Helvetica,sans-Serif" font-size="11.00" fill="#000000">[table]</text>
<polygon fill="none" stroke="#000000" points="168,-281.7 168,-303.7 321,-303.7 321,-281.7 168,-281.7"/>
<image xlink:href="../../images/primaryKeys.png" width="11px" height="12px" preserveAspectRatio="xMinYMin meet" x="173" y="-298.7"/>
<text text-anchor="start" x="188" y="-288.8" font-family="Helvetica,sans-Serif" font-size="11.00" fill="#000000">comment_id</text>
<polygon fill="none" stroke="#000000" points="321,-281.7 321,-303.7 404,-303.7 404,-281.7 321,-281.7"/>
<text text-anchor="start" x="323.6783" y="-289.4" font-family="Helvetica,sans-Serif" font-size="11.00" fill="#000000">int unsigned[10]</text>
<polygon fill="none" stroke="#000000" points="168,-259.7 168,-281.7 321,-281.7 321,-259.7 168,-259.7"/>
<text text-anchor="start" x="188" y="-266.8" font-family="Helvetica,sans-Serif" font-size="11.00" fill="#000000">text</text>
<polygon fill="none" stroke="#000000" points="321,-259.7 321,-281.7 404,-281.7 404,-259.7 321,-259.7"/>
<text text-anchor="start" x="324" y="-267.4" font-family="Helvetica,sans-Serif" font-size="11.00" fill="#000000">varchar[2000]</text>
<polygon fill="none" stroke="#000000" points="168,-237.7 168,-259.7 321,-259.7 321,-237.7 168,-237.7"/>
<text text-anchor="start" x="188" y="-244.8" font-family="Helvetica,sans-Serif" font-size="11.00" fill="#000000">created_date</text>
<polygon fill="none" stroke="#000000" points="321,-237.7 321,-259.7 404,-259.7 404,-237.7 321,-237.7"/>
<text text-anchor="start" x="324" y="-245.4" font-family="Helvetica,sans-Serif" font-size="11.00" fill="#000000">datetime[19]</text>
<polygon fill="#ffffff" stroke="transparent" points="168,-215.7 168,-237.7 321,-237.7 321,-215.7 168,-215.7"/>
<polygon fill="none" stroke="#000000" points="168,-215.7 168,-237.7 321,-237.7 321,-215.7 168,-215.7"/>
<image xlink:href="../../images/foreignKeys.png" width="11px" height="12px" preserveAspectRatio="xMinYMin meet" x="173" y="-232.7"/>
<text text-anchor="start" x="188" y="-222.8" font-family="Helvetica,sans-Serif" font-size="11.00" fill="#000000">parent_comment_id</text>
<polygon fill="none" stroke="#000000" points="321,-215.7 321,-237.7 404,-237.7 404,-215.7 321,-215.7"/>
<text text-anchor="start" x="323.6783" y="-223.4" font-family="Helvetica,sans-Serif" font-size="11.00" fill="#000000">int unsigned[10]</text>
<polygon fill="#ffffff" stroke="transparent" points="168,-193.7 168,-215.7 321,-215.7 321,-193.7 168,-193.7"/>
<polygon fill="none" stroke="#000000" points="168,-193.7 168,-215.7 321,-215.7 321,-193.7 168,-193.7"/>
<image xlink:href="../../images/foreignKeys.png" width="11px" height="12px" preserveAspectRatio="xMinYMin meet" x="173" y="-210.7"/>
<text text-anchor="start" x="188" y="-200.8" font-family="Helvetica,sans-Serif" font-size="11.00" fill="#000000">user_id</text>
<polygon fill="none" stroke="#000000" points="321,-193.7 321,-215.7 404,-215.7 404,-193.7 321,-193.7"/>
<text text-anchor="start" x="323.6783" y="-201.4" font-family="Helvetica,sans-Serif" font-size="11.00" fill="#000000">int unsigned[10]</text>
<polygon fill="#ffffff" stroke="transparent" points="168,-171.7 168,-193.7 321,-193.7 321,-171.7 168,-171.7"/>
<polygon fill="none" stroke="#000000" points="168,-171.7 168,-193.7 321,-193.7 321,-171.7 168,-171.7"/>
<image xlink:href="../../images/foreignKeys.png" width="11px" height="12px" preserveAspectRatio="xMinYMin meet" x="173" y="-188.7"/>
<text text-anchor="start" x="188" y="-178.8" font-family="Helvetica,sans-Serif" font-size="11.00" fill="#000000">review_id</text>
<polygon fill="none" stroke="#000000" points="321,-171.7 321,-193.7 404,-193.7 404,-171.7 321,-171.7"/>
<text text-anchor="start" x="323.6783" y="-179.4" font-family="Helvetica,sans-Serif" font-size="11.00" fill="#000000">int unsigned[10]</text>
<polygon fill="#ffffff" stroke="transparent" points="168,-152.7 168,-171.7 236,-171.7 236,-152.7 168,-152.7"/>
<polygon fill="none" stroke="#000000" points="168,-152.7 168,-171.7 236,-171.7 236,-152.7 168,-152.7"/>
<text text-anchor="start" x="171" y="-158.8" font-family="Helvetica,sans-Serif" font-size="11.00" fill="#000000">&lt; 3</text>
<polygon fill="#ffffff" stroke="transparent" points="236,-152.7 236,-171.7 321,-171.7 321,-152.7 236,-152.7"/>
<polygon fill="none" stroke="#000000" points="236,-152.7 236,-171.7 321,-171.7 321,-152.7 236,-152.7"/>
<text text-anchor="start" x="285.6105" y="-158.8" font-family="Helvetica,sans-Serif" font-size="11.00" fill="#000000">0 rows</text>
<polygon fill="#ffffff" stroke="transparent" points="321,-152.7 321,-171.7 404,-171.7 404,-152.7 321,-152.7"/>
<polygon fill="none" stroke="#000000" points="321,-152.7 321,-171.7 404,-171.7 404,-152.7 321,-152.7"/>
<text text-anchor="start" x="385.4053" y="-158.8" font-family="Helvetica,sans-Serif" font-size="11.00" fill="#000000">1 &gt;</text>
<polygon fill="none" stroke="#000000" stroke-width="2" points="167,-151.7 167,-327.7 405,-327.7 405,-151.7 167,-151.7"/>
</a>
</g>
</g>
<!-- comment&#45;&gt;comment -->
<g id="edge1" class="edge">
<title>comment:w&#45;&gt;comment:e</title>
<path fill="none" stroke="#000000" d="M156.3356,-235.5572C113.5067,-274.294 125.7158,-345.7 286,-345.7 459.5,-345.7 459.5,-328.0333 404,-292.7"/>
<polygon fill="#000000" stroke="#000000" points="161.6287,-231.538 170.1771,-229.5671 164.8143,-229.119 168,-226.7 168,-226.7 168,-226.7 164.8143,-229.119 165.8229,-223.8329 161.6287,-231.538 161.6287,-231.538"/>
<ellipse fill="none" stroke="#000000" cx="159.0801" cy="-233.4732" rx="3.2" ry="3.2"/>
</g>
<!-- review -->
<g id="node2" class="node">
<title>review</title>
<g id="a_node2"><a xlink:href="../../tables/review.html" xlink:title="review" target="_top">
<polygon fill="#ffffff" stroke="transparent" points="8,-38.2 8,-165.2 117,-165.2 117,-38.2 8,-38.2"/>
<polygon fill="#f5f5f5" stroke="transparent" points="8.5,-141.7 8.5,-164.7 117.5,-164.7 117.5,-141.7 8.5,-141.7"/>
<polygon fill="none" stroke="#000000" points="8.5,-141.7 8.5,-164.7 117.5,-164.7 117.5,-141.7 8.5,-141.7"/>
<text text-anchor="start" x="13.5" y="-150.3" font-family="Helvetica,sans-Serif" font-weight="bold" font-size="11.00" fill="#000000">review</text>
<text text-anchor="start" x="82.5437" y="-149.8" font-family="Helvetica,sans-Serif" font-size="11.00" fill="#000000">[table]</text>
<polygon fill="none" stroke="#000000" points="8.5,-119.7 8.5,-141.7 117.5,-141.7 117.5,-119.7 8.5,-119.7"/>
<image xlink:href="../../images/primaryKeys.png" width="11px" height="12px" preserveAspectRatio="xMinYMin meet" x="13.5" y="-136.7"/>
<text text-anchor="start" x="28.5" y="-126.8" font-family="Helvetica,sans-Serif" font-size="11.00" fill="#000000">review_id</text>
<polygon fill="#ffffff" stroke="transparent" points="8.5,-97.7 8.5,-119.7 117.5,-119.7 117.5,-97.7 8.5,-97.7"/>
<polygon fill="none" stroke="#000000" points="8.5,-97.7 8.5,-119.7 117.5,-119.7 117.5,-97.7 8.5,-97.7"/>
<image xlink:href="../../images/foreignKeys.png" width="11px" height="12px" preserveAspectRatio="xMinYMin meet" x="13.5" y="-114.7"/>
<text text-anchor="start" x="28.5" y="-104.8" font-family="Helvetica,sans-Serif" font-size="11.00" fill="#000000">client_id</text>
<polygon fill="#ffffff" stroke="transparent" points="8.5,-75.7 8.5,-97.7 117.5,-97.7 117.5,-75.7 8.5,-75.7"/>
<polygon fill="none" stroke="#000000" points="8.5,-75.7 8.5,-97.7 117.5,-97.7 117.5,-75.7 8.5,-75.7"/>
<image xlink:href="../../images/foreignKeys.png" width="11px" height="12px" preserveAspectRatio="xMinYMin meet" x="13.5" y="-92.7"/>
<text text-anchor="start" x="28.5" y="-82.8" font-family="Helvetica,sans-Serif" font-size="11.00" fill="#000000">product_id</text>
<polygon fill="none" stroke="#000000" points="8.5,-56.7 8.5,-75.7 117.5,-75.7 117.5,-56.7 8.5,-56.7"/>
<text text-anchor="start" x="11.5" y="-62.8" font-family="Helvetica,sans-Serif" font-size="11.00" fill="#000000">...</text>
<polygon fill="#ffffff" stroke="transparent" points="8.5,-37.7 8.5,-56.7 43.5,-56.7 43.5,-37.7 8.5,-37.7"/>
<polygon fill="none" stroke="#000000" points="8.5,-37.7 8.5,-56.7 43.5,-56.7 43.5,-37.7 8.5,-37.7"/>
<text text-anchor="start" x="11.5" y="-43.8" font-family="Helvetica,sans-Serif" font-size="11.00" fill="#000000">&lt; 2</text>
<polygon fill="#ffffff" stroke="transparent" points="43.5,-37.7 43.5,-56.7 88.5,-56.7 88.5,-37.7 43.5,-37.7"/>
<polygon fill="none" stroke="#000000" points="43.5,-37.7 43.5,-56.7 88.5,-56.7 88.5,-37.7 43.5,-37.7"/>
<text text-anchor="start" x="53.1105" y="-43.8" font-family="Helvetica,sans-Serif" font-size="11.00" fill="#000000">0 rows</text>
<polygon fill="#ffffff" stroke="transparent" points="88.5,-37.7 88.5,-56.7 117.5,-56.7 117.5,-37.7 88.5,-37.7"/>
<polygon fill="none" stroke="#000000" points="88.5,-37.7 88.5,-56.7 117.5,-56.7 117.5,-37.7 88.5,-37.7"/>
<text text-anchor="start" x="98.9053" y="-43.8" font-family="Helvetica,sans-Serif" font-size="11.00" fill="#000000">1 &gt;</text>
</a>
</g>
</g>
<!-- comment&#45;&gt;review -->
<g id="edge2" class="edge">
<title>comment:w&#45;&gt;review:e</title>
<path fill="none" stroke="#000000" d="M154.1372,-177.9012C139.3861,-165.0281 143.6756,-130.7 117.5,-130.7"/>
<polygon fill="#000000" stroke="#000000" points="160.4401,-180.083 166.8223,-186.1019 164.2201,-181.3915 168,-182.7 168,-182.7 168,-182.7 164.2201,-181.3915 169.1777,-179.2981 160.4401,-180.083 160.4401,-180.083"/>
<ellipse fill="none" stroke="#000000" cx="157.4162" cy="-179.0362" rx="3.2" ry="3.2"/>
</g>
<!-- user -->
<g id="node3" class="node">
<title>user</title>
<g id="a_node3"><a xlink:href="../../tables/user.html" xlink:title="user" target="_top">
<polygon fill="#ffffff" stroke="transparent" points="16.5,-186.2 16.5,-291.2 108.5,-291.2 108.5,-186.2 16.5,-186.2"/>
<polygon fill="#f5f5f5" stroke="transparent" points="16.5,-267.7 16.5,-290.7 108.5,-290.7 108.5,-267.7 16.5,-267.7"/>
<polygon fill="none" stroke="#000000" points="16.5,-267.7 16.5,-290.7 108.5,-290.7 108.5,-267.7 16.5,-267.7"/>
<text text-anchor="start" x="21.5" y="-276.3" font-family="Helvetica,sans-Serif" font-weight="bold" font-size="11.00" fill="#000000">user</text>
<text text-anchor="start" x="73.5437" y="-275.8" font-family="Helvetica,sans-Serif" font-size="11.00" fill="#000000">[table]</text>
<polygon fill="none" stroke="#000000" points="16.5,-245.7 16.5,-267.7 108.5,-267.7 108.5,-245.7 16.5,-245.7"/>
<image xlink:href="../../images/primaryKeys.png" width="11px" height="12px" preserveAspectRatio="xMinYMin meet" x="21.5" y="-262.7"/>
<text text-anchor="start" x="36.5" y="-252.8" font-family="Helvetica,sans-Serif" font-size="11.00" fill="#000000">user_id</text>
<polygon fill="#ffffff" stroke="transparent" points="16.5,-223.7 16.5,-245.7 108.5,-245.7 108.5,-223.7 16.5,-223.7"/>
<polygon fill="none" stroke="#000000" points="16.5,-223.7 16.5,-245.7 108.5,-245.7 108.5,-223.7 16.5,-223.7"/>
<text text-anchor="start" x="36.5" y="-230.8" font-family="Helvetica,sans-Serif" font-size="11.00" fill="#000000">email</text>
<polygon fill="none" stroke="#000000" points="16.5,-204.7 16.5,-223.7 108.5,-223.7 108.5,-204.7 16.5,-204.7"/>
<text text-anchor="start" x="19.5" y="-210.8" font-family="Helvetica,sans-Serif" font-size="11.00" fill="#000000">...</text>
<polygon fill="#ffffff" stroke="transparent" points="16.5,-185.7 16.5,-204.7 38.5,-204.7 38.5,-185.7 16.5,-185.7"/>
<polygon fill="none" stroke="#000000" points="16.5,-185.7 16.5,-204.7 38.5,-204.7 38.5,-185.7 16.5,-185.7"/>
<text text-anchor="start" x="19.5" y="-191.8" font-family="Helvetica,sans-Serif" font-size="11.00" fill="#000000"> &#160;</text>
<polygon fill="#ffffff" stroke="transparent" points="38.5,-185.7 38.5,-204.7 81.5,-204.7 81.5,-185.7 38.5,-185.7"/>
<polygon fill="none" stroke="#000000" points="38.5,-185.7 38.5,-204.7 81.5,-204.7 81.5,-185.7 38.5,-185.7"/>
<text text-anchor="start" x="46.1105" y="-191.8" font-family="Helvetica,sans-Serif" font-size="11.00" fill="#000000">0 rows</text>
<polygon fill="#ffffff" stroke="transparent" points="81.5,-185.7 81.5,-204.7 108.5,-204.7 108.5,-185.7 81.5,-185.7"/>
<polygon fill="none" stroke="#000000" points="81.5,-185.7 81.5,-204.7 108.5,-204.7 108.5,-185.7 81.5,-185.7"/>
<text text-anchor="start" x="89.9053" y="-191.8" font-family="Helvetica,sans-Serif" font-size="11.00" fill="#000000">4 &gt;</text>
</a>
</g>
</g>
<!-- comment&#45;&gt;user -->
<g id="edge3" class="edge">
<title>comment:w&#45;&gt;user:e</title>
<path fill="none" stroke="#000000" d="M154.0124,-208.4397C135.1696,-220.3628 137.8583,-256.7 108.5,-256.7"/>
<polygon fill="#000000" stroke="#000000" points="160.2715,-206.7663 168.9299,-208.1778 164.1357,-205.7332 168,-204.7 168,-204.7 168,-204.7 164.1357,-205.7332 167.0701,-201.2222 160.2715,-206.7663 160.2715,-206.7663"/>
<ellipse fill="none" stroke="#000000" cx="157.18" cy="-207.5929" rx="3.2" ry="3.2"/>
</g>
</g>
</svg>
