<?xml version="1.0" encoding="UTF-8" standalone="no"?>
<!DOCTYPE svg PUBLIC "-//W3C//DTD SVG 1.1//EN"
 "http://www.w3.org/Graphics/SVG/1.1/DTD/svg11.dtd">
<!-- Generated by graphviz version 2.40.1 (20161225.0304)
 -->
<!-- Title: oneDegreeRelationshipsDiagram Pages: 1 -->
<svg width="341pt" height="303pt"
 viewBox="0.00 0.00 341.00 303.20" xmlns="http://www.w3.org/2000/svg" xmlns:xlink="http://www.w3.org/1999/xlink">
<g id="graph0" class="graph" transform="scale(1 1) rotate(0) translate(4 299.2)">
<title>oneDegreeRelationshipsDiagram</title>
<polygon fill="#ffffff" stroke="transparent" points="-4,4 -4,-299.2 337,-299.2 337,4 -4,4"/>
<text text-anchor="middle" x="72.4936" y="-7.3" font-family="Helvetica,sans-Serif" font-size="11.00" fill="#000000">Generated by SchemaSpy</text>
<!-- client -->
<g id="node1" class="node">
<title>client</title>
<g id="a_node1"><a xlink:href="../../tables/client.html" xlink:title="client" target="_top">
<polygon fill="#ffffff" stroke="transparent" points="234.5,-186.2 234.5,-291.2 322.5,-291.2 322.5,-186.2 234.5,-186.2"/>
<polygon fill="#f5f5f5" stroke="transparent" points="234.5,-267.7 234.5,-290.7 322.5,-290.7 322.5,-267.7 234.5,-267.7"/>
<polygon fill="none" stroke="#000000" points="234.5,-267.7 234.5,-290.7 322.5,-290.7 322.5,-267.7 234.5,-267.7"/>
<text text-anchor="start" x="239.5" y="-276.3" font-family="Helvetica,sans-Serif" font-weight="bold" font-size="11.00" fill="#000000">client</text>
<text text-anchor="start" x="287.5437" y="-275.8" font-family="Helvetica,sans-Serif" font-size="11.00" fill="#000000">[table]</text>
<polygon fill="none" stroke="#000000" points="234.5,-245.7 234.5,-267.7 322.5,-267.7 322.5,-245.7 234.5,-245.7"/>
<image xlink:href="../../images/primaryKeys.png" width="11px" height="12px" preserveAspectRatio="xMinYMin meet" x="239.5" y="-262.7"/>
<text text-anchor="start" x="254.5" y="-252.8" font-family="Helvetica,sans-Serif" font-size="11.00" fill="#000000">user_id</text>
<polygon fill="#ffffff" stroke="transparent" points="234.5,-223.7 234.5,-245.7 322.5,-245.7 322.5,-223.7 234.5,-223.7"/>
<polygon fill="none" stroke="#000000" points="234.5,-223.7 234.5,-245.7 322.5,-245.7 322.5,-223.7 234.5,-223.7"/>
<image xlink:href="../../images/foreignKeys.png" width="11px" height="12px" preserveAspectRatio="xMinYMin meet" x="239.5" y="-240.7"/>
<text text-anchor="start" x="254.5" y="-230.8" font-family="Helvetica,sans-Serif" font-size="11.00" fill="#000000">district_id</text>
<polygon fill="none" stroke="#000000" points="234.5,-204.7 234.5,-223.7 322.5,-223.7 322.5,-204.7 234.5,-204.7"/>
<text text-anchor="start" x="237.5" y="-210.8" font-family="Helvetica,sans-Serif" font-size="11.00" fill="#000000">...</text>
<polygon fill="#ffffff" stroke="transparent" points="234.5,-185.7 234.5,-204.7 259.5,-204.7 259.5,-185.7 234.5,-185.7"/>
<polygon fill="none" stroke="#000000" points="234.5,-185.7 234.5,-204.7 259.5,-204.7 259.5,-185.7 234.5,-185.7"/>
<text text-anchor="start" x="237.5" y="-191.8" font-family="Helvetica,sans-Serif" font-size="11.00" fill="#000000">&lt; 2</text>
<polygon fill="#ffffff" stroke="transparent" points="259.5,-185.7 259.5,-204.7 299.5,-204.7 299.5,-185.7 259.5,-185.7"/>
<polygon fill="none" stroke="#000000" points="259.5,-185.7 259.5,-204.7 299.5,-204.7 299.5,-185.7 259.5,-185.7"/>
<text text-anchor="start" x="264.1105" y="-191.8" font-family="Helvetica,sans-Serif" font-size="11.00" fill="#000000">0 rows</text>
<polygon fill="#ffffff" stroke="transparent" points="299.5,-185.7 299.5,-204.7 322.5,-204.7 322.5,-185.7 299.5,-185.7"/>
<polygon fill="none" stroke="#000000" points="299.5,-185.7 299.5,-204.7 322.5,-204.7 322.5,-185.7 299.5,-185.7"/>
<text text-anchor="start" x="303.9053" y="-191.8" font-family="Helvetica,sans-Serif" font-size="11.00" fill="#000000">2 &gt;</text>
</a>
</g>
</g>
<!-- district -->
<g id="node2" class="node">
<title>district</title>
<g id="a_node2"><a xlink:href="../../tables/district.html" xlink:title="district" target="_top">
<polygon fill="#ffffff" stroke="transparent" points="8,-106.7 8,-196.7 183,-196.7 183,-106.7 8,-106.7"/>
<polygon fill="#f5f5f5" stroke="transparent" points="10.5,-171.7 10.5,-194.7 181.5,-194.7 181.5,-171.7 10.5,-171.7"/>
<polygon fill="none" stroke="#000000" points="10.5,-171.7 10.5,-194.7 181.5,-194.7 181.5,-171.7 10.5,-171.7"/>
<text text-anchor="start" x="15.5" y="-180.3" font-family="Helvetica,sans-Serif" font-weight="bold" font-size="11.00" fill="#000000">district</text>
<text text-anchor="start" x="146.5437" y="-179.8" font-family="Helvetica,sans-Serif" font-size="11.00" fill="#000000">[table]</text>
<polygon fill="none" stroke="#000000" points="10.5,-149.7 10.5,-171.7 98.5,-171.7 98.5,-149.7 10.5,-149.7"/>
<image xlink:href="../../images/primaryKeys.png" width="11px" height="12px" preserveAspectRatio="xMinYMin meet" x="15.5" y="-166.7"/>
<text text-anchor="start" x="30.5" y="-156.8" font-family="Helvetica,sans-Serif" font-size="11.00" fill="#000000">district_id</text>
<polygon fill="none" stroke="#000000" points="98.5,-149.7 98.5,-171.7 181.5,-171.7 181.5,-149.7 98.5,-149.7"/>
<text text-anchor="start" x="101.1782" y="-157.4" font-family="Helvetica,sans-Serif" font-size="11.00" fill="#000000">int unsigned[10]</text>
<polygon fill="#ffffff" stroke="transparent" points="10.5,-127.7 10.5,-149.7 98.5,-149.7 98.5,-127.7 10.5,-127.7"/>
<polygon fill="none" stroke="#000000" points="10.5,-127.7 10.5,-149.7 98.5,-149.7 98.5,-127.7 10.5,-127.7"/>
<text text-anchor="start" x="30.5" y="-134.8" font-family="Helvetica,sans-Serif" font-size="11.00" fill="#000000">name</text>
<polygon fill="none" stroke="#000000" points="98.5,-127.7 98.5,-149.7 181.5,-149.7 181.5,-127.7 98.5,-127.7"/>
<text text-anchor="start" x="101.5" y="-135.4" font-family="Helvetica,sans-Serif" font-size="11.00" fill="#000000">enum[18]</text>
<polygon fill="#ffffff" stroke="transparent" points="10.5,-108.7 10.5,-127.7 45.5,-127.7 45.5,-108.7 10.5,-108.7"/>
<polygon fill="none" stroke="#000000" points="10.5,-108.7 10.5,-127.7 45.5,-127.7 45.5,-108.7 10.5,-108.7"/>
<text text-anchor="start" x="13.5" y="-114.8" font-family="Helvetica,sans-Serif" font-size="11.00" fill="#000000">&lt; 0</text>
<polygon fill="#ffffff" stroke="transparent" points="45.5,-108.7 45.5,-127.7 98.5,-127.7 98.5,-108.7 45.5,-108.7"/>
<polygon fill="none" stroke="#000000" points="45.5,-108.7 45.5,-127.7 98.5,-127.7 98.5,-108.7 45.5,-108.7"/>
<text text-anchor="start" x="63.1105" y="-114.8" font-family="Helvetica,sans-Serif" font-size="11.00" fill="#000000">0 rows</text>
<polygon fill="#ffffff" stroke="transparent" points="98.5,-108.7 98.5,-127.7 181.5,-127.7 181.5,-108.7 98.5,-108.7"/>
<polygon fill="none" stroke="#000000" points="98.5,-108.7 98.5,-127.7 181.5,-127.7 181.5,-108.7 98.5,-108.7"/>
<text text-anchor="start" x="162.9053" y="-114.8" font-family="Helvetica,sans-Serif" font-size="11.00" fill="#000000">2 &gt;</text>
<polygon fill="none" stroke="#000000" stroke-width="2" points="9,-107.7 9,-195.7 182,-195.7 182,-107.7 9,-107.7"/>
</a>
</g>
</g>
<!-- client&#45;&gt;district -->
<g id="edge1" class="edge">
<title>client:w&#45;&gt;district:e</title>
<path fill="none" stroke="#000000" d="M220.5569,-230.2926C200.8248,-214.3617 215.9493,-160.7 181.5,-160.7"/>
<polygon fill="#000000" stroke="#000000" points="226.872,-232.2888 233.4149,-238.1326 230.686,-233.4944 234.5,-234.7 234.5,-234.7 234.5,-234.7 230.686,-233.4944 235.5851,-231.2674 226.872,-232.2888 226.872,-232.2888"/>
<ellipse fill="none" stroke="#000000" cx="223.8208" cy="-231.3243" rx="3.2" ry="3.2"/>
</g>
<!-- store -->
<g id="node3" class="node">
<title>store</title>
<g id="a_node3"><a xlink:href="../../tables/store.html" xlink:title="store" target="_top">
<polygon fill="#ffffff" stroke="transparent" points="232,-38.2 232,-165.2 325,-165.2 325,-38.2 232,-38.2"/>
<polygon fill="#f5f5f5" stroke="transparent" points="232.5,-141.7 232.5,-164.7 325.5,-164.7 325.5,-141.7 232.5,-141.7"/>
<polygon fill="none" stroke="#000000" points="232.5,-141.7 232.5,-164.7 325.5,-164.7 325.5,-141.7 232.5,-141.7"/>
<text text-anchor="start" x="237.5" y="-150.3" font-family="Helvetica,sans-Serif" font-weight="bold" font-size="11.00" fill="#000000">store</text>
<text text-anchor="start" x="290.5437" y="-149.8" font-family="Helvetica,sans-Serif" font-size="11.00" fill="#000000">[table]</text>
<polygon fill="none" stroke="#000000" points="232.5,-119.7 232.5,-141.7 325.5,-141.7 325.5,-119.7 232.5,-119.7"/>
<image xlink:href="../../images/primaryKeys.png" width="11px" height="12px" preserveAspectRatio="xMinYMin meet" x="237.5" y="-136.7"/>
<text text-anchor="start" x="252.5" y="-126.8" font-family="Helvetica,sans-Serif" font-size="11.00" fill="#000000">store_id</text>
<polygon fill="#ffffff" stroke="transparent" points="232.5,-97.7 232.5,-119.7 325.5,-119.7 325.5,-97.7 232.5,-97.7"/>
<polygon fill="none" stroke="#000000" points="232.5,-97.7 232.5,-119.7 325.5,-119.7 325.5,-97.7 232.5,-97.7"/>
<text text-anchor="start" x="252.5" y="-104.8" font-family="Helvetica,sans-Serif" font-size="11.00" fill="#000000">coordinate</text>
<polygon fill="#ffffff" stroke="transparent" points="232.5,-75.7 232.5,-97.7 325.5,-97.7 325.5,-75.7 232.5,-75.7"/>
<polygon fill="none" stroke="#000000" points="232.5,-75.7 232.5,-97.7 325.5,-97.7 325.5,-75.7 232.5,-75.7"/>
<image xlink:href="../../images/foreignKeys.png" width="11px" height="12px" preserveAspectRatio="xMinYMin meet" x="237.5" y="-92.7"/>
<text text-anchor="start" x="252.5" y="-82.8" font-family="Helvetica,sans-Serif" font-size="11.00" fill="#000000">district_id</text>
<polygon fill="none" stroke="#000000" points="232.5,-56.7 232.5,-75.7 325.5,-75.7 325.5,-56.7 232.5,-56.7"/>
<text text-anchor="start" x="235.5" y="-62.8" font-family="Helvetica,sans-Serif" font-size="11.00" fill="#000000">...</text>
<polygon fill="#ffffff" stroke="transparent" points="232.5,-37.7 232.5,-56.7 259.5,-56.7 259.5,-37.7 232.5,-37.7"/>
<polygon fill="none" stroke="#000000" points="232.5,-37.7 232.5,-56.7 259.5,-56.7 259.5,-37.7 232.5,-37.7"/>
<text text-anchor="start" x="235.5" y="-43.8" font-family="Helvetica,sans-Serif" font-size="11.00" fill="#000000">&lt; 1</text>
<polygon fill="#ffffff" stroke="transparent" points="259.5,-37.7 259.5,-56.7 300.5,-56.7 300.5,-37.7 259.5,-37.7"/>
<polygon fill="none" stroke="#000000" points="259.5,-37.7 259.5,-56.7 300.5,-56.7 300.5,-37.7 259.5,-37.7"/>
<text text-anchor="start" x="265.1105" y="-43.8" font-family="Helvetica,sans-Serif" font-size="11.00" fill="#000000">0 rows</text>
<polygon fill="#ffffff" stroke="transparent" points="300.5,-37.7 300.5,-56.7 325.5,-56.7 325.5,-37.7 300.5,-37.7"/>
<polygon fill="none" stroke="#000000" points="300.5,-37.7 300.5,-56.7 325.5,-56.7 325.5,-37.7 300.5,-37.7"/>
<text text-anchor="start" x="306.9053" y="-43.8" font-family="Helvetica,sans-Serif" font-size="11.00" fill="#000000">2 &gt;</text>
</a>
</g>
</g>
<!-- store&#45;&gt;district -->
<g id="edge2" class="edge">
<title>store:w&#45;&gt;district:e</title>
<path fill="none" stroke="#000000" d="M218.5503,-91.329C199.7607,-107.5294 215.3581,-160.7 181.5,-160.7"/>
<polygon fill="#000000" stroke="#000000" points="224.9071,-89.2196 233.6338,-90.1168 228.7036,-87.9598 232.5,-86.7 232.5,-86.7 232.5,-86.7 228.7036,-87.9598 231.3662,-83.2832 224.9071,-89.2196 224.9071,-89.2196"/>
<ellipse fill="none" stroke="#000000" cx="221.87" cy="-90.2275" rx="3.2" ry="3.2"/>
</g>
</g>
</svg>
