<?xml version="1.0" encoding="UTF-8" standalone="no"?>
<!DOCTYPE svg PUBLIC "-//W3C//DTD SVG 1.1//EN"
 "http://www.w3.org/Graphics/SVG/1.1/DTD/svg11.dtd">
<!-- Generated by graphviz version 2.40.1 (20161225.0304)
 -->
<!-- Title: twoDegreesRelationshipsDiagram Pages: 1 -->
<svg width="522pt" height="321pt"
 viewBox="0.00 0.00 522.00 321.20" xmlns="http://www.w3.org/2000/svg" xmlns:xlink="http://www.w3.org/1999/xlink">
<g id="graph0" class="graph" transform="scale(1 1) rotate(0) translate(4 317.2)">
<title>twoDegreesRelationshipsDiagram</title>
<polygon fill="#ffffff" stroke="transparent" points="-4,4 -4,-317.2 518,-317.2 518,4 -4,4"/>
<text text-anchor="middle" x="72.4936" y="-7.3" font-family="Helvetica,sans-Serif" font-size="11.00" fill="#000000">Generated by SchemaSpy</text>
<!-- client -->
<g id="node1" class="node">
<title>client</title>
<g id="a_node1"><a xlink:href="../../tables/client.html" xlink:title="client" target="_top">
<polygon fill="#ffffff" stroke="transparent" points="234.5,-186.2 234.5,-291.2 322.5,-291.2 322.5,-186.2 234.5,-186.2"/>
<polygon fill="#f5f5f5" stroke="transparent" points="234.5,-267.7 234.5,-290.7 322.5,-290.7 322.5,-267.7 234.5,-267.7"/>
<polygon fill="none" stroke="#000000" points="234.5,-267.7 234.5,-290.7 322.5,-290.7 322.5,-267.7 234.5,-267.7"/>
<text text-anchor="start" x="239.5" y="-276.3" font-family="Helvetica,sans-Serif" font-weight="bold" font-size="11.00" fill="#000000">client</text>
<text text-anchor="start" x="287.5437" y="-275.8" font-family="Helvetica,sans-Serif" font-size="11.00" fill="#000000">[table]</text>
<polygon fill="none" stroke="#000000" points="234.5,-245.7 234.5,-267.7 322.5,-267.7 322.5,-245.7 234.5,-245.7"/>
<image xlink:href="../../images/primaryKeys.png" width="11px" height="12px" preserveAspectRatio="xMinYMin meet" x="239.5" y="-262.7"/>
<text text-anchor="start" x="254.5" y="-252.8" font-family="Helvetica,sans-Serif" font-size="11.00" fill="#000000">user_id</text>
<polygon fill="#ffffff" stroke="transparent" points="234.5,-223.7 234.5,-245.7 322.5,-245.7 322.5,-223.7 234.5,-223.7"/>
<polygon fill="none" stroke="#000000" points="234.5,-223.7 234.5,-245.7 322.5,-245.7 322.5,-223.7 234.5,-223.7"/>
<image xlink:href="../../images/foreignKeys.png" width="11px" height="12px" preserveAspectRatio="xMinYMin meet" x="239.5" y="-240.7"/>
<text text-anchor="start" x="254.5" y="-230.8" font-family="Helvetica,sans-Serif" font-size="11.00" fill="#000000">district_id</text>
<polygon fill="none" stroke="#000000" points="234.5,-204.7 234.5,-223.7 322.5,-223.7 322.5,-204.7 234.5,-204.7"/>
<text text-anchor="start" x="237.5" y="-210.8" font-family="Helvetica,sans-Serif" font-size="11.00" fill="#000000">...</text>
<polygon fill="#ffffff" stroke="transparent" points="234.5,-185.7 234.5,-204.7 259.5,-204.7 259.5,-185.7 234.5,-185.7"/>
<polygon fill="none" stroke="#000000" points="234.5,-185.7 234.5,-204.7 259.5,-204.7 259.5,-185.7 234.5,-185.7"/>
<text text-anchor="start" x="237.5" y="-191.8" font-family="Helvetica,sans-Serif" font-size="11.00" fill="#000000">&lt; 2</text>
<polygon fill="#ffffff" stroke="transparent" points="259.5,-185.7 259.5,-204.7 299.5,-204.7 299.5,-185.7 259.5,-185.7"/>
<polygon fill="none" stroke="#000000" points="259.5,-185.7 259.5,-204.7 299.5,-204.7 299.5,-185.7 259.5,-185.7"/>
<text text-anchor="start" x="264.1105" y="-191.8" font-family="Helvetica,sans-Serif" font-size="11.00" fill="#000000">0 rows</text>
<polygon fill="#ffffff" stroke="transparent" points="299.5,-185.7 299.5,-204.7 322.5,-204.7 322.5,-185.7 299.5,-185.7"/>
<polygon fill="none" stroke="#000000" points="299.5,-185.7 299.5,-204.7 322.5,-204.7 322.5,-185.7 299.5,-185.7"/>
<text text-anchor="start" x="303.9053" y="-191.8" font-family="Helvetica,sans-Serif" font-size="11.00" fill="#000000">2 &gt;</text>
</a>
</g>
</g>
<!-- district -->
<g id="node2" class="node">
<title>district</title>
<g id="a_node2"><a xlink:href="../../tables/district.html" xlink:title="district" target="_top">
<polygon fill="#ffffff" stroke="transparent" points="8,-75.7 8,-165.7 183,-165.7 183,-75.7 8,-75.7"/>
<polygon fill="#f5f5f5" stroke="transparent" points="10.5,-140.7 10.5,-163.7 181.5,-163.7 181.5,-140.7 10.5,-140.7"/>
<polygon fill="none" stroke="#000000" points="10.5,-140.7 10.5,-163.7 181.5,-163.7 181.5,-140.7 10.5,-140.7"/>
<text text-anchor="start" x="15.5" y="-149.3" font-family="Helvetica,sans-Serif" font-weight="bold" font-size="11.00" fill="#000000">district</text>
<text text-anchor="start" x="146.5437" y="-148.8" font-family="Helvetica,sans-Serif" font-size="11.00" fill="#000000">[table]</text>
<polygon fill="none" stroke="#000000" points="10.5,-118.7 10.5,-140.7 98.5,-140.7 98.5,-118.7 10.5,-118.7"/>
<image xlink:href="../../images/primaryKeys.png" width="11px" height="12px" preserveAspectRatio="xMinYMin meet" x="15.5" y="-135.7"/>
<text text-anchor="start" x="30.5" y="-125.8" font-family="Helvetica,sans-Serif" font-size="11.00" fill="#000000">district_id</text>
<polygon fill="none" stroke="#000000" points="98.5,-118.7 98.5,-140.7 181.5,-140.7 181.5,-118.7 98.5,-118.7"/>
<text text-anchor="start" x="101.1782" y="-126.4" font-family="Helvetica,sans-Serif" font-size="11.00" fill="#000000">int unsigned[10]</text>
<polygon fill="#ffffff" stroke="transparent" points="10.5,-96.7 10.5,-118.7 98.5,-118.7 98.5,-96.7 10.5,-96.7"/>
<polygon fill="none" stroke="#000000" points="10.5,-96.7 10.5,-118.7 98.5,-118.7 98.5,-96.7 10.5,-96.7"/>
<text text-anchor="start" x="30.5" y="-103.8" font-family="Helvetica,sans-Serif" font-size="11.00" fill="#000000">name</text>
<polygon fill="none" stroke="#000000" points="98.5,-96.7 98.5,-118.7 181.5,-118.7 181.5,-96.7 98.5,-96.7"/>
<text text-anchor="start" x="101.5" y="-104.4" font-family="Helvetica,sans-Serif" font-size="11.00" fill="#000000">enum[18]</text>
<polygon fill="#ffffff" stroke="transparent" points="10.5,-77.7 10.5,-96.7 45.5,-96.7 45.5,-77.7 10.5,-77.7"/>
<polygon fill="none" stroke="#000000" points="10.5,-77.7 10.5,-96.7 45.5,-96.7 45.5,-77.7 10.5,-77.7"/>
<text text-anchor="start" x="13.5" y="-83.8" font-family="Helvetica,sans-Serif" font-size="11.00" fill="#000000">&lt; 0</text>
<polygon fill="#ffffff" stroke="transparent" points="45.5,-77.7 45.5,-96.7 98.5,-96.7 98.5,-77.7 45.5,-77.7"/>
<polygon fill="none" stroke="#000000" points="45.5,-77.7 45.5,-96.7 98.5,-96.7 98.5,-77.7 45.5,-77.7"/>
<text text-anchor="start" x="63.1105" y="-83.8" font-family="Helvetica,sans-Serif" font-size="11.00" fill="#000000">0 rows</text>
<polygon fill="#ffffff" stroke="transparent" points="98.5,-77.7 98.5,-96.7 181.5,-96.7 181.5,-77.7 98.5,-77.7"/>
<polygon fill="none" stroke="#000000" points="98.5,-77.7 98.5,-96.7 181.5,-96.7 181.5,-77.7 98.5,-77.7"/>
<text text-anchor="start" x="162.9053" y="-83.8" font-family="Helvetica,sans-Serif" font-size="11.00" fill="#000000">2 &gt;</text>
<polygon fill="none" stroke="#000000" stroke-width="2" points="9,-76.7 9,-164.7 182,-164.7 182,-76.7 9,-76.7"/>
</a>
</g>
</g>
<!-- client&#45;&gt;district -->
<g id="edge1" class="edge">
<title>client:w&#45;&gt;district:e</title>
<path fill="none" stroke="#000000" d="M220.4299,-230.963C192.5721,-212.2584 227.8529,-129.7 181.5,-129.7"/>
<polygon fill="#000000" stroke="#000000" points="226.7681,-232.6464 233.5759,-238.1794 230.634,-233.6732 234.5,-234.7 234.5,-234.7 234.5,-234.7 230.634,-233.6732 235.4241,-231.2206 226.7681,-232.6464 226.7681,-232.6464"/>
<ellipse fill="none" stroke="#000000" cx="223.6753" cy="-231.8249" rx="3.2" ry="3.2"/>
</g>
<!-- user -->
<g id="node3" class="node">
<title>user</title>
<g id="a_node3"><a xlink:href="../../tables/user.html" xlink:title="user" target="_top">
<polygon fill="#ffffff" stroke="transparent" points="60,-229.2 60,-290.2 131,-290.2 131,-229.2 60,-229.2"/>
<polygon fill="#f5f5f5" stroke="transparent" points="60.5,-266.7 60.5,-289.7 131.5,-289.7 131.5,-266.7 60.5,-266.7"/>
<polygon fill="none" stroke="#000000" points="60.5,-266.7 60.5,-289.7 131.5,-289.7 131.5,-266.7 60.5,-266.7"/>
<text text-anchor="start" x="65.5" y="-275.3" font-family="Helvetica,sans-Serif" font-weight="bold" font-size="11.00" fill="#000000">user</text>
<text text-anchor="start" x="96.5437" y="-274.8" font-family="Helvetica,sans-Serif" font-size="11.00" fill="#000000">[table]</text>
<polygon fill="none" stroke="#000000" points="60.5,-247.7 60.5,-266.7 131.5,-266.7 131.5,-247.7 60.5,-247.7"/>
<text text-anchor="start" x="63.5" y="-253.8" font-family="Helvetica,sans-Serif" font-size="11.00" fill="#000000">...</text>
<polygon fill="#ffffff" stroke="transparent" points="60.5,-228.7 60.5,-247.7 72.5,-247.7 72.5,-228.7 60.5,-228.7"/>
<polygon fill="none" stroke="#000000" points="60.5,-228.7 60.5,-247.7 72.5,-247.7 72.5,-228.7 60.5,-228.7"/>
<text text-anchor="start" x="63.4431" y="-234.8" font-family="Helvetica,sans-Serif" font-size="11.00" fill="#000000"> &#160;</text>
<polygon fill="#ffffff" stroke="transparent" points="72.5,-228.7 72.5,-247.7 110.5,-247.7 110.5,-228.7 72.5,-228.7"/>
<polygon fill="none" stroke="#000000" points="72.5,-228.7 72.5,-247.7 110.5,-247.7 110.5,-228.7 72.5,-228.7"/>
<text text-anchor="start" x="75.3053" y="-234.8" font-family="Helvetica,sans-Serif" font-size="11.00" fill="#000000">0 rows</text>
<polygon fill="#ffffff" stroke="transparent" points="110.5,-228.7 110.5,-247.7 131.5,-247.7 131.5,-228.7 110.5,-228.7"/>
<polygon fill="none" stroke="#000000" points="110.5,-228.7 110.5,-247.7 131.5,-247.7 131.5,-228.7 110.5,-228.7"/>
<text text-anchor="start" x="113.2027" y="-234.8" font-family="Helvetica,sans-Serif" font-size="11.00" fill="#000000">4 &gt;</text>
</a>
</g>
</g>
<!-- client&#45;&gt;user -->
<g id="edge2" class="edge">
<title>client:w&#45;&gt;user:e</title>
<path fill="none" stroke="#000000" d="M223.8896,-256.7C186.6136,-256.7 173.5226,-256.7 131.5,-256.7"/>
<polygon fill="#000000" stroke="#000000" points="233.7,-252.7 233.7,-260.7 232.1,-260.7 232.1,-252.7 233.7,-252.7"/>
<polyline fill="none" stroke="#000000" points="234.5,-256.7 230.5,-256.7 "/>
<ellipse fill="none" stroke="#000000" cx="227.3" cy="-256.7001" rx="3.2" ry="3.2"/>
</g>
<!-- order -->
<g id="node4" class="node">
<title>order</title>
<g id="a_node4"><a xlink:href="../../tables/order.html" xlink:title="order" target="_top">
<polygon fill="#ffffff" stroke="transparent" points="400,-166.2 400,-227.2 480,-227.2 480,-166.2 400,-166.2"/>
<polygon fill="#f5f5f5" stroke="transparent" points="400,-203.7 400,-226.7 480,-226.7 480,-203.7 400,-203.7"/>
<polygon fill="none" stroke="#000000" points="400,-203.7 400,-226.7 480,-226.7 480,-203.7 400,-203.7"/>
<text text-anchor="start" x="405" y="-212.3" font-family="Helvetica,sans-Serif" font-weight="bold" font-size="11.00" fill="#000000">order</text>
<text text-anchor="start" x="445.0437" y="-211.8" font-family="Helvetica,sans-Serif" font-size="11.00" fill="#000000">[table]</text>
<polygon fill="none" stroke="#000000" points="400,-184.7 400,-203.7 480,-203.7 480,-184.7 400,-184.7"/>
<text text-anchor="start" x="403" y="-190.8" font-family="Helvetica,sans-Serif" font-size="11.00" fill="#000000">...</text>
<polygon fill="#ffffff" stroke="transparent" points="400,-165.7 400,-184.7 421,-184.7 421,-165.7 400,-165.7"/>
<polygon fill="none" stroke="#000000" points="400,-165.7 400,-184.7 421,-184.7 421,-165.7 400,-165.7"/>
<text text-anchor="start" x="402.7027" y="-171.8" font-family="Helvetica,sans-Serif" font-size="11.00" fill="#000000">&lt; 2</text>
<polygon fill="#ffffff" stroke="transparent" points="421,-165.7 421,-184.7 459,-184.7 459,-165.7 421,-165.7"/>
<polygon fill="none" stroke="#000000" points="421,-165.7 421,-184.7 459,-184.7 459,-165.7 421,-165.7"/>
<text text-anchor="start" x="423.8053" y="-171.8" font-family="Helvetica,sans-Serif" font-size="11.00" fill="#000000">0 rows</text>
<polygon fill="#ffffff" stroke="transparent" points="459,-165.7 459,-184.7 480,-184.7 480,-165.7 459,-165.7"/>
<polygon fill="none" stroke="#000000" points="459,-165.7 459,-184.7 480,-184.7 480,-165.7 459,-165.7"/>
<text text-anchor="start" x="461.7027" y="-171.8" font-family="Helvetica,sans-Serif" font-size="11.00" fill="#000000">1 &gt;</text>
</a>
</g>
</g>
<!-- order&#45;&gt;client -->
<g id="edge3" class="edge">
<title>order:w&#45;&gt;client:e</title>
<path fill="none" stroke="#000000" d="M385.746,-196.407C357.5605,-208.4656 361.3407,-256.7 322.5,-256.7"/>
<polygon fill="#000000" stroke="#000000" points="392.1405,-195.1927 400.6717,-197.2368 396.0702,-194.4463 400,-193.7 400,-193.7 400,-193.7 396.0702,-194.4463 399.3283,-190.1632 392.1405,-195.1927 392.1405,-195.1927"/>
<ellipse fill="none" stroke="#000000" cx="388.9967" cy="-195.7897" rx="3.2" ry="3.2"/>
</g>
<!-- store -->
<g id="node5" class="node">
<title>store</title>
<g id="a_node5"><a xlink:href="../../tables/store.html" xlink:title="store" target="_top">
<polygon fill="#ffffff" stroke="transparent" points="232,-38.2 232,-165.2 325,-165.2 325,-38.2 232,-38.2"/>
<polygon fill="#f5f5f5" stroke="transparent" points="232.5,-141.7 232.5,-164.7 325.5,-164.7 325.5,-141.7 232.5,-141.7"/>
<polygon fill="none" stroke="#000000" points="232.5,-141.7 232.5,-164.7 325.5,-164.7 325.5,-141.7 232.5,-141.7"/>
<text text-anchor="start" x="237.5" y="-150.3" font-family="Helvetica,sans-Serif" font-weight="bold" font-size="11.00" fill="#000000">store</text>
<text text-anchor="start" x="290.5437" y="-149.8" font-family="Helvetica,sans-Serif" font-size="11.00" fill="#000000">[table]</text>
<polygon fill="none" stroke="#000000" points="232.5,-119.7 232.5,-141.7 325.5,-141.7 325.5,-119.7 232.5,-119.7"/>
<image xlink:href="../../images/primaryKeys.png" width="11px" height="12px" preserveAspectRatio="xMinYMin meet" x="237.5" y="-136.7"/>
<text text-anchor="start" x="252.5" y="-126.8" font-family="Helvetica,sans-Serif" font-size="11.00" fill="#000000">store_id</text>
<polygon fill="#ffffff" stroke="transparent" points="232.5,-97.7 232.5,-119.7 325.5,-119.7 325.5,-97.7 232.5,-97.7"/>
<polygon fill="none" stroke="#000000" points="232.5,-97.7 232.5,-119.7 325.5,-119.7 325.5,-97.7 232.5,-97.7"/>
<text text-anchor="start" x="252.5" y="-104.8" font-family="Helvetica,sans-Serif" font-size="11.00" fill="#000000">coordinate</text>
<polygon fill="#ffffff" stroke="transparent" points="232.5,-75.7 232.5,-97.7 325.5,-97.7 325.5,-75.7 232.5,-75.7"/>
<polygon fill="none" stroke="#000000" points="232.5,-75.7 232.5,-97.7 325.5,-97.7 325.5,-75.7 232.5,-75.7"/>
<image xlink:href="../../images/foreignKeys.png" width="11px" height="12px" preserveAspectRatio="xMinYMin meet" x="237.5" y="-92.7"/>
<text text-anchor="start" x="252.5" y="-82.8" font-family="Helvetica,sans-Serif" font-size="11.00" fill="#000000">district_id</text>
<polygon fill="none" stroke="#000000" points="232.5,-56.7 232.5,-75.7 325.5,-75.7 325.5,-56.7 232.5,-56.7"/>
<text text-anchor="start" x="235.5" y="-62.8" font-family="Helvetica,sans-Serif" font-size="11.00" fill="#000000">...</text>
<polygon fill="#ffffff" stroke="transparent" points="232.5,-37.7 232.5,-56.7 259.5,-56.7 259.5,-37.7 232.5,-37.7"/>
<polygon fill="none" stroke="#000000" points="232.5,-37.7 232.5,-56.7 259.5,-56.7 259.5,-37.7 232.5,-37.7"/>
<text text-anchor="start" x="235.5" y="-43.8" font-family="Helvetica,sans-Serif" font-size="11.00" fill="#000000">&lt; 1</text>
<polygon fill="#ffffff" stroke="transparent" points="259.5,-37.7 259.5,-56.7 300.5,-56.7 300.5,-37.7 259.5,-37.7"/>
<polygon fill="none" stroke="#000000" points="259.5,-37.7 259.5,-56.7 300.5,-56.7 300.5,-37.7 259.5,-37.7"/>
<text text-anchor="start" x="265.1105" y="-43.8" font-family="Helvetica,sans-Serif" font-size="11.00" fill="#000000">0 rows</text>
<polygon fill="#ffffff" stroke="transparent" points="300.5,-37.7 300.5,-56.7 325.5,-56.7 325.5,-37.7 300.5,-37.7"/>
<polygon fill="none" stroke="#000000" points="300.5,-37.7 300.5,-56.7 325.5,-56.7 325.5,-37.7 300.5,-37.7"/>
<text text-anchor="start" x="306.9053" y="-43.8" font-family="Helvetica,sans-Serif" font-size="11.00" fill="#000000">2 &gt;</text>
</a>
</g>
</g>
<!-- order&#45;&gt;store -->
<g id="edge4" class="edge">
<title>order:w&#45;&gt;store:e</title>
<path fill="none" stroke="#000000" d="M385.7637,-190.8293C358.8653,-178.5047 363.2732,-130.7 325.5,-130.7"/>
<polygon fill="#000000" stroke="#000000" points="392.1578,-192.1186 399.2884,-197.229 396.0789,-192.9093 400,-193.7 400,-193.7 400,-193.7 396.0789,-192.9093 400.7116,-190.171 392.1578,-192.1186 392.1578,-192.1186"/>
<ellipse fill="none" stroke="#000000" cx="389.021" cy="-191.4861" rx="3.2" ry="3.2"/>
</g>
<!-- store&#45;&gt;district -->
<g id="edge6" class="edge">
<title>store:w&#45;&gt;district:e</title>
<path fill="none" stroke="#000000" d="M218.4939,-91.3018C204.6566,-102.3946 205.1259,-129.7 181.5,-129.7"/>
<polygon fill="#000000" stroke="#000000" points="224.8997,-89.1971 233.6237,-90.1201 228.6999,-87.9486 232.5,-86.7 232.5,-86.7 232.5,-86.7 228.6999,-87.9486 231.3763,-83.2799 224.8997,-89.1971 224.8997,-89.1971"/>
<ellipse fill="none" stroke="#000000" cx="221.8596" cy="-90.196" rx="3.2" ry="3.2"/>
</g>
<!-- review -->
<g id="node6" class="node">
<title>review</title>
<g id="a_node6"><a xlink:href="../../tables/review.html" xlink:title="review" target="_top">
<polygon fill="#ffffff" stroke="transparent" points="398,-248.2 398,-309.2 482,-309.2 482,-248.2 398,-248.2"/>
<polygon fill="#f5f5f5" stroke="transparent" points="398,-285.7 398,-308.7 482,-308.7 482,-285.7 398,-285.7"/>
<polygon fill="none" stroke="#000000" points="398,-285.7 398,-308.7 482,-308.7 482,-285.7 398,-285.7"/>
<text text-anchor="start" x="403" y="-294.3" font-family="Helvetica,sans-Serif" font-weight="bold" font-size="11.00" fill="#000000">review</text>
<text text-anchor="start" x="447.5219" y="-293.8" font-family="Helvetica,sans-Serif" font-size="11.00" fill="#000000">[table]</text>
<polygon fill="none" stroke="#000000" points="398,-266.7 398,-285.7 482,-285.7 482,-266.7 398,-266.7"/>
<text text-anchor="start" x="401" y="-272.8" font-family="Helvetica,sans-Serif" font-size="11.00" fill="#000000">...</text>
<polygon fill="#ffffff" stroke="transparent" points="398,-247.7 398,-266.7 421,-266.7 421,-247.7 398,-247.7"/>
<polygon fill="none" stroke="#000000" points="398,-247.7 398,-266.7 421,-266.7 421,-247.7 398,-247.7"/>
<text text-anchor="start" x="401" y="-253.8" font-family="Helvetica,sans-Serif" font-size="11.00" fill="#000000">&lt; 2</text>
<polygon fill="#ffffff" stroke="transparent" points="421,-247.7 421,-266.7 460,-266.7 460,-247.7 421,-247.7"/>
<polygon fill="none" stroke="#000000" points="421,-247.7 421,-266.7 460,-266.7 460,-247.7 421,-247.7"/>
<text text-anchor="start" x="424.6105" y="-253.8" font-family="Helvetica,sans-Serif" font-size="11.00" fill="#000000">0 rows</text>
<polygon fill="#ffffff" stroke="transparent" points="460,-247.7 460,-266.7 482,-266.7 482,-247.7 460,-247.7"/>
<polygon fill="none" stroke="#000000" points="460,-247.7 460,-266.7 482,-266.7 482,-247.7 460,-247.7"/>
<text text-anchor="start" x="463.4053" y="-253.8" font-family="Helvetica,sans-Serif" font-size="11.00" fill="#000000">1 &gt;</text>
</a>
</g>
</g>
<!-- review&#45;&gt;client -->
<g id="edge5" class="edge">
<title>review:w&#45;&gt;client:e</title>
<path fill="none" stroke="#000000" d="M383.6376,-274.4534C360.7395,-270.2264 351.6953,-256.7 322.5,-256.7"/>
<polygon fill="#000000" stroke="#000000" points="390.03,-275.0082 397.6887,-279.2865 394.015,-275.3541 398,-275.7 398,-275.7 398,-275.7 394.015,-275.3541 398.3113,-272.1135 390.03,-275.0082 390.03,-275.0082"/>
<ellipse fill="none" stroke="#000000" cx="386.842" cy="-274.7314" rx="3.2" ry="3.2"/>
</g>
<!-- store_product -->
<g id="node7" class="node">
<title>store_product</title>
<g id="a_node7"><a xlink:href="../../tables/store_product.html" xlink:title="store_product" target="_top">
<polygon fill="#ffffff" stroke="transparent" points="374,-84.2 374,-145.2 506,-145.2 506,-84.2 374,-84.2"/>
<polygon fill="#f5f5f5" stroke="transparent" points="374,-121.7 374,-144.7 506,-144.7 506,-121.7 374,-121.7"/>
<polygon fill="none" stroke="#000000" points="374,-121.7 374,-144.7 506,-144.7 506,-121.7 374,-121.7"/>
<text text-anchor="start" x="379" y="-130.3" font-family="Helvetica,sans-Serif" font-weight="bold" font-size="11.00" fill="#000000">store_product</text>
<text text-anchor="start" x="471.5219" y="-129.8" font-family="Helvetica,sans-Serif" font-size="11.00" fill="#000000">[table]</text>
<polygon fill="none" stroke="#000000" points="374,-102.7 374,-121.7 506,-121.7 506,-102.7 374,-102.7"/>
<text text-anchor="start" x="377" y="-108.8" font-family="Helvetica,sans-Serif" font-size="11.00" fill="#000000">...</text>
<polygon fill="#ffffff" stroke="transparent" points="374,-83.7 374,-102.7 425,-102.7 425,-83.7 374,-83.7"/>
<polygon fill="none" stroke="#000000" points="374,-83.7 374,-102.7 425,-102.7 425,-83.7 374,-83.7"/>
<text text-anchor="start" x="377" y="-89.8" font-family="Helvetica,sans-Serif" font-size="11.00" fill="#000000">&lt; 2</text>
<polygon fill="#ffffff" stroke="transparent" points="425,-83.7 425,-102.7 478,-102.7 478,-83.7 425,-83.7"/>
<polygon fill="none" stroke="#000000" points="425,-83.7 425,-102.7 478,-102.7 478,-83.7 425,-83.7"/>
<text text-anchor="start" x="442.6105" y="-89.8" font-family="Helvetica,sans-Serif" font-size="11.00" fill="#000000">0 rows</text>
<polygon fill="#ffffff" stroke="transparent" points="478,-83.7 478,-102.7 506,-102.7 506,-83.7 478,-83.7"/>
<polygon fill="none" stroke="#000000" points="478,-83.7 478,-102.7 506,-102.7 506,-83.7 478,-83.7"/>
<text text-anchor="start" x="496.8862" y="-89.8" font-family="Helvetica,sans-Serif" font-size="11.00" fill="#000000"> &#160;</text>
</a>
</g>
</g>
<!-- store_product&#45;&gt;store -->
<g id="edge7" class="edge">
<title>store_product:w&#45;&gt;store:e</title>
<path fill="none" stroke="#000000" d="M359.5542,-114.8375C348.323,-120.234 342.6821,-130.7 325.5,-130.7"/>
<polygon fill="#000000" stroke="#000000" points="366.1823,-113.398 374.7641,-115.218 370.0911,-112.549 374,-111.7 374,-111.7 374,-111.7 370.0911,-112.549 373.2359,-108.182 366.1823,-113.398 366.1823,-113.398"/>
<ellipse fill="none" stroke="#000000" cx="363.0552" cy="-114.0772" rx="3.2" ry="3.2"/>
</g>
</g>
</svg>
