<?xml version="1.0" encoding="UTF-8" standalone="no"?>
<!DOCTYPE svg PUBLIC "-//W3C//DTD SVG 1.1//EN"
 "http://www.w3.org/Graphics/SVG/1.1/DTD/svg11.dtd">
<!-- Generated by graphviz version 2.40.1 (20161225.0304)
 -->
<!-- Title: twoDegreesRelationshipsDiagram Pages: 1 -->
<svg width="566pt" height="371pt"
 viewBox="0.00 0.00 566.00 371.21" xmlns="http://www.w3.org/2000/svg" xmlns:xlink="http://www.w3.org/1999/xlink">
<g id="graph0" class="graph" transform="scale(1 1) rotate(0) translate(4 367.2087)">
<title>twoDegreesRelationshipsDiagram</title>
<polygon fill="#ffffff" stroke="transparent" points="-4,4 -4,-367.2087 562,-367.2087 562,4 -4,4"/>
<text text-anchor="middle" x="72.4936" y="-7.3" font-family="Helvetica,sans-Serif" font-size="11.00" fill="#000000">Generated by SchemaSpy</text>
<!-- order -->
<g id="node1" class="node">
<title>order</title>
<g id="a_node1"><a xlink:href="../../tables/order.html" xlink:title="order" target="_top">
<polygon fill="#ffffff" stroke="transparent" points="177.5,-232.2087 177.5,-359.2087 286.5,-359.2087 286.5,-232.2087 177.5,-232.2087"/>
<polygon fill="#f5f5f5" stroke="transparent" points="178,-335.7087 178,-358.7087 287,-358.7087 287,-335.7087 178,-335.7087"/>
<polygon fill="none" stroke="#000000" points="178,-335.7087 178,-358.7087 287,-358.7087 287,-335.7087 178,-335.7087"/>
<text text-anchor="start" x="183" y="-344.3087" font-family="Helvetica,sans-Serif" font-weight="bold" font-size="11.00" fill="#000000">order</text>
<text text-anchor="start" x="252.0437" y="-343.8087" font-family="Helvetica,sans-Serif" font-size="11.00" fill="#000000">[table]</text>
<polygon fill="none" stroke="#000000" points="178,-313.7087 178,-335.7087 287,-335.7087 287,-313.7087 178,-313.7087"/>
<image xlink:href="../../images/primaryKeys.png" width="11px" height="12px" preserveAspectRatio="xMinYMin meet" x="183" y="-330.709"/>
<text text-anchor="start" x="198" y="-320.8087" font-family="Helvetica,sans-Serif" font-size="11.00" fill="#000000">order_id</text>
<polygon fill="#ffffff" stroke="transparent" points="178,-291.7087 178,-313.7087 287,-313.7087 287,-291.7087 178,-291.7087"/>
<polygon fill="none" stroke="#000000" points="178,-291.7087 178,-313.7087 287,-313.7087 287,-291.7087 178,-291.7087"/>
<image xlink:href="../../images/foreignKeys.png" width="11px" height="12px" preserveAspectRatio="xMinYMin meet" x="183" y="-308.709"/>
<text text-anchor="start" x="198" y="-298.8087" font-family="Helvetica,sans-Serif" font-size="11.00" fill="#000000">client_id</text>
<polygon fill="#ffffff" stroke="transparent" points="178,-269.7087 178,-291.7087 287,-291.7087 287,-269.7087 178,-269.7087"/>
<polygon fill="none" stroke="#000000" points="178,-269.7087 178,-291.7087 287,-291.7087 287,-269.7087 178,-269.7087"/>
<image xlink:href="../../images/foreignKeys.png" width="11px" height="12px" preserveAspectRatio="xMinYMin meet" x="183" y="-286.709"/>
<text text-anchor="start" x="198" y="-276.8087" font-family="Helvetica,sans-Serif" font-size="11.00" fill="#000000">store_id</text>
<polygon fill="none" stroke="#000000" points="178,-250.7087 178,-269.7087 287,-269.7087 287,-250.7087 178,-250.7087"/>
<text text-anchor="start" x="181" y="-256.8087" font-family="Helvetica,sans-Serif" font-size="11.00" fill="#000000">...</text>
<polygon fill="#ffffff" stroke="transparent" points="178,-231.7087 178,-250.7087 213,-250.7087 213,-231.7087 178,-231.7087"/>
<polygon fill="none" stroke="#000000" points="178,-231.7087 178,-250.7087 213,-250.7087 213,-231.7087 178,-231.7087"/>
<text text-anchor="start" x="181" y="-237.8087" font-family="Helvetica,sans-Serif" font-size="11.00" fill="#000000">&lt; 2</text>
<polygon fill="#ffffff" stroke="transparent" points="213,-231.7087 213,-250.7087 258,-250.7087 258,-231.7087 213,-231.7087"/>
<polygon fill="none" stroke="#000000" points="213,-231.7087 213,-250.7087 258,-250.7087 258,-231.7087 213,-231.7087"/>
<text text-anchor="start" x="222.6105" y="-237.8087" font-family="Helvetica,sans-Serif" font-size="11.00" fill="#000000">0 rows</text>
<polygon fill="#ffffff" stroke="transparent" points="258,-231.7087 258,-250.7087 287,-250.7087 287,-231.7087 258,-231.7087"/>
<polygon fill="none" stroke="#000000" points="258,-231.7087 258,-250.7087 287,-250.7087 287,-231.7087 258,-231.7087"/>
<text text-anchor="start" x="268.4053" y="-237.8087" font-family="Helvetica,sans-Serif" font-size="11.00" fill="#000000">1 &gt;</text>
</a>
</g>
</g>
<!-- client -->
<g id="node2" class="node">
<title>client</title>
<g id="a_node2"><a xlink:href="../../tables/client.html" xlink:title="client" target="_top">
<polygon fill="#ffffff" stroke="transparent" points="22.5,-264.2087 22.5,-325.2087 102.5,-325.2087 102.5,-264.2087 22.5,-264.2087"/>
<polygon fill="#f5f5f5" stroke="transparent" points="22.5,-301.7087 22.5,-324.7087 102.5,-324.7087 102.5,-301.7087 22.5,-301.7087"/>
<polygon fill="none" stroke="#000000" points="22.5,-301.7087 22.5,-324.7087 102.5,-324.7087 102.5,-301.7087 22.5,-301.7087"/>
<text text-anchor="start" x="27.5" y="-310.3087" font-family="Helvetica,sans-Serif" font-weight="bold" font-size="11.00" fill="#000000">client</text>
<text text-anchor="start" x="67.5437" y="-309.8087" font-family="Helvetica,sans-Serif" font-size="11.00" fill="#000000">[table]</text>
<polygon fill="none" stroke="#000000" points="22.5,-282.7087 22.5,-301.7087 102.5,-301.7087 102.5,-282.7087 22.5,-282.7087"/>
<text text-anchor="start" x="25.5" y="-288.8087" font-family="Helvetica,sans-Serif" font-size="11.00" fill="#000000">...</text>
<polygon fill="#ffffff" stroke="transparent" points="22.5,-263.7087 22.5,-282.7087 43.5,-282.7087 43.5,-263.7087 22.5,-263.7087"/>
<polygon fill="none" stroke="#000000" points="22.5,-263.7087 22.5,-282.7087 43.5,-282.7087 43.5,-263.7087 22.5,-263.7087"/>
<text text-anchor="start" x="25.2026" y="-269.8087" font-family="Helvetica,sans-Serif" font-size="11.00" fill="#000000">&lt; 2</text>
<polygon fill="#ffffff" stroke="transparent" points="43.5,-263.7087 43.5,-282.7087 81.5,-282.7087 81.5,-263.7087 43.5,-263.7087"/>
<polygon fill="none" stroke="#000000" points="43.5,-263.7087 43.5,-282.7087 81.5,-282.7087 81.5,-263.7087 43.5,-263.7087"/>
<text text-anchor="start" x="46.3053" y="-269.8087" font-family="Helvetica,sans-Serif" font-size="11.00" fill="#000000">0 rows</text>
<polygon fill="#ffffff" stroke="transparent" points="81.5,-263.7087 81.5,-282.7087 102.5,-282.7087 102.5,-263.7087 81.5,-263.7087"/>
<polygon fill="none" stroke="#000000" points="81.5,-263.7087 81.5,-282.7087 102.5,-282.7087 102.5,-263.7087 81.5,-263.7087"/>
<text text-anchor="start" x="84.2027" y="-269.8087" font-family="Helvetica,sans-Serif" font-size="11.00" fill="#000000">2 &gt;</text>
</a>
</g>
</g>
<!-- order&#45;&gt;client -->
<g id="edge1" class="edge">
<title>order:w&#45;&gt;client:e</title>
<path fill="none" stroke="#000000" d="M163.5102,-301.9527C140.9573,-299.4675 130.979,-291.7087 102.5,-291.7087"/>
<polygon fill="#000000" stroke="#000000" points="170.0109,-302.2918 177.8124,-306.3039 174.0054,-302.5003 178,-302.7087 178,-302.7087 178,-302.7087 174.0054,-302.5003 178.1876,-299.1136 170.0109,-302.2918 170.0109,-302.2918"/>
<ellipse fill="none" stroke="#000000" cx="166.8152" cy="-302.1251" rx="3.2" ry="3.2"/>
</g>
<!-- store -->
<g id="node3" class="node">
<title>store</title>
<g id="a_node3"><a xlink:href="../../tables/store.html" xlink:title="store" target="_top">
<polygon fill="#ffffff" stroke="transparent" points="22.5,-172.2087 22.5,-233.2087 102.5,-233.2087 102.5,-172.2087 22.5,-172.2087"/>
<polygon fill="#f5f5f5" stroke="transparent" points="22.5,-209.7087 22.5,-232.7087 102.5,-232.7087 102.5,-209.7087 22.5,-209.7087"/>
<polygon fill="none" stroke="#000000" points="22.5,-209.7087 22.5,-232.7087 102.5,-232.7087 102.5,-209.7087 22.5,-209.7087"/>
<text text-anchor="start" x="27.5" y="-218.3087" font-family="Helvetica,sans-Serif" font-weight="bold" font-size="11.00" fill="#000000">store</text>
<text text-anchor="start" x="67.5437" y="-217.8087" font-family="Helvetica,sans-Serif" font-size="11.00" fill="#000000">[table]</text>
<polygon fill="none" stroke="#000000" points="22.5,-190.7087 22.5,-209.7087 102.5,-209.7087 102.5,-190.7087 22.5,-190.7087"/>
<text text-anchor="start" x="25.5" y="-196.8087" font-family="Helvetica,sans-Serif" font-size="11.00" fill="#000000">...</text>
<polygon fill="#ffffff" stroke="transparent" points="22.5,-171.7087 22.5,-190.7087 43.5,-190.7087 43.5,-171.7087 22.5,-171.7087"/>
<polygon fill="none" stroke="#000000" points="22.5,-171.7087 22.5,-190.7087 43.5,-190.7087 43.5,-171.7087 22.5,-171.7087"/>
<text text-anchor="start" x="25.2026" y="-177.8087" font-family="Helvetica,sans-Serif" font-size="11.00" fill="#000000">&lt; 1</text>
<polygon fill="#ffffff" stroke="transparent" points="43.5,-171.7087 43.5,-190.7087 81.5,-190.7087 81.5,-171.7087 43.5,-171.7087"/>
<polygon fill="none" stroke="#000000" points="43.5,-171.7087 43.5,-190.7087 81.5,-190.7087 81.5,-171.7087 43.5,-171.7087"/>
<text text-anchor="start" x="46.3053" y="-177.8087" font-family="Helvetica,sans-Serif" font-size="11.00" fill="#000000">0 rows</text>
<polygon fill="#ffffff" stroke="transparent" points="81.5,-171.7087 81.5,-190.7087 102.5,-190.7087 102.5,-171.7087 81.5,-171.7087"/>
<polygon fill="none" stroke="#000000" points="81.5,-171.7087 81.5,-190.7087 102.5,-190.7087 102.5,-171.7087 81.5,-171.7087"/>
<text text-anchor="start" x="84.2027" y="-177.8087" font-family="Helvetica,sans-Serif" font-size="11.00" fill="#000000">2 &gt;</text>
</a>
</g>
</g>
<!-- order&#45;&gt;store -->
<g id="edge2" class="edge">
<title>order:w&#45;&gt;store:e</title>
<path fill="none" stroke="#000000" d="M163.8426,-277.8259C133.0551,-263.3966 146.1386,-199.7087 102.5,-199.7087"/>
<polygon fill="#000000" stroke="#000000" points="170.1609,-279.1124 177.2817,-284.2364 174.0804,-279.9106 178,-280.7087 178,-280.7087 178,-280.7087 174.0804,-279.9106 178.7183,-277.1811 170.1609,-279.1124 170.1609,-279.1124"/>
<ellipse fill="none" stroke="#000000" cx="167.0252" cy="-278.4739" rx="3.2" ry="3.2"/>
</g>
<!-- order_product -->
<g id="node4" class="node">
<title>order_product</title>
<g id="a_node4"><a xlink:href="../../tables/order_product.html" xlink:title="order_product" target="_top">
<polygon fill="#ffffff" stroke="transparent" points="347,-52.7087 347,-230.7087 550,-230.7087 550,-52.7087 347,-52.7087"/>
<polygon fill="#f5f5f5" stroke="transparent" points="349.5,-205.7087 349.5,-228.7087 548.5,-228.7087 548.5,-205.7087 349.5,-205.7087"/>
<polygon fill="none" stroke="#000000" points="349.5,-205.7087 349.5,-228.7087 548.5,-228.7087 548.5,-205.7087 349.5,-205.7087"/>
<text text-anchor="start" x="354.5" y="-214.3087" font-family="Helvetica,sans-Serif" font-weight="bold" font-size="11.00" fill="#000000">order_product</text>
<text text-anchor="start" x="513.5437" y="-213.8087" font-family="Helvetica,sans-Serif" font-size="11.00" fill="#000000">[table]</text>
<polygon fill="none" stroke="#000000" points="349.5,-183.7087 349.5,-205.7087 465.5,-205.7087 465.5,-183.7087 349.5,-183.7087"/>
<image xlink:href="../../images/primaryKeys.png" width="11px" height="12px" preserveAspectRatio="xMinYMin meet" x="354.5" y="-200.709"/>
<text text-anchor="start" x="369.5" y="-190.8087" font-family="Helvetica,sans-Serif" font-size="11.00" fill="#000000">order_id</text>
<polygon fill="none" stroke="#000000" points="465.5,-183.7087 465.5,-205.7087 548.5,-205.7087 548.5,-183.7087 465.5,-183.7087"/>
<text text-anchor="start" x="468.1783" y="-191.4087" font-family="Helvetica,sans-Serif" font-size="11.00" fill="#000000">int unsigned[10]</text>
<polygon fill="none" stroke="#000000" points="349.5,-161.7087 349.5,-183.7087 465.5,-183.7087 465.5,-161.7087 349.5,-161.7087"/>
<image xlink:href="../../images/primaryKeys.png" width="11px" height="12px" preserveAspectRatio="xMinYMin meet" x="354.5" y="-178.709"/>
<text text-anchor="start" x="369.5" y="-168.8087" font-family="Helvetica,sans-Serif" font-size="11.00" fill="#000000">product_id</text>
<polygon fill="none" stroke="#000000" points="465.5,-161.7087 465.5,-183.7087 548.5,-183.7087 548.5,-161.7087 465.5,-161.7087"/>
<text text-anchor="start" x="468.1783" y="-169.4087" font-family="Helvetica,sans-Serif" font-size="11.00" fill="#000000">int unsigned[10]</text>
<polygon fill="none" stroke="#000000" points="349.5,-139.7087 349.5,-161.7087 465.5,-161.7087 465.5,-139.7087 349.5,-139.7087"/>
<image xlink:href="../../images/primaryKeys.png" width="11px" height="12px" preserveAspectRatio="xMinYMin meet" x="354.5" y="-156.709"/>
<text text-anchor="start" x="369.5" y="-146.8087" font-family="Helvetica,sans-Serif" font-size="11.00" fill="#000000">cup_size</text>
<polygon fill="none" stroke="#000000" points="465.5,-139.7087 465.5,-161.7087 548.5,-161.7087 548.5,-139.7087 465.5,-139.7087"/>
<text text-anchor="start" x="468.5" y="-147.4087" font-family="Helvetica,sans-Serif" font-size="11.00" fill="#000000">enum[6]</text>
<polygon fill="none" stroke="#000000" points="349.5,-117.7087 349.5,-139.7087 465.5,-139.7087 465.5,-117.7087 349.5,-117.7087"/>
<image xlink:href="../../images/primaryKeys.png" width="11px" height="12px" preserveAspectRatio="xMinYMin meet" x="354.5" y="-134.709"/>
<text text-anchor="start" x="369.5" y="-124.8087" font-family="Helvetica,sans-Serif" font-size="11.00" fill="#000000">milk_type</text>
<polygon fill="none" stroke="#000000" points="465.5,-117.7087 465.5,-139.7087 548.5,-139.7087 548.5,-117.7087 465.5,-117.7087"/>
<text text-anchor="start" x="468.5" y="-125.4087" font-family="Helvetica,sans-Serif" font-size="11.00" fill="#000000">enum[7]</text>
<polygon fill="none" stroke="#000000" points="349.5,-95.7087 349.5,-117.7087 465.5,-117.7087 465.5,-95.7087 349.5,-95.7087"/>
<text text-anchor="start" x="369.5" y="-102.8087" font-family="Helvetica,sans-Serif" font-size="11.00" fill="#000000">quantity</text>
<polygon fill="none" stroke="#000000" points="465.5,-95.7087 465.5,-117.7087 548.5,-117.7087 548.5,-95.7087 465.5,-95.7087"/>
<text text-anchor="start" x="468.1783" y="-103.4087" font-family="Helvetica,sans-Serif" font-size="11.00" fill="#000000">int unsigned[10]</text>
<polygon fill="none" stroke="#000000" points="349.5,-73.7087 349.5,-95.7087 465.5,-95.7087 465.5,-73.7087 349.5,-73.7087"/>
<text text-anchor="start" x="369.5" y="-80.8087" font-family="Helvetica,sans-Serif" font-size="11.00" fill="#000000">unit_price</text>
<polygon fill="none" stroke="#000000" points="465.5,-73.7087 465.5,-95.7087 548.5,-95.7087 548.5,-73.7087 465.5,-73.7087"/>
<text text-anchor="start" x="468.5" y="-81.4087" font-family="Helvetica,sans-Serif" font-size="11.00" fill="#000000">decimal[10,2]</text>
<polygon fill="#ffffff" stroke="transparent" points="349.5,-54.7087 349.5,-73.7087 398.5,-73.7087 398.5,-54.7087 349.5,-54.7087"/>
<polygon fill="none" stroke="#000000" points="349.5,-54.7087 349.5,-73.7087 398.5,-73.7087 398.5,-54.7087 349.5,-54.7087"/>
<text text-anchor="start" x="352.5" y="-60.8087" font-family="Helvetica,sans-Serif" font-size="11.00" fill="#000000">&lt; 2</text>
<polygon fill="#ffffff" stroke="transparent" points="398.5,-54.7087 398.5,-73.7087 465.5,-73.7087 465.5,-54.7087 398.5,-54.7087"/>
<polygon fill="none" stroke="#000000" points="398.5,-54.7087 398.5,-73.7087 465.5,-73.7087 465.5,-54.7087 398.5,-54.7087"/>
<text text-anchor="start" x="430.1105" y="-60.8087" font-family="Helvetica,sans-Serif" font-size="11.00" fill="#000000">0 rows</text>
<polygon fill="#ffffff" stroke="transparent" points="465.5,-54.7087 465.5,-73.7087 548.5,-73.7087 548.5,-54.7087 465.5,-54.7087"/>
<polygon fill="none" stroke="#000000" points="465.5,-54.7087 465.5,-73.7087 548.5,-73.7087 548.5,-54.7087 465.5,-54.7087"/>
<text text-anchor="start" x="529.9053" y="-60.8087" font-family="Helvetica,sans-Serif" font-size="11.00" fill="#000000">0 &gt;</text>
<polygon fill="none" stroke="#000000" stroke-width="2" points="348,-53.7087 348,-229.7087 549,-229.7087 549,-53.7087 348,-53.7087"/>
</a>
</g>
</g>
<!-- order_product&#45;&gt;order -->
<g id="edge3" class="edge">
<title>order_product:w&#45;&gt;order:e</title>
<path fill="none" stroke="#000000" d="M335.1763,-197.6682C296.1522,-217.0188 345.3486,-324.7087 287,-324.7087"/>
<polygon fill="#000000" stroke="#000000" points="341.6655,-196.3275 350.2284,-198.2343 345.5827,-195.5181 349.5,-194.7087 349.5,-194.7087 349.5,-194.7087 345.5827,-195.5181 348.7716,-191.1832 341.6655,-196.3275 341.6655,-196.3275"/>
<ellipse fill="none" stroke="#000000" cx="338.5317" cy="-196.975" rx="3.2" ry="3.2"/>
</g>
<!-- product -->
<g id="node5" class="node">
<title>product</title>
<g id="a_node5"><a xlink:href="../../tables/product.html" xlink:title="product" target="_top">
<polygon fill="#ffffff" stroke="transparent" points="8,-47.2087 8,-130.2087 117,-130.2087 117,-47.2087 8,-47.2087"/>
<polygon fill="#f5f5f5" stroke="transparent" points="8.5,-106.7087 8.5,-129.7087 117.5,-129.7087 117.5,-106.7087 8.5,-106.7087"/>
<polygon fill="none" stroke="#000000" points="8.5,-106.7087 8.5,-129.7087 117.5,-129.7087 117.5,-106.7087 8.5,-106.7087"/>
<text text-anchor="start" x="13.5" y="-115.3087" font-family="Helvetica,sans-Serif" font-weight="bold" font-size="11.00" fill="#000000">product</text>
<text text-anchor="start" x="82.5437" y="-114.8087" font-family="Helvetica,sans-Serif" font-size="11.00" fill="#000000">[table]</text>
<polygon fill="none" stroke="#000000" points="8.5,-84.7087 8.5,-106.7087 117.5,-106.7087 117.5,-84.7087 8.5,-84.7087"/>
<image xlink:href="../../images/primaryKeys.png" width="11px" height="12px" preserveAspectRatio="xMinYMin meet" x="13.5" y="-101.709"/>
<text text-anchor="start" x="28.5" y="-91.8087" font-family="Helvetica,sans-Serif" font-size="11.00" fill="#000000">product_id</text>
<polygon fill="none" stroke="#000000" points="8.5,-65.7087 8.5,-84.7087 117.5,-84.7087 117.5,-65.7087 8.5,-65.7087"/>
<text text-anchor="start" x="11.5" y="-71.8087" font-family="Helvetica,sans-Serif" font-size="11.00" fill="#000000">...</text>
<polygon fill="#ffffff" stroke="transparent" points="8.5,-46.7087 8.5,-65.7087 39.5,-65.7087 39.5,-46.7087 8.5,-46.7087"/>
<polygon fill="none" stroke="#000000" points="8.5,-46.7087 8.5,-65.7087 39.5,-65.7087 39.5,-46.7087 8.5,-46.7087"/>
<text text-anchor="start" x="11.5" y="-52.8087" font-family="Helvetica,sans-Serif" font-size="11.00" fill="#000000"> &#160;</text>
<polygon fill="#ffffff" stroke="transparent" points="39.5,-46.7087 39.5,-65.7087 86.5,-65.7087 86.5,-46.7087 39.5,-46.7087"/>
<polygon fill="none" stroke="#000000" points="39.5,-46.7087 39.5,-65.7087 86.5,-65.7087 86.5,-46.7087 39.5,-46.7087"/>
<text text-anchor="start" x="51.1105" y="-52.8087" font-family="Helvetica,sans-Serif" font-size="11.00" fill="#000000">0 rows</text>
<polygon fill="#ffffff" stroke="transparent" points="86.5,-46.7087 86.5,-65.7087 117.5,-65.7087 117.5,-46.7087 86.5,-46.7087"/>
<polygon fill="none" stroke="#000000" points="86.5,-46.7087 86.5,-65.7087 117.5,-65.7087 117.5,-46.7087 86.5,-46.7087"/>
<text text-anchor="start" x="98.9053" y="-52.8087" font-family="Helvetica,sans-Serif" font-size="11.00" fill="#000000">3 &gt;</text>
</a>
</g>
</g>
<!-- order_product&#45;&gt;product -->
<g id="edge4" class="edge">
<title>order_product:w&#45;&gt;product:e</title>
<path fill="none" stroke="#000000" d="M335.267,-169.8753C305.9184,-154.9798 346.0415,-85.373 306,-57.7087 251.8821,-20.3193 219.1637,-33.5072 158,-57.7087 135.0487,-66.7902 142.1827,-95.7087 117.5,-95.7087"/>
<polygon fill="#000000" stroke="#000000" points="341.654,-171.1468 348.7971,-176.2395 345.577,-171.9278 349.5,-172.7087 349.5,-172.7087 349.5,-172.7087 345.577,-171.9278 350.2029,-169.178 341.654,-171.1468 341.654,-171.1468"/>
<ellipse fill="none" stroke="#000000" cx="338.5155" cy="-170.522" rx="3.2" ry="3.2"/>
</g>
<!-- review -->
<g id="node6" class="node">
<title>review</title>
<g id="a_node6"><a xlink:href="../../tables/review.html" xlink:title="review" target="_top">
<polygon fill="#ffffff" stroke="transparent" points="190,-150.2087 190,-211.2087 274,-211.2087 274,-150.2087 190,-150.2087"/>
<polygon fill="#f5f5f5" stroke="transparent" points="190,-187.7087 190,-210.7087 274,-210.7087 274,-187.7087 190,-187.7087"/>
<polygon fill="none" stroke="#000000" points="190,-187.7087 190,-210.7087 274,-210.7087 274,-187.7087 190,-187.7087"/>
<text text-anchor="start" x="195" y="-196.3087" font-family="Helvetica,sans-Serif" font-weight="bold" font-size="11.00" fill="#000000">review</text>
<text text-anchor="start" x="239.5219" y="-195.8087" font-family="Helvetica,sans-Serif" font-size="11.00" fill="#000000">[table]</text>
<polygon fill="none" stroke="#000000" points="190,-168.7087 190,-187.7087 274,-187.7087 274,-168.7087 190,-168.7087"/>
<text text-anchor="start" x="193" y="-174.8087" font-family="Helvetica,sans-Serif" font-size="11.00" fill="#000000">...</text>
<polygon fill="#ffffff" stroke="transparent" points="190,-149.7087 190,-168.7087 213,-168.7087 213,-149.7087 190,-149.7087"/>
<polygon fill="none" stroke="#000000" points="190,-149.7087 190,-168.7087 213,-168.7087 213,-149.7087 190,-149.7087"/>
<text text-anchor="start" x="193" y="-155.8087" font-family="Helvetica,sans-Serif" font-size="11.00" fill="#000000">&lt; 2</text>
<polygon fill="#ffffff" stroke="transparent" points="213,-149.7087 213,-168.7087 252,-168.7087 252,-149.7087 213,-149.7087"/>
<polygon fill="none" stroke="#000000" points="213,-149.7087 213,-168.7087 252,-168.7087 252,-149.7087 213,-149.7087"/>
<text text-anchor="start" x="216.6105" y="-155.8087" font-family="Helvetica,sans-Serif" font-size="11.00" fill="#000000">0 rows</text>
<polygon fill="#ffffff" stroke="transparent" points="252,-149.7087 252,-168.7087 274,-168.7087 274,-149.7087 252,-149.7087"/>
<polygon fill="none" stroke="#000000" points="252,-149.7087 252,-168.7087 274,-168.7087 274,-149.7087 252,-149.7087"/>
<text text-anchor="start" x="255.4053" y="-155.8087" font-family="Helvetica,sans-Serif" font-size="11.00" fill="#000000">1 &gt;</text>
</a>
</g>
</g>
<!-- review&#45;&gt;client -->
<g id="edge5" class="edge">
<title>review:w&#45;&gt;client:e</title>
<path fill="none" stroke="#000000" d="M175.7079,-180.0898C132.2769,-196.4606 160.8817,-291.7087 102.5,-291.7087"/>
<polygon fill="#000000" stroke="#000000" points="182.1088,-179.0235 190.5916,-181.2598 186.0544,-178.3661 190,-177.7087 190,-177.7087 190,-177.7087 186.0544,-178.3661 189.4084,-174.1577 182.1088,-179.0235 182.1088,-179.0235"/>
<ellipse fill="none" stroke="#000000" cx="178.9523" cy="-179.5494" rx="3.2" ry="3.2"/>
</g>
<!-- review&#45;&gt;product -->
<g id="edge6" class="edge">
<title>review:w&#45;&gt;product:e</title>
<path fill="none" stroke="#000000" d="M175.687,-174.5944C146.1559,-159.6161 160.4456,-95.7087 117.5,-95.7087"/>
<polygon fill="#000000" stroke="#000000" points="182.1829,-176.0078 189.2346,-181.2264 186.0915,-176.8583 190,-177.7087 190,-177.7087 190,-177.7087 186.0915,-176.8583 190.7654,-174.1911 182.1829,-176.0078 182.1829,-176.0078"/>
<ellipse fill="none" stroke="#000000" cx="179.0561" cy="-175.3274" rx="3.2" ry="3.2"/>
</g>
<!-- store_product -->
<g id="node7" class="node">
<title>store_product</title>
<g id="a_node7"><a xlink:href="../../tables/store_product.html" xlink:title="store_product" target="_top">
<polygon fill="#ffffff" stroke="transparent" points="166,-68.2087 166,-129.2087 298,-129.2087 298,-68.2087 166,-68.2087"/>
<polygon fill="#f5f5f5" stroke="transparent" points="166,-105.7087 166,-128.7087 298,-128.7087 298,-105.7087 166,-105.7087"/>
<polygon fill="none" stroke="#000000" points="166,-105.7087 166,-128.7087 298,-128.7087 298,-105.7087 166,-105.7087"/>
<text text-anchor="start" x="171" y="-114.3087" font-family="Helvetica,sans-Serif" font-weight="bold" font-size="11.00" fill="#000000">store_product</text>
<text text-anchor="start" x="263.5219" y="-113.8087" font-family="Helvetica,sans-Serif" font-size="11.00" fill="#000000">[table]</text>
<polygon fill="none" stroke="#000000" points="166,-86.7087 166,-105.7087 298,-105.7087 298,-86.7087 166,-86.7087"/>
<text text-anchor="start" x="169" y="-92.8087" font-family="Helvetica,sans-Serif" font-size="11.00" fill="#000000">...</text>
<polygon fill="#ffffff" stroke="transparent" points="166,-67.7087 166,-86.7087 217,-86.7087 217,-67.7087 166,-67.7087"/>
<polygon fill="none" stroke="#000000" points="166,-67.7087 166,-86.7087 217,-86.7087 217,-67.7087 166,-67.7087"/>
<text text-anchor="start" x="169" y="-73.8087" font-family="Helvetica,sans-Serif" font-size="11.00" fill="#000000">&lt; 2</text>
<polygon fill="#ffffff" stroke="transparent" points="217,-67.7087 217,-86.7087 270,-86.7087 270,-67.7087 217,-67.7087"/>
<polygon fill="none" stroke="#000000" points="217,-67.7087 217,-86.7087 270,-86.7087 270,-67.7087 217,-67.7087"/>
<text text-anchor="start" x="234.6105" y="-73.8087" font-family="Helvetica,sans-Serif" font-size="11.00" fill="#000000">0 rows</text>
<polygon fill="#ffffff" stroke="transparent" points="270,-67.7087 270,-86.7087 298,-86.7087 298,-67.7087 270,-67.7087"/>
<polygon fill="none" stroke="#000000" points="270,-67.7087 270,-86.7087 298,-86.7087 298,-67.7087 270,-67.7087"/>
<text text-anchor="start" x="288.8862" y="-73.8087" font-family="Helvetica,sans-Serif" font-size="11.00" fill="#000000"> &#160;</text>
</a>
</g>
</g>
<!-- store_product&#45;&gt;store -->
<g id="edge8" class="edge">
<title>store_product:w&#45;&gt;store:e</title>
<path fill="none" stroke="#000000" d="M151.9349,-98.9353C120.195,-116.4894 150.9452,-199.7087 102.5,-199.7087"/>
<polygon fill="#000000" stroke="#000000" points="158.2025,-97.4975 166.805,-99.2176 162.1013,-96.6031 166,-95.7087 166,-95.7087 166,-95.7087 162.1013,-96.6031 165.195,-92.1999 158.2025,-97.4975 158.2025,-97.4975"/>
<ellipse fill="none" stroke="#000000" cx="155.0836" cy="-98.2131" rx="3.2" ry="3.2"/>
</g>
<!-- store_product&#45;&gt;product -->
<g id="edge7" class="edge">
<title>store_product:w&#45;&gt;product:e</title>
<path fill="none" stroke="#000000" d="M151.2829,-95.7087C140.2886,-95.7087 133.1615,-95.7087 117.5,-95.7087"/>
<polygon fill="#000000" stroke="#000000" points="158,-95.7088 166,-99.3087 162,-95.7088 166,-95.7087 166,-95.7087 166,-95.7087 162,-95.7088 166,-92.1087 158,-95.7088 158,-95.7088"/>
<ellipse fill="none" stroke="#000000" cx="154.8" cy="-95.7088" rx="3.2" ry="3.2"/>
</g>
</g>
</svg>
