<?xml version="1.0" encoding="UTF-8" standalone="no"?>
<!DOCTYPE svg PUBLIC "-//W3C//DTD SVG 1.1//EN"
 "http://www.w3.org/Graphics/SVG/1.1/DTD/svg11.dtd">
<!-- Generated by graphviz version 2.40.1 (20161225.0304)
 -->
<!-- Title: oneDegreeRelationshipsDiagram Pages: 1 -->
<svg width="385pt" height="290pt"
 viewBox="0.00 0.00 385.00 289.70" xmlns="http://www.w3.org/2000/svg" xmlns:xlink="http://www.w3.org/1999/xlink">
<g id="graph0" class="graph" transform="scale(1 1) rotate(0) translate(4 285.7)">
<title>oneDegreeRelationshipsDiagram</title>
<polygon fill="#ffffff" stroke="transparent" points="-4,4 -4,-285.7 381,-285.7 381,4 -4,4"/>
<text text-anchor="middle" x="72.4936" y="-7.3" font-family="Helvetica,sans-Serif" font-size="11.00" fill="#000000">Generated by SchemaSpy</text>
<!-- order_product -->
<g id="node1" class="node">
<title>order_product</title>
<g id="a_node1"><a xlink:href="../../tables/order_product.html" xlink:title="order_product" target="_top">
<polygon fill="#ffffff" stroke="transparent" points="166,-38.2 166,-216.2 369,-216.2 369,-38.2 166,-38.2"/>
<polygon fill="#f5f5f5" stroke="transparent" points="168.5,-191.2 168.5,-214.2 367.5,-214.2 367.5,-191.2 168.5,-191.2"/>
<polygon fill="none" stroke="#000000" points="168.5,-191.2 168.5,-214.2 367.5,-214.2 367.5,-191.2 168.5,-191.2"/>
<text text-anchor="start" x="173.5" y="-199.8" font-family="Helvetica,sans-Serif" font-weight="bold" font-size="11.00" fill="#000000">order_product</text>
<text text-anchor="start" x="332.5437" y="-199.3" font-family="Helvetica,sans-Serif" font-size="11.00" fill="#000000">[table]</text>
<polygon fill="none" stroke="#000000" points="168.5,-169.2 168.5,-191.2 284.5,-191.2 284.5,-169.2 168.5,-169.2"/>
<image xlink:href="../../images/primaryKeys.png" width="11px" height="12px" preserveAspectRatio="xMinYMin meet" x="173.5" y="-186.2"/>
<text text-anchor="start" x="188.5" y="-176.3" font-family="Helvetica,sans-Serif" font-size="11.00" fill="#000000">order_id</text>
<polygon fill="none" stroke="#000000" points="284.5,-169.2 284.5,-191.2 367.5,-191.2 367.5,-169.2 284.5,-169.2"/>
<text text-anchor="start" x="287.1783" y="-176.9" font-family="Helvetica,sans-Serif" font-size="11.00" fill="#000000">int unsigned[10]</text>
<polygon fill="none" stroke="#000000" points="168.5,-147.2 168.5,-169.2 284.5,-169.2 284.5,-147.2 168.5,-147.2"/>
<image xlink:href="../../images/primaryKeys.png" width="11px" height="12px" preserveAspectRatio="xMinYMin meet" x="173.5" y="-164.2"/>
<text text-anchor="start" x="188.5" y="-154.3" font-family="Helvetica,sans-Serif" font-size="11.00" fill="#000000">product_id</text>
<polygon fill="none" stroke="#000000" points="284.5,-147.2 284.5,-169.2 367.5,-169.2 367.5,-147.2 284.5,-147.2"/>
<text text-anchor="start" x="287.1783" y="-154.9" font-family="Helvetica,sans-Serif" font-size="11.00" fill="#000000">int unsigned[10]</text>
<polygon fill="none" stroke="#000000" points="168.5,-125.2 168.5,-147.2 284.5,-147.2 284.5,-125.2 168.5,-125.2"/>
<image xlink:href="../../images/primaryKeys.png" width="11px" height="12px" preserveAspectRatio="xMinYMin meet" x="173.5" y="-142.2"/>
<text text-anchor="start" x="188.5" y="-132.3" font-family="Helvetica,sans-Serif" font-size="11.00" fill="#000000">cup_size</text>
<polygon fill="none" stroke="#000000" points="284.5,-125.2 284.5,-147.2 367.5,-147.2 367.5,-125.2 284.5,-125.2"/>
<text text-anchor="start" x="287.5" y="-132.9" font-family="Helvetica,sans-Serif" font-size="11.00" fill="#000000">enum[6]</text>
<polygon fill="none" stroke="#000000" points="168.5,-103.2 168.5,-125.2 284.5,-125.2 284.5,-103.2 168.5,-103.2"/>
<image xlink:href="../../images/primaryKeys.png" width="11px" height="12px" preserveAspectRatio="xMinYMin meet" x="173.5" y="-120.2"/>
<text text-anchor="start" x="188.5" y="-110.3" font-family="Helvetica,sans-Serif" font-size="11.00" fill="#000000">milk_type</text>
<polygon fill="none" stroke="#000000" points="284.5,-103.2 284.5,-125.2 367.5,-125.2 367.5,-103.2 284.5,-103.2"/>
<text text-anchor="start" x="287.5" y="-110.9" font-family="Helvetica,sans-Serif" font-size="11.00" fill="#000000">enum[7]</text>
<polygon fill="none" stroke="#000000" points="168.5,-81.2 168.5,-103.2 284.5,-103.2 284.5,-81.2 168.5,-81.2"/>
<text text-anchor="start" x="188.5" y="-88.3" font-family="Helvetica,sans-Serif" font-size="11.00" fill="#000000">quantity</text>
<polygon fill="none" stroke="#000000" points="284.5,-81.2 284.5,-103.2 367.5,-103.2 367.5,-81.2 284.5,-81.2"/>
<text text-anchor="start" x="287.1783" y="-88.9" font-family="Helvetica,sans-Serif" font-size="11.00" fill="#000000">int unsigned[10]</text>
<polygon fill="none" stroke="#000000" points="168.5,-59.2 168.5,-81.2 284.5,-81.2 284.5,-59.2 168.5,-59.2"/>
<text text-anchor="start" x="188.5" y="-66.3" font-family="Helvetica,sans-Serif" font-size="11.00" fill="#000000">unit_price</text>
<polygon fill="none" stroke="#000000" points="284.5,-59.2 284.5,-81.2 367.5,-81.2 367.5,-59.2 284.5,-59.2"/>
<text text-anchor="start" x="287.5" y="-66.9" font-family="Helvetica,sans-Serif" font-size="11.00" fill="#000000">decimal[10,2]</text>
<polygon fill="#ffffff" stroke="transparent" points="168.5,-40.2 168.5,-59.2 217.5,-59.2 217.5,-40.2 168.5,-40.2"/>
<polygon fill="none" stroke="#000000" points="168.5,-40.2 168.5,-59.2 217.5,-59.2 217.5,-40.2 168.5,-40.2"/>
<text text-anchor="start" x="171.5" y="-46.3" font-family="Helvetica,sans-Serif" font-size="11.00" fill="#000000">&lt; 2</text>
<polygon fill="#ffffff" stroke="transparent" points="217.5,-40.2 217.5,-59.2 284.5,-59.2 284.5,-40.2 217.5,-40.2"/>
<polygon fill="none" stroke="#000000" points="217.5,-40.2 217.5,-59.2 284.5,-59.2 284.5,-40.2 217.5,-40.2"/>
<text text-anchor="start" x="249.1105" y="-46.3" font-family="Helvetica,sans-Serif" font-size="11.00" fill="#000000">0 rows</text>
<polygon fill="#ffffff" stroke="transparent" points="284.5,-40.2 284.5,-59.2 367.5,-59.2 367.5,-40.2 284.5,-40.2"/>
<polygon fill="none" stroke="#000000" points="284.5,-40.2 284.5,-59.2 367.5,-59.2 367.5,-40.2 284.5,-40.2"/>
<text text-anchor="start" x="348.9053" y="-46.3" font-family="Helvetica,sans-Serif" font-size="11.00" fill="#000000">0 &gt;</text>
<polygon fill="none" stroke="#000000" stroke-width="2" points="167,-39.2 167,-215.2 368,-215.2 368,-39.2 167,-39.2"/>
</a>
</g>
</g>
<!-- order -->
<g id="node2" class="node">
<title>order</title>
<g id="a_node2"><a xlink:href="../../tables/order.html" xlink:title="order" target="_top">
<polygon fill="#ffffff" stroke="transparent" points="8,-150.7 8,-277.7 117,-277.7 117,-150.7 8,-150.7"/>
<polygon fill="#f5f5f5" stroke="transparent" points="8.5,-254.2 8.5,-277.2 117.5,-277.2 117.5,-254.2 8.5,-254.2"/>
<polygon fill="none" stroke="#000000" points="8.5,-254.2 8.5,-277.2 117.5,-277.2 117.5,-254.2 8.5,-254.2"/>
<text text-anchor="start" x="13.5" y="-262.8" font-family="Helvetica,sans-Serif" font-weight="bold" font-size="11.00" fill="#000000">order</text>
<text text-anchor="start" x="82.5437" y="-262.3" font-family="Helvetica,sans-Serif" font-size="11.00" fill="#000000">[table]</text>
<polygon fill="none" stroke="#000000" points="8.5,-232.2 8.5,-254.2 117.5,-254.2 117.5,-232.2 8.5,-232.2"/>
<image xlink:href="../../images/primaryKeys.png" width="11px" height="12px" preserveAspectRatio="xMinYMin meet" x="13.5" y="-249.2"/>
<text text-anchor="start" x="28.5" y="-239.3" font-family="Helvetica,sans-Serif" font-size="11.00" fill="#000000">order_id</text>
<polygon fill="#ffffff" stroke="transparent" points="8.5,-210.2 8.5,-232.2 117.5,-232.2 117.5,-210.2 8.5,-210.2"/>
<polygon fill="none" stroke="#000000" points="8.5,-210.2 8.5,-232.2 117.5,-232.2 117.5,-210.2 8.5,-210.2"/>
<image xlink:href="../../images/foreignKeys.png" width="11px" height="12px" preserveAspectRatio="xMinYMin meet" x="13.5" y="-227.2"/>
<text text-anchor="start" x="28.5" y="-217.3" font-family="Helvetica,sans-Serif" font-size="11.00" fill="#000000">client_id</text>
<polygon fill="#ffffff" stroke="transparent" points="8.5,-188.2 8.5,-210.2 117.5,-210.2 117.5,-188.2 8.5,-188.2"/>
<polygon fill="none" stroke="#000000" points="8.5,-188.2 8.5,-210.2 117.5,-210.2 117.5,-188.2 8.5,-188.2"/>
<image xlink:href="../../images/foreignKeys.png" width="11px" height="12px" preserveAspectRatio="xMinYMin meet" x="13.5" y="-205.2"/>
<text text-anchor="start" x="28.5" y="-195.3" font-family="Helvetica,sans-Serif" font-size="11.00" fill="#000000">store_id</text>
<polygon fill="none" stroke="#000000" points="8.5,-169.2 8.5,-188.2 117.5,-188.2 117.5,-169.2 8.5,-169.2"/>
<text text-anchor="start" x="11.5" y="-175.3" font-family="Helvetica,sans-Serif" font-size="11.00" fill="#000000">...</text>
<polygon fill="#ffffff" stroke="transparent" points="8.5,-150.2 8.5,-169.2 43.5,-169.2 43.5,-150.2 8.5,-150.2"/>
<polygon fill="none" stroke="#000000" points="8.5,-150.2 8.5,-169.2 43.5,-169.2 43.5,-150.2 8.5,-150.2"/>
<text text-anchor="start" x="11.5" y="-156.3" font-family="Helvetica,sans-Serif" font-size="11.00" fill="#000000">&lt; 2</text>
<polygon fill="#ffffff" stroke="transparent" points="43.5,-150.2 43.5,-169.2 88.5,-169.2 88.5,-150.2 43.5,-150.2"/>
<polygon fill="none" stroke="#000000" points="43.5,-150.2 43.5,-169.2 88.5,-169.2 88.5,-150.2 43.5,-150.2"/>
<text text-anchor="start" x="53.1105" y="-156.3" font-family="Helvetica,sans-Serif" font-size="11.00" fill="#000000">0 rows</text>
<polygon fill="#ffffff" stroke="transparent" points="88.5,-150.2 88.5,-169.2 117.5,-169.2 117.5,-150.2 88.5,-150.2"/>
<polygon fill="none" stroke="#000000" points="88.5,-150.2 88.5,-169.2 117.5,-169.2 117.5,-150.2 88.5,-150.2"/>
<text text-anchor="start" x="98.9053" y="-156.3" font-family="Helvetica,sans-Serif" font-size="11.00" fill="#000000">1 &gt;</text>
</a>
</g>
</g>
<!-- order_product&#45;&gt;order -->
<g id="edge1" class="edge">
<title>order_product:w&#45;&gt;order:e</title>
<path fill="none" stroke="#000000" d="M154.4033,-185.1435C138.025,-199.9952 147.3329,-243.2 117.5,-243.2"/>
<polygon fill="#000000" stroke="#000000" points="160.9507,-182.8474 169.6913,-183.5972 164.7254,-181.5237 168.5,-180.2 168.5,-180.2 168.5,-180.2 164.7254,-181.5237 167.3087,-176.8028 160.9507,-182.8474 160.9507,-182.8474"/>
<ellipse fill="none" stroke="#000000" cx="157.931" cy="-183.9064" rx="3.2" ry="3.2"/>
</g>
<!-- product -->
<g id="node3" class="node">
<title>product</title>
<g id="a_node3"><a xlink:href="../../tables/product.html" xlink:title="product" target="_top">
<polygon fill="#ffffff" stroke="transparent" points="8,-46.7 8,-129.7 117,-129.7 117,-46.7 8,-46.7"/>
<polygon fill="#f5f5f5" stroke="transparent" points="8.5,-106.2 8.5,-129.2 117.5,-129.2 117.5,-106.2 8.5,-106.2"/>
<polygon fill="none" stroke="#000000" points="8.5,-106.2 8.5,-129.2 117.5,-129.2 117.5,-106.2 8.5,-106.2"/>
<text text-anchor="start" x="13.5" y="-114.8" font-family="Helvetica,sans-Serif" font-weight="bold" font-size="11.00" fill="#000000">product</text>
<text text-anchor="start" x="82.5437" y="-114.3" font-family="Helvetica,sans-Serif" font-size="11.00" fill="#000000">[table]</text>
<polygon fill="none" stroke="#000000" points="8.5,-84.2 8.5,-106.2 117.5,-106.2 117.5,-84.2 8.5,-84.2"/>
<image xlink:href="../../images/primaryKeys.png" width="11px" height="12px" preserveAspectRatio="xMinYMin meet" x="13.5" y="-101.2"/>
<text text-anchor="start" x="28.5" y="-91.3" font-family="Helvetica,sans-Serif" font-size="11.00" fill="#000000">product_id</text>
<polygon fill="none" stroke="#000000" points="8.5,-65.2 8.5,-84.2 117.5,-84.2 117.5,-65.2 8.5,-65.2"/>
<text text-anchor="start" x="11.5" y="-71.3" font-family="Helvetica,sans-Serif" font-size="11.00" fill="#000000">...</text>
<polygon fill="#ffffff" stroke="transparent" points="8.5,-46.2 8.5,-65.2 39.5,-65.2 39.5,-46.2 8.5,-46.2"/>
<polygon fill="none" stroke="#000000" points="8.5,-46.2 8.5,-65.2 39.5,-65.2 39.5,-46.2 8.5,-46.2"/>
<text text-anchor="start" x="11.5" y="-52.3" font-family="Helvetica,sans-Serif" font-size="11.00" fill="#000000"> &#160;</text>
<polygon fill="#ffffff" stroke="transparent" points="39.5,-46.2 39.5,-65.2 86.5,-65.2 86.5,-46.2 39.5,-46.2"/>
<polygon fill="none" stroke="#000000" points="39.5,-46.2 39.5,-65.2 86.5,-65.2 86.5,-46.2 39.5,-46.2"/>
<text text-anchor="start" x="51.1105" y="-52.3" font-family="Helvetica,sans-Serif" font-size="11.00" fill="#000000">0 rows</text>
<polygon fill="#ffffff" stroke="transparent" points="86.5,-46.2 86.5,-65.2 117.5,-65.2 117.5,-46.2 86.5,-46.2"/>
<polygon fill="none" stroke="#000000" points="86.5,-46.2 86.5,-65.2 117.5,-65.2 117.5,-46.2 86.5,-46.2"/>
<text text-anchor="start" x="98.9053" y="-52.3" font-family="Helvetica,sans-Serif" font-size="11.00" fill="#000000">3 &gt;</text>
</a>
</g>
</g>
<!-- order_product&#45;&gt;product -->
<g id="edge2" class="edge">
<title>order_product:w&#45;&gt;product:e</title>
<path fill="none" stroke="#000000" d="M154.4033,-153.2565C138.025,-138.4048 147.3329,-95.2 117.5,-95.2"/>
<polygon fill="#000000" stroke="#000000" points="160.9507,-155.5526 167.3087,-161.5972 164.7254,-156.8763 168.5,-158.2 168.5,-158.2 168.5,-158.2 164.7254,-156.8763 169.6913,-154.8028 160.9507,-155.5526 160.9507,-155.5526"/>
<ellipse fill="none" stroke="#000000" cx="157.931" cy="-154.4936" rx="3.2" ry="3.2"/>
</g>
</g>
</svg>
