<?xml version="1.0" encoding="UTF-8" standalone="no"?>
<!DOCTYPE svg PUBLIC "-//W3C//DTD SVG 1.1//EN"
 "http://www.w3.org/Graphics/SVG/1.1/DTD/svg11.dtd">
<!-- Generated by graphviz version 2.40.1 (20161225.0304)
 -->
<!-- Title: twoDegreesRelationshipsDiagram Pages: 1 -->
<svg width="681pt" height="445pt"
 viewBox="0.00 0.00 681.00 444.70" xmlns="http://www.w3.org/2000/svg" xmlns:xlink="http://www.w3.org/1999/xlink">
<g id="graph0" class="graph" transform="scale(1 1) rotate(0) translate(4 440.7)">
<title>twoDegreesRelationshipsDiagram</title>
<polygon fill="#ffffff" stroke="transparent" points="-4,4 -4,-440.7 677,-440.7 677,4 -4,4"/>
<text text-anchor="middle" x="72.4936" y="-7.3" font-family="Helvetica,sans-Serif" font-size="11.00" fill="#000000">Generated by SchemaSpy</text>
<!-- client -->
<g id="node1" class="node">
<title>client</title>
<g id="a_node1"><a xlink:href="../../tables/client.html" xlink:title="client" target="_top">
<polygon fill="#ffffff" stroke="transparent" points="146.5,-268.2 146.5,-373.2 234.5,-373.2 234.5,-268.2 146.5,-268.2"/>
<polygon fill="#f5f5f5" stroke="transparent" points="146.5,-349.7 146.5,-372.7 234.5,-372.7 234.5,-349.7 146.5,-349.7"/>
<polygon fill="none" stroke="#000000" points="146.5,-349.7 146.5,-372.7 234.5,-372.7 234.5,-349.7 146.5,-349.7"/>
<text text-anchor="start" x="151.5" y="-358.3" font-family="Helvetica,sans-Serif" font-weight="bold" font-size="11.00" fill="#000000">client</text>
<text text-anchor="start" x="199.5437" y="-357.8" font-family="Helvetica,sans-Serif" font-size="11.00" fill="#000000">[table]</text>
<polygon fill="none" stroke="#000000" points="146.5,-327.7 146.5,-349.7 234.5,-349.7 234.5,-327.7 146.5,-327.7"/>
<image xlink:href="../../images/primaryKeys.png" width="11px" height="12px" preserveAspectRatio="xMinYMin meet" x="151.5" y="-344.7"/>
<text text-anchor="start" x="166.5" y="-334.8" font-family="Helvetica,sans-Serif" font-size="11.00" fill="#000000">user_id</text>
<polygon fill="#ffffff" stroke="transparent" points="146.5,-305.7 146.5,-327.7 234.5,-327.7 234.5,-305.7 146.5,-305.7"/>
<polygon fill="none" stroke="#000000" points="146.5,-305.7 146.5,-327.7 234.5,-327.7 234.5,-305.7 146.5,-305.7"/>
<image xlink:href="../../images/foreignKeys.png" width="11px" height="12px" preserveAspectRatio="xMinYMin meet" x="151.5" y="-322.7"/>
<text text-anchor="start" x="166.5" y="-312.8" font-family="Helvetica,sans-Serif" font-size="11.00" fill="#000000">district_id</text>
<polygon fill="none" stroke="#000000" points="146.5,-286.7 146.5,-305.7 234.5,-305.7 234.5,-286.7 146.5,-286.7"/>
<text text-anchor="start" x="149.5" y="-292.8" font-family="Helvetica,sans-Serif" font-size="11.00" fill="#000000">...</text>
<polygon fill="#ffffff" stroke="transparent" points="146.5,-267.7 146.5,-286.7 171.5,-286.7 171.5,-267.7 146.5,-267.7"/>
<polygon fill="none" stroke="#000000" points="146.5,-267.7 146.5,-286.7 171.5,-286.7 171.5,-267.7 146.5,-267.7"/>
<text text-anchor="start" x="149.5" y="-273.8" font-family="Helvetica,sans-Serif" font-size="11.00" fill="#000000">&lt; 2</text>
<polygon fill="#ffffff" stroke="transparent" points="171.5,-267.7 171.5,-286.7 211.5,-286.7 211.5,-267.7 171.5,-267.7"/>
<polygon fill="none" stroke="#000000" points="171.5,-267.7 171.5,-286.7 211.5,-286.7 211.5,-267.7 171.5,-267.7"/>
<text text-anchor="start" x="176.1105" y="-273.8" font-family="Helvetica,sans-Serif" font-size="11.00" fill="#000000">0 rows</text>
<polygon fill="#ffffff" stroke="transparent" points="211.5,-267.7 211.5,-286.7 234.5,-286.7 234.5,-267.7 211.5,-267.7"/>
<polygon fill="none" stroke="#000000" points="211.5,-267.7 211.5,-286.7 234.5,-286.7 234.5,-267.7 211.5,-267.7"/>
<text text-anchor="start" x="215.9053" y="-273.8" font-family="Helvetica,sans-Serif" font-size="11.00" fill="#000000">2 &gt;</text>
</a>
</g>
</g>
<!-- district -->
<g id="node2" class="node">
<title>district</title>
<g id="a_node2"><a xlink:href="../../tables/district.html" xlink:title="district" target="_top">
<polygon fill="#ffffff" stroke="transparent" points="8,-185.2 8,-246.2 95,-246.2 95,-185.2 8,-185.2"/>
<polygon fill="#f5f5f5" stroke="transparent" points="8.5,-222.7 8.5,-245.7 95.5,-245.7 95.5,-222.7 8.5,-222.7"/>
<polygon fill="none" stroke="#000000" points="8.5,-222.7 8.5,-245.7 95.5,-245.7 95.5,-222.7 8.5,-222.7"/>
<text text-anchor="start" x="13.5" y="-231.3" font-family="Helvetica,sans-Serif" font-weight="bold" font-size="11.00" fill="#000000">district</text>
<text text-anchor="start" x="61.0219" y="-230.8" font-family="Helvetica,sans-Serif" font-size="11.00" fill="#000000">[table]</text>
<polygon fill="none" stroke="#000000" points="8.5,-203.7 8.5,-222.7 95.5,-222.7 95.5,-203.7 8.5,-203.7"/>
<text text-anchor="start" x="11.5" y="-209.8" font-family="Helvetica,sans-Serif" font-size="11.00" fill="#000000">...</text>
<polygon fill="#ffffff" stroke="transparent" points="8.5,-184.7 8.5,-203.7 28.5,-203.7 28.5,-184.7 8.5,-184.7"/>
<polygon fill="none" stroke="#000000" points="8.5,-184.7 8.5,-203.7 28.5,-203.7 28.5,-184.7 8.5,-184.7"/>
<text text-anchor="start" x="11.5" y="-190.8" font-family="Helvetica,sans-Serif" font-size="11.00" fill="#000000"> &#160;</text>
<polygon fill="#ffffff" stroke="transparent" points="28.5,-184.7 28.5,-203.7 70.5,-203.7 70.5,-184.7 28.5,-184.7"/>
<polygon fill="none" stroke="#000000" points="28.5,-184.7 28.5,-203.7 70.5,-203.7 70.5,-184.7 28.5,-184.7"/>
<text text-anchor="start" x="35.1105" y="-190.8" font-family="Helvetica,sans-Serif" font-size="11.00" fill="#000000">0 rows</text>
<polygon fill="#ffffff" stroke="transparent" points="70.5,-184.7 70.5,-203.7 95.5,-203.7 95.5,-184.7 70.5,-184.7"/>
<polygon fill="none" stroke="#000000" points="70.5,-184.7 70.5,-203.7 95.5,-203.7 95.5,-184.7 70.5,-184.7"/>
<text text-anchor="start" x="76.9053" y="-190.8" font-family="Helvetica,sans-Serif" font-size="11.00" fill="#000000">2 &gt;</text>
</a>
</g>
</g>
<!-- client&#45;&gt;district -->
<g id="edge1" class="edge">
<title>client:w&#45;&gt;district:e</title>
<path fill="none" stroke="#000000" d="M132.33,-312.7501C105.7771,-293.7532 140.9479,-212.7 95.5,-212.7"/>
<polygon fill="#000000" stroke="#000000" points="138.7938,-314.5518 145.5333,-320.1678 142.6469,-315.6259 146.5,-316.7 146.5,-316.7 146.5,-316.7 142.6469,-315.6259 147.4667,-313.2322 138.7938,-314.5518 138.7938,-314.5518"/>
<ellipse fill="none" stroke="#000000" cx="135.7113" cy="-313.6926" rx="3.2" ry="3.2"/>
</g>
<!-- user -->
<g id="node3" class="node">
<title>user</title>
<g id="a_node3"><a xlink:href="../../tables/user.html" xlink:title="user" target="_top">
<polygon fill="#ffffff" stroke="transparent" points="16,-311.2 16,-372.2 87,-372.2 87,-311.2 16,-311.2"/>
<polygon fill="#f5f5f5" stroke="transparent" points="16.5,-348.7 16.5,-371.7 87.5,-371.7 87.5,-348.7 16.5,-348.7"/>
<polygon fill="none" stroke="#000000" points="16.5,-348.7 16.5,-371.7 87.5,-371.7 87.5,-348.7 16.5,-348.7"/>
<text text-anchor="start" x="21.5" y="-357.3" font-family="Helvetica,sans-Serif" font-weight="bold" font-size="11.00" fill="#000000">user</text>
<text text-anchor="start" x="52.5437" y="-356.8" font-family="Helvetica,sans-Serif" font-size="11.00" fill="#000000">[table]</text>
<polygon fill="none" stroke="#000000" points="16.5,-329.7 16.5,-348.7 87.5,-348.7 87.5,-329.7 16.5,-329.7"/>
<text text-anchor="start" x="19.5" y="-335.8" font-family="Helvetica,sans-Serif" font-size="11.00" fill="#000000">...</text>
<polygon fill="#ffffff" stroke="transparent" points="16.5,-310.7 16.5,-329.7 28.5,-329.7 28.5,-310.7 16.5,-310.7"/>
<polygon fill="none" stroke="#000000" points="16.5,-310.7 16.5,-329.7 28.5,-329.7 28.5,-310.7 16.5,-310.7"/>
<text text-anchor="start" x="19.4431" y="-316.8" font-family="Helvetica,sans-Serif" font-size="11.00" fill="#000000"> &#160;</text>
<polygon fill="#ffffff" stroke="transparent" points="28.5,-310.7 28.5,-329.7 66.5,-329.7 66.5,-310.7 28.5,-310.7"/>
<polygon fill="none" stroke="#000000" points="28.5,-310.7 28.5,-329.7 66.5,-329.7 66.5,-310.7 28.5,-310.7"/>
<text text-anchor="start" x="31.3053" y="-316.8" font-family="Helvetica,sans-Serif" font-size="11.00" fill="#000000">0 rows</text>
<polygon fill="#ffffff" stroke="transparent" points="66.5,-310.7 66.5,-329.7 87.5,-329.7 87.5,-310.7 66.5,-310.7"/>
<polygon fill="none" stroke="#000000" points="66.5,-310.7 66.5,-329.7 87.5,-329.7 87.5,-310.7 66.5,-310.7"/>
<text text-anchor="start" x="69.2027" y="-316.8" font-family="Helvetica,sans-Serif" font-size="11.00" fill="#000000">4 &gt;</text>
</a>
</g>
</g>
<!-- client&#45;&gt;user -->
<g id="edge2" class="edge">
<title>client:w&#45;&gt;user:e</title>
<path fill="none" stroke="#000000" d="M135.9943,-338.7C117.8983,-338.7 109.8299,-338.7 87.5,-338.7"/>
<polygon fill="#000000" stroke="#000000" points="145.7,-334.7 145.7,-342.7 144.1,-342.7 144.1,-334.7 145.7,-334.7"/>
<polyline fill="none" stroke="#000000" points="146.5,-338.7 142.5,-338.7 "/>
<ellipse fill="none" stroke="#000000" cx="139.3" cy="-338.7001" rx="3.2" ry="3.2"/>
</g>
<!-- order -->
<g id="node4" class="node">
<title>order</title>
<g id="a_node4"><a xlink:href="../../tables/order.html" xlink:title="order" target="_top">
<polygon fill="#ffffff" stroke="transparent" points="286,-254.7 286,-432.7 482,-432.7 482,-254.7 286,-254.7"/>
<polygon fill="#f5f5f5" stroke="transparent" points="288,-407.7 288,-430.7 480,-430.7 480,-407.7 288,-407.7"/>
<polygon fill="none" stroke="#000000" points="288,-407.7 288,-430.7 480,-430.7 480,-407.7 288,-407.7"/>
<text text-anchor="start" x="293" y="-416.3" font-family="Helvetica,sans-Serif" font-weight="bold" font-size="11.00" fill="#000000">order</text>
<text text-anchor="start" x="445.0437" y="-415.8" font-family="Helvetica,sans-Serif" font-size="11.00" fill="#000000">[table]</text>
<polygon fill="none" stroke="#000000" points="288,-385.7 288,-407.7 397,-407.7 397,-385.7 288,-385.7"/>
<image xlink:href="../../images/primaryKeys.png" width="11px" height="12px" preserveAspectRatio="xMinYMin meet" x="293" y="-402.7"/>
<text text-anchor="start" x="308" y="-392.8" font-family="Helvetica,sans-Serif" font-size="11.00" fill="#000000">order_id</text>
<polygon fill="none" stroke="#000000" points="397,-385.7 397,-407.7 480,-407.7 480,-385.7 397,-385.7"/>
<text text-anchor="start" x="399.6783" y="-393.4" font-family="Helvetica,sans-Serif" font-size="11.00" fill="#000000">int unsigned[10]</text>
<polygon fill="none" stroke="#000000" points="288,-363.7 288,-385.7 397,-385.7 397,-363.7 288,-363.7"/>
<text text-anchor="start" x="308" y="-370.8" font-family="Helvetica,sans-Serif" font-size="11.00" fill="#000000">status</text>
<polygon fill="none" stroke="#000000" points="397,-363.7 397,-385.7 480,-385.7 480,-363.7 397,-363.7"/>
<text text-anchor="start" x="400" y="-371.4" font-family="Helvetica,sans-Serif" font-size="11.00" fill="#000000">enum[9]</text>
<polygon fill="none" stroke="#000000" points="288,-341.7 288,-363.7 397,-363.7 397,-341.7 288,-341.7"/>
<text text-anchor="start" x="308" y="-348.8" font-family="Helvetica,sans-Serif" font-size="11.00" fill="#000000">created_date</text>
<polygon fill="none" stroke="#000000" points="397,-341.7 397,-363.7 480,-363.7 480,-341.7 397,-341.7"/>
<text text-anchor="start" x="400" y="-349.4" font-family="Helvetica,sans-Serif" font-size="11.00" fill="#000000">datetime[19]</text>
<polygon fill="none" stroke="#000000" points="288,-319.7 288,-341.7 397,-341.7 397,-319.7 288,-319.7"/>
<text text-anchor="start" x="308" y="-326.8" font-family="Helvetica,sans-Serif" font-size="11.00" fill="#000000">pickup_date</text>
<polygon fill="none" stroke="#000000" points="397,-319.7 397,-341.7 480,-341.7 480,-319.7 397,-319.7"/>
<text text-anchor="start" x="400" y="-327.4" font-family="Helvetica,sans-Serif" font-size="11.00" fill="#000000">datetime[19]</text>
<polygon fill="#ffffff" stroke="transparent" points="288,-297.7 288,-319.7 397,-319.7 397,-297.7 288,-297.7"/>
<polygon fill="none" stroke="#000000" points="288,-297.7 288,-319.7 397,-319.7 397,-297.7 288,-297.7"/>
<image xlink:href="../../images/foreignKeys.png" width="11px" height="12px" preserveAspectRatio="xMinYMin meet" x="293" y="-314.7"/>
<text text-anchor="start" x="308" y="-304.8" font-family="Helvetica,sans-Serif" font-size="11.00" fill="#000000">client_id</text>
<polygon fill="none" stroke="#000000" points="397,-297.7 397,-319.7 480,-319.7 480,-297.7 397,-297.7"/>
<text text-anchor="start" x="399.6783" y="-305.4" font-family="Helvetica,sans-Serif" font-size="11.00" fill="#000000">int unsigned[10]</text>
<polygon fill="#ffffff" stroke="transparent" points="288,-275.7 288,-297.7 397,-297.7 397,-275.7 288,-275.7"/>
<polygon fill="none" stroke="#000000" points="288,-275.7 288,-297.7 397,-297.7 397,-275.7 288,-275.7"/>
<image xlink:href="../../images/foreignKeys.png" width="11px" height="12px" preserveAspectRatio="xMinYMin meet" x="293" y="-292.7"/>
<text text-anchor="start" x="308" y="-282.8" font-family="Helvetica,sans-Serif" font-size="11.00" fill="#000000">store_id</text>
<polygon fill="none" stroke="#000000" points="397,-275.7 397,-297.7 480,-297.7 480,-275.7 397,-275.7"/>
<text text-anchor="start" x="399.6783" y="-283.4" font-family="Helvetica,sans-Serif" font-size="11.00" fill="#000000">int unsigned[10]</text>
<polygon fill="#ffffff" stroke="transparent" points="288,-256.7 288,-275.7 334,-275.7 334,-256.7 288,-256.7"/>
<polygon fill="none" stroke="#000000" points="288,-256.7 288,-275.7 334,-275.7 334,-256.7 288,-256.7"/>
<text text-anchor="start" x="291" y="-262.8" font-family="Helvetica,sans-Serif" font-size="11.00" fill="#000000">&lt; 2</text>
<polygon fill="#ffffff" stroke="transparent" points="334,-256.7 334,-275.7 397,-275.7 397,-256.7 334,-256.7"/>
<polygon fill="none" stroke="#000000" points="334,-256.7 334,-275.7 397,-275.7 397,-256.7 334,-256.7"/>
<text text-anchor="start" x="361.6105" y="-262.8" font-family="Helvetica,sans-Serif" font-size="11.00" fill="#000000">0 rows</text>
<polygon fill="#ffffff" stroke="transparent" points="397,-256.7 397,-275.7 480,-275.7 480,-256.7 397,-256.7"/>
<polygon fill="none" stroke="#000000" points="397,-256.7 397,-275.7 480,-275.7 480,-256.7 397,-256.7"/>
<text text-anchor="start" x="461.4053" y="-262.8" font-family="Helvetica,sans-Serif" font-size="11.00" fill="#000000">1 &gt;</text>
<polygon fill="none" stroke="#000000" stroke-width="2" points="287,-255.7 287,-431.7 481,-431.7 481,-255.7 287,-255.7"/>
</a>
</g>
</g>
<!-- order&#45;&gt;client -->
<g id="edge3" class="edge">
<title>order:w&#45;&gt;client:e</title>
<path fill="none" stroke="#000000" d="M273.9933,-312.1414C259.9117,-320.0214 256.0106,-338.7 234.5,-338.7"/>
<polygon fill="#000000" stroke="#000000" points="280.2311,-310.6088 288.859,-312.196 284.1155,-309.6544 288,-308.7 288,-308.7 288,-308.7 284.1155,-309.6544 287.141,-305.204 280.2311,-310.6088 280.2311,-310.6088"/>
<ellipse fill="none" stroke="#000000" cx="277.1235" cy="-311.3724" rx="3.2" ry="3.2"/>
</g>
<!-- store -->
<g id="node5" class="node">
<title>store</title>
<g id="a_node5"><a xlink:href="../../tables/store.html" xlink:title="store" target="_top">
<polygon fill="#ffffff" stroke="transparent" points="144,-120.2 144,-247.2 237,-247.2 237,-120.2 144,-120.2"/>
<polygon fill="#f5f5f5" stroke="transparent" points="144.5,-223.7 144.5,-246.7 237.5,-246.7 237.5,-223.7 144.5,-223.7"/>
<polygon fill="none" stroke="#000000" points="144.5,-223.7 144.5,-246.7 237.5,-246.7 237.5,-223.7 144.5,-223.7"/>
<text text-anchor="start" x="149.5" y="-232.3" font-family="Helvetica,sans-Serif" font-weight="bold" font-size="11.00" fill="#000000">store</text>
<text text-anchor="start" x="202.5437" y="-231.8" font-family="Helvetica,sans-Serif" font-size="11.00" fill="#000000">[table]</text>
<polygon fill="none" stroke="#000000" points="144.5,-201.7 144.5,-223.7 237.5,-223.7 237.5,-201.7 144.5,-201.7"/>
<image xlink:href="../../images/primaryKeys.png" width="11px" height="12px" preserveAspectRatio="xMinYMin meet" x="149.5" y="-218.7"/>
<text text-anchor="start" x="164.5" y="-208.8" font-family="Helvetica,sans-Serif" font-size="11.00" fill="#000000">store_id</text>
<polygon fill="#ffffff" stroke="transparent" points="144.5,-179.7 144.5,-201.7 237.5,-201.7 237.5,-179.7 144.5,-179.7"/>
<polygon fill="none" stroke="#000000" points="144.5,-179.7 144.5,-201.7 237.5,-201.7 237.5,-179.7 144.5,-179.7"/>
<text text-anchor="start" x="164.5" y="-186.8" font-family="Helvetica,sans-Serif" font-size="11.00" fill="#000000">coordinate</text>
<polygon fill="#ffffff" stroke="transparent" points="144.5,-157.7 144.5,-179.7 237.5,-179.7 237.5,-157.7 144.5,-157.7"/>
<polygon fill="none" stroke="#000000" points="144.5,-157.7 144.5,-179.7 237.5,-179.7 237.5,-157.7 144.5,-157.7"/>
<image xlink:href="../../images/foreignKeys.png" width="11px" height="12px" preserveAspectRatio="xMinYMin meet" x="149.5" y="-174.7"/>
<text text-anchor="start" x="164.5" y="-164.8" font-family="Helvetica,sans-Serif" font-size="11.00" fill="#000000">district_id</text>
<polygon fill="none" stroke="#000000" points="144.5,-138.7 144.5,-157.7 237.5,-157.7 237.5,-138.7 144.5,-138.7"/>
<text text-anchor="start" x="147.5" y="-144.8" font-family="Helvetica,sans-Serif" font-size="11.00" fill="#000000">...</text>
<polygon fill="#ffffff" stroke="transparent" points="144.5,-119.7 144.5,-138.7 171.5,-138.7 171.5,-119.7 144.5,-119.7"/>
<polygon fill="none" stroke="#000000" points="144.5,-119.7 144.5,-138.7 171.5,-138.7 171.5,-119.7 144.5,-119.7"/>
<text text-anchor="start" x="147.5" y="-125.8" font-family="Helvetica,sans-Serif" font-size="11.00" fill="#000000">&lt; 1</text>
<polygon fill="#ffffff" stroke="transparent" points="171.5,-119.7 171.5,-138.7 212.5,-138.7 212.5,-119.7 171.5,-119.7"/>
<polygon fill="none" stroke="#000000" points="171.5,-119.7 171.5,-138.7 212.5,-138.7 212.5,-119.7 171.5,-119.7"/>
<text text-anchor="start" x="177.1105" y="-125.8" font-family="Helvetica,sans-Serif" font-size="11.00" fill="#000000">0 rows</text>
<polygon fill="#ffffff" stroke="transparent" points="212.5,-119.7 212.5,-138.7 237.5,-138.7 237.5,-119.7 212.5,-119.7"/>
<polygon fill="none" stroke="#000000" points="212.5,-119.7 212.5,-138.7 237.5,-138.7 237.5,-119.7 212.5,-119.7"/>
<text text-anchor="start" x="218.9053" y="-125.8" font-family="Helvetica,sans-Serif" font-size="11.00" fill="#000000">2 &gt;</text>
</a>
</g>
</g>
<!-- order&#45;&gt;store -->
<g id="edge4" class="edge">
<title>order:w&#45;&gt;store:e</title>
<path fill="none" stroke="#000000" d="M274.1154,-282.071C255.4593,-265.8706 271.2515,-212.7 237.5,-212.7"/>
<polygon fill="#000000" stroke="#000000" points="280.4107,-284.1697 286.8614,-290.1152 284.2053,-285.4349 288,-286.7 288,-286.7 288,-286.7 284.2053,-285.4349 289.1386,-283.2848 280.4107,-284.1697 280.4107,-284.1697"/>
<ellipse fill="none" stroke="#000000" cx="277.3749" cy="-283.1576" rx="3.2" ry="3.2"/>
</g>
<!-- store&#45;&gt;district -->
<g id="edge9" class="edge">
<title>store:w&#45;&gt;district:e</title>
<path fill="none" stroke="#000000" d="M130.8171,-173.4088C117.5046,-184.7596 118.824,-212.7 95.5,-212.7"/>
<polygon fill="#000000" stroke="#000000" points="136.9354,-171.3033 145.6715,-172.1041 140.7177,-170.0016 144.5,-168.7 144.5,-168.7 144.5,-168.7 140.7177,-170.0016 143.3285,-165.2959 136.9354,-171.3033 136.9354,-171.3033"/>
<ellipse fill="none" stroke="#000000" cx="133.9096" cy="-172.3446" rx="3.2" ry="3.2"/>
</g>
<!-- order_product -->
<g id="node6" class="node">
<title>order_product</title>
<g id="a_node6"><a xlink:href="../../tables/order_product.html" xlink:title="order_product" target="_top">
<polygon fill="#ffffff" stroke="transparent" points="531,-127.2 531,-276.2 665,-276.2 665,-127.2 531,-127.2"/>
<polygon fill="#f5f5f5" stroke="transparent" points="531,-252.7 531,-275.7 665,-275.7 665,-252.7 531,-252.7"/>
<polygon fill="none" stroke="#000000" points="531,-252.7 531,-275.7 665,-275.7 665,-252.7 531,-252.7"/>
<text text-anchor="start" x="536" y="-261.3" font-family="Helvetica,sans-Serif" font-weight="bold" font-size="11.00" fill="#000000">order_product</text>
<text text-anchor="start" x="630.5219" y="-260.8" font-family="Helvetica,sans-Serif" font-size="11.00" fill="#000000">[table]</text>
<polygon fill="none" stroke="#000000" points="531,-230.7 531,-252.7 665,-252.7 665,-230.7 531,-230.7"/>
<image xlink:href="../../images/primaryKeys.png" width="11px" height="12px" preserveAspectRatio="xMinYMin meet" x="536" y="-247.7"/>
<text text-anchor="start" x="560" y="-237.8" font-family="Helvetica,sans-Serif" font-size="11.00" fill="#000000">order_id</text>
<polygon fill="none" stroke="#000000" points="531,-208.7 531,-230.7 665,-230.7 665,-208.7 531,-208.7"/>
<image xlink:href="../../images/primaryKeys.png" width="11px" height="12px" preserveAspectRatio="xMinYMin meet" x="536" y="-225.7"/>
<text text-anchor="start" x="560" y="-215.8" font-family="Helvetica,sans-Serif" font-size="11.00" fill="#000000">product_id</text>
<polygon fill="none" stroke="#000000" points="531,-186.7 531,-208.7 665,-208.7 665,-186.7 531,-186.7"/>
<image xlink:href="../../images/primaryKeys.png" width="11px" height="12px" preserveAspectRatio="xMinYMin meet" x="536" y="-203.7"/>
<text text-anchor="start" x="560" y="-193.8" font-family="Helvetica,sans-Serif" font-size="11.00" fill="#000000">cup_size</text>
<polygon fill="none" stroke="#000000" points="531,-164.7 531,-186.7 665,-186.7 665,-164.7 531,-164.7"/>
<image xlink:href="../../images/primaryKeys.png" width="11px" height="12px" preserveAspectRatio="xMinYMin meet" x="536" y="-181.7"/>
<text text-anchor="start" x="560" y="-171.8" font-family="Helvetica,sans-Serif" font-size="11.00" fill="#000000">milk_type</text>
<polygon fill="none" stroke="#000000" points="531,-145.7 531,-164.7 665,-164.7 665,-145.7 531,-145.7"/>
<text text-anchor="start" x="534" y="-151.8" font-family="Helvetica,sans-Serif" font-size="11.00" fill="#000000">...</text>
<polygon fill="#ffffff" stroke="transparent" points="531,-126.7 531,-145.7 583,-145.7 583,-126.7 531,-126.7"/>
<polygon fill="none" stroke="#000000" points="531,-126.7 531,-145.7 583,-145.7 583,-126.7 531,-126.7"/>
<text text-anchor="start" x="534" y="-132.8" font-family="Helvetica,sans-Serif" font-size="11.00" fill="#000000">&lt; 2</text>
<polygon fill="#ffffff" stroke="transparent" points="583,-126.7 583,-145.7 637,-145.7 637,-126.7 583,-126.7"/>
<polygon fill="none" stroke="#000000" points="583,-126.7 583,-145.7 637,-145.7 637,-126.7 583,-126.7"/>
<text text-anchor="start" x="601.6105" y="-132.8" font-family="Helvetica,sans-Serif" font-size="11.00" fill="#000000">0 rows</text>
<polygon fill="#ffffff" stroke="transparent" points="637,-126.7 637,-145.7 665,-145.7 665,-126.7 637,-126.7"/>
<polygon fill="none" stroke="#000000" points="637,-126.7 637,-145.7 665,-145.7 665,-126.7 637,-126.7"/>
<text text-anchor="start" x="655.8862" y="-132.8" font-family="Helvetica,sans-Serif" font-size="11.00" fill="#000000"> &#160;</text>
</a>
</g>
</g>
<!-- order_product&#45;&gt;order -->
<g id="edge5" class="edge">
<title>order_product:w&#45;&gt;order:e</title>
<path fill="none" stroke="#000000" d="M516.611,-244.5226C472.4716,-265.5303 546.7147,-396.7 480,-396.7"/>
<polygon fill="#000000" stroke="#000000" points="523.1496,-243.24 531.693,-245.2327 527.0748,-242.47 531,-241.7 531,-241.7 531,-241.7 527.0748,-242.47 530.307,-238.1673 523.1496,-243.24 523.1496,-243.24"/>
<ellipse fill="none" stroke="#000000" cx="520.0095" cy="-243.856" rx="3.2" ry="3.2"/>
</g>
<!-- product -->
<g id="node7" class="node">
<title>product</title>
<g id="a_node7"><a xlink:href="../../tables/product.html" xlink:title="product" target="_top">
<polygon fill="#ffffff" stroke="transparent" points="145,-38.2 145,-99.2 236,-99.2 236,-38.2 145,-38.2"/>
<polygon fill="#f5f5f5" stroke="transparent" points="145.5,-75.7 145.5,-98.7 236.5,-98.7 236.5,-75.7 145.5,-75.7"/>
<polygon fill="none" stroke="#000000" points="145.5,-75.7 145.5,-98.7 236.5,-98.7 236.5,-75.7 145.5,-75.7"/>
<text text-anchor="start" x="150.5" y="-84.3" font-family="Helvetica,sans-Serif" font-weight="bold" font-size="11.00" fill="#000000">product</text>
<text text-anchor="start" x="202.0219" y="-83.8" font-family="Helvetica,sans-Serif" font-size="11.00" fill="#000000">[table]</text>
<polygon fill="none" stroke="#000000" points="145.5,-56.7 145.5,-75.7 236.5,-75.7 236.5,-56.7 145.5,-56.7"/>
<text text-anchor="start" x="148.5" y="-62.8" font-family="Helvetica,sans-Serif" font-size="11.00" fill="#000000">...</text>
<polygon fill="#ffffff" stroke="transparent" points="145.5,-37.7 145.5,-56.7 167.5,-56.7 167.5,-37.7 145.5,-37.7"/>
<polygon fill="none" stroke="#000000" points="145.5,-37.7 145.5,-56.7 167.5,-56.7 167.5,-37.7 145.5,-37.7"/>
<text text-anchor="start" x="148.5" y="-43.8" font-family="Helvetica,sans-Serif" font-size="11.00" fill="#000000"> &#160;</text>
<polygon fill="#ffffff" stroke="transparent" points="167.5,-37.7 167.5,-56.7 210.5,-56.7 210.5,-37.7 167.5,-37.7"/>
<polygon fill="none" stroke="#000000" points="167.5,-37.7 167.5,-56.7 210.5,-56.7 210.5,-37.7 167.5,-37.7"/>
<text text-anchor="start" x="175.1105" y="-43.8" font-family="Helvetica,sans-Serif" font-size="11.00" fill="#000000">0 rows</text>
<polygon fill="#ffffff" stroke="transparent" points="210.5,-37.7 210.5,-56.7 236.5,-56.7 236.5,-37.7 210.5,-37.7"/>
<polygon fill="none" stroke="#000000" points="210.5,-37.7 210.5,-56.7 236.5,-56.7 236.5,-37.7 210.5,-37.7"/>
<text text-anchor="start" x="217.9053" y="-43.8" font-family="Helvetica,sans-Serif" font-size="11.00" fill="#000000">3 &gt;</text>
</a>
</g>
</g>
<!-- order_product&#45;&gt;product -->
<g id="edge6" class="edge">
<title>order_product:w&#45;&gt;product:e</title>
<path fill="none" stroke="#000000" d="M516.71,-217.4008C478.5626,-202.2629 536.234,-116.3696 490,-79.7 401.5926,-9.5814 349.3384,-65.7 236.5,-65.7"/>
<polygon fill="#000000" stroke="#000000" points="523.1016,-218.4292 530.4281,-223.2543 527.0508,-219.0646 531,-219.7 531,-219.7 531,-219.7 527.0508,-219.0646 531.5719,-216.1457 523.1016,-218.4292 523.1016,-218.4292"/>
<ellipse fill="none" stroke="#000000" cx="519.9422" cy="-217.9208" rx="3.2" ry="3.2"/>
</g>
<!-- review -->
<g id="node8" class="node">
<title>review</title>
<g id="a_node8"><a xlink:href="../../tables/review.html" xlink:title="review" target="_top">
<polygon fill="#ffffff" stroke="transparent" points="342,-172.2 342,-233.2 426,-233.2 426,-172.2 342,-172.2"/>
<polygon fill="#f5f5f5" stroke="transparent" points="342,-209.7 342,-232.7 426,-232.7 426,-209.7 342,-209.7"/>
<polygon fill="none" stroke="#000000" points="342,-209.7 342,-232.7 426,-232.7 426,-209.7 342,-209.7"/>
<text text-anchor="start" x="347" y="-218.3" font-family="Helvetica,sans-Serif" font-weight="bold" font-size="11.00" fill="#000000">review</text>
<text text-anchor="start" x="391.5219" y="-217.8" font-family="Helvetica,sans-Serif" font-size="11.00" fill="#000000">[table]</text>
<polygon fill="none" stroke="#000000" points="342,-190.7 342,-209.7 426,-209.7 426,-190.7 342,-190.7"/>
<text text-anchor="start" x="345" y="-196.8" font-family="Helvetica,sans-Serif" font-size="11.00" fill="#000000">...</text>
<polygon fill="#ffffff" stroke="transparent" points="342,-171.7 342,-190.7 365,-190.7 365,-171.7 342,-171.7"/>
<polygon fill="none" stroke="#000000" points="342,-171.7 342,-190.7 365,-190.7 365,-171.7 342,-171.7"/>
<text text-anchor="start" x="345" y="-177.8" font-family="Helvetica,sans-Serif" font-size="11.00" fill="#000000">&lt; 2</text>
<polygon fill="#ffffff" stroke="transparent" points="365,-171.7 365,-190.7 404,-190.7 404,-171.7 365,-171.7"/>
<polygon fill="none" stroke="#000000" points="365,-171.7 365,-190.7 404,-190.7 404,-171.7 365,-171.7"/>
<text text-anchor="start" x="368.6105" y="-177.8" font-family="Helvetica,sans-Serif" font-size="11.00" fill="#000000">0 rows</text>
<polygon fill="#ffffff" stroke="transparent" points="404,-171.7 404,-190.7 426,-190.7 426,-171.7 404,-171.7"/>
<polygon fill="none" stroke="#000000" points="404,-171.7 404,-190.7 426,-190.7 426,-171.7 404,-171.7"/>
<text text-anchor="start" x="407.4053" y="-177.8" font-family="Helvetica,sans-Serif" font-size="11.00" fill="#000000">1 &gt;</text>
</a>
</g>
</g>
<!-- review&#45;&gt;client -->
<g id="edge7" class="edge">
<title>review:w&#45;&gt;client:e</title>
<path fill="none" stroke="#000000" d="M327.5743,-201.0031C304.6841,-205.6262 296.8039,-222.1793 278,-244.7 248.4956,-280.0363 280.5343,-338.7 234.5,-338.7"/>
<polygon fill="#000000" stroke="#000000" points="334.0324,-200.4198 342.3239,-203.2854 338.0162,-200.0599 342,-199.7 342,-199.7 342,-199.7 338.0162,-200.0599 341.6761,-196.1146 334.0324,-200.4198 334.0324,-200.4198"/>
<ellipse fill="none" stroke="#000000" cx="330.8454" cy="-200.7077" rx="3.2" ry="3.2"/>
</g>
<!-- review&#45;&gt;product -->
<g id="edge8" class="edge">
<title>review:w&#45;&gt;product:e</title>
<path fill="none" stroke="#000000" d="M327.4946,-198.6437C305.5996,-195.0667 296.2655,-182.4624 278,-161.7 247.2974,-126.8003 282.9827,-65.7 236.5,-65.7"/>
<polygon fill="#000000" stroke="#000000" points="334.0211,-199.1189 341.7385,-203.2905 338.0106,-199.4095 342,-199.7 342,-199.7 342,-199.7 338.0106,-199.4095 342.2615,-196.1095 334.0211,-199.1189 334.0211,-199.1189"/>
<ellipse fill="none" stroke="#000000" cx="330.8296" cy="-198.8865" rx="3.2" ry="3.2"/>
</g>
<!-- store_product -->
<g id="node9" class="node">
<title>store_product</title>
<g id="a_node9"><a xlink:href="../../tables/store_product.html" xlink:title="store_product" target="_top">
<polygon fill="#ffffff" stroke="transparent" points="318,-90.2 318,-151.2 450,-151.2 450,-90.2 318,-90.2"/>
<polygon fill="#f5f5f5" stroke="transparent" points="318,-127.7 318,-150.7 450,-150.7 450,-127.7 318,-127.7"/>
<polygon fill="none" stroke="#000000" points="318,-127.7 318,-150.7 450,-150.7 450,-127.7 318,-127.7"/>
<text text-anchor="start" x="323" y="-136.3" font-family="Helvetica,sans-Serif" font-weight="bold" font-size="11.00" fill="#000000">store_product</text>
<text text-anchor="start" x="415.5219" y="-135.8" font-family="Helvetica,sans-Serif" font-size="11.00" fill="#000000">[table]</text>
<polygon fill="none" stroke="#000000" points="318,-108.7 318,-127.7 450,-127.7 450,-108.7 318,-108.7"/>
<text text-anchor="start" x="321" y="-114.8" font-family="Helvetica,sans-Serif" font-size="11.00" fill="#000000">...</text>
<polygon fill="#ffffff" stroke="transparent" points="318,-89.7 318,-108.7 369,-108.7 369,-89.7 318,-89.7"/>
<polygon fill="none" stroke="#000000" points="318,-89.7 318,-108.7 369,-108.7 369,-89.7 318,-89.7"/>
<text text-anchor="start" x="321" y="-95.8" font-family="Helvetica,sans-Serif" font-size="11.00" fill="#000000">&lt; 2</text>
<polygon fill="#ffffff" stroke="transparent" points="369,-89.7 369,-108.7 422,-108.7 422,-89.7 369,-89.7"/>
<polygon fill="none" stroke="#000000" points="369,-89.7 369,-108.7 422,-108.7 422,-89.7 369,-89.7"/>
<text text-anchor="start" x="386.6105" y="-95.8" font-family="Helvetica,sans-Serif" font-size="11.00" fill="#000000">0 rows</text>
<polygon fill="#ffffff" stroke="transparent" points="422,-89.7 422,-108.7 450,-108.7 450,-89.7 422,-89.7"/>
<polygon fill="none" stroke="#000000" points="422,-89.7 422,-108.7 450,-108.7 450,-89.7 422,-89.7"/>
<text text-anchor="start" x="440.8862" y="-95.8" font-family="Helvetica,sans-Serif" font-size="11.00" fill="#000000"> &#160;</text>
</a>
</g>
</g>
<!-- store_product&#45;&gt;store -->
<g id="edge11" class="edge">
<title>store_product:w&#45;&gt;store:e</title>
<path fill="none" stroke="#000000" d="M303.705,-121.2773C292.0981,-128.681 291.1045,-146.2824 278,-161.7 259.2545,-183.7541 266.4444,-212.7 237.5,-212.7"/>
<polygon fill="#000000" stroke="#000000" points="310.2393,-119.6421 318.874,-121.1923 314.1197,-118.6711 318,-117.7 318,-117.7 318,-117.7 314.1197,-118.6711 317.126,-114.2077 310.2393,-119.6421 310.2393,-119.6421"/>
<ellipse fill="none" stroke="#000000" cx="307.135" cy="-120.419" rx="3.2" ry="3.2"/>
</g>
<!-- store_product&#45;&gt;product -->
<g id="edge10" class="edge">
<title>store_product:w&#45;&gt;product:e</title>
<path fill="none" stroke="#000000" d="M303.5437,-115.3305C275.3884,-105.1578 273.9284,-65.7 236.5,-65.7"/>
<polygon fill="#000000" stroke="#000000" points="310.1053,-116.406 317.4177,-121.2526 314.0527,-117.053 318,-117.7 318,-117.7 318,-117.7 314.0527,-117.053 318.5823,-114.1474 310.1053,-116.406 310.1053,-116.406"/>
<ellipse fill="none" stroke="#000000" cx="306.9475" cy="-115.8884" rx="3.2" ry="3.2"/>
</g>
</g>
</svg>
