<?xml version="1.0" encoding="UTF-8" standalone="no"?>
<!DOCTYPE svg PUBLIC "-//W3C//DTD SVG 1.1//EN"
 "http://www.w3.org/Graphics/SVG/1.1/DTD/svg11.dtd">
<!-- Generated by graphviz version 2.40.1 (20161225.0304)
 -->
<!-- Title: oneDegreeRelationshipsDiagram Pages: 1 -->
<svg width="545pt" height="341pt"
 viewBox="0.00 0.00 545.00 340.70" xmlns="http://www.w3.org/2000/svg" xmlns:xlink="http://www.w3.org/1999/xlink">
<g id="graph0" class="graph" transform="scale(1 1) rotate(0) translate(4 336.7)">
<title>oneDegreeRelationshipsDiagram</title>
<polygon fill="#ffffff" stroke="transparent" points="-4,4 -4,-336.7 541,-336.7 541,4 -4,4"/>
<text text-anchor="middle" x="72.4936" y="-7.3" font-family="Helvetica,sans-Serif" font-size="11.00" fill="#000000">Generated by SchemaSpy</text>
<!-- order -->
<g id="node1" class="node">
<title>order</title>
<g id="a_node1"><a xlink:href="../../tables/order.html" xlink:title="order" target="_top">
<polygon fill="#ffffff" stroke="transparent" points="150,-150.7 150,-328.7 346,-328.7 346,-150.7 150,-150.7"/>
<polygon fill="#f5f5f5" stroke="transparent" points="152,-303.7 152,-326.7 344,-326.7 344,-303.7 152,-303.7"/>
<polygon fill="none" stroke="#000000" points="152,-303.7 152,-326.7 344,-326.7 344,-303.7 152,-303.7"/>
<text text-anchor="start" x="157" y="-312.3" font-family="Helvetica,sans-Serif" font-weight="bold" font-size="11.00" fill="#000000">order</text>
<text text-anchor="start" x="309.0437" y="-311.8" font-family="Helvetica,sans-Serif" font-size="11.00" fill="#000000">[table]</text>
<polygon fill="none" stroke="#000000" points="152,-281.7 152,-303.7 261,-303.7 261,-281.7 152,-281.7"/>
<image xlink:href="../../images/primaryKeys.png" width="11px" height="12px" preserveAspectRatio="xMinYMin meet" x="157" y="-298.7"/>
<text text-anchor="start" x="172" y="-288.8" font-family="Helvetica,sans-Serif" font-size="11.00" fill="#000000">order_id</text>
<polygon fill="none" stroke="#000000" points="261,-281.7 261,-303.7 344,-303.7 344,-281.7 261,-281.7"/>
<text text-anchor="start" x="263.6783" y="-289.4" font-family="Helvetica,sans-Serif" font-size="11.00" fill="#000000">int unsigned[10]</text>
<polygon fill="none" stroke="#000000" points="152,-259.7 152,-281.7 261,-281.7 261,-259.7 152,-259.7"/>
<text text-anchor="start" x="172" y="-266.8" font-family="Helvetica,sans-Serif" font-size="11.00" fill="#000000">status</text>
<polygon fill="none" stroke="#000000" points="261,-259.7 261,-281.7 344,-281.7 344,-259.7 261,-259.7"/>
<text text-anchor="start" x="264" y="-267.4" font-family="Helvetica,sans-Serif" font-size="11.00" fill="#000000">enum[9]</text>
<polygon fill="none" stroke="#000000" points="152,-237.7 152,-259.7 261,-259.7 261,-237.7 152,-237.7"/>
<text text-anchor="start" x="172" y="-244.8" font-family="Helvetica,sans-Serif" font-size="11.00" fill="#000000">created_date</text>
<polygon fill="none" stroke="#000000" points="261,-237.7 261,-259.7 344,-259.7 344,-237.7 261,-237.7"/>
<text text-anchor="start" x="264" y="-245.4" font-family="Helvetica,sans-Serif" font-size="11.00" fill="#000000">datetime[19]</text>
<polygon fill="none" stroke="#000000" points="152,-215.7 152,-237.7 261,-237.7 261,-215.7 152,-215.7"/>
<text text-anchor="start" x="172" y="-222.8" font-family="Helvetica,sans-Serif" font-size="11.00" fill="#000000">pickup_date</text>
<polygon fill="none" stroke="#000000" points="261,-215.7 261,-237.7 344,-237.7 344,-215.7 261,-215.7"/>
<text text-anchor="start" x="264" y="-223.4" font-family="Helvetica,sans-Serif" font-size="11.00" fill="#000000">datetime[19]</text>
<polygon fill="#ffffff" stroke="transparent" points="152,-193.7 152,-215.7 261,-215.7 261,-193.7 152,-193.7"/>
<polygon fill="none" stroke="#000000" points="152,-193.7 152,-215.7 261,-215.7 261,-193.7 152,-193.7"/>
<image xlink:href="../../images/foreignKeys.png" width="11px" height="12px" preserveAspectRatio="xMinYMin meet" x="157" y="-210.7"/>
<text text-anchor="start" x="172" y="-200.8" font-family="Helvetica,sans-Serif" font-size="11.00" fill="#000000">client_id</text>
<polygon fill="none" stroke="#000000" points="261,-193.7 261,-215.7 344,-215.7 344,-193.7 261,-193.7"/>
<text text-anchor="start" x="263.6783" y="-201.4" font-family="Helvetica,sans-Serif" font-size="11.00" fill="#000000">int unsigned[10]</text>
<polygon fill="#ffffff" stroke="transparent" points="152,-171.7 152,-193.7 261,-193.7 261,-171.7 152,-171.7"/>
<polygon fill="none" stroke="#000000" points="152,-171.7 152,-193.7 261,-193.7 261,-171.7 152,-171.7"/>
<image xlink:href="../../images/foreignKeys.png" width="11px" height="12px" preserveAspectRatio="xMinYMin meet" x="157" y="-188.7"/>
<text text-anchor="start" x="172" y="-178.8" font-family="Helvetica,sans-Serif" font-size="11.00" fill="#000000">store_id</text>
<polygon fill="none" stroke="#000000" points="261,-171.7 261,-193.7 344,-193.7 344,-171.7 261,-171.7"/>
<text text-anchor="start" x="263.6783" y="-179.4" font-family="Helvetica,sans-Serif" font-size="11.00" fill="#000000">int unsigned[10]</text>
<polygon fill="#ffffff" stroke="transparent" points="152,-152.7 152,-171.7 198,-171.7 198,-152.7 152,-152.7"/>
<polygon fill="none" stroke="#000000" points="152,-152.7 152,-171.7 198,-171.7 198,-152.7 152,-152.7"/>
<text text-anchor="start" x="155" y="-158.8" font-family="Helvetica,sans-Serif" font-size="11.00" fill="#000000">&lt; 2</text>
<polygon fill="#ffffff" stroke="transparent" points="198,-152.7 198,-171.7 261,-171.7 261,-152.7 198,-152.7"/>
<polygon fill="none" stroke="#000000" points="198,-152.7 198,-171.7 261,-171.7 261,-152.7 198,-152.7"/>
<text text-anchor="start" x="225.6105" y="-158.8" font-family="Helvetica,sans-Serif" font-size="11.00" fill="#000000">0 rows</text>
<polygon fill="#ffffff" stroke="transparent" points="261,-152.7 261,-171.7 344,-171.7 344,-152.7 261,-152.7"/>
<polygon fill="none" stroke="#000000" points="261,-152.7 261,-171.7 344,-171.7 344,-152.7 261,-152.7"/>
<text text-anchor="start" x="325.4053" y="-158.8" font-family="Helvetica,sans-Serif" font-size="11.00" fill="#000000">1 &gt;</text>
<polygon fill="none" stroke="#000000" stroke-width="2" points="151,-151.7 151,-327.7 345,-327.7 345,-151.7 151,-151.7"/>
</a>
</g>
</g>
<!-- client -->
<g id="node2" class="node">
<title>client</title>
<g id="a_node2"><a xlink:href="../../tables/client.html" xlink:title="client" target="_top">
<polygon fill="#ffffff" stroke="transparent" points="10.5,-186.2 10.5,-291.2 98.5,-291.2 98.5,-186.2 10.5,-186.2"/>
<polygon fill="#f5f5f5" stroke="transparent" points="10.5,-267.7 10.5,-290.7 98.5,-290.7 98.5,-267.7 10.5,-267.7"/>
<polygon fill="none" stroke="#000000" points="10.5,-267.7 10.5,-290.7 98.5,-290.7 98.5,-267.7 10.5,-267.7"/>
<text text-anchor="start" x="15.5" y="-276.3" font-family="Helvetica,sans-Serif" font-weight="bold" font-size="11.00" fill="#000000">client</text>
<text text-anchor="start" x="63.5437" y="-275.8" font-family="Helvetica,sans-Serif" font-size="11.00" fill="#000000">[table]</text>
<polygon fill="none" stroke="#000000" points="10.5,-245.7 10.5,-267.7 98.5,-267.7 98.5,-245.7 10.5,-245.7"/>
<image xlink:href="../../images/primaryKeys.png" width="11px" height="12px" preserveAspectRatio="xMinYMin meet" x="15.5" y="-262.7"/>
<text text-anchor="start" x="30.5" y="-252.8" font-family="Helvetica,sans-Serif" font-size="11.00" fill="#000000">user_id</text>
<polygon fill="#ffffff" stroke="transparent" points="10.5,-223.7 10.5,-245.7 98.5,-245.7 98.5,-223.7 10.5,-223.7"/>
<polygon fill="none" stroke="#000000" points="10.5,-223.7 10.5,-245.7 98.5,-245.7 98.5,-223.7 10.5,-223.7"/>
<image xlink:href="../../images/foreignKeys.png" width="11px" height="12px" preserveAspectRatio="xMinYMin meet" x="15.5" y="-240.7"/>
<text text-anchor="start" x="30.5" y="-230.8" font-family="Helvetica,sans-Serif" font-size="11.00" fill="#000000">district_id</text>
<polygon fill="none" stroke="#000000" points="10.5,-204.7 10.5,-223.7 98.5,-223.7 98.5,-204.7 10.5,-204.7"/>
<text text-anchor="start" x="13.5" y="-210.8" font-family="Helvetica,sans-Serif" font-size="11.00" fill="#000000">...</text>
<polygon fill="#ffffff" stroke="transparent" points="10.5,-185.7 10.5,-204.7 35.5,-204.7 35.5,-185.7 10.5,-185.7"/>
<polygon fill="none" stroke="#000000" points="10.5,-185.7 10.5,-204.7 35.5,-204.7 35.5,-185.7 10.5,-185.7"/>
<text text-anchor="start" x="13.5" y="-191.8" font-family="Helvetica,sans-Serif" font-size="11.00" fill="#000000">&lt; 2</text>
<polygon fill="#ffffff" stroke="transparent" points="35.5,-185.7 35.5,-204.7 75.5,-204.7 75.5,-185.7 35.5,-185.7"/>
<polygon fill="none" stroke="#000000" points="35.5,-185.7 35.5,-204.7 75.5,-204.7 75.5,-185.7 35.5,-185.7"/>
<text text-anchor="start" x="40.1105" y="-191.8" font-family="Helvetica,sans-Serif" font-size="11.00" fill="#000000">0 rows</text>
<polygon fill="#ffffff" stroke="transparent" points="75.5,-185.7 75.5,-204.7 98.5,-204.7 98.5,-185.7 75.5,-185.7"/>
<polygon fill="none" stroke="#000000" points="75.5,-185.7 75.5,-204.7 98.5,-204.7 98.5,-185.7 75.5,-185.7"/>
<text text-anchor="start" x="79.9053" y="-191.8" font-family="Helvetica,sans-Serif" font-size="11.00" fill="#000000">2 &gt;</text>
</a>
</g>
</g>
<!-- order&#45;&gt;client -->
<g id="edge1" class="edge">
<title>order:w&#45;&gt;client:e</title>
<path fill="none" stroke="#000000" d="M138.0453,-209.1335C121.9631,-221.7085 125.7006,-256.7 98.5,-256.7"/>
<polygon fill="#000000" stroke="#000000" points="144.3755,-207.1224 153.0901,-208.131 148.1878,-205.9112 152,-204.7 152,-204.7 152,-204.7 148.1878,-205.9112 150.9099,-201.269 144.3755,-207.1224 144.3755,-207.1224"/>
<ellipse fill="none" stroke="#000000" cx="141.3258" cy="-208.0913" rx="3.2" ry="3.2"/>
</g>
<!-- store -->
<g id="node3" class="node">
<title>store</title>
<g id="a_node3"><a xlink:href="../../tables/store.html" xlink:title="store" target="_top">
<polygon fill="#ffffff" stroke="transparent" points="8,-38.2 8,-165.2 101,-165.2 101,-38.2 8,-38.2"/>
<polygon fill="#f5f5f5" stroke="transparent" points="8.5,-141.7 8.5,-164.7 101.5,-164.7 101.5,-141.7 8.5,-141.7"/>
<polygon fill="none" stroke="#000000" points="8.5,-141.7 8.5,-164.7 101.5,-164.7 101.5,-141.7 8.5,-141.7"/>
<text text-anchor="start" x="13.5" y="-150.3" font-family="Helvetica,sans-Serif" font-weight="bold" font-size="11.00" fill="#000000">store</text>
<text text-anchor="start" x="66.5437" y="-149.8" font-family="Helvetica,sans-Serif" font-size="11.00" fill="#000000">[table]</text>
<polygon fill="none" stroke="#000000" points="8.5,-119.7 8.5,-141.7 101.5,-141.7 101.5,-119.7 8.5,-119.7"/>
<image xlink:href="../../images/primaryKeys.png" width="11px" height="12px" preserveAspectRatio="xMinYMin meet" x="13.5" y="-136.7"/>
<text text-anchor="start" x="28.5" y="-126.8" font-family="Helvetica,sans-Serif" font-size="11.00" fill="#000000">store_id</text>
<polygon fill="#ffffff" stroke="transparent" points="8.5,-97.7 8.5,-119.7 101.5,-119.7 101.5,-97.7 8.5,-97.7"/>
<polygon fill="none" stroke="#000000" points="8.5,-97.7 8.5,-119.7 101.5,-119.7 101.5,-97.7 8.5,-97.7"/>
<text text-anchor="start" x="28.5" y="-104.8" font-family="Helvetica,sans-Serif" font-size="11.00" fill="#000000">coordinate</text>
<polygon fill="#ffffff" stroke="transparent" points="8.5,-75.7 8.5,-97.7 101.5,-97.7 101.5,-75.7 8.5,-75.7"/>
<polygon fill="none" stroke="#000000" points="8.5,-75.7 8.5,-97.7 101.5,-97.7 101.5,-75.7 8.5,-75.7"/>
<image xlink:href="../../images/foreignKeys.png" width="11px" height="12px" preserveAspectRatio="xMinYMin meet" x="13.5" y="-92.7"/>
<text text-anchor="start" x="28.5" y="-82.8" font-family="Helvetica,sans-Serif" font-size="11.00" fill="#000000">district_id</text>
<polygon fill="none" stroke="#000000" points="8.5,-56.7 8.5,-75.7 101.5,-75.7 101.5,-56.7 8.5,-56.7"/>
<text text-anchor="start" x="11.5" y="-62.8" font-family="Helvetica,sans-Serif" font-size="11.00" fill="#000000">...</text>
<polygon fill="#ffffff" stroke="transparent" points="8.5,-37.7 8.5,-56.7 35.5,-56.7 35.5,-37.7 8.5,-37.7"/>
<polygon fill="none" stroke="#000000" points="8.5,-37.7 8.5,-56.7 35.5,-56.7 35.5,-37.7 8.5,-37.7"/>
<text text-anchor="start" x="11.5" y="-43.8" font-family="Helvetica,sans-Serif" font-size="11.00" fill="#000000">&lt; 1</text>
<polygon fill="#ffffff" stroke="transparent" points="35.5,-37.7 35.5,-56.7 76.5,-56.7 76.5,-37.7 35.5,-37.7"/>
<polygon fill="none" stroke="#000000" points="35.5,-37.7 35.5,-56.7 76.5,-56.7 76.5,-37.7 35.5,-37.7"/>
<text text-anchor="start" x="41.1105" y="-43.8" font-family="Helvetica,sans-Serif" font-size="11.00" fill="#000000">0 rows</text>
<polygon fill="#ffffff" stroke="transparent" points="76.5,-37.7 76.5,-56.7 101.5,-56.7 101.5,-37.7 76.5,-37.7"/>
<polygon fill="none" stroke="#000000" points="76.5,-37.7 76.5,-56.7 101.5,-56.7 101.5,-37.7 76.5,-37.7"/>
<text text-anchor="start" x="82.9053" y="-43.8" font-family="Helvetica,sans-Serif" font-size="11.00" fill="#000000">2 &gt;</text>
</a>
</g>
</g>
<!-- order&#45;&gt;store -->
<g id="edge2" class="edge">
<title>order:w&#45;&gt;store:e</title>
<path fill="none" stroke="#000000" d="M138.1372,-177.9012C123.3861,-165.0281 127.6756,-130.7 101.5,-130.7"/>
<polygon fill="#000000" stroke="#000000" points="144.4401,-180.083 150.8223,-186.1019 148.2201,-181.3915 152,-182.7 152,-182.7 152,-182.7 148.2201,-181.3915 153.1777,-179.2981 144.4401,-180.083 144.4401,-180.083"/>
<ellipse fill="none" stroke="#000000" cx="141.4162" cy="-179.0362" rx="3.2" ry="3.2"/>
</g>
<!-- order_product -->
<g id="node4" class="node">
<title>order_product</title>
<g id="a_node4"><a xlink:href="../../tables/order_product.html" xlink:title="order_product" target="_top">
<polygon fill="#ffffff" stroke="transparent" points="395,-178.2 395,-327.2 529,-327.2 529,-178.2 395,-178.2"/>
<polygon fill="#f5f5f5" stroke="transparent" points="395,-303.7 395,-326.7 529,-326.7 529,-303.7 395,-303.7"/>
<polygon fill="none" stroke="#000000" points="395,-303.7 395,-326.7 529,-326.7 529,-303.7 395,-303.7"/>
<text text-anchor="start" x="400" y="-312.3" font-family="Helvetica,sans-Serif" font-weight="bold" font-size="11.00" fill="#000000">order_product</text>
<text text-anchor="start" x="494.5219" y="-311.8" font-family="Helvetica,sans-Serif" font-size="11.00" fill="#000000">[table]</text>
<polygon fill="none" stroke="#000000" points="395,-281.7 395,-303.7 529,-303.7 529,-281.7 395,-281.7"/>
<image xlink:href="../../images/primaryKeys.png" width="11px" height="12px" preserveAspectRatio="xMinYMin meet" x="400" y="-298.7"/>
<text text-anchor="start" x="424" y="-288.8" font-family="Helvetica,sans-Serif" font-size="11.00" fill="#000000">order_id</text>
<polygon fill="none" stroke="#000000" points="395,-259.7 395,-281.7 529,-281.7 529,-259.7 395,-259.7"/>
<image xlink:href="../../images/primaryKeys.png" width="11px" height="12px" preserveAspectRatio="xMinYMin meet" x="400" y="-276.7"/>
<text text-anchor="start" x="424" y="-266.8" font-family="Helvetica,sans-Serif" font-size="11.00" fill="#000000">product_id</text>
<polygon fill="none" stroke="#000000" points="395,-237.7 395,-259.7 529,-259.7 529,-237.7 395,-237.7"/>
<image xlink:href="../../images/primaryKeys.png" width="11px" height="12px" preserveAspectRatio="xMinYMin meet" x="400" y="-254.7"/>
<text text-anchor="start" x="424" y="-244.8" font-family="Helvetica,sans-Serif" font-size="11.00" fill="#000000">cup_size</text>
<polygon fill="none" stroke="#000000" points="395,-215.7 395,-237.7 529,-237.7 529,-215.7 395,-215.7"/>
<image xlink:href="../../images/primaryKeys.png" width="11px" height="12px" preserveAspectRatio="xMinYMin meet" x="400" y="-232.7"/>
<text text-anchor="start" x="424" y="-222.8" font-family="Helvetica,sans-Serif" font-size="11.00" fill="#000000">milk_type</text>
<polygon fill="none" stroke="#000000" points="395,-196.7 395,-215.7 529,-215.7 529,-196.7 395,-196.7"/>
<text text-anchor="start" x="398" y="-202.8" font-family="Helvetica,sans-Serif" font-size="11.00" fill="#000000">...</text>
<polygon fill="#ffffff" stroke="transparent" points="395,-177.7 395,-196.7 447,-196.7 447,-177.7 395,-177.7"/>
<polygon fill="none" stroke="#000000" points="395,-177.7 395,-196.7 447,-196.7 447,-177.7 395,-177.7"/>
<text text-anchor="start" x="398" y="-183.8" font-family="Helvetica,sans-Serif" font-size="11.00" fill="#000000">&lt; 2</text>
<polygon fill="#ffffff" stroke="transparent" points="447,-177.7 447,-196.7 501,-196.7 501,-177.7 447,-177.7"/>
<polygon fill="none" stroke="#000000" points="447,-177.7 447,-196.7 501,-196.7 501,-177.7 447,-177.7"/>
<text text-anchor="start" x="465.6105" y="-183.8" font-family="Helvetica,sans-Serif" font-size="11.00" fill="#000000">0 rows</text>
<polygon fill="#ffffff" stroke="transparent" points="501,-177.7 501,-196.7 529,-196.7 529,-177.7 501,-177.7"/>
<polygon fill="none" stroke="#000000" points="501,-177.7 501,-196.7 529,-196.7 529,-177.7 501,-177.7"/>
<text text-anchor="start" x="519.8862" y="-183.8" font-family="Helvetica,sans-Serif" font-size="11.00" fill="#000000"> &#160;</text>
</a>
</g>
</g>
<!-- order_product&#45;&gt;order -->
<g id="edge3" class="edge">
<title>order_product:w&#45;&gt;order:e</title>
<path fill="none" stroke="#000000" d="M380.276,-292.7C368.2815,-292.7 360.8229,-292.7 344,-292.7"/>
<polygon fill="#000000" stroke="#000000" points="387,-292.7001 395,-296.3 391,-292.7 395,-292.7 395,-292.7 395,-292.7 391,-292.7 395,-289.1 387,-292.7001 387,-292.7001"/>
<ellipse fill="none" stroke="#000000" cx="383.8" cy="-292.7001" rx="3.2" ry="3.2"/>
</g>
</g>
</svg>
