<?xml version="1.0" encoding="UTF-8" standalone="no"?>
<!DOCTYPE svg PUBLIC "-//W3C//DTD SVG 1.1//EN"
 "http://www.w3.org/Graphics/SVG/1.1/DTD/svg11.dtd">
<!-- Generated by graphviz version 2.40.1 (20161225.0304)
 -->
<!-- Title: oneDegreeRelationshipsDiagram Pages: 1 -->
<svg width="451pt" height="206pt"
 viewBox="0.00 0.00 451.00 206.20" xmlns="http://www.w3.org/2000/svg" xmlns:xlink="http://www.w3.org/1999/xlink">
<g id="graph0" class="graph" transform="scale(1 1) rotate(0) translate(4 202.2)">
<title>oneDegreeRelationshipsDiagram</title>
<polygon fill="#ffffff" stroke="transparent" points="-4,4 -4,-202.2 447,-202.2 447,4 -4,4"/>
<text text-anchor="middle" x="72.4936" y="-7.3" font-family="Helvetica,sans-Serif" font-size="11.00" fill="#000000">Generated by SchemaSpy</text>
<!-- password_change_request -->
<g id="node1" class="node">
<title>password_change_request</title>
<g id="a_node1"><a xlink:href="../../tables/password_change_request.html" xlink:title="password_change_request" target="_top">
<polygon fill="#ffffff" stroke="transparent" points="149,-38.2 149,-194.2 435,-194.2 435,-38.2 149,-38.2"/>
<polygon fill="#f5f5f5" stroke="transparent" points="151,-169.2 151,-192.2 433,-192.2 433,-169.2 151,-169.2"/>
<polygon fill="none" stroke="#000000" points="151,-169.2 151,-192.2 433,-192.2 433,-169.2 151,-169.2"/>
<text text-anchor="start" x="156" y="-177.8" font-family="Helvetica,sans-Serif" font-weight="bold" font-size="11.00" fill="#000000">password_change_request</text>
<text text-anchor="start" x="398.0437" y="-177.3" font-family="Helvetica,sans-Serif" font-size="11.00" fill="#000000">[table]</text>
<polygon fill="none" stroke="#000000" points="151,-147.2 151,-169.2 350,-169.2 350,-147.2 151,-147.2"/>
<image xlink:href="../../images/primaryKeys.png" width="11px" height="12px" preserveAspectRatio="xMinYMin meet" x="156" y="-164.2"/>
<text text-anchor="start" x="171" y="-154.3" font-family="Helvetica,sans-Serif" font-size="11.00" fill="#000000">request_id</text>
<polygon fill="none" stroke="#000000" points="350,-147.2 350,-169.2 433,-169.2 433,-147.2 350,-147.2"/>
<text text-anchor="start" x="352.6783" y="-154.9" font-family="Helvetica,sans-Serif" font-size="11.00" fill="#000000">int unsigned[10]</text>
<polygon fill="#ffffff" stroke="transparent" points="151,-125.2 151,-147.2 350,-147.2 350,-125.2 151,-125.2"/>
<polygon fill="none" stroke="#000000" points="151,-125.2 151,-147.2 350,-147.2 350,-125.2 151,-125.2"/>
<image xlink:href="../../images/foreignKeys.png" width="11px" height="12px" preserveAspectRatio="xMinYMin meet" x="156" y="-142.2"/>
<text text-anchor="start" x="171" y="-132.3" font-family="Helvetica,sans-Serif" font-size="11.00" fill="#000000">user_id</text>
<polygon fill="none" stroke="#000000" points="350,-125.2 350,-147.2 433,-147.2 433,-125.2 350,-125.2"/>
<text text-anchor="start" x="352.6783" y="-132.9" font-family="Helvetica,sans-Serif" font-size="11.00" fill="#000000">int unsigned[10]</text>
<polygon fill="none" stroke="#000000" points="151,-103.2 151,-125.2 350,-125.2 350,-103.2 151,-103.2"/>
<text text-anchor="start" x="171" y="-110.3" font-family="Helvetica,sans-Serif" font-size="11.00" fill="#000000">token_hash</text>
<polygon fill="none" stroke="#000000" points="350,-103.2 350,-125.2 433,-125.2 433,-103.2 350,-103.2"/>
<text text-anchor="start" x="353" y="-110.9" font-family="Helvetica,sans-Serif" font-size="11.00" fill="#000000">varchar[255]</text>
<polygon fill="none" stroke="#000000" points="151,-81.2 151,-103.2 350,-103.2 350,-81.2 151,-81.2"/>
<text text-anchor="start" x="171" y="-88.3" font-family="Helvetica,sans-Serif" font-size="11.00" fill="#000000">expiry_date</text>
<polygon fill="none" stroke="#000000" points="350,-81.2 350,-103.2 433,-103.2 433,-81.2 350,-81.2"/>
<text text-anchor="start" x="353" y="-88.9" font-family="Helvetica,sans-Serif" font-size="11.00" fill="#000000">datetime[19]</text>
<polygon fill="none" stroke="#000000" points="151,-59.2 151,-81.2 350,-81.2 350,-59.2 151,-59.2"/>
<text text-anchor="start" x="171" y="-66.3" font-family="Helvetica,sans-Serif" font-size="11.00" fill="#000000">used</text>
<polygon fill="none" stroke="#000000" points="350,-59.2 350,-81.2 433,-81.2 433,-59.2 350,-59.2"/>
<text text-anchor="start" x="353" y="-66.9" font-family="Helvetica,sans-Serif" font-size="11.00" fill="#000000">bit[1]</text>
<polygon fill="#ffffff" stroke="transparent" points="151,-40.2 151,-59.2 242,-59.2 242,-40.2 151,-40.2"/>
<polygon fill="none" stroke="#000000" points="151,-40.2 151,-59.2 242,-59.2 242,-40.2 151,-40.2"/>
<text text-anchor="start" x="154" y="-46.3" font-family="Helvetica,sans-Serif" font-size="11.00" fill="#000000">&lt; 1</text>
<polygon fill="#ffffff" stroke="transparent" points="242,-40.2 242,-59.2 350,-59.2 350,-40.2 242,-40.2"/>
<polygon fill="none" stroke="#000000" points="242,-40.2 242,-59.2 350,-59.2 350,-40.2 242,-40.2"/>
<text text-anchor="start" x="314.6105" y="-46.3" font-family="Helvetica,sans-Serif" font-size="11.00" fill="#000000">0 rows</text>
<polygon fill="#ffffff" stroke="transparent" points="350,-40.2 350,-59.2 433,-59.2 433,-40.2 350,-40.2"/>
<polygon fill="none" stroke="#000000" points="350,-40.2 350,-59.2 433,-59.2 433,-40.2 350,-40.2"/>
<text text-anchor="start" x="414.4053" y="-46.3" font-family="Helvetica,sans-Serif" font-size="11.00" fill="#000000">0 &gt;</text>
<polygon fill="none" stroke="#000000" stroke-width="2" points="150,-39.2 150,-193.2 434,-193.2 434,-39.2 150,-39.2"/>
</a>
</g>
</g>
<!-- user -->
<g id="node2" class="node">
<title>user</title>
<g id="a_node2"><a xlink:href="../../tables/user.html" xlink:title="user" target="_top">
<polygon fill="#ffffff" stroke="transparent" points="8,-65.7 8,-170.7 100,-170.7 100,-65.7 8,-65.7"/>
<polygon fill="#f5f5f5" stroke="transparent" points="8,-147.2 8,-170.2 100,-170.2 100,-147.2 8,-147.2"/>
<polygon fill="none" stroke="#000000" points="8,-147.2 8,-170.2 100,-170.2 100,-147.2 8,-147.2"/>
<text text-anchor="start" x="13" y="-155.8" font-family="Helvetica,sans-Serif" font-weight="bold" font-size="11.00" fill="#000000">user</text>
<text text-anchor="start" x="65.0437" y="-155.3" font-family="Helvetica,sans-Serif" font-size="11.00" fill="#000000">[table]</text>
<polygon fill="none" stroke="#000000" points="8,-125.2 8,-147.2 100,-147.2 100,-125.2 8,-125.2"/>
<image xlink:href="../../images/primaryKeys.png" width="11px" height="12px" preserveAspectRatio="xMinYMin meet" x="13" y="-142.2"/>
<text text-anchor="start" x="28" y="-132.3" font-family="Helvetica,sans-Serif" font-size="11.00" fill="#000000">user_id</text>
<polygon fill="#ffffff" stroke="transparent" points="8,-103.2 8,-125.2 100,-125.2 100,-103.2 8,-103.2"/>
<polygon fill="none" stroke="#000000" points="8,-103.2 8,-125.2 100,-125.2 100,-103.2 8,-103.2"/>
<text text-anchor="start" x="28" y="-110.3" font-family="Helvetica,sans-Serif" font-size="11.00" fill="#000000">email</text>
<polygon fill="none" stroke="#000000" points="8,-84.2 8,-103.2 100,-103.2 100,-84.2 8,-84.2"/>
<text text-anchor="start" x="11" y="-90.3" font-family="Helvetica,sans-Serif" font-size="11.00" fill="#000000">...</text>
<polygon fill="#ffffff" stroke="transparent" points="8,-65.2 8,-84.2 30,-84.2 30,-65.2 8,-65.2"/>
<polygon fill="none" stroke="#000000" points="8,-65.2 8,-84.2 30,-84.2 30,-65.2 8,-65.2"/>
<text text-anchor="start" x="11" y="-71.3" font-family="Helvetica,sans-Serif" font-size="11.00" fill="#000000"> &#160;</text>
<polygon fill="#ffffff" stroke="transparent" points="30,-65.2 30,-84.2 73,-84.2 73,-65.2 30,-65.2"/>
<polygon fill="none" stroke="#000000" points="30,-65.2 30,-84.2 73,-84.2 73,-65.2 30,-65.2"/>
<text text-anchor="start" x="37.6105" y="-71.3" font-family="Helvetica,sans-Serif" font-size="11.00" fill="#000000">0 rows</text>
<polygon fill="#ffffff" stroke="transparent" points="73,-65.2 73,-84.2 100,-84.2 100,-65.2 73,-65.2"/>
<polygon fill="none" stroke="#000000" points="73,-65.2 73,-84.2 100,-84.2 100,-65.2 73,-65.2"/>
<text text-anchor="start" x="81.4053" y="-71.3" font-family="Helvetica,sans-Serif" font-size="11.00" fill="#000000">4 &gt;</text>
</a>
</g>
</g>
<!-- password_change_request&#45;&gt;user -->
<g id="edge1" class="edge">
<title>password_change_request:w&#45;&gt;user:e</title>
<path fill="none" stroke="#000000" d="M136.276,-136.2C124.2815,-136.2 116.8229,-136.2 100,-136.2"/>
<polygon fill="#000000" stroke="#000000" points="143,-136.2001 151,-139.8 147,-136.2 151,-136.2 151,-136.2 151,-136.2 147,-136.2 151,-132.6 143,-136.2001 143,-136.2001"/>
<ellipse fill="none" stroke="#000000" cx="139.8" cy="-136.2001" rx="3.2" ry="3.2"/>
</g>
</g>
</svg>
