<?xml version="1.0" encoding="UTF-8" standalone="no"?>
<!DOCTYPE svg PUBLIC "-//W3C//DTD SVG 1.1//EN"
 "http://www.w3.org/Graphics/SVG/1.1/DTD/svg11.dtd">
<!-- Generated by graphviz version 2.40.1 (20161225.0304)
 -->
<!-- Title: twoDegreesRelationshipsDiagram Pages: 1 -->
<svg width="451pt" height="453pt"
 viewBox="0.00 0.00 451.00 452.70" xmlns="http://www.w3.org/2000/svg" xmlns:xlink="http://www.w3.org/1999/xlink">
<g id="graph0" class="graph" transform="scale(1 1) rotate(0) translate(4 448.7)">
<title>twoDegreesRelationshipsDiagram</title>
<polygon fill="#ffffff" stroke="transparent" points="-4,4 -4,-448.7 447,-448.7 447,4 -4,4"/>
<text text-anchor="middle" x="72.4936" y="-7.3" font-family="Helvetica,sans-Serif" font-size="11.00" fill="#000000">Generated by SchemaSpy</text>
<!-- administrator -->
<g id="node1" class="node">
<title>administrator</title>
<g id="a_node1"><a xlink:href="../../tables/administrator.html" xlink:title="administrator" target="_top">
<polygon fill="#ffffff" stroke="transparent" points="226.5,-379.7 226.5,-440.7 357.5,-440.7 357.5,-379.7 226.5,-379.7"/>
<polygon fill="#f5f5f5" stroke="transparent" points="227,-417.2 227,-440.2 358,-440.2 358,-417.2 227,-417.2"/>
<polygon fill="none" stroke="#000000" points="227,-417.2 227,-440.2 358,-440.2 358,-417.2 227,-417.2"/>
<text text-anchor="start" x="232" y="-425.8" font-family="Helvetica,sans-Serif" font-weight="bold" font-size="11.00" fill="#000000">administrator</text>
<text text-anchor="start" x="323.5219" y="-425.3" font-family="Helvetica,sans-Serif" font-size="11.00" fill="#000000">[table]</text>
<polygon fill="none" stroke="#000000" points="227,-398.2 227,-417.2 358,-417.2 358,-398.2 227,-398.2"/>
<text text-anchor="start" x="230" y="-404.3" font-family="Helvetica,sans-Serif" font-size="11.00" fill="#000000">...</text>
<polygon fill="#ffffff" stroke="transparent" points="227,-379.2 227,-398.2 278,-398.2 278,-379.2 227,-379.2"/>
<polygon fill="none" stroke="#000000" points="227,-379.2 227,-398.2 278,-398.2 278,-379.2 227,-379.2"/>
<text text-anchor="start" x="230" y="-385.3" font-family="Helvetica,sans-Serif" font-size="11.00" fill="#000000">&lt; 1</text>
<polygon fill="#ffffff" stroke="transparent" points="278,-379.2 278,-398.2 331,-398.2 331,-379.2 278,-379.2"/>
<polygon fill="none" stroke="#000000" points="278,-379.2 278,-398.2 331,-398.2 331,-379.2 278,-379.2"/>
<text text-anchor="start" x="295.6105" y="-385.3" font-family="Helvetica,sans-Serif" font-size="11.00" fill="#000000">0 rows</text>
<polygon fill="#ffffff" stroke="transparent" points="331,-379.2 331,-398.2 358,-398.2 358,-379.2 331,-379.2"/>
<polygon fill="none" stroke="#000000" points="331,-379.2 331,-398.2 358,-398.2 358,-379.2 331,-379.2"/>
<text text-anchor="start" x="348.8862" y="-385.3" font-family="Helvetica,sans-Serif" font-size="11.00" fill="#000000"> &#160;</text>
</a>
</g>
</g>
<!-- user -->
<g id="node2" class="node">
<title>user</title>
<g id="a_node2"><a xlink:href="../../tables/user.html" xlink:title="user" target="_top">
<polygon fill="#ffffff" stroke="transparent" points="8,-213.7 8,-318.7 100,-318.7 100,-213.7 8,-213.7"/>
<polygon fill="#f5f5f5" stroke="transparent" points="8,-295.2 8,-318.2 100,-318.2 100,-295.2 8,-295.2"/>
<polygon fill="none" stroke="#000000" points="8,-295.2 8,-318.2 100,-318.2 100,-295.2 8,-295.2"/>
<text text-anchor="start" x="13" y="-303.8" font-family="Helvetica,sans-Serif" font-weight="bold" font-size="11.00" fill="#000000">user</text>
<text text-anchor="start" x="65.0437" y="-303.3" font-family="Helvetica,sans-Serif" font-size="11.00" fill="#000000">[table]</text>
<polygon fill="none" stroke="#000000" points="8,-273.2 8,-295.2 100,-295.2 100,-273.2 8,-273.2"/>
<image xlink:href="../../images/primaryKeys.png" width="11px" height="12px" preserveAspectRatio="xMinYMin meet" x="13" y="-290.2"/>
<text text-anchor="start" x="28" y="-280.3" font-family="Helvetica,sans-Serif" font-size="11.00" fill="#000000">user_id</text>
<polygon fill="#ffffff" stroke="transparent" points="8,-251.2 8,-273.2 100,-273.2 100,-251.2 8,-251.2"/>
<polygon fill="none" stroke="#000000" points="8,-251.2 8,-273.2 100,-273.2 100,-251.2 8,-251.2"/>
<text text-anchor="start" x="28" y="-258.3" font-family="Helvetica,sans-Serif" font-size="11.00" fill="#000000">email</text>
<polygon fill="none" stroke="#000000" points="8,-232.2 8,-251.2 100,-251.2 100,-232.2 8,-232.2"/>
<text text-anchor="start" x="11" y="-238.3" font-family="Helvetica,sans-Serif" font-size="11.00" fill="#000000">...</text>
<polygon fill="#ffffff" stroke="transparent" points="8,-213.2 8,-232.2 30,-232.2 30,-213.2 8,-213.2"/>
<polygon fill="none" stroke="#000000" points="8,-213.2 8,-232.2 30,-232.2 30,-213.2 8,-213.2"/>
<text text-anchor="start" x="11" y="-219.3" font-family="Helvetica,sans-Serif" font-size="11.00" fill="#000000"> &#160;</text>
<polygon fill="#ffffff" stroke="transparent" points="30,-213.2 30,-232.2 73,-232.2 73,-213.2 30,-213.2"/>
<polygon fill="none" stroke="#000000" points="30,-213.2 30,-232.2 73,-232.2 73,-213.2 30,-213.2"/>
<text text-anchor="start" x="37.6105" y="-219.3" font-family="Helvetica,sans-Serif" font-size="11.00" fill="#000000">0 rows</text>
<polygon fill="#ffffff" stroke="transparent" points="73,-213.2 73,-232.2 100,-232.2 100,-213.2 73,-213.2"/>
<polygon fill="none" stroke="#000000" points="73,-213.2 73,-232.2 100,-232.2 100,-213.2 73,-213.2"/>
<text text-anchor="start" x="81.4053" y="-219.3" font-family="Helvetica,sans-Serif" font-size="11.00" fill="#000000">4 &gt;</text>
</a>
</g>
</g>
<!-- administrator&#45;&gt;user -->
<g id="edge1" class="edge">
<title>administrator:w&#45;&gt;user:e</title>
<path fill="none" stroke="#000000" d="M216.3741,-406.9752C182.5375,-405.4297 168.3382,-395.6409 141,-369.2 110.8512,-340.0408 141.9429,-284.2 100,-284.2"/>
<polygon fill="#000000" stroke="#000000" points="226.2848,-403.184 226.1155,-411.1822 224.5159,-411.1483 224.6852,-403.1501 226.2848,-403.184"/>
<polyline fill="none" stroke="#000000" points="227,-407.2 223.0009,-407.1154 "/>
<ellipse fill="none" stroke="#000000" cx="219.8016" cy="-407.0476" rx="3.2" ry="3.2"/>
</g>
<!-- client -->
<g id="node3" class="node">
<title>client</title>
<g id="a_node3"><a xlink:href="../../tables/client.html" xlink:title="client" target="_top">
<polygon fill="#ffffff" stroke="transparent" points="252,-297.7 252,-358.7 332,-358.7 332,-297.7 252,-297.7"/>
<polygon fill="#f5f5f5" stroke="transparent" points="252,-335.2 252,-358.2 332,-358.2 332,-335.2 252,-335.2"/>
<polygon fill="none" stroke="#000000" points="252,-335.2 252,-358.2 332,-358.2 332,-335.2 252,-335.2"/>
<text text-anchor="start" x="257" y="-343.8" font-family="Helvetica,sans-Serif" font-weight="bold" font-size="11.00" fill="#000000">client</text>
<text text-anchor="start" x="297.0437" y="-343.3" font-family="Helvetica,sans-Serif" font-size="11.00" fill="#000000">[table]</text>
<polygon fill="none" stroke="#000000" points="252,-316.2 252,-335.2 332,-335.2 332,-316.2 252,-316.2"/>
<text text-anchor="start" x="255" y="-322.3" font-family="Helvetica,sans-Serif" font-size="11.00" fill="#000000">...</text>
<polygon fill="#ffffff" stroke="transparent" points="252,-297.2 252,-316.2 273,-316.2 273,-297.2 252,-297.2"/>
<polygon fill="none" stroke="#000000" points="252,-297.2 252,-316.2 273,-316.2 273,-297.2 252,-297.2"/>
<text text-anchor="start" x="254.7027" y="-303.3" font-family="Helvetica,sans-Serif" font-size="11.00" fill="#000000">&lt; 2</text>
<polygon fill="#ffffff" stroke="transparent" points="273,-297.2 273,-316.2 311,-316.2 311,-297.2 273,-297.2"/>
<polygon fill="none" stroke="#000000" points="273,-297.2 273,-316.2 311,-316.2 311,-297.2 273,-297.2"/>
<text text-anchor="start" x="275.8053" y="-303.3" font-family="Helvetica,sans-Serif" font-size="11.00" fill="#000000">0 rows</text>
<polygon fill="#ffffff" stroke="transparent" points="311,-297.2 311,-316.2 332,-316.2 332,-297.2 311,-297.2"/>
<polygon fill="none" stroke="#000000" points="311,-297.2 311,-316.2 332,-316.2 332,-297.2 311,-297.2"/>
<text text-anchor="start" x="313.7027" y="-303.3" font-family="Helvetica,sans-Serif" font-size="11.00" fill="#000000">2 &gt;</text>
</a>
</g>
</g>
<!-- client&#45;&gt;user -->
<g id="edge2" class="edge">
<title>client:w&#45;&gt;user:e</title>
<path fill="none" stroke="#000000" d="M241.3967,-324.87C180.597,-320.9898 166.2802,-284.2 100,-284.2"/>
<polygon fill="#000000" stroke="#000000" points="251.3249,-321.177 251.0759,-329.1732 249.4767,-329.1234 249.7256,-321.1273 251.3249,-321.177"/>
<polyline fill="none" stroke="#000000" points="252,-325.2 248.0019,-325.0755 "/>
<ellipse fill="none" stroke="#000000" cx="244.8035" cy="-324.9759" rx="3.2" ry="3.2"/>
</g>
<!-- comment -->
<g id="node4" class="node">
<title>comment</title>
<g id="a_node4"><a xlink:href="../../tables/comment.html" xlink:title="comment" target="_top">
<polygon fill="#ffffff" stroke="transparent" points="241.5,-215.7 241.5,-276.7 342.5,-276.7 342.5,-215.7 241.5,-215.7"/>
<polygon fill="#f5f5f5" stroke="transparent" points="242,-253.2 242,-276.2 343,-276.2 343,-253.2 242,-253.2"/>
<polygon fill="none" stroke="#000000" points="242,-253.2 242,-276.2 343,-276.2 343,-253.2 242,-253.2"/>
<text text-anchor="start" x="247" y="-261.8" font-family="Helvetica,sans-Serif" font-weight="bold" font-size="11.00" fill="#000000">comment</text>
<text text-anchor="start" x="308.5219" y="-261.3" font-family="Helvetica,sans-Serif" font-size="11.00" fill="#000000">[table]</text>
<polygon fill="none" stroke="#000000" points="242,-234.2 242,-253.2 343,-253.2 343,-234.2 242,-234.2"/>
<text text-anchor="start" x="245" y="-240.3" font-family="Helvetica,sans-Serif" font-size="11.00" fill="#000000">...</text>
<polygon fill="#ffffff" stroke="transparent" points="242,-215.2 242,-234.2 273,-234.2 273,-215.2 242,-215.2"/>
<polygon fill="none" stroke="#000000" points="242,-215.2 242,-234.2 273,-234.2 273,-215.2 242,-215.2"/>
<text text-anchor="start" x="245" y="-221.3" font-family="Helvetica,sans-Serif" font-size="11.00" fill="#000000">&lt; 3</text>
<polygon fill="#ffffff" stroke="transparent" points="273,-215.2 273,-234.2 316,-234.2 316,-215.2 273,-215.2"/>
<polygon fill="none" stroke="#000000" points="273,-215.2 273,-234.2 316,-234.2 316,-215.2 273,-215.2"/>
<text text-anchor="start" x="280.6105" y="-221.3" font-family="Helvetica,sans-Serif" font-size="11.00" fill="#000000">0 rows</text>
<polygon fill="#ffffff" stroke="transparent" points="316,-215.2 316,-234.2 343,-234.2 343,-215.2 316,-215.2"/>
<polygon fill="none" stroke="#000000" points="316,-215.2 316,-234.2 343,-234.2 343,-215.2 316,-215.2"/>
<text text-anchor="start" x="324.4053" y="-221.3" font-family="Helvetica,sans-Serif" font-size="11.00" fill="#000000">1 &gt;</text>
</a>
</g>
</g>
<!-- comment&#45;&gt;user -->
<g id="edge3" class="edge">
<title>comment:w&#45;&gt;user:e</title>
<path fill="none" stroke="#000000" d="M227.5599,-243.9116C174.3151,-249.356 160.5572,-284.2 100,-284.2"/>
<polygon fill="#000000" stroke="#000000" points="234.0097,-243.5938 242.1772,-246.7956 238.0048,-243.3969 242,-243.2 242,-243.2 242,-243.2 238.0048,-243.3969 241.8228,-239.6044 234.0097,-243.5938 234.0097,-243.5938"/>
<ellipse fill="none" stroke="#000000" cx="230.8136" cy="-243.7514" rx="3.2" ry="3.2"/>
</g>
<!-- password_change_request -->
<g id="node5" class="node">
<title>password_change_request</title>
<g id="a_node5"><a xlink:href="../../tables/password_change_request.html" xlink:title="password_change_request" target="_top">
<polygon fill="#ffffff" stroke="transparent" points="149,-38.2 149,-194.2 435,-194.2 435,-38.2 149,-38.2"/>
<polygon fill="#f5f5f5" stroke="transparent" points="151,-169.2 151,-192.2 433,-192.2 433,-169.2 151,-169.2"/>
<polygon fill="none" stroke="#000000" points="151,-169.2 151,-192.2 433,-192.2 433,-169.2 151,-169.2"/>
<text text-anchor="start" x="156" y="-177.8" font-family="Helvetica,sans-Serif" font-weight="bold" font-size="11.00" fill="#000000">password_change_request</text>
<text text-anchor="start" x="398.0437" y="-177.3" font-family="Helvetica,sans-Serif" font-size="11.00" fill="#000000">[table]</text>
<polygon fill="none" stroke="#000000" points="151,-147.2 151,-169.2 350,-169.2 350,-147.2 151,-147.2"/>
<image xlink:href="../../images/primaryKeys.png" width="11px" height="12px" preserveAspectRatio="xMinYMin meet" x="156" y="-164.2"/>
<text text-anchor="start" x="171" y="-154.3" font-family="Helvetica,sans-Serif" font-size="11.00" fill="#000000">request_id</text>
<polygon fill="none" stroke="#000000" points="350,-147.2 350,-169.2 433,-169.2 433,-147.2 350,-147.2"/>
<text text-anchor="start" x="352.6783" y="-154.9" font-family="Helvetica,sans-Serif" font-size="11.00" fill="#000000">int unsigned[10]</text>
<polygon fill="#ffffff" stroke="transparent" points="151,-125.2 151,-147.2 350,-147.2 350,-125.2 151,-125.2"/>
<polygon fill="none" stroke="#000000" points="151,-125.2 151,-147.2 350,-147.2 350,-125.2 151,-125.2"/>
<image xlink:href="../../images/foreignKeys.png" width="11px" height="12px" preserveAspectRatio="xMinYMin meet" x="156" y="-142.2"/>
<text text-anchor="start" x="171" y="-132.3" font-family="Helvetica,sans-Serif" font-size="11.00" fill="#000000">user_id</text>
<polygon fill="none" stroke="#000000" points="350,-125.2 350,-147.2 433,-147.2 433,-125.2 350,-125.2"/>
<text text-anchor="start" x="352.6783" y="-132.9" font-family="Helvetica,sans-Serif" font-size="11.00" fill="#000000">int unsigned[10]</text>
<polygon fill="none" stroke="#000000" points="151,-103.2 151,-125.2 350,-125.2 350,-103.2 151,-103.2"/>
<text text-anchor="start" x="171" y="-110.3" font-family="Helvetica,sans-Serif" font-size="11.00" fill="#000000">token_hash</text>
<polygon fill="none" stroke="#000000" points="350,-103.2 350,-125.2 433,-125.2 433,-103.2 350,-103.2"/>
<text text-anchor="start" x="353" y="-110.9" font-family="Helvetica,sans-Serif" font-size="11.00" fill="#000000">varchar[255]</text>
<polygon fill="none" stroke="#000000" points="151,-81.2 151,-103.2 350,-103.2 350,-81.2 151,-81.2"/>
<text text-anchor="start" x="171" y="-88.3" font-family="Helvetica,sans-Serif" font-size="11.00" fill="#000000">expiry_date</text>
<polygon fill="none" stroke="#000000" points="350,-81.2 350,-103.2 433,-103.2 433,-81.2 350,-81.2"/>
<text text-anchor="start" x="353" y="-88.9" font-family="Helvetica,sans-Serif" font-size="11.00" fill="#000000">datetime[19]</text>
<polygon fill="none" stroke="#000000" points="151,-59.2 151,-81.2 350,-81.2 350,-59.2 151,-59.2"/>
<text text-anchor="start" x="171" y="-66.3" font-family="Helvetica,sans-Serif" font-size="11.00" fill="#000000">used</text>
<polygon fill="none" stroke="#000000" points="350,-59.2 350,-81.2 433,-81.2 433,-59.2 350,-59.2"/>
<text text-anchor="start" x="353" y="-66.9" font-family="Helvetica,sans-Serif" font-size="11.00" fill="#000000">bit[1]</text>
<polygon fill="#ffffff" stroke="transparent" points="151,-40.2 151,-59.2 242,-59.2 242,-40.2 151,-40.2"/>
<polygon fill="none" stroke="#000000" points="151,-40.2 151,-59.2 242,-59.2 242,-40.2 151,-40.2"/>
<text text-anchor="start" x="154" y="-46.3" font-family="Helvetica,sans-Serif" font-size="11.00" fill="#000000">&lt; 1</text>
<polygon fill="#ffffff" stroke="transparent" points="242,-40.2 242,-59.2 350,-59.2 350,-40.2 242,-40.2"/>
<polygon fill="none" stroke="#000000" points="242,-40.2 242,-59.2 350,-59.2 350,-40.2 242,-40.2"/>
<text text-anchor="start" x="314.6105" y="-46.3" font-family="Helvetica,sans-Serif" font-size="11.00" fill="#000000">0 rows</text>
<polygon fill="#ffffff" stroke="transparent" points="350,-40.2 350,-59.2 433,-59.2 433,-40.2 350,-40.2"/>
<polygon fill="none" stroke="#000000" points="350,-40.2 350,-59.2 433,-59.2 433,-40.2 350,-40.2"/>
<text text-anchor="start" x="414.4053" y="-46.3" font-family="Helvetica,sans-Serif" font-size="11.00" fill="#000000">0 &gt;</text>
<polygon fill="none" stroke="#000000" stroke-width="2" points="150,-39.2 150,-193.2 434,-193.2 434,-39.2 150,-39.2"/>
</a>
</g>
</g>
<!-- password_change_request&#45;&gt;user -->
<g id="edge4" class="edge">
<title>password_change_request:w&#45;&gt;user:e</title>
<path fill="none" stroke="#000000" d="M136.6212,-139.1564C95.1199,-160.0155 163.7306,-284.2 100,-284.2"/>
<polygon fill="#000000" stroke="#000000" points="143.1639,-137.8112 151.725,-139.7262 147.082,-137.0056 151,-136.2 151,-136.2 151,-136.2 147.082,-137.0056 150.275,-132.6738 143.1639,-137.8112 143.1639,-137.8112"/>
<ellipse fill="none" stroke="#000000" cx="140.0295" cy="-138.4557" rx="3.2" ry="3.2"/>
</g>
</g>
</svg>
