<?xml version="1.0" encoding="UTF-8" standalone="no"?>
<!DOCTYPE svg PUBLIC "-//W3C//DTD SVG 1.1//EN"
 "http://www.w3.org/Graphics/SVG/1.1/DTD/svg11.dtd">
<!-- Generated by graphviz version 2.40.1 (20161225.0304)
 -->
<!-- Title: twoDegreesRelationshipsDiagram Pages: 1 -->
<svg width="584pt" height="546pt"
 viewBox="0.00 0.00 584.00 545.70" xmlns="http://www.w3.org/2000/svg" xmlns:xlink="http://www.w3.org/1999/xlink">
<g id="graph0" class="graph" transform="scale(1 1) rotate(0) translate(4 541.7)">
<title>twoDegreesRelationshipsDiagram</title>
<polygon fill="#ffffff" stroke="transparent" points="-4,4 -4,-541.7 580,-541.7 580,4 -4,4"/>
<text text-anchor="middle" x="72.4936" y="-7.3" font-family="Helvetica,sans-Serif" font-size="11.00" fill="#000000">Generated by SchemaSpy</text>
<!-- comment -->
<g id="node1" class="node">
<title>comment</title>
<g id="a_node1"><a xlink:href="../../tables/comment.html" xlink:title="comment" target="_top">
<polygon fill="#ffffff" stroke="transparent" points="450.5,-302.7 450.5,-363.7 551.5,-363.7 551.5,-302.7 450.5,-302.7"/>
<polygon fill="#f5f5f5" stroke="transparent" points="451,-340.2 451,-363.2 552,-363.2 552,-340.2 451,-340.2"/>
<polygon fill="none" stroke="#000000" points="451,-340.2 451,-363.2 552,-363.2 552,-340.2 451,-340.2"/>
<text text-anchor="start" x="456" y="-348.8" font-family="Helvetica,sans-Serif" font-weight="bold" font-size="11.00" fill="#000000">comment</text>
<text text-anchor="start" x="517.5219" y="-348.3" font-family="Helvetica,sans-Serif" font-size="11.00" fill="#000000">[table]</text>
<polygon fill="none" stroke="#000000" points="451,-321.2 451,-340.2 552,-340.2 552,-321.2 451,-321.2"/>
<text text-anchor="start" x="454" y="-327.3" font-family="Helvetica,sans-Serif" font-size="11.00" fill="#000000">...</text>
<polygon fill="#ffffff" stroke="transparent" points="451,-302.2 451,-321.2 482,-321.2 482,-302.2 451,-302.2"/>
<polygon fill="none" stroke="#000000" points="451,-302.2 451,-321.2 482,-321.2 482,-302.2 451,-302.2"/>
<text text-anchor="start" x="454" y="-308.3" font-family="Helvetica,sans-Serif" font-size="11.00" fill="#000000">&lt; 3</text>
<polygon fill="#ffffff" stroke="transparent" points="482,-302.2 482,-321.2 525,-321.2 525,-302.2 482,-302.2"/>
<polygon fill="none" stroke="#000000" points="482,-302.2 482,-321.2 525,-321.2 525,-302.2 482,-302.2"/>
<text text-anchor="start" x="489.6105" y="-308.3" font-family="Helvetica,sans-Serif" font-size="11.00" fill="#000000">0 rows</text>
<polygon fill="#ffffff" stroke="transparent" points="525,-302.2 525,-321.2 552,-321.2 552,-302.2 525,-302.2"/>
<polygon fill="none" stroke="#000000" points="525,-302.2 525,-321.2 552,-321.2 552,-302.2 525,-302.2"/>
<text text-anchor="start" x="533.4053" y="-308.3" font-family="Helvetica,sans-Serif" font-size="11.00" fill="#000000">1 &gt;</text>
</a>
</g>
</g>
<!-- review -->
<g id="node2" class="node">
<title>review</title>
<g id="a_node2"><a xlink:href="../../tables/review.html" xlink:title="review" target="_top">
<polygon fill="#ffffff" stroke="transparent" points="264.5,-323.7 264.5,-450.7 373.5,-450.7 373.5,-323.7 264.5,-323.7"/>
<polygon fill="#f5f5f5" stroke="transparent" points="265,-427.2 265,-450.2 374,-450.2 374,-427.2 265,-427.2"/>
<polygon fill="none" stroke="#000000" points="265,-427.2 265,-450.2 374,-450.2 374,-427.2 265,-427.2"/>
<text text-anchor="start" x="270" y="-435.8" font-family="Helvetica,sans-Serif" font-weight="bold" font-size="11.00" fill="#000000">review</text>
<text text-anchor="start" x="339.0437" y="-435.3" font-family="Helvetica,sans-Serif" font-size="11.00" fill="#000000">[table]</text>
<polygon fill="none" stroke="#000000" points="265,-405.2 265,-427.2 374,-427.2 374,-405.2 265,-405.2"/>
<image xlink:href="../../images/primaryKeys.png" width="11px" height="12px" preserveAspectRatio="xMinYMin meet" x="270" y="-422.2"/>
<text text-anchor="start" x="285" y="-412.3" font-family="Helvetica,sans-Serif" font-size="11.00" fill="#000000">review_id</text>
<polygon fill="#ffffff" stroke="transparent" points="265,-383.2 265,-405.2 374,-405.2 374,-383.2 265,-383.2"/>
<polygon fill="none" stroke="#000000" points="265,-383.2 265,-405.2 374,-405.2 374,-383.2 265,-383.2"/>
<image xlink:href="../../images/foreignKeys.png" width="11px" height="12px" preserveAspectRatio="xMinYMin meet" x="270" y="-400.2"/>
<text text-anchor="start" x="285" y="-390.3" font-family="Helvetica,sans-Serif" font-size="11.00" fill="#000000">client_id</text>
<polygon fill="#ffffff" stroke="transparent" points="265,-361.2 265,-383.2 374,-383.2 374,-361.2 265,-361.2"/>
<polygon fill="none" stroke="#000000" points="265,-361.2 265,-383.2 374,-383.2 374,-361.2 265,-361.2"/>
<image xlink:href="../../images/foreignKeys.png" width="11px" height="12px" preserveAspectRatio="xMinYMin meet" x="270" y="-378.2"/>
<text text-anchor="start" x="285" y="-368.3" font-family="Helvetica,sans-Serif" font-size="11.00" fill="#000000">product_id</text>
<polygon fill="none" stroke="#000000" points="265,-342.2 265,-361.2 374,-361.2 374,-342.2 265,-342.2"/>
<text text-anchor="start" x="268" y="-348.3" font-family="Helvetica,sans-Serif" font-size="11.00" fill="#000000">...</text>
<polygon fill="#ffffff" stroke="transparent" points="265,-323.2 265,-342.2 300,-342.2 300,-323.2 265,-323.2"/>
<polygon fill="none" stroke="#000000" points="265,-323.2 265,-342.2 300,-342.2 300,-323.2 265,-323.2"/>
<text text-anchor="start" x="268" y="-329.3" font-family="Helvetica,sans-Serif" font-size="11.00" fill="#000000">&lt; 2</text>
<polygon fill="#ffffff" stroke="transparent" points="300,-323.2 300,-342.2 345,-342.2 345,-323.2 300,-323.2"/>
<polygon fill="none" stroke="#000000" points="300,-323.2 300,-342.2 345,-342.2 345,-323.2 300,-323.2"/>
<text text-anchor="start" x="309.6105" y="-329.3" font-family="Helvetica,sans-Serif" font-size="11.00" fill="#000000">0 rows</text>
<polygon fill="#ffffff" stroke="transparent" points="345,-323.2 345,-342.2 374,-342.2 374,-323.2 345,-323.2"/>
<polygon fill="none" stroke="#000000" points="345,-323.2 345,-342.2 374,-342.2 374,-323.2 345,-323.2"/>
<text text-anchor="start" x="355.4053" y="-329.3" font-family="Helvetica,sans-Serif" font-size="11.00" fill="#000000">1 &gt;</text>
</a>
</g>
</g>
<!-- comment&#45;&gt;review -->
<g id="edge1" class="edge">
<title>comment:w&#45;&gt;review:e</title>
<path fill="none" stroke="#000000" d="M436.7249,-333.0614C404.3777,-347.9837 419.6926,-416.2 374,-416.2"/>
<polygon fill="#000000" stroke="#000000" points="443.156,-331.7723 451.7075,-333.7298 447.078,-330.9862 451,-330.2 451,-330.2 451,-330.2 447.078,-330.9862 450.2925,-326.6702 443.156,-331.7723 443.156,-331.7723"/>
<ellipse fill="none" stroke="#000000" cx="440.0184" cy="-332.4013" rx="3.2" ry="3.2"/>
</g>
<!-- client -->
<g id="node4" class="node">
<title>client</title>
<g id="a_node4"><a xlink:href="../../tables/client.html" xlink:title="client" target="_top">
<polygon fill="#ffffff" stroke="transparent" points="66,-449.7 66,-510.7 146,-510.7 146,-449.7 66,-449.7"/>
<polygon fill="#f5f5f5" stroke="transparent" points="66,-487.2 66,-510.2 146,-510.2 146,-487.2 66,-487.2"/>
<polygon fill="none" stroke="#000000" points="66,-487.2 66,-510.2 146,-510.2 146,-487.2 66,-487.2"/>
<text text-anchor="start" x="71" y="-495.8" font-family="Helvetica,sans-Serif" font-weight="bold" font-size="11.00" fill="#000000">client</text>
<text text-anchor="start" x="111.0437" y="-495.3" font-family="Helvetica,sans-Serif" font-size="11.00" fill="#000000">[table]</text>
<polygon fill="none" stroke="#000000" points="66,-468.2 66,-487.2 146,-487.2 146,-468.2 66,-468.2"/>
<text text-anchor="start" x="69" y="-474.3" font-family="Helvetica,sans-Serif" font-size="11.00" fill="#000000">...</text>
<polygon fill="#ffffff" stroke="transparent" points="66,-449.2 66,-468.2 87,-468.2 87,-449.2 66,-449.2"/>
<polygon fill="none" stroke="#000000" points="66,-449.2 66,-468.2 87,-468.2 87,-449.2 66,-449.2"/>
<text text-anchor="start" x="68.7027" y="-455.3" font-family="Helvetica,sans-Serif" font-size="11.00" fill="#000000">&lt; 2</text>
<polygon fill="#ffffff" stroke="transparent" points="87,-449.2 87,-468.2 125,-468.2 125,-449.2 87,-449.2"/>
<polygon fill="none" stroke="#000000" points="87,-449.2 87,-468.2 125,-468.2 125,-449.2 87,-449.2"/>
<text text-anchor="start" x="89.8053" y="-455.3" font-family="Helvetica,sans-Serif" font-size="11.00" fill="#000000">0 rows</text>
<polygon fill="#ffffff" stroke="transparent" points="125,-449.2 125,-468.2 146,-468.2 146,-449.2 125,-449.2"/>
<polygon fill="none" stroke="#000000" points="125,-449.2 125,-468.2 146,-468.2 146,-449.2 125,-449.2"/>
<text text-anchor="start" x="127.7027" y="-455.3" font-family="Helvetica,sans-Serif" font-size="11.00" fill="#000000">2 &gt;</text>
</a>
</g>
</g>
<!-- review&#45;&gt;client -->
<g id="edge6" class="edge">
<title>review:w&#45;&gt;client:e</title>
<path fill="none" stroke="#000000" d="M250.5519,-395.7839C201.6512,-407.2587 205.1931,-477.2 146,-477.2"/>
<polygon fill="#000000" stroke="#000000" points="257.0476,-395.0719 265.3923,-397.7786 261.0238,-394.6359 265,-394.2 265,-394.2 265,-394.2 261.0238,-394.6359 264.6077,-390.6214 257.0476,-395.0719 257.0476,-395.0719"/>
<ellipse fill="none" stroke="#000000" cx="253.8667" cy="-395.4206" rx="3.2" ry="3.2"/>
</g>
<!-- product -->
<g id="node7" class="node">
<title>product</title>
<g id="a_node7"><a xlink:href="../../tables/product.html" xlink:title="product" target="_top">
<polygon fill="#ffffff" stroke="transparent" points="8,-38.2 8,-282.2 204,-282.2 204,-38.2 8,-38.2"/>
<polygon fill="#f5f5f5" stroke="transparent" points="10,-257.2 10,-280.2 202,-280.2 202,-257.2 10,-257.2"/>
<polygon fill="none" stroke="#000000" points="10,-257.2 10,-280.2 202,-280.2 202,-257.2 10,-257.2"/>
<text text-anchor="start" x="15" y="-265.8" font-family="Helvetica,sans-Serif" font-weight="bold" font-size="11.00" fill="#000000">product</text>
<text text-anchor="start" x="167.0437" y="-265.3" font-family="Helvetica,sans-Serif" font-size="11.00" fill="#000000">[table]</text>
<polygon fill="none" stroke="#000000" points="10,-235.2 10,-257.2 119,-257.2 119,-235.2 10,-235.2"/>
<image xlink:href="../../images/primaryKeys.png" width="11px" height="12px" preserveAspectRatio="xMinYMin meet" x="15" y="-252.2"/>
<text text-anchor="start" x="30" y="-242.3" font-family="Helvetica,sans-Serif" font-size="11.00" fill="#000000">product_id</text>
<polygon fill="none" stroke="#000000" points="119,-235.2 119,-257.2 202,-257.2 202,-235.2 119,-235.2"/>
<text text-anchor="start" x="121.6783" y="-242.9" font-family="Helvetica,sans-Serif" font-size="11.00" fill="#000000">int unsigned[10]</text>
<polygon fill="none" stroke="#000000" points="10,-213.2 10,-235.2 119,-235.2 119,-213.2 10,-213.2"/>
<text text-anchor="start" x="30" y="-220.3" font-family="Helvetica,sans-Serif" font-size="11.00" fill="#000000">name</text>
<polygon fill="none" stroke="#000000" points="119,-213.2 119,-235.2 202,-235.2 202,-213.2 119,-213.2"/>
<text text-anchor="start" x="122" y="-220.9" font-family="Helvetica,sans-Serif" font-size="11.00" fill="#000000">varchar[255]</text>
<polygon fill="none" stroke="#000000" points="10,-191.2 10,-213.2 119,-213.2 119,-191.2 10,-191.2"/>
<text text-anchor="start" x="30" y="-198.3" font-family="Helvetica,sans-Serif" font-size="11.00" fill="#000000">calories</text>
<polygon fill="none" stroke="#000000" points="119,-191.2 119,-213.2 202,-213.2 202,-191.2 119,-191.2"/>
<text text-anchor="start" x="121.6783" y="-198.9" font-family="Helvetica,sans-Serif" font-size="11.00" fill="#000000">int unsigned[10]</text>
<polygon fill="none" stroke="#000000" points="10,-169.2 10,-191.2 119,-191.2 119,-169.2 10,-169.2"/>
<text text-anchor="start" x="30" y="-176.3" font-family="Helvetica,sans-Serif" font-size="11.00" fill="#000000">img_url</text>
<polygon fill="none" stroke="#000000" points="119,-169.2 119,-191.2 202,-191.2 202,-169.2 119,-169.2"/>
<text text-anchor="start" x="122" y="-176.9" font-family="Helvetica,sans-Serif" font-size="11.00" fill="#000000">varchar[255]</text>
<polygon fill="none" stroke="#000000" points="10,-147.2 10,-169.2 119,-169.2 119,-147.2 10,-147.2"/>
<text text-anchor="start" x="30" y="-154.3" font-family="Helvetica,sans-Serif" font-size="11.00" fill="#000000">img_alt_text</text>
<polygon fill="none" stroke="#000000" points="119,-147.2 119,-169.2 202,-169.2 202,-147.2 119,-147.2"/>
<text text-anchor="start" x="122" y="-154.9" font-family="Helvetica,sans-Serif" font-size="11.00" fill="#000000">varchar[150]</text>
<polygon fill="none" stroke="#000000" points="10,-125.2 10,-147.2 119,-147.2 119,-125.2 10,-125.2"/>
<text text-anchor="start" x="30" y="-132.3" font-family="Helvetica,sans-Serif" font-size="11.00" fill="#000000">category</text>
<polygon fill="none" stroke="#000000" points="119,-125.2 119,-147.2 202,-147.2 202,-125.2 119,-125.2"/>
<text text-anchor="start" x="122" y="-132.9" font-family="Helvetica,sans-Serif" font-size="11.00" fill="#000000">varchar[50]</text>
<polygon fill="none" stroke="#000000" points="10,-103.2 10,-125.2 119,-125.2 119,-103.2 10,-103.2"/>
<text text-anchor="start" x="30" y="-110.3" font-family="Helvetica,sans-Serif" font-size="11.00" fill="#000000">price</text>
<polygon fill="none" stroke="#000000" points="119,-103.2 119,-125.2 202,-125.2 202,-103.2 119,-103.2"/>
<text text-anchor="start" x="122" y="-110.9" font-family="Helvetica,sans-Serif" font-size="11.00" fill="#000000">decimal[10,2]</text>
<polygon fill="none" stroke="#000000" points="10,-81.2 10,-103.2 119,-103.2 119,-81.2 10,-81.2"/>
<text text-anchor="start" x="30" y="-88.3" font-family="Helvetica,sans-Serif" font-size="11.00" fill="#000000">description</text>
<polygon fill="none" stroke="#000000" points="119,-81.2 119,-103.2 202,-103.2 202,-81.2 119,-81.2"/>
<text text-anchor="start" x="122" y="-88.9" font-family="Helvetica,sans-Serif" font-size="11.00" fill="#000000">text[65535]</text>
<polygon fill="none" stroke="#000000" points="10,-59.2 10,-81.2 119,-81.2 119,-59.2 10,-59.2"/>
<text text-anchor="start" x="30" y="-66.3" font-family="Helvetica,sans-Serif" font-size="11.00" fill="#000000">created_date</text>
<polygon fill="none" stroke="#000000" points="119,-59.2 119,-81.2 202,-81.2 202,-59.2 119,-59.2"/>
<text text-anchor="start" x="122" y="-66.9" font-family="Helvetica,sans-Serif" font-size="11.00" fill="#000000">datetime[19]</text>
<polygon fill="#ffffff" stroke="transparent" points="10,-40.2 10,-59.2 56,-59.2 56,-40.2 10,-40.2"/>
<polygon fill="none" stroke="#000000" points="10,-40.2 10,-59.2 56,-59.2 56,-40.2 10,-40.2"/>
<text text-anchor="start" x="13" y="-46.3" font-family="Helvetica,sans-Serif" font-size="11.00" fill="#000000">&lt; 0</text>
<polygon fill="#ffffff" stroke="transparent" points="56,-40.2 56,-59.2 119,-59.2 119,-40.2 56,-40.2"/>
<polygon fill="none" stroke="#000000" points="56,-40.2 56,-59.2 119,-59.2 119,-40.2 56,-40.2"/>
<text text-anchor="start" x="83.6105" y="-46.3" font-family="Helvetica,sans-Serif" font-size="11.00" fill="#000000">0 rows</text>
<polygon fill="#ffffff" stroke="transparent" points="119,-40.2 119,-59.2 202,-59.2 202,-40.2 119,-40.2"/>
<polygon fill="none" stroke="#000000" points="119,-40.2 119,-59.2 202,-59.2 202,-40.2 119,-40.2"/>
<text text-anchor="start" x="183.4053" y="-46.3" font-family="Helvetica,sans-Serif" font-size="11.00" fill="#000000">3 &gt;</text>
<polygon fill="none" stroke="#000000" stroke-width="2" points="9,-39.2 9,-281.2 203,-281.2 203,-39.2 9,-39.2"/>
</a>
</g>
</g>
<!-- review&#45;&gt;product -->
<g id="edge7" class="edge">
<title>review:w&#45;&gt;product:e</title>
<path fill="none" stroke="#000000" d="M250.4767,-369.0854C212.9592,-349.6824 258.7402,-246.2 202,-246.2"/>
<polygon fill="#000000" stroke="#000000" points="257.1779,-370.5224 264.2451,-375.72 261.0889,-371.3612 265,-372.2 265,-372.2 265,-372.2 261.0889,-371.3612 265.7549,-368.68 257.1779,-370.5224 257.1779,-370.5224"/>
<ellipse fill="none" stroke="#000000" cx="254.049" cy="-369.8514" rx="3.2" ry="3.2"/>
</g>
<!-- order -->
<g id="node3" class="node">
<title>order</title>
<g id="a_node3"><a xlink:href="../../tables/order.html" xlink:title="order" target="_top">
<polygon fill="#ffffff" stroke="transparent" points="279,-471.7 279,-532.7 359,-532.7 359,-471.7 279,-471.7"/>
<polygon fill="#f5f5f5" stroke="transparent" points="279,-509.2 279,-532.2 359,-532.2 359,-509.2 279,-509.2"/>
<polygon fill="none" stroke="#000000" points="279,-509.2 279,-532.2 359,-532.2 359,-509.2 279,-509.2"/>
<text text-anchor="start" x="284" y="-517.8" font-family="Helvetica,sans-Serif" font-weight="bold" font-size="11.00" fill="#000000">order</text>
<text text-anchor="start" x="324.0437" y="-517.3" font-family="Helvetica,sans-Serif" font-size="11.00" fill="#000000">[table]</text>
<polygon fill="none" stroke="#000000" points="279,-490.2 279,-509.2 359,-509.2 359,-490.2 279,-490.2"/>
<text text-anchor="start" x="282" y="-496.3" font-family="Helvetica,sans-Serif" font-size="11.00" fill="#000000">...</text>
<polygon fill="#ffffff" stroke="transparent" points="279,-471.2 279,-490.2 300,-490.2 300,-471.2 279,-471.2"/>
<polygon fill="none" stroke="#000000" points="279,-471.2 279,-490.2 300,-490.2 300,-471.2 279,-471.2"/>
<text text-anchor="start" x="281.7027" y="-477.3" font-family="Helvetica,sans-Serif" font-size="11.00" fill="#000000">&lt; 2</text>
<polygon fill="#ffffff" stroke="transparent" points="300,-471.2 300,-490.2 338,-490.2 338,-471.2 300,-471.2"/>
<polygon fill="none" stroke="#000000" points="300,-471.2 300,-490.2 338,-490.2 338,-471.2 300,-471.2"/>
<text text-anchor="start" x="302.8053" y="-477.3" font-family="Helvetica,sans-Serif" font-size="11.00" fill="#000000">0 rows</text>
<polygon fill="#ffffff" stroke="transparent" points="338,-471.2 338,-490.2 359,-490.2 359,-471.2 338,-471.2"/>
<polygon fill="none" stroke="#000000" points="338,-471.2 338,-490.2 359,-490.2 359,-471.2 338,-471.2"/>
<text text-anchor="start" x="340.7027" y="-477.3" font-family="Helvetica,sans-Serif" font-size="11.00" fill="#000000">1 &gt;</text>
</a>
</g>
</g>
<!-- order&#45;&gt;client -->
<g id="edge2" class="edge">
<title>order:w&#45;&gt;client:e</title>
<path fill="none" stroke="#000000" d="M264.5296,-498.7405C216.4766,-495.5812 200.7655,-477.2 146,-477.2"/>
<polygon fill="#000000" stroke="#000000" points="271.004,-498.946 278.8857,-502.7982 275.002,-499.073 279,-499.2 279,-499.2 279,-499.2 275.002,-499.073 279.1143,-495.6018 271.004,-498.946 271.004,-498.946"/>
<ellipse fill="none" stroke="#000000" cx="267.8056" cy="-498.8445" rx="3.2" ry="3.2"/>
</g>
<!-- store -->
<g id="node5" class="node">
<title>store</title>
<g id="a_node5"><a xlink:href="../../tables/store.html" xlink:title="store" target="_top">
<polygon fill="#ffffff" stroke="transparent" points="66,-346.7 66,-407.7 146,-407.7 146,-346.7 66,-346.7"/>
<polygon fill="#f5f5f5" stroke="transparent" points="66,-384.2 66,-407.2 146,-407.2 146,-384.2 66,-384.2"/>
<polygon fill="none" stroke="#000000" points="66,-384.2 66,-407.2 146,-407.2 146,-384.2 66,-384.2"/>
<text text-anchor="start" x="71" y="-392.8" font-family="Helvetica,sans-Serif" font-weight="bold" font-size="11.00" fill="#000000">store</text>
<text text-anchor="start" x="111.0437" y="-392.3" font-family="Helvetica,sans-Serif" font-size="11.00" fill="#000000">[table]</text>
<polygon fill="none" stroke="#000000" points="66,-365.2 66,-384.2 146,-384.2 146,-365.2 66,-365.2"/>
<text text-anchor="start" x="69" y="-371.3" font-family="Helvetica,sans-Serif" font-size="11.00" fill="#000000">...</text>
<polygon fill="#ffffff" stroke="transparent" points="66,-346.2 66,-365.2 87,-365.2 87,-346.2 66,-346.2"/>
<polygon fill="none" stroke="#000000" points="66,-346.2 66,-365.2 87,-365.2 87,-346.2 66,-346.2"/>
<text text-anchor="start" x="68.7027" y="-352.3" font-family="Helvetica,sans-Serif" font-size="11.00" fill="#000000">&lt; 1</text>
<polygon fill="#ffffff" stroke="transparent" points="87,-346.2 87,-365.2 125,-365.2 125,-346.2 87,-346.2"/>
<polygon fill="none" stroke="#000000" points="87,-346.2 87,-365.2 125,-365.2 125,-346.2 87,-346.2"/>
<text text-anchor="start" x="89.8053" y="-352.3" font-family="Helvetica,sans-Serif" font-size="11.00" fill="#000000">0 rows</text>
<polygon fill="#ffffff" stroke="transparent" points="125,-346.2 125,-365.2 146,-365.2 146,-346.2 125,-346.2"/>
<polygon fill="none" stroke="#000000" points="125,-346.2 125,-365.2 146,-365.2 146,-346.2 125,-346.2"/>
<text text-anchor="start" x="127.7027" y="-352.3" font-family="Helvetica,sans-Serif" font-size="11.00" fill="#000000">2 &gt;</text>
</a>
</g>
</g>
<!-- order&#45;&gt;store -->
<g id="edge3" class="edge">
<title>order:w&#45;&gt;store:e</title>
<path fill="none" stroke="#000000" d="M264.6309,-497.7091C201.1903,-483.606 221.8921,-374.2 146,-374.2"/>
<polygon fill="#000000" stroke="#000000" points="271.0427,-498.3743 278.6284,-502.7808 275.0214,-498.7872 279,-499.2 279,-499.2 279,-499.2 275.0214,-498.7872 279.3716,-495.6192 271.0427,-498.3743 271.0427,-498.3743"/>
<ellipse fill="none" stroke="#000000" cx="267.8598" cy="-498.0441" rx="3.2" ry="3.2"/>
</g>
<!-- order_product -->
<g id="node6" class="node">
<title>order_product</title>
<g id="a_node6"><a xlink:href="../../tables/order_product.html" xlink:title="order_product" target="_top">
<polygon fill="#ffffff" stroke="transparent" points="434,-384.7 434,-533.7 568,-533.7 568,-384.7 434,-384.7"/>
<polygon fill="#f5f5f5" stroke="transparent" points="434,-510.2 434,-533.2 568,-533.2 568,-510.2 434,-510.2"/>
<polygon fill="none" stroke="#000000" points="434,-510.2 434,-533.2 568,-533.2 568,-510.2 434,-510.2"/>
<text text-anchor="start" x="439" y="-518.8" font-family="Helvetica,sans-Serif" font-weight="bold" font-size="11.00" fill="#000000">order_product</text>
<text text-anchor="start" x="533.5219" y="-518.3" font-family="Helvetica,sans-Serif" font-size="11.00" fill="#000000">[table]</text>
<polygon fill="none" stroke="#000000" points="434,-488.2 434,-510.2 568,-510.2 568,-488.2 434,-488.2"/>
<image xlink:href="../../images/primaryKeys.png" width="11px" height="12px" preserveAspectRatio="xMinYMin meet" x="439" y="-505.2"/>
<text text-anchor="start" x="463" y="-495.3" font-family="Helvetica,sans-Serif" font-size="11.00" fill="#000000">order_id</text>
<polygon fill="none" stroke="#000000" points="434,-466.2 434,-488.2 568,-488.2 568,-466.2 434,-466.2"/>
<image xlink:href="../../images/primaryKeys.png" width="11px" height="12px" preserveAspectRatio="xMinYMin meet" x="439" y="-483.2"/>
<text text-anchor="start" x="463" y="-473.3" font-family="Helvetica,sans-Serif" font-size="11.00" fill="#000000">product_id</text>
<polygon fill="none" stroke="#000000" points="434,-444.2 434,-466.2 568,-466.2 568,-444.2 434,-444.2"/>
<image xlink:href="../../images/primaryKeys.png" width="11px" height="12px" preserveAspectRatio="xMinYMin meet" x="439" y="-461.2"/>
<text text-anchor="start" x="463" y="-451.3" font-family="Helvetica,sans-Serif" font-size="11.00" fill="#000000">cup_size</text>
<polygon fill="none" stroke="#000000" points="434,-422.2 434,-444.2 568,-444.2 568,-422.2 434,-422.2"/>
<image xlink:href="../../images/primaryKeys.png" width="11px" height="12px" preserveAspectRatio="xMinYMin meet" x="439" y="-439.2"/>
<text text-anchor="start" x="463" y="-429.3" font-family="Helvetica,sans-Serif" font-size="11.00" fill="#000000">milk_type</text>
<polygon fill="none" stroke="#000000" points="434,-403.2 434,-422.2 568,-422.2 568,-403.2 434,-403.2"/>
<text text-anchor="start" x="437" y="-409.3" font-family="Helvetica,sans-Serif" font-size="11.00" fill="#000000">...</text>
<polygon fill="#ffffff" stroke="transparent" points="434,-384.2 434,-403.2 486,-403.2 486,-384.2 434,-384.2"/>
<polygon fill="none" stroke="#000000" points="434,-384.2 434,-403.2 486,-403.2 486,-384.2 434,-384.2"/>
<text text-anchor="start" x="437" y="-390.3" font-family="Helvetica,sans-Serif" font-size="11.00" fill="#000000">&lt; 2</text>
<polygon fill="#ffffff" stroke="transparent" points="486,-384.2 486,-403.2 540,-403.2 540,-384.2 486,-384.2"/>
<polygon fill="none" stroke="#000000" points="486,-384.2 486,-403.2 540,-403.2 540,-384.2 486,-384.2"/>
<text text-anchor="start" x="504.6105" y="-390.3" font-family="Helvetica,sans-Serif" font-size="11.00" fill="#000000">0 rows</text>
<polygon fill="#ffffff" stroke="transparent" points="540,-384.2 540,-403.2 568,-403.2 568,-384.2 540,-384.2"/>
<polygon fill="none" stroke="#000000" points="540,-384.2 540,-403.2 568,-403.2 568,-384.2 540,-384.2"/>
<text text-anchor="start" x="558.8862" y="-390.3" font-family="Helvetica,sans-Serif" font-size="11.00" fill="#000000"> &#160;</text>
</a>
</g>
</g>
<!-- order_product&#45;&gt;order -->
<g id="edge4" class="edge">
<title>order_product:w&#45;&gt;order:e</title>
<path fill="none" stroke="#000000" d="M419.3917,-499.2C397.2594,-499.2 386.8646,-499.2 359,-499.2"/>
<polygon fill="#000000" stroke="#000000" points="426,-499.2001 434,-502.8 430,-499.2 434,-499.2 434,-499.2 434,-499.2 430,-499.2 434,-495.6 426,-499.2001 426,-499.2001"/>
<ellipse fill="none" stroke="#000000" cx="422.8" cy="-499.2001" rx="3.2" ry="3.2"/>
</g>
<!-- order_product&#45;&gt;product -->
<g id="edge5" class="edge">
<title>order_product:w&#45;&gt;product:e</title>
<path fill="none" stroke="#000000" d="M420.3738,-472.2344C380.3509,-437.1013 438.0112,-226.2952 393,-187.2 343.3391,-144.0663 303.6306,-157.381 245,-187.2 216.0781,-201.9094 234.4475,-246.2 202,-246.2"/>
<polygon fill="#000000" stroke="#000000" points="426.4835,-474.4609 432.7674,-480.5824 430.2418,-475.8304 434,-477.2 434,-477.2 434,-477.2 430.2418,-475.8304 435.2326,-473.8176 426.4835,-474.4609 426.4835,-474.4609"/>
<ellipse fill="none" stroke="#000000" cx="423.4769" cy="-473.3652" rx="3.2" ry="3.2"/>
</g>
<!-- store_product -->
<g id="node8" class="node">
<title>store_product</title>
<g id="a_node8"><a xlink:href="../../tables/store_product.html" xlink:title="store_product" target="_top">
<polygon fill="#ffffff" stroke="transparent" points="253,-197.7 253,-302.7 385,-302.7 385,-197.7 253,-197.7"/>
<polygon fill="#f5f5f5" stroke="transparent" points="253,-279.2 253,-302.2 385,-302.2 385,-279.2 253,-279.2"/>
<polygon fill="none" stroke="#000000" points="253,-279.2 253,-302.2 385,-302.2 385,-279.2 253,-279.2"/>
<text text-anchor="start" x="258" y="-287.8" font-family="Helvetica,sans-Serif" font-weight="bold" font-size="11.00" fill="#000000">store_product</text>
<text text-anchor="start" x="350.5219" y="-287.3" font-family="Helvetica,sans-Serif" font-size="11.00" fill="#000000">[table]</text>
<polygon fill="none" stroke="#000000" points="253,-257.2 253,-279.2 385,-279.2 385,-257.2 253,-257.2"/>
<image xlink:href="../../images/primaryKeys.png" width="11px" height="12px" preserveAspectRatio="xMinYMin meet" x="258" y="-274.2"/>
<text text-anchor="start" x="282" y="-264.3" font-family="Helvetica,sans-Serif" font-size="11.00" fill="#000000">store_id</text>
<polygon fill="none" stroke="#000000" points="253,-235.2 253,-257.2 385,-257.2 385,-235.2 253,-235.2"/>
<image xlink:href="../../images/primaryKeys.png" width="11px" height="12px" preserveAspectRatio="xMinYMin meet" x="258" y="-252.2"/>
<text text-anchor="start" x="282" y="-242.3" font-family="Helvetica,sans-Serif" font-size="11.00" fill="#000000">product_id</text>
<polygon fill="none" stroke="#000000" points="253,-216.2 253,-235.2 385,-235.2 385,-216.2 253,-216.2"/>
<text text-anchor="start" x="256" y="-222.3" font-family="Helvetica,sans-Serif" font-size="11.00" fill="#000000">...</text>
<polygon fill="#ffffff" stroke="transparent" points="253,-197.2 253,-216.2 304,-216.2 304,-197.2 253,-197.2"/>
<polygon fill="none" stroke="#000000" points="253,-197.2 253,-216.2 304,-216.2 304,-197.2 253,-197.2"/>
<text text-anchor="start" x="256" y="-203.3" font-family="Helvetica,sans-Serif" font-size="11.00" fill="#000000">&lt; 2</text>
<polygon fill="#ffffff" stroke="transparent" points="304,-197.2 304,-216.2 357,-216.2 357,-197.2 304,-197.2"/>
<polygon fill="none" stroke="#000000" points="304,-197.2 304,-216.2 357,-216.2 357,-197.2 304,-197.2"/>
<text text-anchor="start" x="321.6105" y="-203.3" font-family="Helvetica,sans-Serif" font-size="11.00" fill="#000000">0 rows</text>
<polygon fill="#ffffff" stroke="transparent" points="357,-197.2 357,-216.2 385,-216.2 385,-197.2 357,-197.2"/>
<polygon fill="none" stroke="#000000" points="357,-197.2 357,-216.2 385,-216.2 385,-197.2 357,-197.2"/>
<text text-anchor="start" x="375.8862" y="-203.3" font-family="Helvetica,sans-Serif" font-size="11.00" fill="#000000"> &#160;</text>
</a>
</g>
</g>
<!-- store_product&#45;&gt;store -->
<g id="edge9" class="edge">
<title>store_product:w&#45;&gt;store:e</title>
<path fill="none" stroke="#000000" d="M239.3464,-273.3126C209.0053,-294.4865 175.0248,-374.2 146,-374.2"/>
<polygon fill="#000000" stroke="#000000" points="245.508,-271.0054 254.2624,-271.5714 249.254,-269.6027 253,-268.2 253,-268.2 253,-268.2 249.254,-269.6027 251.7376,-264.8286 245.508,-271.0054 245.508,-271.0054"/>
<ellipse fill="none" stroke="#000000" cx="242.5112" cy="-272.1276" rx="3.2" ry="3.2"/>
</g>
<!-- store_product&#45;&gt;product -->
<g id="edge8" class="edge">
<title>store_product:w&#45;&gt;product:e</title>
<path fill="none" stroke="#000000" d="M238.276,-246.2C226.2815,-246.2 218.8229,-246.2 202,-246.2"/>
<polygon fill="#000000" stroke="#000000" points="245,-246.2001 253,-249.8 249,-246.2 253,-246.2 253,-246.2 253,-246.2 249,-246.2 253,-242.6 245,-246.2001 245,-246.2001"/>
<ellipse fill="none" stroke="#000000" cx="241.8" cy="-246.2001" rx="3.2" ry="3.2"/>
</g>
</g>
</svg>
