<?xml version="1.0" encoding="UTF-8" standalone="no"?>
<!DOCTYPE svg PUBLIC "-//W3C//DTD SVG 1.1//EN"
 "http://www.w3.org/Graphics/SVG/1.1/DTD/svg11.dtd">
<!-- Generated by graphviz version 2.40.1 (20161225.0304)
 -->
<!-- Title: oneDegreeRelationshipsDiagram Pages: 1 -->
<svg width="403pt" height="507pt"
 viewBox="0.00 0.00 403.00 506.70" xmlns="http://www.w3.org/2000/svg" xmlns:xlink="http://www.w3.org/1999/xlink">
<g id="graph0" class="graph" transform="scale(1 1) rotate(0) translate(4 502.7)">
<title>oneDegreeRelationshipsDiagram</title>
<polygon fill="#ffffff" stroke="transparent" points="-4,4 -4,-502.7 399,-502.7 399,4 -4,4"/>
<text text-anchor="middle" x="72.4936" y="-7.3" font-family="Helvetica,sans-Serif" font-size="11.00" fill="#000000">Generated by SchemaSpy</text>
<!-- order_product -->
<g id="node1" class="node">
<title>order_product</title>
<g id="a_node1"><a xlink:href="../../tables/order_product.html" xlink:title="order_product" target="_top">
<polygon fill="#ffffff" stroke="transparent" points="253,-345.7 253,-494.7 387,-494.7 387,-345.7 253,-345.7"/>
<polygon fill="#f5f5f5" stroke="transparent" points="253,-471.2 253,-494.2 387,-494.2 387,-471.2 253,-471.2"/>
<polygon fill="none" stroke="#000000" points="253,-471.2 253,-494.2 387,-494.2 387,-471.2 253,-471.2"/>
<text text-anchor="start" x="258" y="-479.8" font-family="Helvetica,sans-Serif" font-weight="bold" font-size="11.00" fill="#000000">order_product</text>
<text text-anchor="start" x="352.5219" y="-479.3" font-family="Helvetica,sans-Serif" font-size="11.00" fill="#000000">[table]</text>
<polygon fill="none" stroke="#000000" points="253,-449.2 253,-471.2 387,-471.2 387,-449.2 253,-449.2"/>
<image xlink:href="../../images/primaryKeys.png" width="11px" height="12px" preserveAspectRatio="xMinYMin meet" x="258" y="-466.2"/>
<text text-anchor="start" x="282" y="-456.3" font-family="Helvetica,sans-Serif" font-size="11.00" fill="#000000">order_id</text>
<polygon fill="none" stroke="#000000" points="253,-427.2 253,-449.2 387,-449.2 387,-427.2 253,-427.2"/>
<image xlink:href="../../images/primaryKeys.png" width="11px" height="12px" preserveAspectRatio="xMinYMin meet" x="258" y="-444.2"/>
<text text-anchor="start" x="282" y="-434.3" font-family="Helvetica,sans-Serif" font-size="11.00" fill="#000000">product_id</text>
<polygon fill="none" stroke="#000000" points="253,-405.2 253,-427.2 387,-427.2 387,-405.2 253,-405.2"/>
<image xlink:href="../../images/primaryKeys.png" width="11px" height="12px" preserveAspectRatio="xMinYMin meet" x="258" y="-422.2"/>
<text text-anchor="start" x="282" y="-412.3" font-family="Helvetica,sans-Serif" font-size="11.00" fill="#000000">cup_size</text>
<polygon fill="none" stroke="#000000" points="253,-383.2 253,-405.2 387,-405.2 387,-383.2 253,-383.2"/>
<image xlink:href="../../images/primaryKeys.png" width="11px" height="12px" preserveAspectRatio="xMinYMin meet" x="258" y="-400.2"/>
<text text-anchor="start" x="282" y="-390.3" font-family="Helvetica,sans-Serif" font-size="11.00" fill="#000000">milk_type</text>
<polygon fill="none" stroke="#000000" points="253,-364.2 253,-383.2 387,-383.2 387,-364.2 253,-364.2"/>
<text text-anchor="start" x="256" y="-370.3" font-family="Helvetica,sans-Serif" font-size="11.00" fill="#000000">...</text>
<polygon fill="#ffffff" stroke="transparent" points="253,-345.2 253,-364.2 305,-364.2 305,-345.2 253,-345.2"/>
<polygon fill="none" stroke="#000000" points="253,-345.2 253,-364.2 305,-364.2 305,-345.2 253,-345.2"/>
<text text-anchor="start" x="256" y="-351.3" font-family="Helvetica,sans-Serif" font-size="11.00" fill="#000000">&lt; 2</text>
<polygon fill="#ffffff" stroke="transparent" points="305,-345.2 305,-364.2 359,-364.2 359,-345.2 305,-345.2"/>
<polygon fill="none" stroke="#000000" points="305,-345.2 305,-364.2 359,-364.2 359,-345.2 305,-345.2"/>
<text text-anchor="start" x="323.6105" y="-351.3" font-family="Helvetica,sans-Serif" font-size="11.00" fill="#000000">0 rows</text>
<polygon fill="#ffffff" stroke="transparent" points="359,-345.2 359,-364.2 387,-364.2 387,-345.2 359,-345.2"/>
<polygon fill="none" stroke="#000000" points="359,-345.2 359,-364.2 387,-364.2 387,-345.2 359,-345.2"/>
<text text-anchor="start" x="377.8862" y="-351.3" font-family="Helvetica,sans-Serif" font-size="11.00" fill="#000000"> &#160;</text>
</a>
</g>
</g>
<!-- product -->
<g id="node2" class="node">
<title>product</title>
<g id="a_node2"><a xlink:href="../../tables/product.html" xlink:title="product" target="_top">
<polygon fill="#ffffff" stroke="transparent" points="8,-38.2 8,-282.2 204,-282.2 204,-38.2 8,-38.2"/>
<polygon fill="#f5f5f5" stroke="transparent" points="10,-257.2 10,-280.2 202,-280.2 202,-257.2 10,-257.2"/>
<polygon fill="none" stroke="#000000" points="10,-257.2 10,-280.2 202,-280.2 202,-257.2 10,-257.2"/>
<text text-anchor="start" x="15" y="-265.8" font-family="Helvetica,sans-Serif" font-weight="bold" font-size="11.00" fill="#000000">product</text>
<text text-anchor="start" x="167.0437" y="-265.3" font-family="Helvetica,sans-Serif" font-size="11.00" fill="#000000">[table]</text>
<polygon fill="none" stroke="#000000" points="10,-235.2 10,-257.2 119,-257.2 119,-235.2 10,-235.2"/>
<image xlink:href="../../images/primaryKeys.png" width="11px" height="12px" preserveAspectRatio="xMinYMin meet" x="15" y="-252.2"/>
<text text-anchor="start" x="30" y="-242.3" font-family="Helvetica,sans-Serif" font-size="11.00" fill="#000000">product_id</text>
<polygon fill="none" stroke="#000000" points="119,-235.2 119,-257.2 202,-257.2 202,-235.2 119,-235.2"/>
<text text-anchor="start" x="121.6783" y="-242.9" font-family="Helvetica,sans-Serif" font-size="11.00" fill="#000000">int unsigned[10]</text>
<polygon fill="none" stroke="#000000" points="10,-213.2 10,-235.2 119,-235.2 119,-213.2 10,-213.2"/>
<text text-anchor="start" x="30" y="-220.3" font-family="Helvetica,sans-Serif" font-size="11.00" fill="#000000">name</text>
<polygon fill="none" stroke="#000000" points="119,-213.2 119,-235.2 202,-235.2 202,-213.2 119,-213.2"/>
<text text-anchor="start" x="122" y="-220.9" font-family="Helvetica,sans-Serif" font-size="11.00" fill="#000000">varchar[255]</text>
<polygon fill="none" stroke="#000000" points="10,-191.2 10,-213.2 119,-213.2 119,-191.2 10,-191.2"/>
<text text-anchor="start" x="30" y="-198.3" font-family="Helvetica,sans-Serif" font-size="11.00" fill="#000000">calories</text>
<polygon fill="none" stroke="#000000" points="119,-191.2 119,-213.2 202,-213.2 202,-191.2 119,-191.2"/>
<text text-anchor="start" x="121.6783" y="-198.9" font-family="Helvetica,sans-Serif" font-size="11.00" fill="#000000">int unsigned[10]</text>
<polygon fill="none" stroke="#000000" points="10,-169.2 10,-191.2 119,-191.2 119,-169.2 10,-169.2"/>
<text text-anchor="start" x="30" y="-176.3" font-family="Helvetica,sans-Serif" font-size="11.00" fill="#000000">img_url</text>
<polygon fill="none" stroke="#000000" points="119,-169.2 119,-191.2 202,-191.2 202,-169.2 119,-169.2"/>
<text text-anchor="start" x="122" y="-176.9" font-family="Helvetica,sans-Serif" font-size="11.00" fill="#000000">varchar[255]</text>
<polygon fill="none" stroke="#000000" points="10,-147.2 10,-169.2 119,-169.2 119,-147.2 10,-147.2"/>
<text text-anchor="start" x="30" y="-154.3" font-family="Helvetica,sans-Serif" font-size="11.00" fill="#000000">img_alt_text</text>
<polygon fill="none" stroke="#000000" points="119,-147.2 119,-169.2 202,-169.2 202,-147.2 119,-147.2"/>
<text text-anchor="start" x="122" y="-154.9" font-family="Helvetica,sans-Serif" font-size="11.00" fill="#000000">varchar[150]</text>
<polygon fill="none" stroke="#000000" points="10,-125.2 10,-147.2 119,-147.2 119,-125.2 10,-125.2"/>
<text text-anchor="start" x="30" y="-132.3" font-family="Helvetica,sans-Serif" font-size="11.00" fill="#000000">category</text>
<polygon fill="none" stroke="#000000" points="119,-125.2 119,-147.2 202,-147.2 202,-125.2 119,-125.2"/>
<text text-anchor="start" x="122" y="-132.9" font-family="Helvetica,sans-Serif" font-size="11.00" fill="#000000">varchar[50]</text>
<polygon fill="none" stroke="#000000" points="10,-103.2 10,-125.2 119,-125.2 119,-103.2 10,-103.2"/>
<text text-anchor="start" x="30" y="-110.3" font-family="Helvetica,sans-Serif" font-size="11.00" fill="#000000">price</text>
<polygon fill="none" stroke="#000000" points="119,-103.2 119,-125.2 202,-125.2 202,-103.2 119,-103.2"/>
<text text-anchor="start" x="122" y="-110.9" font-family="Helvetica,sans-Serif" font-size="11.00" fill="#000000">decimal[10,2]</text>
<polygon fill="none" stroke="#000000" points="10,-81.2 10,-103.2 119,-103.2 119,-81.2 10,-81.2"/>
<text text-anchor="start" x="30" y="-88.3" font-family="Helvetica,sans-Serif" font-size="11.00" fill="#000000">description</text>
<polygon fill="none" stroke="#000000" points="119,-81.2 119,-103.2 202,-103.2 202,-81.2 119,-81.2"/>
<text text-anchor="start" x="122" y="-88.9" font-family="Helvetica,sans-Serif" font-size="11.00" fill="#000000">text[65535]</text>
<polygon fill="none" stroke="#000000" points="10,-59.2 10,-81.2 119,-81.2 119,-59.2 10,-59.2"/>
<text text-anchor="start" x="30" y="-66.3" font-family="Helvetica,sans-Serif" font-size="11.00" fill="#000000">created_date</text>
<polygon fill="none" stroke="#000000" points="119,-59.2 119,-81.2 202,-81.2 202,-59.2 119,-59.2"/>
<text text-anchor="start" x="122" y="-66.9" font-family="Helvetica,sans-Serif" font-size="11.00" fill="#000000">datetime[19]</text>
<polygon fill="#ffffff" stroke="transparent" points="10,-40.2 10,-59.2 56,-59.2 56,-40.2 10,-40.2"/>
<polygon fill="none" stroke="#000000" points="10,-40.2 10,-59.2 56,-59.2 56,-40.2 10,-40.2"/>
<text text-anchor="start" x="13" y="-46.3" font-family="Helvetica,sans-Serif" font-size="11.00" fill="#000000">&lt; 0</text>
<polygon fill="#ffffff" stroke="transparent" points="56,-40.2 56,-59.2 119,-59.2 119,-40.2 56,-40.2"/>
<polygon fill="none" stroke="#000000" points="56,-40.2 56,-59.2 119,-59.2 119,-40.2 56,-40.2"/>
<text text-anchor="start" x="83.6105" y="-46.3" font-family="Helvetica,sans-Serif" font-size="11.00" fill="#000000">0 rows</text>
<polygon fill="#ffffff" stroke="transparent" points="119,-40.2 119,-59.2 202,-59.2 202,-40.2 119,-40.2"/>
<polygon fill="none" stroke="#000000" points="119,-40.2 119,-59.2 202,-59.2 202,-40.2 119,-40.2"/>
<text text-anchor="start" x="183.4053" y="-46.3" font-family="Helvetica,sans-Serif" font-size="11.00" fill="#000000">3 &gt;</text>
<polygon fill="none" stroke="#000000" stroke-width="2" points="9,-39.2 9,-281.2 203,-281.2 203,-39.2 9,-39.2"/>
</a>
</g>
</g>
<!-- order_product&#45;&gt;product -->
<g id="edge1" class="edge">
<title>order_product:w&#45;&gt;product:e</title>
<path fill="none" stroke="#000000" d="M238.4788,-435.91C180.0077,-414.2476 284.6017,-246.2 202,-246.2"/>
<polygon fill="#000000" stroke="#000000" points="245.0977,-436.9538 252.4392,-441.7561 249.0488,-437.5769 253,-438.2 253,-438.2 253,-438.2 249.0488,-437.5769 253.5608,-434.6439 245.0977,-436.9538 245.0977,-436.9538"/>
<ellipse fill="none" stroke="#000000" cx="241.9367" cy="-436.4553" rx="3.2" ry="3.2"/>
</g>
<!-- review -->
<g id="node3" class="node">
<title>review</title>
<g id="a_node3"><a xlink:href="../../tables/review.html" xlink:title="review" target="_top">
<polygon fill="#ffffff" stroke="transparent" points="265.5,-197.7 265.5,-324.7 374.5,-324.7 374.5,-197.7 265.5,-197.7"/>
<polygon fill="#f5f5f5" stroke="transparent" points="266,-301.2 266,-324.2 375,-324.2 375,-301.2 266,-301.2"/>
<polygon fill="none" stroke="#000000" points="266,-301.2 266,-324.2 375,-324.2 375,-301.2 266,-301.2"/>
<text text-anchor="start" x="271" y="-309.8" font-family="Helvetica,sans-Serif" font-weight="bold" font-size="11.00" fill="#000000">review</text>
<text text-anchor="start" x="340.0437" y="-309.3" font-family="Helvetica,sans-Serif" font-size="11.00" fill="#000000">[table]</text>
<polygon fill="none" stroke="#000000" points="266,-279.2 266,-301.2 375,-301.2 375,-279.2 266,-279.2"/>
<image xlink:href="../../images/primaryKeys.png" width="11px" height="12px" preserveAspectRatio="xMinYMin meet" x="271" y="-296.2"/>
<text text-anchor="start" x="286" y="-286.3" font-family="Helvetica,sans-Serif" font-size="11.00" fill="#000000">review_id</text>
<polygon fill="#ffffff" stroke="transparent" points="266,-257.2 266,-279.2 375,-279.2 375,-257.2 266,-257.2"/>
<polygon fill="none" stroke="#000000" points="266,-257.2 266,-279.2 375,-279.2 375,-257.2 266,-257.2"/>
<image xlink:href="../../images/foreignKeys.png" width="11px" height="12px" preserveAspectRatio="xMinYMin meet" x="271" y="-274.2"/>
<text text-anchor="start" x="286" y="-264.3" font-family="Helvetica,sans-Serif" font-size="11.00" fill="#000000">client_id</text>
<polygon fill="#ffffff" stroke="transparent" points="266,-235.2 266,-257.2 375,-257.2 375,-235.2 266,-235.2"/>
<polygon fill="none" stroke="#000000" points="266,-235.2 266,-257.2 375,-257.2 375,-235.2 266,-235.2"/>
<image xlink:href="../../images/foreignKeys.png" width="11px" height="12px" preserveAspectRatio="xMinYMin meet" x="271" y="-252.2"/>
<text text-anchor="start" x="286" y="-242.3" font-family="Helvetica,sans-Serif" font-size="11.00" fill="#000000">product_id</text>
<polygon fill="none" stroke="#000000" points="266,-216.2 266,-235.2 375,-235.2 375,-216.2 266,-216.2"/>
<text text-anchor="start" x="269" y="-222.3" font-family="Helvetica,sans-Serif" font-size="11.00" fill="#000000">...</text>
<polygon fill="#ffffff" stroke="transparent" points="266,-197.2 266,-216.2 301,-216.2 301,-197.2 266,-197.2"/>
<polygon fill="none" stroke="#000000" points="266,-197.2 266,-216.2 301,-216.2 301,-197.2 266,-197.2"/>
<text text-anchor="start" x="269" y="-203.3" font-family="Helvetica,sans-Serif" font-size="11.00" fill="#000000">&lt; 2</text>
<polygon fill="#ffffff" stroke="transparent" points="301,-197.2 301,-216.2 346,-216.2 346,-197.2 301,-197.2"/>
<polygon fill="none" stroke="#000000" points="301,-197.2 301,-216.2 346,-216.2 346,-197.2 301,-197.2"/>
<text text-anchor="start" x="310.6105" y="-203.3" font-family="Helvetica,sans-Serif" font-size="11.00" fill="#000000">0 rows</text>
<polygon fill="#ffffff" stroke="transparent" points="346,-197.2 346,-216.2 375,-216.2 375,-197.2 346,-197.2"/>
<polygon fill="none" stroke="#000000" points="346,-197.2 346,-216.2 375,-216.2 375,-197.2 346,-197.2"/>
<text text-anchor="start" x="356.4053" y="-203.3" font-family="Helvetica,sans-Serif" font-size="11.00" fill="#000000">1 &gt;</text>
</a>
</g>
</g>
<!-- review&#45;&gt;product -->
<g id="edge2" class="edge">
<title>review:w&#45;&gt;product:e</title>
<path fill="none" stroke="#000000" d="M251.4568,-246.2C233.964,-246.2 224.8889,-246.2 202,-246.2"/>
<polygon fill="#000000" stroke="#000000" points="258,-246.2001 266,-249.8 262,-246.2 266,-246.2 266,-246.2 266,-246.2 262,-246.2 266,-242.6 258,-246.2001 258,-246.2001"/>
<ellipse fill="none" stroke="#000000" cx="254.8" cy="-246.2001" rx="3.2" ry="3.2"/>
</g>
<!-- store_product -->
<g id="node4" class="node">
<title>store_product</title>
<g id="a_node4"><a xlink:href="../../tables/store_product.html" xlink:title="store_product" target="_top">
<polygon fill="#ffffff" stroke="transparent" points="254,-71.7 254,-176.7 386,-176.7 386,-71.7 254,-71.7"/>
<polygon fill="#f5f5f5" stroke="transparent" points="254,-153.2 254,-176.2 386,-176.2 386,-153.2 254,-153.2"/>
<polygon fill="none" stroke="#000000" points="254,-153.2 254,-176.2 386,-176.2 386,-153.2 254,-153.2"/>
<text text-anchor="start" x="259" y="-161.8" font-family="Helvetica,sans-Serif" font-weight="bold" font-size="11.00" fill="#000000">store_product</text>
<text text-anchor="start" x="351.5219" y="-161.3" font-family="Helvetica,sans-Serif" font-size="11.00" fill="#000000">[table]</text>
<polygon fill="none" stroke="#000000" points="254,-131.2 254,-153.2 386,-153.2 386,-131.2 254,-131.2"/>
<image xlink:href="../../images/primaryKeys.png" width="11px" height="12px" preserveAspectRatio="xMinYMin meet" x="259" y="-148.2"/>
<text text-anchor="start" x="283" y="-138.3" font-family="Helvetica,sans-Serif" font-size="11.00" fill="#000000">store_id</text>
<polygon fill="none" stroke="#000000" points="254,-109.2 254,-131.2 386,-131.2 386,-109.2 254,-109.2"/>
<image xlink:href="../../images/primaryKeys.png" width="11px" height="12px" preserveAspectRatio="xMinYMin meet" x="259" y="-126.2"/>
<text text-anchor="start" x="283" y="-116.3" font-family="Helvetica,sans-Serif" font-size="11.00" fill="#000000">product_id</text>
<polygon fill="none" stroke="#000000" points="254,-90.2 254,-109.2 386,-109.2 386,-90.2 254,-90.2"/>
<text text-anchor="start" x="257" y="-96.3" font-family="Helvetica,sans-Serif" font-size="11.00" fill="#000000">...</text>
<polygon fill="#ffffff" stroke="transparent" points="254,-71.2 254,-90.2 305,-90.2 305,-71.2 254,-71.2"/>
<polygon fill="none" stroke="#000000" points="254,-71.2 254,-90.2 305,-90.2 305,-71.2 254,-71.2"/>
<text text-anchor="start" x="257" y="-77.3" font-family="Helvetica,sans-Serif" font-size="11.00" fill="#000000">&lt; 2</text>
<polygon fill="#ffffff" stroke="transparent" points="305,-71.2 305,-90.2 358,-90.2 358,-71.2 305,-71.2"/>
<polygon fill="none" stroke="#000000" points="305,-71.2 305,-90.2 358,-90.2 358,-71.2 305,-71.2"/>
<text text-anchor="start" x="322.6105" y="-77.3" font-family="Helvetica,sans-Serif" font-size="11.00" fill="#000000">0 rows</text>
<polygon fill="#ffffff" stroke="transparent" points="358,-71.2 358,-90.2 386,-90.2 386,-71.2 358,-71.2"/>
<polygon fill="none" stroke="#000000" points="358,-71.2 358,-90.2 386,-90.2 386,-71.2 358,-71.2"/>
<text text-anchor="start" x="376.8862" y="-77.3" font-family="Helvetica,sans-Serif" font-size="11.00" fill="#000000"> &#160;</text>
</a>
</g>
</g>
<!-- store_product&#45;&gt;product -->
<g id="edge3" class="edge">
<title>store_product:w&#45;&gt;product:e</title>
<path fill="none" stroke="#000000" d="M239.7219,-123.5702C205.6895,-143.6077 256.6654,-246.2 202,-246.2"/>
<polygon fill="#000000" stroke="#000000" points="246.214,-122.0379 254.827,-123.7037 250.107,-121.1189 254,-120.2 254,-120.2 254,-120.2 250.107,-121.1189 253.173,-116.6963 246.214,-122.0379 246.214,-122.0379"/>
<ellipse fill="none" stroke="#000000" cx="243.0995" cy="-122.773" rx="3.2" ry="3.2"/>
</g>
</g>
</svg>
