<?xml version="1.0" encoding="UTF-8" standalone="no"?>
<!DOCTYPE svg PUBLIC "-//W3C//DTD SVG 1.1//EN"
 "http://www.w3.org/Graphics/SVG/1.1/DTD/svg11.dtd">
<!-- Generated by graphviz version 2.40.1 (20161225.0304)
 -->
<!-- Title: oneDegreeRelationshipsDiagram Pages: 1 -->
<svg width="580pt" height="361pt"
 viewBox="0.00 0.00 580.00 361.20" xmlns="http://www.w3.org/2000/svg" xmlns:xlink="http://www.w3.org/1999/xlink">
<g id="graph0" class="graph" transform="scale(1 1) rotate(0) translate(4 357.2)">
<title>oneDegreeRelationshipsDiagram</title>
<polygon fill="#ffffff" stroke="transparent" points="-4,4 -4,-357.2 576,-357.2 576,4 -4,4"/>
<text text-anchor="middle" x="72.4936" y="-7.3" font-family="Helvetica,sans-Serif" font-size="11.00" fill="#000000">Generated by SchemaSpy</text>
<!-- comment -->
<g id="node1" class="node">
<title>comment</title>
<g id="a_node1"><a xlink:href="../../tables/comment.html" xlink:title="comment" target="_top">
<polygon fill="#ffffff" stroke="transparent" points="411,-200.2 411,-349.2 564,-349.2 564,-200.2 411,-200.2"/>
<polygon fill="#f5f5f5" stroke="transparent" points="411.5,-325.7 411.5,-348.7 564.5,-348.7 564.5,-325.7 411.5,-325.7"/>
<polygon fill="none" stroke="#000000" points="411.5,-325.7 411.5,-348.7 564.5,-348.7 564.5,-325.7 411.5,-325.7"/>
<text text-anchor="start" x="416.5" y="-334.3" font-family="Helvetica,sans-Serif" font-weight="bold" font-size="11.00" fill="#000000">comment</text>
<text text-anchor="start" x="529.5437" y="-333.8" font-family="Helvetica,sans-Serif" font-size="11.00" fill="#000000">[table]</text>
<polygon fill="none" stroke="#000000" points="411.5,-303.7 411.5,-325.7 564.5,-325.7 564.5,-303.7 411.5,-303.7"/>
<image xlink:href="../../images/primaryKeys.png" width="11px" height="12px" preserveAspectRatio="xMinYMin meet" x="416.5" y="-320.7"/>
<text text-anchor="start" x="431.5" y="-310.8" font-family="Helvetica,sans-Serif" font-size="11.00" fill="#000000">comment_id</text>
<polygon fill="#ffffff" stroke="transparent" points="411.5,-281.7 411.5,-303.7 564.5,-303.7 564.5,-281.7 411.5,-281.7"/>
<polygon fill="none" stroke="#000000" points="411.5,-281.7 411.5,-303.7 564.5,-303.7 564.5,-281.7 411.5,-281.7"/>
<image xlink:href="../../images/foreignKeys.png" width="11px" height="12px" preserveAspectRatio="xMinYMin meet" x="416.5" y="-298.7"/>
<text text-anchor="start" x="431.5" y="-288.8" font-family="Helvetica,sans-Serif" font-size="11.00" fill="#000000">parent_comment_id</text>
<polygon fill="#ffffff" stroke="transparent" points="411.5,-259.7 411.5,-281.7 564.5,-281.7 564.5,-259.7 411.5,-259.7"/>
<polygon fill="none" stroke="#000000" points="411.5,-259.7 411.5,-281.7 564.5,-281.7 564.5,-259.7 411.5,-259.7"/>
<image xlink:href="../../images/foreignKeys.png" width="11px" height="12px" preserveAspectRatio="xMinYMin meet" x="416.5" y="-276.7"/>
<text text-anchor="start" x="431.5" y="-266.8" font-family="Helvetica,sans-Serif" font-size="11.00" fill="#000000">user_id</text>
<polygon fill="#ffffff" stroke="transparent" points="411.5,-237.7 411.5,-259.7 564.5,-259.7 564.5,-237.7 411.5,-237.7"/>
<polygon fill="none" stroke="#000000" points="411.5,-237.7 411.5,-259.7 564.5,-259.7 564.5,-237.7 411.5,-237.7"/>
<image xlink:href="../../images/foreignKeys.png" width="11px" height="12px" preserveAspectRatio="xMinYMin meet" x="416.5" y="-254.7"/>
<text text-anchor="start" x="431.5" y="-244.8" font-family="Helvetica,sans-Serif" font-size="11.00" fill="#000000">review_id</text>
<polygon fill="none" stroke="#000000" points="411.5,-218.7 411.5,-237.7 564.5,-237.7 564.5,-218.7 411.5,-218.7"/>
<text text-anchor="start" x="414.5" y="-224.8" font-family="Helvetica,sans-Serif" font-size="11.00" fill="#000000">...</text>
<polygon fill="#ffffff" stroke="transparent" points="411.5,-199.7 411.5,-218.7 468.5,-218.7 468.5,-199.7 411.5,-199.7"/>
<polygon fill="none" stroke="#000000" points="411.5,-199.7 411.5,-218.7 468.5,-218.7 468.5,-199.7 411.5,-199.7"/>
<text text-anchor="start" x="414.5" y="-205.8" font-family="Helvetica,sans-Serif" font-size="11.00" fill="#000000">&lt; 3</text>
<polygon fill="#ffffff" stroke="transparent" points="468.5,-199.7 468.5,-218.7 524.5,-218.7 524.5,-199.7 468.5,-199.7"/>
<polygon fill="none" stroke="#000000" points="468.5,-199.7 468.5,-218.7 524.5,-218.7 524.5,-199.7 468.5,-199.7"/>
<text text-anchor="start" x="489.1105" y="-205.8" font-family="Helvetica,sans-Serif" font-size="11.00" fill="#000000">0 rows</text>
<polygon fill="#ffffff" stroke="transparent" points="524.5,-199.7 524.5,-218.7 564.5,-218.7 564.5,-199.7 524.5,-199.7"/>
<polygon fill="none" stroke="#000000" points="524.5,-199.7 524.5,-218.7 564.5,-218.7 564.5,-199.7 524.5,-199.7"/>
<text text-anchor="start" x="545.9053" y="-205.8" font-family="Helvetica,sans-Serif" font-size="11.00" fill="#000000">1 &gt;</text>
</a>
</g>
</g>
<!-- review -->
<g id="node2" class="node">
<title>review</title>
<g id="a_node2"><a xlink:href="../../tables/review.html" xlink:title="review" target="_top">
<polygon fill="#ffffff" stroke="transparent" points="166,-106.7 166,-284.7 362,-284.7 362,-106.7 166,-106.7"/>
<polygon fill="#f5f5f5" stroke="transparent" points="168,-259.7 168,-282.7 360,-282.7 360,-259.7 168,-259.7"/>
<polygon fill="none" stroke="#000000" points="168,-259.7 168,-282.7 360,-282.7 360,-259.7 168,-259.7"/>
<text text-anchor="start" x="173" y="-268.3" font-family="Helvetica,sans-Serif" font-weight="bold" font-size="11.00" fill="#000000">review</text>
<text text-anchor="start" x="325.0437" y="-267.8" font-family="Helvetica,sans-Serif" font-size="11.00" fill="#000000">[table]</text>
<polygon fill="none" stroke="#000000" points="168,-237.7 168,-259.7 277,-259.7 277,-237.7 168,-237.7"/>
<image xlink:href="../../images/primaryKeys.png" width="11px" height="12px" preserveAspectRatio="xMinYMin meet" x="173" y="-254.7"/>
<text text-anchor="start" x="188" y="-244.8" font-family="Helvetica,sans-Serif" font-size="11.00" fill="#000000">review_id</text>
<polygon fill="none" stroke="#000000" points="277,-237.7 277,-259.7 360,-259.7 360,-237.7 277,-237.7"/>
<text text-anchor="start" x="279.6783" y="-245.4" font-family="Helvetica,sans-Serif" font-size="11.00" fill="#000000">int unsigned[10]</text>
<polygon fill="none" stroke="#000000" points="168,-215.7 168,-237.7 277,-237.7 277,-215.7 168,-215.7"/>
<text text-anchor="start" x="188" y="-222.8" font-family="Helvetica,sans-Serif" font-size="11.00" fill="#000000">rating</text>
<polygon fill="none" stroke="#000000" points="277,-215.7 277,-237.7 360,-237.7 360,-215.7 277,-215.7"/>
<text text-anchor="start" x="279.6783" y="-223.4" font-family="Helvetica,sans-Serif" font-size="11.00" fill="#000000">int unsigned[10]</text>
<polygon fill="none" stroke="#000000" points="168,-193.7 168,-215.7 277,-215.7 277,-193.7 168,-193.7"/>
<text text-anchor="start" x="188" y="-200.8" font-family="Helvetica,sans-Serif" font-size="11.00" fill="#000000">created_date</text>
<polygon fill="none" stroke="#000000" points="277,-193.7 277,-215.7 360,-215.7 360,-193.7 277,-193.7"/>
<text text-anchor="start" x="280" y="-201.4" font-family="Helvetica,sans-Serif" font-size="11.00" fill="#000000">datetime[19]</text>
<polygon fill="none" stroke="#000000" points="168,-171.7 168,-193.7 277,-193.7 277,-171.7 168,-171.7"/>
<text text-anchor="start" x="188" y="-178.8" font-family="Helvetica,sans-Serif" font-size="11.00" fill="#000000">text</text>
<polygon fill="none" stroke="#000000" points="277,-171.7 277,-193.7 360,-193.7 360,-171.7 277,-171.7"/>
<text text-anchor="start" x="280" y="-179.4" font-family="Helvetica,sans-Serif" font-size="11.00" fill="#000000">varchar[2000]</text>
<polygon fill="#ffffff" stroke="transparent" points="168,-149.7 168,-171.7 277,-171.7 277,-149.7 168,-149.7"/>
<polygon fill="none" stroke="#000000" points="168,-149.7 168,-171.7 277,-171.7 277,-149.7 168,-149.7"/>
<image xlink:href="../../images/foreignKeys.png" width="11px" height="12px" preserveAspectRatio="xMinYMin meet" x="173" y="-166.7"/>
<text text-anchor="start" x="188" y="-156.8" font-family="Helvetica,sans-Serif" font-size="11.00" fill="#000000">client_id</text>
<polygon fill="none" stroke="#000000" points="277,-149.7 277,-171.7 360,-171.7 360,-149.7 277,-149.7"/>
<text text-anchor="start" x="279.6783" y="-157.4" font-family="Helvetica,sans-Serif" font-size="11.00" fill="#000000">int unsigned[10]</text>
<polygon fill="#ffffff" stroke="transparent" points="168,-127.7 168,-149.7 277,-149.7 277,-127.7 168,-127.7"/>
<polygon fill="none" stroke="#000000" points="168,-127.7 168,-149.7 277,-149.7 277,-127.7 168,-127.7"/>
<image xlink:href="../../images/foreignKeys.png" width="11px" height="12px" preserveAspectRatio="xMinYMin meet" x="173" y="-144.7"/>
<text text-anchor="start" x="188" y="-134.8" font-family="Helvetica,sans-Serif" font-size="11.00" fill="#000000">product_id</text>
<polygon fill="none" stroke="#000000" points="277,-127.7 277,-149.7 360,-149.7 360,-127.7 277,-127.7"/>
<text text-anchor="start" x="279.6783" y="-135.4" font-family="Helvetica,sans-Serif" font-size="11.00" fill="#000000">int unsigned[10]</text>
<polygon fill="#ffffff" stroke="transparent" points="168,-108.7 168,-127.7 214,-127.7 214,-108.7 168,-108.7"/>
<polygon fill="none" stroke="#000000" points="168,-108.7 168,-127.7 214,-127.7 214,-108.7 168,-108.7"/>
<text text-anchor="start" x="171" y="-114.8" font-family="Helvetica,sans-Serif" font-size="11.00" fill="#000000">&lt; 2</text>
<polygon fill="#ffffff" stroke="transparent" points="214,-108.7 214,-127.7 277,-127.7 277,-108.7 214,-108.7"/>
<polygon fill="none" stroke="#000000" points="214,-108.7 214,-127.7 277,-127.7 277,-108.7 214,-108.7"/>
<text text-anchor="start" x="241.6105" y="-114.8" font-family="Helvetica,sans-Serif" font-size="11.00" fill="#000000">0 rows</text>
<polygon fill="#ffffff" stroke="transparent" points="277,-108.7 277,-127.7 360,-127.7 360,-108.7 277,-108.7"/>
<polygon fill="none" stroke="#000000" points="277,-108.7 277,-127.7 360,-127.7 360,-108.7 277,-108.7"/>
<text text-anchor="start" x="341.4053" y="-114.8" font-family="Helvetica,sans-Serif" font-size="11.00" fill="#000000">1 &gt;</text>
<polygon fill="none" stroke="#000000" stroke-width="2" points="167,-107.7 167,-283.7 361,-283.7 361,-107.7 167,-107.7"/>
</a>
</g>
</g>
<!-- comment&#45;&gt;review -->
<g id="edge1" class="edge">
<title>comment:w&#45;&gt;review:e</title>
<path fill="none" stroke="#000000" d="M397.0156,-248.7C384.6771,-248.7 377.1667,-248.7 360,-248.7"/>
<polygon fill="#000000" stroke="#000000" points="403.5,-248.7001 411.5,-252.3 407.5,-248.7 411.5,-248.7 411.5,-248.7 411.5,-248.7 407.5,-248.7 411.5,-245.1 403.5,-248.7001 403.5,-248.7001"/>
<ellipse fill="none" stroke="#000000" cx="400.3" cy="-248.7001" rx="3.2" ry="3.2"/>
</g>
<!-- client -->
<g id="node3" class="node">
<title>client</title>
<g id="a_node3"><a xlink:href="../../tables/client.html" xlink:title="client" target="_top">
<polygon fill="#ffffff" stroke="transparent" points="18.5,-142.2 18.5,-247.2 106.5,-247.2 106.5,-142.2 18.5,-142.2"/>
<polygon fill="#f5f5f5" stroke="transparent" points="18.5,-223.7 18.5,-246.7 106.5,-246.7 106.5,-223.7 18.5,-223.7"/>
<polygon fill="none" stroke="#000000" points="18.5,-223.7 18.5,-246.7 106.5,-246.7 106.5,-223.7 18.5,-223.7"/>
<text text-anchor="start" x="23.5" y="-232.3" font-family="Helvetica,sans-Serif" font-weight="bold" font-size="11.00" fill="#000000">client</text>
<text text-anchor="start" x="71.5437" y="-231.8" font-family="Helvetica,sans-Serif" font-size="11.00" fill="#000000">[table]</text>
<polygon fill="none" stroke="#000000" points="18.5,-201.7 18.5,-223.7 106.5,-223.7 106.5,-201.7 18.5,-201.7"/>
<image xlink:href="../../images/primaryKeys.png" width="11px" height="12px" preserveAspectRatio="xMinYMin meet" x="23.5" y="-218.7"/>
<text text-anchor="start" x="38.5" y="-208.8" font-family="Helvetica,sans-Serif" font-size="11.00" fill="#000000">user_id</text>
<polygon fill="#ffffff" stroke="transparent" points="18.5,-179.7 18.5,-201.7 106.5,-201.7 106.5,-179.7 18.5,-179.7"/>
<polygon fill="none" stroke="#000000" points="18.5,-179.7 18.5,-201.7 106.5,-201.7 106.5,-179.7 18.5,-179.7"/>
<image xlink:href="../../images/foreignKeys.png" width="11px" height="12px" preserveAspectRatio="xMinYMin meet" x="23.5" y="-196.7"/>
<text text-anchor="start" x="38.5" y="-186.8" font-family="Helvetica,sans-Serif" font-size="11.00" fill="#000000">district_id</text>
<polygon fill="none" stroke="#000000" points="18.5,-160.7 18.5,-179.7 106.5,-179.7 106.5,-160.7 18.5,-160.7"/>
<text text-anchor="start" x="21.5" y="-166.8" font-family="Helvetica,sans-Serif" font-size="11.00" fill="#000000">...</text>
<polygon fill="#ffffff" stroke="transparent" points="18.5,-141.7 18.5,-160.7 43.5,-160.7 43.5,-141.7 18.5,-141.7"/>
<polygon fill="none" stroke="#000000" points="18.5,-141.7 18.5,-160.7 43.5,-160.7 43.5,-141.7 18.5,-141.7"/>
<text text-anchor="start" x="21.5" y="-147.8" font-family="Helvetica,sans-Serif" font-size="11.00" fill="#000000">&lt; 2</text>
<polygon fill="#ffffff" stroke="transparent" points="43.5,-141.7 43.5,-160.7 83.5,-160.7 83.5,-141.7 43.5,-141.7"/>
<polygon fill="none" stroke="#000000" points="43.5,-141.7 43.5,-160.7 83.5,-160.7 83.5,-141.7 43.5,-141.7"/>
<text text-anchor="start" x="48.1105" y="-147.8" font-family="Helvetica,sans-Serif" font-size="11.00" fill="#000000">0 rows</text>
<polygon fill="#ffffff" stroke="transparent" points="83.5,-141.7 83.5,-160.7 106.5,-160.7 106.5,-141.7 83.5,-141.7"/>
<polygon fill="none" stroke="#000000" points="83.5,-141.7 83.5,-160.7 106.5,-160.7 106.5,-141.7 83.5,-141.7"/>
<text text-anchor="start" x="87.9053" y="-147.8" font-family="Helvetica,sans-Serif" font-size="11.00" fill="#000000">2 &gt;</text>
</a>
</g>
</g>
<!-- review&#45;&gt;client -->
<g id="edge2" class="edge">
<title>review:w&#45;&gt;client:e</title>
<path fill="none" stroke="#000000" d="M153.9557,-164.2742C134.2603,-176.0224 136.5617,-212.7 106.5,-212.7"/>
<polygon fill="#000000" stroke="#000000" points="160.2471,-162.6731 168.8879,-164.1888 164.1236,-161.6865 168,-160.7 168,-160.7 168,-160.7 164.1236,-161.6865 167.1121,-157.2112 160.2471,-162.6731 160.2471,-162.6731"/>
<ellipse fill="none" stroke="#000000" cx="157.146" cy="-163.4623" rx="3.2" ry="3.2"/>
</g>
<!-- product -->
<g id="node4" class="node">
<title>product</title>
<g id="a_node4"><a xlink:href="../../tables/product.html" xlink:title="product" target="_top">
<polygon fill="#ffffff" stroke="transparent" points="8,-38.2 8,-121.2 117,-121.2 117,-38.2 8,-38.2"/>
<polygon fill="#f5f5f5" stroke="transparent" points="8.5,-97.7 8.5,-120.7 117.5,-120.7 117.5,-97.7 8.5,-97.7"/>
<polygon fill="none" stroke="#000000" points="8.5,-97.7 8.5,-120.7 117.5,-120.7 117.5,-97.7 8.5,-97.7"/>
<text text-anchor="start" x="13.5" y="-106.3" font-family="Helvetica,sans-Serif" font-weight="bold" font-size="11.00" fill="#000000">product</text>
<text text-anchor="start" x="82.5437" y="-105.8" font-family="Helvetica,sans-Serif" font-size="11.00" fill="#000000">[table]</text>
<polygon fill="none" stroke="#000000" points="8.5,-75.7 8.5,-97.7 117.5,-97.7 117.5,-75.7 8.5,-75.7"/>
<image xlink:href="../../images/primaryKeys.png" width="11px" height="12px" preserveAspectRatio="xMinYMin meet" x="13.5" y="-92.7"/>
<text text-anchor="start" x="28.5" y="-82.8" font-family="Helvetica,sans-Serif" font-size="11.00" fill="#000000">product_id</text>
<polygon fill="none" stroke="#000000" points="8.5,-56.7 8.5,-75.7 117.5,-75.7 117.5,-56.7 8.5,-56.7"/>
<text text-anchor="start" x="11.5" y="-62.8" font-family="Helvetica,sans-Serif" font-size="11.00" fill="#000000">...</text>
<polygon fill="#ffffff" stroke="transparent" points="8.5,-37.7 8.5,-56.7 39.5,-56.7 39.5,-37.7 8.5,-37.7"/>
<polygon fill="none" stroke="#000000" points="8.5,-37.7 8.5,-56.7 39.5,-56.7 39.5,-37.7 8.5,-37.7"/>
<text text-anchor="start" x="11.5" y="-43.8" font-family="Helvetica,sans-Serif" font-size="11.00" fill="#000000"> &#160;</text>
<polygon fill="#ffffff" stroke="transparent" points="39.5,-37.7 39.5,-56.7 86.5,-56.7 86.5,-37.7 39.5,-37.7"/>
<polygon fill="none" stroke="#000000" points="39.5,-37.7 39.5,-56.7 86.5,-56.7 86.5,-37.7 39.5,-37.7"/>
<text text-anchor="start" x="51.1105" y="-43.8" font-family="Helvetica,sans-Serif" font-size="11.00" fill="#000000">0 rows</text>
<polygon fill="#ffffff" stroke="transparent" points="86.5,-37.7 86.5,-56.7 117.5,-56.7 117.5,-37.7 86.5,-37.7"/>
<polygon fill="none" stroke="#000000" points="86.5,-37.7 86.5,-56.7 117.5,-56.7 117.5,-37.7 86.5,-37.7"/>
<text text-anchor="start" x="98.9053" y="-43.8" font-family="Helvetica,sans-Serif" font-size="11.00" fill="#000000">3 &gt;</text>
</a>
</g>
</g>
<!-- review&#45;&gt;product -->
<g id="edge3" class="edge">
<title>review:w&#45;&gt;product:e</title>
<path fill="none" stroke="#000000" d="M154.1372,-133.9012C139.3861,-121.0281 143.6756,-86.7 117.5,-86.7"/>
<polygon fill="#000000" stroke="#000000" points="160.4401,-136.083 166.8223,-142.1019 164.2201,-137.3915 168,-138.7 168,-138.7 168,-138.7 164.2201,-137.3915 169.1777,-135.2981 160.4401,-136.083 160.4401,-136.083"/>
<ellipse fill="none" stroke="#000000" cx="157.4162" cy="-135.0362" rx="3.2" ry="3.2"/>
</g>
</g>
</svg>
