<?xml version="1.0" encoding="UTF-8" standalone="no"?>
<!DOCTYPE svg PUBLIC "-//W3C//DTD SVG 1.1//EN"
 "http://www.w3.org/Graphics/SVG/1.1/DTD/svg11.dtd">
<!-- Generated by graphviz version 2.40.1 (20161225.0304)
 -->
<!-- Title: twoDegreesRelationshipsDiagram Pages: 1 -->
<svg width="716pt" height="510pt"
 viewBox="0.00 0.00 716.00 509.69" xmlns="http://www.w3.org/2000/svg" xmlns:xlink="http://www.w3.org/1999/xlink">
<g id="graph0" class="graph" transform="scale(1 1) rotate(0) translate(4 505.691)">
<title>twoDegreesRelationshipsDiagram</title>
<polygon fill="#ffffff" stroke="transparent" points="-4,4 -4,-505.691 712,-505.691 712,4 -4,4"/>
<text text-anchor="middle" x="72.4936" y="-7.3" font-family="Helvetica,sans-Serif" font-size="11.00" fill="#000000">Generated by SchemaSpy</text>
<!-- client -->
<g id="node1" class="node">
<title>client</title>
<g id="a_node1"><a xlink:href="../../tables/client.html" xlink:title="client" target="_top">
<polygon fill="#ffffff" stroke="transparent" points="154.5,-219.691 154.5,-324.691 242.5,-324.691 242.5,-219.691 154.5,-219.691"/>
<polygon fill="#f5f5f5" stroke="transparent" points="154.5,-301.191 154.5,-324.191 242.5,-324.191 242.5,-301.191 154.5,-301.191"/>
<polygon fill="none" stroke="#000000" points="154.5,-301.191 154.5,-324.191 242.5,-324.191 242.5,-301.191 154.5,-301.191"/>
<text text-anchor="start" x="159.5" y="-309.791" font-family="Helvetica,sans-Serif" font-weight="bold" font-size="11.00" fill="#000000">client</text>
<text text-anchor="start" x="207.5437" y="-309.291" font-family="Helvetica,sans-Serif" font-size="11.00" fill="#000000">[table]</text>
<polygon fill="none" stroke="#000000" points="154.5,-279.191 154.5,-301.191 242.5,-301.191 242.5,-279.191 154.5,-279.191"/>
<image xlink:href="../../images/primaryKeys.png" width="11px" height="12px" preserveAspectRatio="xMinYMin meet" x="159.5" y="-296.191"/>
<text text-anchor="start" x="174.5" y="-286.291" font-family="Helvetica,sans-Serif" font-size="11.00" fill="#000000">user_id</text>
<polygon fill="#ffffff" stroke="transparent" points="154.5,-257.191 154.5,-279.191 242.5,-279.191 242.5,-257.191 154.5,-257.191"/>
<polygon fill="none" stroke="#000000" points="154.5,-257.191 154.5,-279.191 242.5,-279.191 242.5,-257.191 154.5,-257.191"/>
<image xlink:href="../../images/foreignKeys.png" width="11px" height="12px" preserveAspectRatio="xMinYMin meet" x="159.5" y="-274.191"/>
<text text-anchor="start" x="174.5" y="-264.291" font-family="Helvetica,sans-Serif" font-size="11.00" fill="#000000">district_id</text>
<polygon fill="none" stroke="#000000" points="154.5,-238.191 154.5,-257.191 242.5,-257.191 242.5,-238.191 154.5,-238.191"/>
<text text-anchor="start" x="157.5" y="-244.291" font-family="Helvetica,sans-Serif" font-size="11.00" fill="#000000">...</text>
<polygon fill="#ffffff" stroke="transparent" points="154.5,-219.191 154.5,-238.191 179.5,-238.191 179.5,-219.191 154.5,-219.191"/>
<polygon fill="none" stroke="#000000" points="154.5,-219.191 154.5,-238.191 179.5,-238.191 179.5,-219.191 154.5,-219.191"/>
<text text-anchor="start" x="157.5" y="-225.291" font-family="Helvetica,sans-Serif" font-size="11.00" fill="#000000">&lt; 2</text>
<polygon fill="#ffffff" stroke="transparent" points="179.5,-219.191 179.5,-238.191 219.5,-238.191 219.5,-219.191 179.5,-219.191"/>
<polygon fill="none" stroke="#000000" points="179.5,-219.191 179.5,-238.191 219.5,-238.191 219.5,-219.191 179.5,-219.191"/>
<text text-anchor="start" x="184.1105" y="-225.291" font-family="Helvetica,sans-Serif" font-size="11.00" fill="#000000">0 rows</text>
<polygon fill="#ffffff" stroke="transparent" points="219.5,-219.191 219.5,-238.191 242.5,-238.191 242.5,-219.191 219.5,-219.191"/>
<polygon fill="none" stroke="#000000" points="219.5,-219.191 219.5,-238.191 242.5,-238.191 242.5,-219.191 219.5,-219.191"/>
<text text-anchor="start" x="223.9053" y="-225.291" font-family="Helvetica,sans-Serif" font-size="11.00" fill="#000000">2 &gt;</text>
</a>
</g>
</g>
<!-- district -->
<g id="node2" class="node">
<title>district</title>
<g id="a_node2"><a xlink:href="../../tables/district.html" xlink:title="district" target="_top">
<polygon fill="#ffffff" stroke="transparent" points="8,-240.691 8,-301.691 95,-301.691 95,-240.691 8,-240.691"/>
<polygon fill="#f5f5f5" stroke="transparent" points="8.5,-278.191 8.5,-301.191 95.5,-301.191 95.5,-278.191 8.5,-278.191"/>
<polygon fill="none" stroke="#000000" points="8.5,-278.191 8.5,-301.191 95.5,-301.191 95.5,-278.191 8.5,-278.191"/>
<text text-anchor="start" x="13.5" y="-286.791" font-family="Helvetica,sans-Serif" font-weight="bold" font-size="11.00" fill="#000000">district</text>
<text text-anchor="start" x="61.0219" y="-286.291" font-family="Helvetica,sans-Serif" font-size="11.00" fill="#000000">[table]</text>
<polygon fill="none" stroke="#000000" points="8.5,-259.191 8.5,-278.191 95.5,-278.191 95.5,-259.191 8.5,-259.191"/>
<text text-anchor="start" x="11.5" y="-265.291" font-family="Helvetica,sans-Serif" font-size="11.00" fill="#000000">...</text>
<polygon fill="#ffffff" stroke="transparent" points="8.5,-240.191 8.5,-259.191 28.5,-259.191 28.5,-240.191 8.5,-240.191"/>
<polygon fill="none" stroke="#000000" points="8.5,-240.191 8.5,-259.191 28.5,-259.191 28.5,-240.191 8.5,-240.191"/>
<text text-anchor="start" x="11.5" y="-246.291" font-family="Helvetica,sans-Serif" font-size="11.00" fill="#000000"> &#160;</text>
<polygon fill="#ffffff" stroke="transparent" points="28.5,-240.191 28.5,-259.191 70.5,-259.191 70.5,-240.191 28.5,-240.191"/>
<polygon fill="none" stroke="#000000" points="28.5,-240.191 28.5,-259.191 70.5,-259.191 70.5,-240.191 28.5,-240.191"/>
<text text-anchor="start" x="35.1105" y="-246.291" font-family="Helvetica,sans-Serif" font-size="11.00" fill="#000000">0 rows</text>
<polygon fill="#ffffff" stroke="transparent" points="70.5,-240.191 70.5,-259.191 95.5,-259.191 95.5,-240.191 70.5,-240.191"/>
<polygon fill="none" stroke="#000000" points="70.5,-240.191 70.5,-259.191 95.5,-259.191 95.5,-240.191 70.5,-240.191"/>
<text text-anchor="start" x="76.9053" y="-246.291" font-family="Helvetica,sans-Serif" font-size="11.00" fill="#000000">2 &gt;</text>
</a>
</g>
</g>
<!-- client&#45;&gt;district -->
<g id="edge1" class="edge">
<title>client:w&#45;&gt;district:e</title>
<path fill="none" stroke="#000000" d="M139.7032,-268.191C124.4686,-268.191 115.9861,-268.191 95.5,-268.191"/>
<polygon fill="#000000" stroke="#000000" points="146.5,-268.1911 154.5,-271.791 150.5,-268.1911 154.5,-268.191 154.5,-268.191 154.5,-268.191 150.5,-268.1911 154.5,-264.591 146.5,-268.1911 146.5,-268.1911"/>
<ellipse fill="none" stroke="#000000" cx="143.3" cy="-268.1911" rx="3.2" ry="3.2"/>
</g>
<!-- user -->
<g id="node3" class="node">
<title>user</title>
<g id="a_node3"><a xlink:href="../../tables/user.html" xlink:title="user" target="_top">
<polygon fill="#ffffff" stroke="transparent" points="16,-366.691 16,-427.691 87,-427.691 87,-366.691 16,-366.691"/>
<polygon fill="#f5f5f5" stroke="transparent" points="16.5,-404.191 16.5,-427.191 87.5,-427.191 87.5,-404.191 16.5,-404.191"/>
<polygon fill="none" stroke="#000000" points="16.5,-404.191 16.5,-427.191 87.5,-427.191 87.5,-404.191 16.5,-404.191"/>
<text text-anchor="start" x="21.5" y="-412.791" font-family="Helvetica,sans-Serif" font-weight="bold" font-size="11.00" fill="#000000">user</text>
<text text-anchor="start" x="52.5437" y="-412.291" font-family="Helvetica,sans-Serif" font-size="11.00" fill="#000000">[table]</text>
<polygon fill="none" stroke="#000000" points="16.5,-385.191 16.5,-404.191 87.5,-404.191 87.5,-385.191 16.5,-385.191"/>
<text text-anchor="start" x="19.5" y="-391.291" font-family="Helvetica,sans-Serif" font-size="11.00" fill="#000000">...</text>
<polygon fill="#ffffff" stroke="transparent" points="16.5,-366.191 16.5,-385.191 28.5,-385.191 28.5,-366.191 16.5,-366.191"/>
<polygon fill="none" stroke="#000000" points="16.5,-366.191 16.5,-385.191 28.5,-385.191 28.5,-366.191 16.5,-366.191"/>
<text text-anchor="start" x="19.4431" y="-372.291" font-family="Helvetica,sans-Serif" font-size="11.00" fill="#000000"> &#160;</text>
<polygon fill="#ffffff" stroke="transparent" points="28.5,-366.191 28.5,-385.191 66.5,-385.191 66.5,-366.191 28.5,-366.191"/>
<polygon fill="none" stroke="#000000" points="28.5,-366.191 28.5,-385.191 66.5,-385.191 66.5,-366.191 28.5,-366.191"/>
<text text-anchor="start" x="31.3053" y="-372.291" font-family="Helvetica,sans-Serif" font-size="11.00" fill="#000000">0 rows</text>
<polygon fill="#ffffff" stroke="transparent" points="66.5,-366.191 66.5,-385.191 87.5,-385.191 87.5,-366.191 66.5,-366.191"/>
<polygon fill="none" stroke="#000000" points="66.5,-366.191 66.5,-385.191 87.5,-385.191 87.5,-366.191 66.5,-366.191"/>
<text text-anchor="start" x="69.2027" y="-372.291" font-family="Helvetica,sans-Serif" font-size="11.00" fill="#000000">4 &gt;</text>
</a>
</g>
</g>
<!-- client&#45;&gt;user -->
<g id="edge2" class="edge">
<title>client:w&#45;&gt;user:e</title>
<path fill="none" stroke="#000000" d="M143.7961,-291.8246C105.3547,-305.0557 138.4029,-394.191 87.5,-394.191"/>
<polygon fill="#000000" stroke="#000000" points="153.1056,-286.3575 154.3127,-294.2659 152.731,-294.5073 151.524,-286.5989 153.1056,-286.3575"/>
<polyline fill="none" stroke="#000000" points="154.5,-290.191 150.5458,-290.7945 "/>
<ellipse fill="none" stroke="#000000" cx="147.3824" cy="-291.2773" rx="3.2" ry="3.2"/>
</g>
<!-- comment -->
<g id="node4" class="node">
<title>comment</title>
<g id="a_node4"><a xlink:href="../../tables/comment.html" xlink:title="comment" target="_top">
<polygon fill="#ffffff" stroke="transparent" points="547,-348.691 547,-497.691 700,-497.691 700,-348.691 547,-348.691"/>
<polygon fill="#f5f5f5" stroke="transparent" points="547.5,-474.191 547.5,-497.191 700.5,-497.191 700.5,-474.191 547.5,-474.191"/>
<polygon fill="none" stroke="#000000" points="547.5,-474.191 547.5,-497.191 700.5,-497.191 700.5,-474.191 547.5,-474.191"/>
<text text-anchor="start" x="552.5" y="-482.791" font-family="Helvetica,sans-Serif" font-weight="bold" font-size="11.00" fill="#000000">comment</text>
<text text-anchor="start" x="665.5437" y="-482.291" font-family="Helvetica,sans-Serif" font-size="11.00" fill="#000000">[table]</text>
<polygon fill="none" stroke="#000000" points="547.5,-452.191 547.5,-474.191 700.5,-474.191 700.5,-452.191 547.5,-452.191"/>
<image xlink:href="../../images/primaryKeys.png" width="11px" height="12px" preserveAspectRatio="xMinYMin meet" x="552.5" y="-469.191"/>
<text text-anchor="start" x="567.5" y="-459.291" font-family="Helvetica,sans-Serif" font-size="11.00" fill="#000000">comment_id</text>
<polygon fill="#ffffff" stroke="transparent" points="547.5,-430.191 547.5,-452.191 700.5,-452.191 700.5,-430.191 547.5,-430.191"/>
<polygon fill="none" stroke="#000000" points="547.5,-430.191 547.5,-452.191 700.5,-452.191 700.5,-430.191 547.5,-430.191"/>
<image xlink:href="../../images/foreignKeys.png" width="11px" height="12px" preserveAspectRatio="xMinYMin meet" x="552.5" y="-447.191"/>
<text text-anchor="start" x="567.5" y="-437.291" font-family="Helvetica,sans-Serif" font-size="11.00" fill="#000000">parent_comment_id</text>
<polygon fill="#ffffff" stroke="transparent" points="547.5,-408.191 547.5,-430.191 700.5,-430.191 700.5,-408.191 547.5,-408.191"/>
<polygon fill="none" stroke="#000000" points="547.5,-408.191 547.5,-430.191 700.5,-430.191 700.5,-408.191 547.5,-408.191"/>
<image xlink:href="../../images/foreignKeys.png" width="11px" height="12px" preserveAspectRatio="xMinYMin meet" x="552.5" y="-425.191"/>
<text text-anchor="start" x="567.5" y="-415.291" font-family="Helvetica,sans-Serif" font-size="11.00" fill="#000000">user_id</text>
<polygon fill="#ffffff" stroke="transparent" points="547.5,-386.191 547.5,-408.191 700.5,-408.191 700.5,-386.191 547.5,-386.191"/>
<polygon fill="none" stroke="#000000" points="547.5,-386.191 547.5,-408.191 700.5,-408.191 700.5,-386.191 547.5,-386.191"/>
<image xlink:href="../../images/foreignKeys.png" width="11px" height="12px" preserveAspectRatio="xMinYMin meet" x="552.5" y="-403.191"/>
<text text-anchor="start" x="567.5" y="-393.291" font-family="Helvetica,sans-Serif" font-size="11.00" fill="#000000">review_id</text>
<polygon fill="none" stroke="#000000" points="547.5,-367.191 547.5,-386.191 700.5,-386.191 700.5,-367.191 547.5,-367.191"/>
<text text-anchor="start" x="550.5" y="-373.291" font-family="Helvetica,sans-Serif" font-size="11.00" fill="#000000">...</text>
<polygon fill="#ffffff" stroke="transparent" points="547.5,-348.191 547.5,-367.191 604.5,-367.191 604.5,-348.191 547.5,-348.191"/>
<polygon fill="none" stroke="#000000" points="547.5,-348.191 547.5,-367.191 604.5,-367.191 604.5,-348.191 547.5,-348.191"/>
<text text-anchor="start" x="550.5" y="-354.291" font-family="Helvetica,sans-Serif" font-size="11.00" fill="#000000">&lt; 3</text>
<polygon fill="#ffffff" stroke="transparent" points="604.5,-348.191 604.5,-367.191 660.5,-367.191 660.5,-348.191 604.5,-348.191"/>
<polygon fill="none" stroke="#000000" points="604.5,-348.191 604.5,-367.191 660.5,-367.191 660.5,-348.191 604.5,-348.191"/>
<text text-anchor="start" x="625.1105" y="-354.291" font-family="Helvetica,sans-Serif" font-size="11.00" fill="#000000">0 rows</text>
<polygon fill="#ffffff" stroke="transparent" points="660.5,-348.191 660.5,-367.191 700.5,-367.191 700.5,-348.191 660.5,-348.191"/>
<polygon fill="none" stroke="#000000" points="660.5,-348.191 660.5,-367.191 700.5,-367.191 700.5,-348.191 660.5,-348.191"/>
<text text-anchor="start" x="681.9053" y="-354.291" font-family="Helvetica,sans-Serif" font-size="11.00" fill="#000000">1 &gt;</text>
</a>
</g>
</g>
<!-- comment&#45;&gt;user -->
<g id="edge4" class="edge">
<title>comment:w&#45;&gt;user:e</title>
<path fill="none" stroke="#000000" d="M533.0696,-420.3638C524.6563,-421.8371 518.6342,-424.2824 506,-425.191 412.0205,-431.9496 387.9608,-432.2045 294,-425.191 201.4513,-418.283 180.3062,-394.191 87.5,-394.191"/>
<polygon fill="#000000" stroke="#000000" points="539.5263,-419.8391 547.7916,-422.7792 543.5131,-419.5151 547.5,-419.191 547.5,-419.191 547.5,-419.191 543.5131,-419.5151 547.2084,-415.6029 539.5263,-419.8391 539.5263,-419.8391"/>
<ellipse fill="none" stroke="#000000" cx="536.3368" cy="-420.0983" rx="3.2" ry="3.2"/>
</g>
<!-- review -->
<g id="node5" class="node">
<title>review</title>
<g id="a_node5"><a xlink:href="../../tables/review.html" xlink:title="review" target="_top">
<polygon fill="#ffffff" stroke="transparent" points="302,-236.191 302,-414.191 498,-414.191 498,-236.191 302,-236.191"/>
<polygon fill="#f5f5f5" stroke="transparent" points="304,-389.191 304,-412.191 496,-412.191 496,-389.191 304,-389.191"/>
<polygon fill="none" stroke="#000000" points="304,-389.191 304,-412.191 496,-412.191 496,-389.191 304,-389.191"/>
<text text-anchor="start" x="309" y="-397.791" font-family="Helvetica,sans-Serif" font-weight="bold" font-size="11.00" fill="#000000">review</text>
<text text-anchor="start" x="461.0437" y="-397.291" font-family="Helvetica,sans-Serif" font-size="11.00" fill="#000000">[table]</text>
<polygon fill="none" stroke="#000000" points="304,-367.191 304,-389.191 413,-389.191 413,-367.191 304,-367.191"/>
<image xlink:href="../../images/primaryKeys.png" width="11px" height="12px" preserveAspectRatio="xMinYMin meet" x="309" y="-384.191"/>
<text text-anchor="start" x="324" y="-374.291" font-family="Helvetica,sans-Serif" font-size="11.00" fill="#000000">review_id</text>
<polygon fill="none" stroke="#000000" points="413,-367.191 413,-389.191 496,-389.191 496,-367.191 413,-367.191"/>
<text text-anchor="start" x="415.6783" y="-374.891" font-family="Helvetica,sans-Serif" font-size="11.00" fill="#000000">int unsigned[10]</text>
<polygon fill="none" stroke="#000000" points="304,-345.191 304,-367.191 413,-367.191 413,-345.191 304,-345.191"/>
<text text-anchor="start" x="324" y="-352.291" font-family="Helvetica,sans-Serif" font-size="11.00" fill="#000000">rating</text>
<polygon fill="none" stroke="#000000" points="413,-345.191 413,-367.191 496,-367.191 496,-345.191 413,-345.191"/>
<text text-anchor="start" x="415.6783" y="-352.891" font-family="Helvetica,sans-Serif" font-size="11.00" fill="#000000">int unsigned[10]</text>
<polygon fill="none" stroke="#000000" points="304,-323.191 304,-345.191 413,-345.191 413,-323.191 304,-323.191"/>
<text text-anchor="start" x="324" y="-330.291" font-family="Helvetica,sans-Serif" font-size="11.00" fill="#000000">created_date</text>
<polygon fill="none" stroke="#000000" points="413,-323.191 413,-345.191 496,-345.191 496,-323.191 413,-323.191"/>
<text text-anchor="start" x="416" y="-330.891" font-family="Helvetica,sans-Serif" font-size="11.00" fill="#000000">datetime[19]</text>
<polygon fill="none" stroke="#000000" points="304,-301.191 304,-323.191 413,-323.191 413,-301.191 304,-301.191"/>
<text text-anchor="start" x="324" y="-308.291" font-family="Helvetica,sans-Serif" font-size="11.00" fill="#000000">text</text>
<polygon fill="none" stroke="#000000" points="413,-301.191 413,-323.191 496,-323.191 496,-301.191 413,-301.191"/>
<text text-anchor="start" x="416" y="-308.891" font-family="Helvetica,sans-Serif" font-size="11.00" fill="#000000">varchar[2000]</text>
<polygon fill="#ffffff" stroke="transparent" points="304,-279.191 304,-301.191 413,-301.191 413,-279.191 304,-279.191"/>
<polygon fill="none" stroke="#000000" points="304,-279.191 304,-301.191 413,-301.191 413,-279.191 304,-279.191"/>
<image xlink:href="../../images/foreignKeys.png" width="11px" height="12px" preserveAspectRatio="xMinYMin meet" x="309" y="-296.191"/>
<text text-anchor="start" x="324" y="-286.291" font-family="Helvetica,sans-Serif" font-size="11.00" fill="#000000">client_id</text>
<polygon fill="none" stroke="#000000" points="413,-279.191 413,-301.191 496,-301.191 496,-279.191 413,-279.191"/>
<text text-anchor="start" x="415.6783" y="-286.891" font-family="Helvetica,sans-Serif" font-size="11.00" fill="#000000">int unsigned[10]</text>
<polygon fill="#ffffff" stroke="transparent" points="304,-257.191 304,-279.191 413,-279.191 413,-257.191 304,-257.191"/>
<polygon fill="none" stroke="#000000" points="304,-257.191 304,-279.191 413,-279.191 413,-257.191 304,-257.191"/>
<image xlink:href="../../images/foreignKeys.png" width="11px" height="12px" preserveAspectRatio="xMinYMin meet" x="309" y="-274.191"/>
<text text-anchor="start" x="324" y="-264.291" font-family="Helvetica,sans-Serif" font-size="11.00" fill="#000000">product_id</text>
<polygon fill="none" stroke="#000000" points="413,-257.191 413,-279.191 496,-279.191 496,-257.191 413,-257.191"/>
<text text-anchor="start" x="415.6783" y="-264.891" font-family="Helvetica,sans-Serif" font-size="11.00" fill="#000000">int unsigned[10]</text>
<polygon fill="#ffffff" stroke="transparent" points="304,-238.191 304,-257.191 350,-257.191 350,-238.191 304,-238.191"/>
<polygon fill="none" stroke="#000000" points="304,-238.191 304,-257.191 350,-257.191 350,-238.191 304,-238.191"/>
<text text-anchor="start" x="307" y="-244.291" font-family="Helvetica,sans-Serif" font-size="11.00" fill="#000000">&lt; 2</text>
<polygon fill="#ffffff" stroke="transparent" points="350,-238.191 350,-257.191 413,-257.191 413,-238.191 350,-238.191"/>
<polygon fill="none" stroke="#000000" points="350,-238.191 350,-257.191 413,-257.191 413,-238.191 350,-238.191"/>
<text text-anchor="start" x="377.6105" y="-244.291" font-family="Helvetica,sans-Serif" font-size="11.00" fill="#000000">0 rows</text>
<polygon fill="#ffffff" stroke="transparent" points="413,-238.191 413,-257.191 496,-257.191 496,-238.191 413,-238.191"/>
<polygon fill="none" stroke="#000000" points="413,-238.191 413,-257.191 496,-257.191 496,-238.191 413,-238.191"/>
<text text-anchor="start" x="477.4053" y="-244.291" font-family="Helvetica,sans-Serif" font-size="11.00" fill="#000000">1 &gt;</text>
<polygon fill="none" stroke="#000000" stroke-width="2" points="303,-237.191 303,-413.191 497,-413.191 497,-237.191 303,-237.191"/>
</a>
</g>
</g>
<!-- comment&#45;&gt;review -->
<g id="edge3" class="edge">
<title>comment:w&#45;&gt;review:e</title>
<path fill="none" stroke="#000000" d="M532.9747,-394.3875C520.52,-389.1023 514.4883,-378.191 496,-378.191"/>
<polygon fill="#000000" stroke="#000000" points="539.645,-395.6749 546.8177,-400.7258 543.5725,-396.433 547.5,-397.191 547.5,-397.191 547.5,-397.191 543.5725,-396.433 548.1823,-393.6563 539.645,-395.6749 539.645,-395.6749"/>
<ellipse fill="none" stroke="#000000" cx="536.503" cy="-395.0684" rx="3.2" ry="3.2"/>
</g>
<!-- review&#45;&gt;client -->
<g id="edge8" class="edge">
<title>review:w&#45;&gt;client:e</title>
<path fill="none" stroke="#000000" d="M289.5376,-290.191C273.0448,-290.191 264.2813,-290.191 242.5,-290.191"/>
<polygon fill="#000000" stroke="#000000" points="296,-290.1911 304,-293.791 300,-290.1911 304,-290.191 304,-290.191 304,-290.191 300,-290.1911 304,-286.591 296,-290.1911 296,-290.1911"/>
<ellipse fill="none" stroke="#000000" cx="292.8" cy="-290.1911" rx="3.2" ry="3.2"/>
</g>
<!-- product -->
<g id="node8" class="node">
<title>product</title>
<g id="a_node8"><a xlink:href="../../tables/product.html" xlink:title="product" target="_top">
<polygon fill="#ffffff" stroke="transparent" points="144,-50.691 144,-133.691 253,-133.691 253,-50.691 144,-50.691"/>
<polygon fill="#f5f5f5" stroke="transparent" points="144.5,-110.191 144.5,-133.191 253.5,-133.191 253.5,-110.191 144.5,-110.191"/>
<polygon fill="none" stroke="#000000" points="144.5,-110.191 144.5,-133.191 253.5,-133.191 253.5,-110.191 144.5,-110.191"/>
<text text-anchor="start" x="149.5" y="-118.791" font-family="Helvetica,sans-Serif" font-weight="bold" font-size="11.00" fill="#000000">product</text>
<text text-anchor="start" x="218.5437" y="-118.291" font-family="Helvetica,sans-Serif" font-size="11.00" fill="#000000">[table]</text>
<polygon fill="none" stroke="#000000" points="144.5,-88.191 144.5,-110.191 253.5,-110.191 253.5,-88.191 144.5,-88.191"/>
<image xlink:href="../../images/primaryKeys.png" width="11px" height="12px" preserveAspectRatio="xMinYMin meet" x="149.5" y="-105.191"/>
<text text-anchor="start" x="164.5" y="-95.291" font-family="Helvetica,sans-Serif" font-size="11.00" fill="#000000">product_id</text>
<polygon fill="none" stroke="#000000" points="144.5,-69.191 144.5,-88.191 253.5,-88.191 253.5,-69.191 144.5,-69.191"/>
<text text-anchor="start" x="147.5" y="-75.291" font-family="Helvetica,sans-Serif" font-size="11.00" fill="#000000">...</text>
<polygon fill="#ffffff" stroke="transparent" points="144.5,-50.191 144.5,-69.191 175.5,-69.191 175.5,-50.191 144.5,-50.191"/>
<polygon fill="none" stroke="#000000" points="144.5,-50.191 144.5,-69.191 175.5,-69.191 175.5,-50.191 144.5,-50.191"/>
<text text-anchor="start" x="147.5" y="-56.291" font-family="Helvetica,sans-Serif" font-size="11.00" fill="#000000"> &#160;</text>
<polygon fill="#ffffff" stroke="transparent" points="175.5,-50.191 175.5,-69.191 222.5,-69.191 222.5,-50.191 175.5,-50.191"/>
<polygon fill="none" stroke="#000000" points="175.5,-50.191 175.5,-69.191 222.5,-69.191 222.5,-50.191 175.5,-50.191"/>
<text text-anchor="start" x="187.1105" y="-56.291" font-family="Helvetica,sans-Serif" font-size="11.00" fill="#000000">0 rows</text>
<polygon fill="#ffffff" stroke="transparent" points="222.5,-50.191 222.5,-69.191 253.5,-69.191 253.5,-50.191 222.5,-50.191"/>
<polygon fill="none" stroke="#000000" points="222.5,-50.191 222.5,-69.191 253.5,-69.191 253.5,-50.191 222.5,-50.191"/>
<text text-anchor="start" x="234.9053" y="-56.291" font-family="Helvetica,sans-Serif" font-size="11.00" fill="#000000">3 &gt;</text>
</a>
</g>
</g>
<!-- review&#45;&gt;product -->
<g id="edge9" class="edge">
<title>review:w&#45;&gt;product:e</title>
<path fill="none" stroke="#000000" d="M289.7586,-265.6709C240.0043,-244.6478 326.2277,-99.191 253.5,-99.191"/>
<polygon fill="#000000" stroke="#000000" points="296.1224,-266.797 303.3727,-271.736 300.0612,-267.494 304,-268.191 304,-268.191 304,-268.191 300.0612,-267.494 304.6273,-264.6461 296.1224,-266.797 296.1224,-266.797"/>
<ellipse fill="none" stroke="#000000" cx="292.9713" cy="-266.2393" rx="3.2" ry="3.2"/>
</g>
<!-- order -->
<g id="node6" class="node">
<title>order</title>
<g id="a_node6"><a xlink:href="../../tables/order.html" xlink:title="order" target="_top">
<polygon fill="#ffffff" stroke="transparent" points="360,-153.691 360,-214.691 440,-214.691 440,-153.691 360,-153.691"/>
<polygon fill="#f5f5f5" stroke="transparent" points="360,-191.191 360,-214.191 440,-214.191 440,-191.191 360,-191.191"/>
<polygon fill="none" stroke="#000000" points="360,-191.191 360,-214.191 440,-214.191 440,-191.191 360,-191.191"/>
<text text-anchor="start" x="365" y="-199.791" font-family="Helvetica,sans-Serif" font-weight="bold" font-size="11.00" fill="#000000">order</text>
<text text-anchor="start" x="405.0437" y="-199.291" font-family="Helvetica,sans-Serif" font-size="11.00" fill="#000000">[table]</text>
<polygon fill="none" stroke="#000000" points="360,-172.191 360,-191.191 440,-191.191 440,-172.191 360,-172.191"/>
<text text-anchor="start" x="363" y="-178.291" font-family="Helvetica,sans-Serif" font-size="11.00" fill="#000000">...</text>
<polygon fill="#ffffff" stroke="transparent" points="360,-153.191 360,-172.191 381,-172.191 381,-153.191 360,-153.191"/>
<polygon fill="none" stroke="#000000" points="360,-153.191 360,-172.191 381,-172.191 381,-153.191 360,-153.191"/>
<text text-anchor="start" x="362.7027" y="-159.291" font-family="Helvetica,sans-Serif" font-size="11.00" fill="#000000">&lt; 2</text>
<polygon fill="#ffffff" stroke="transparent" points="381,-153.191 381,-172.191 419,-172.191 419,-153.191 381,-153.191"/>
<polygon fill="none" stroke="#000000" points="381,-153.191 381,-172.191 419,-172.191 419,-153.191 381,-153.191"/>
<text text-anchor="start" x="383.8053" y="-159.291" font-family="Helvetica,sans-Serif" font-size="11.00" fill="#000000">0 rows</text>
<polygon fill="#ffffff" stroke="transparent" points="419,-153.191 419,-172.191 440,-172.191 440,-153.191 419,-153.191"/>
<polygon fill="none" stroke="#000000" points="419,-153.191 419,-172.191 440,-172.191 440,-153.191 419,-153.191"/>
<text text-anchor="start" x="421.7027" y="-159.291" font-family="Helvetica,sans-Serif" font-size="11.00" fill="#000000">1 &gt;</text>
</a>
</g>
</g>
<!-- order&#45;&gt;client -->
<g id="edge5" class="edge">
<title>order:w&#45;&gt;client:e</title>
<path fill="none" stroke="#000000" d="M345.4335,-182.6548C322.5875,-187.8028 316.0034,-205.8642 294,-226.191 267.182,-250.9656 279.0101,-290.191 242.5,-290.191"/>
<polygon fill="#000000" stroke="#000000" points="352.0401,-181.991 360.36,-184.773 356.02,-181.591 360,-181.191 360,-181.191 360,-181.191 356.02,-181.591 359.64,-177.6091 352.0401,-181.991 352.0401,-181.991"/>
<ellipse fill="none" stroke="#000000" cx="348.8561" cy="-182.311" rx="3.2" ry="3.2"/>
</g>
<!-- order_product -->
<g id="node7" class="node">
<title>order_product</title>
<g id="a_node7"><a xlink:href="../../tables/order_product.html" xlink:title="order_product" target="_top">
<polygon fill="#ffffff" stroke="transparent" points="556.5,-86.691 556.5,-147.691 690.5,-147.691 690.5,-86.691 556.5,-86.691"/>
<polygon fill="#f5f5f5" stroke="transparent" points="556.5,-124.191 556.5,-147.191 690.5,-147.191 690.5,-124.191 556.5,-124.191"/>
<polygon fill="none" stroke="#000000" points="556.5,-124.191 556.5,-147.191 690.5,-147.191 690.5,-124.191 556.5,-124.191"/>
<text text-anchor="start" x="561.5" y="-132.791" font-family="Helvetica,sans-Serif" font-weight="bold" font-size="11.00" fill="#000000">order_product</text>
<text text-anchor="start" x="656.0219" y="-132.291" font-family="Helvetica,sans-Serif" font-size="11.00" fill="#000000">[table]</text>
<polygon fill="none" stroke="#000000" points="556.5,-105.191 556.5,-124.191 690.5,-124.191 690.5,-105.191 556.5,-105.191"/>
<text text-anchor="start" x="559.5" y="-111.291" font-family="Helvetica,sans-Serif" font-size="11.00" fill="#000000">...</text>
<polygon fill="#ffffff" stroke="transparent" points="556.5,-86.191 556.5,-105.191 608.5,-105.191 608.5,-86.191 556.5,-86.191"/>
<polygon fill="none" stroke="#000000" points="556.5,-86.191 556.5,-105.191 608.5,-105.191 608.5,-86.191 556.5,-86.191"/>
<text text-anchor="start" x="559.5" y="-92.291" font-family="Helvetica,sans-Serif" font-size="11.00" fill="#000000">&lt; 2</text>
<polygon fill="#ffffff" stroke="transparent" points="608.5,-86.191 608.5,-105.191 662.5,-105.191 662.5,-86.191 608.5,-86.191"/>
<polygon fill="none" stroke="#000000" points="608.5,-86.191 608.5,-105.191 662.5,-105.191 662.5,-86.191 608.5,-86.191"/>
<text text-anchor="start" x="627.1105" y="-92.291" font-family="Helvetica,sans-Serif" font-size="11.00" fill="#000000">0 rows</text>
<polygon fill="#ffffff" stroke="transparent" points="662.5,-86.191 662.5,-105.191 690.5,-105.191 690.5,-86.191 662.5,-86.191"/>
<polygon fill="none" stroke="#000000" points="662.5,-86.191 662.5,-105.191 690.5,-105.191 690.5,-86.191 662.5,-86.191"/>
<text text-anchor="start" x="681.3862" y="-92.291" font-family="Helvetica,sans-Serif" font-size="11.00" fill="#000000"> &#160;</text>
</a>
</g>
</g>
<!-- order_product&#45;&gt;order -->
<g id="edge6" class="edge">
<title>order_product:w&#45;&gt;order:e</title>
<path fill="none" stroke="#000000" d="M543.7634,-121.3612C513.6881,-138.6454 440.7437,-181.191 440,-181.191"/>
<polygon fill="#000000" stroke="#000000" points="549.5288,-118.1156 558.266,-117.3281 553.0144,-116.1533 556.5,-114.191 556.5,-114.191 556.5,-114.191 553.0144,-116.1533 554.734,-111.054 549.5288,-118.1156 549.5288,-118.1156"/>
<ellipse fill="none" stroke="#000000" cx="546.7403" cy="-119.6854" rx="3.2" ry="3.2"/>
</g>
<!-- order_product&#45;&gt;product -->
<g id="edge7" class="edge">
<title>order_product:w&#45;&gt;product:e</title>
<path fill="none" stroke="#000000" d="M542.3204,-110.3979C526.9711,-100.0833 530.2996,-71.6017 506,-61.191 419.3917,-24.0853 381.6129,-26.5239 294,-61.191 271.0487,-70.2725 278.1827,-99.191 253.5,-99.191"/>
<polygon fill="#000000" stroke="#000000" points="548.7717,-112.1236 555.5697,-117.6687 552.6359,-113.1573 556.5,-114.191 556.5,-114.191 556.5,-114.191 552.6359,-113.1573 557.4303,-110.7133 548.7717,-112.1236 548.7717,-112.1236"/>
<ellipse fill="none" stroke="#000000" cx="545.6804" cy="-111.2967" rx="3.2" ry="3.2"/>
</g>
<!-- store_product -->
<g id="node9" class="node">
<title>store_product</title>
<g id="a_node9"><a xlink:href="../../tables/store_product.html" xlink:title="store_product" target="_top">
<polygon fill="#ffffff" stroke="transparent" points="334,-71.691 334,-132.691 466,-132.691 466,-71.691 334,-71.691"/>
<polygon fill="#f5f5f5" stroke="transparent" points="334,-109.191 334,-132.191 466,-132.191 466,-109.191 334,-109.191"/>
<polygon fill="none" stroke="#000000" points="334,-109.191 334,-132.191 466,-132.191 466,-109.191 334,-109.191"/>
<text text-anchor="start" x="339" y="-117.791" font-family="Helvetica,sans-Serif" font-weight="bold" font-size="11.00" fill="#000000">store_product</text>
<text text-anchor="start" x="431.5219" y="-117.291" font-family="Helvetica,sans-Serif" font-size="11.00" fill="#000000">[table]</text>
<polygon fill="none" stroke="#000000" points="334,-90.191 334,-109.191 466,-109.191 466,-90.191 334,-90.191"/>
<text text-anchor="start" x="337" y="-96.291" font-family="Helvetica,sans-Serif" font-size="11.00" fill="#000000">...</text>
<polygon fill="#ffffff" stroke="transparent" points="334,-71.191 334,-90.191 385,-90.191 385,-71.191 334,-71.191"/>
<polygon fill="none" stroke="#000000" points="334,-71.191 334,-90.191 385,-90.191 385,-71.191 334,-71.191"/>
<text text-anchor="start" x="337" y="-77.291" font-family="Helvetica,sans-Serif" font-size="11.00" fill="#000000">&lt; 2</text>
<polygon fill="#ffffff" stroke="transparent" points="385,-71.191 385,-90.191 438,-90.191 438,-71.191 385,-71.191"/>
<polygon fill="none" stroke="#000000" points="385,-71.191 385,-90.191 438,-90.191 438,-71.191 385,-71.191"/>
<text text-anchor="start" x="402.6105" y="-77.291" font-family="Helvetica,sans-Serif" font-size="11.00" fill="#000000">0 rows</text>
<polygon fill="#ffffff" stroke="transparent" points="438,-71.191 438,-90.191 466,-90.191 466,-71.191 438,-71.191"/>
<polygon fill="none" stroke="#000000" points="438,-71.191 438,-90.191 466,-90.191 466,-71.191 438,-71.191"/>
<text text-anchor="start" x="456.8862" y="-77.291" font-family="Helvetica,sans-Serif" font-size="11.00" fill="#000000"> &#160;</text>
</a>
</g>
</g>
<!-- store_product&#45;&gt;product -->
<g id="edge10" class="edge">
<title>store_product:w&#45;&gt;product:e</title>
<path fill="none" stroke="#000000" d="M319.327,-99.191C294.8742,-99.191 283.8273,-99.191 253.5,-99.191"/>
<polygon fill="#000000" stroke="#000000" points="326,-99.1911 334,-102.791 330,-99.1911 334,-99.191 334,-99.191 334,-99.191 330,-99.1911 334,-95.591 326,-99.1911 326,-99.1911"/>
<ellipse fill="none" stroke="#000000" cx="322.8" cy="-99.1911" rx="3.2" ry="3.2"/>
</g>
</g>
</svg>
