<?xml version="1.0" encoding="UTF-8" standalone="no"?>
<!DOCTYPE svg PUBLIC "-//W3C//DTD SVG 1.1//EN"
 "http://www.w3.org/Graphics/SVG/1.1/DTD/svg11.dtd">
<!-- Generated by graphviz version 2.40.1 (20161225.0304)
 -->
<!-- Title: oneDegreeRelationshipsDiagram Pages: 1 -->
<svg width="527pt" height="323pt"
 viewBox="0.00 0.00 527.00 322.70" xmlns="http://www.w3.org/2000/svg" xmlns:xlink="http://www.w3.org/1999/xlink">
<g id="graph0" class="graph" transform="scale(1 1) rotate(0) translate(4 318.7)">
<title>oneDegreeRelationshipsDiagram</title>
<polygon fill="#ffffff" stroke="transparent" points="-4,4 -4,-318.7 523,-318.7 523,4 -4,4"/>
<text text-anchor="middle" x="72.4936" y="-7.3" font-family="Helvetica,sans-Serif" font-size="11.00" fill="#000000">Generated by SchemaSpy</text>
<!-- order -->
<g id="node1" class="node">
<title>order</title>
<g id="a_node1"><a xlink:href="../../tables/order.html" xlink:title="order" target="_top">
<polygon fill="#ffffff" stroke="transparent" points="390.5,-183.7 390.5,-310.7 499.5,-310.7 499.5,-183.7 390.5,-183.7"/>
<polygon fill="#f5f5f5" stroke="transparent" points="391,-287.2 391,-310.2 500,-310.2 500,-287.2 391,-287.2"/>
<polygon fill="none" stroke="#000000" points="391,-287.2 391,-310.2 500,-310.2 500,-287.2 391,-287.2"/>
<text text-anchor="start" x="396" y="-295.8" font-family="Helvetica,sans-Serif" font-weight="bold" font-size="11.00" fill="#000000">order</text>
<text text-anchor="start" x="465.0437" y="-295.3" font-family="Helvetica,sans-Serif" font-size="11.00" fill="#000000">[table]</text>
<polygon fill="none" stroke="#000000" points="391,-265.2 391,-287.2 500,-287.2 500,-265.2 391,-265.2"/>
<image xlink:href="../../images/primaryKeys.png" width="11px" height="12px" preserveAspectRatio="xMinYMin meet" x="396" y="-282.2"/>
<text text-anchor="start" x="411" y="-272.3" font-family="Helvetica,sans-Serif" font-size="11.00" fill="#000000">order_id</text>
<polygon fill="#ffffff" stroke="transparent" points="391,-243.2 391,-265.2 500,-265.2 500,-243.2 391,-243.2"/>
<polygon fill="none" stroke="#000000" points="391,-243.2 391,-265.2 500,-265.2 500,-243.2 391,-243.2"/>
<image xlink:href="../../images/foreignKeys.png" width="11px" height="12px" preserveAspectRatio="xMinYMin meet" x="396" y="-260.2"/>
<text text-anchor="start" x="411" y="-250.3" font-family="Helvetica,sans-Serif" font-size="11.00" fill="#000000">client_id</text>
<polygon fill="#ffffff" stroke="transparent" points="391,-221.2 391,-243.2 500,-243.2 500,-221.2 391,-221.2"/>
<polygon fill="none" stroke="#000000" points="391,-221.2 391,-243.2 500,-243.2 500,-221.2 391,-221.2"/>
<image xlink:href="../../images/foreignKeys.png" width="11px" height="12px" preserveAspectRatio="xMinYMin meet" x="396" y="-238.2"/>
<text text-anchor="start" x="411" y="-228.3" font-family="Helvetica,sans-Serif" font-size="11.00" fill="#000000">store_id</text>
<polygon fill="none" stroke="#000000" points="391,-202.2 391,-221.2 500,-221.2 500,-202.2 391,-202.2"/>
<text text-anchor="start" x="394" y="-208.3" font-family="Helvetica,sans-Serif" font-size="11.00" fill="#000000">...</text>
<polygon fill="#ffffff" stroke="transparent" points="391,-183.2 391,-202.2 426,-202.2 426,-183.2 391,-183.2"/>
<polygon fill="none" stroke="#000000" points="391,-183.2 391,-202.2 426,-202.2 426,-183.2 391,-183.2"/>
<text text-anchor="start" x="394" y="-189.3" font-family="Helvetica,sans-Serif" font-size="11.00" fill="#000000">&lt; 2</text>
<polygon fill="#ffffff" stroke="transparent" points="426,-183.2 426,-202.2 471,-202.2 471,-183.2 426,-183.2"/>
<polygon fill="none" stroke="#000000" points="426,-183.2 426,-202.2 471,-202.2 471,-183.2 426,-183.2"/>
<text text-anchor="start" x="435.6105" y="-189.3" font-family="Helvetica,sans-Serif" font-size="11.00" fill="#000000">0 rows</text>
<polygon fill="#ffffff" stroke="transparent" points="471,-183.2 471,-202.2 500,-202.2 500,-183.2 471,-183.2"/>
<polygon fill="none" stroke="#000000" points="471,-183.2 471,-202.2 500,-202.2 500,-183.2 471,-183.2"/>
<text text-anchor="start" x="481.4053" y="-189.3" font-family="Helvetica,sans-Serif" font-size="11.00" fill="#000000">1 &gt;</text>
</a>
</g>
</g>
<!-- store -->
<g id="node2" class="node">
<title>store</title>
<g id="a_node2"><a xlink:href="../../tables/store.html" xlink:title="store" target="_top">
<polygon fill="#ffffff" stroke="transparent" points="145,-38.2 145,-216.2 330,-216.2 330,-38.2 145,-38.2"/>
<polygon fill="#f5f5f5" stroke="transparent" points="147.5,-191.2 147.5,-214.2 328.5,-214.2 328.5,-191.2 147.5,-191.2"/>
<polygon fill="none" stroke="#000000" points="147.5,-191.2 147.5,-214.2 328.5,-214.2 328.5,-191.2 147.5,-191.2"/>
<text text-anchor="start" x="152.5" y="-199.8" font-family="Helvetica,sans-Serif" font-weight="bold" font-size="11.00" fill="#000000">store</text>
<text text-anchor="start" x="293.5437" y="-199.3" font-family="Helvetica,sans-Serif" font-size="11.00" fill="#000000">[table]</text>
<polygon fill="none" stroke="#000000" points="147.5,-169.2 147.5,-191.2 240.5,-191.2 240.5,-169.2 147.5,-169.2"/>
<image xlink:href="../../images/primaryKeys.png" width="11px" height="12px" preserveAspectRatio="xMinYMin meet" x="152.5" y="-186.2"/>
<text text-anchor="start" x="167.5" y="-176.3" font-family="Helvetica,sans-Serif" font-size="11.00" fill="#000000">store_id</text>
<polygon fill="none" stroke="#000000" points="240.5,-169.2 240.5,-191.2 328.5,-191.2 328.5,-169.2 240.5,-169.2"/>
<text text-anchor="start" x="243.5" y="-176.9" font-family="Helvetica,sans-Serif" font-size="11.00" fill="#000000">int unsigned[10]</text>
<polygon fill="none" stroke="#000000" points="147.5,-147.2 147.5,-169.2 240.5,-169.2 240.5,-147.2 147.5,-147.2"/>
<text text-anchor="start" x="167.5" y="-154.3" font-family="Helvetica,sans-Serif" font-size="11.00" fill="#000000">phone_no</text>
<polygon fill="none" stroke="#000000" points="240.5,-147.2 240.5,-169.2 328.5,-169.2 328.5,-147.2 240.5,-147.2"/>
<text text-anchor="start" x="243.5" y="-154.9" font-family="Helvetica,sans-Serif" font-size="11.00" fill="#000000">varchar[255]</text>
<polygon fill="none" stroke="#000000" points="147.5,-125.2 147.5,-147.2 240.5,-147.2 240.5,-125.2 147.5,-125.2"/>
<text text-anchor="start" x="167.5" y="-132.3" font-family="Helvetica,sans-Serif" font-size="11.00" fill="#000000">street</text>
<polygon fill="none" stroke="#000000" points="240.5,-125.2 240.5,-147.2 328.5,-147.2 328.5,-125.2 240.5,-125.2"/>
<text text-anchor="start" x="243.5" y="-132.9" font-family="Helvetica,sans-Serif" font-size="11.00" fill="#000000">varchar[255]</text>
<polygon fill="#ffffff" stroke="transparent" points="147.5,-103.2 147.5,-125.2 240.5,-125.2 240.5,-103.2 147.5,-103.2"/>
<polygon fill="none" stroke="#000000" points="147.5,-103.2 147.5,-125.2 240.5,-125.2 240.5,-103.2 147.5,-103.2"/>
<text text-anchor="start" x="167.5" y="-110.3" font-family="Helvetica,sans-Serif" font-size="11.00" fill="#000000">coordinate</text>
<polygon fill="none" stroke="#000000" points="240.5,-103.2 240.5,-125.2 328.5,-125.2 328.5,-103.2 240.5,-103.2"/>
<text text-anchor="start" x="243.2357" y="-110.9" font-family="Helvetica,sans-Serif" font-size="11.00" fill="#000000">geometry[65535]</text>
<polygon fill="#ffffff" stroke="transparent" points="147.5,-81.2 147.5,-103.2 240.5,-103.2 240.5,-81.2 147.5,-81.2"/>
<polygon fill="none" stroke="#000000" points="147.5,-81.2 147.5,-103.2 240.5,-103.2 240.5,-81.2 147.5,-81.2"/>
<image xlink:href="../../images/foreignKeys.png" width="11px" height="12px" preserveAspectRatio="xMinYMin meet" x="152.5" y="-98.2"/>
<text text-anchor="start" x="167.5" y="-88.3" font-family="Helvetica,sans-Serif" font-size="11.00" fill="#000000">district_id</text>
<polygon fill="none" stroke="#000000" points="240.5,-81.2 240.5,-103.2 328.5,-103.2 328.5,-81.2 240.5,-81.2"/>
<text text-anchor="start" x="243.5" y="-88.9" font-family="Helvetica,sans-Serif" font-size="11.00" fill="#000000">int unsigned[10]</text>
<polygon fill="none" stroke="#000000" points="147.5,-59.2 147.5,-81.2 240.5,-81.2 240.5,-59.2 147.5,-59.2"/>
<text text-anchor="start" x="167.5" y="-66.3" font-family="Helvetica,sans-Serif" font-size="11.00" fill="#000000">city</text>
<polygon fill="none" stroke="#000000" points="240.5,-59.2 240.5,-81.2 328.5,-81.2 328.5,-59.2 240.5,-59.2"/>
<text text-anchor="start" x="243.5" y="-66.9" font-family="Helvetica,sans-Serif" font-size="11.00" fill="#000000">varchar[255]</text>
<polygon fill="#ffffff" stroke="transparent" points="147.5,-40.2 147.5,-59.2 185.5,-59.2 185.5,-40.2 147.5,-40.2"/>
<polygon fill="none" stroke="#000000" points="147.5,-40.2 147.5,-59.2 185.5,-59.2 185.5,-40.2 147.5,-40.2"/>
<text text-anchor="start" x="150.5" y="-46.3" font-family="Helvetica,sans-Serif" font-size="11.00" fill="#000000">&lt; 1</text>
<polygon fill="#ffffff" stroke="transparent" points="185.5,-40.2 185.5,-59.2 240.5,-59.2 240.5,-40.2 185.5,-40.2"/>
<polygon fill="none" stroke="#000000" points="185.5,-40.2 185.5,-59.2 240.5,-59.2 240.5,-40.2 185.5,-40.2"/>
<text text-anchor="start" x="205.1105" y="-46.3" font-family="Helvetica,sans-Serif" font-size="11.00" fill="#000000">0 rows</text>
<polygon fill="#ffffff" stroke="transparent" points="240.5,-40.2 240.5,-59.2 328.5,-59.2 328.5,-40.2 240.5,-40.2"/>
<polygon fill="none" stroke="#000000" points="240.5,-40.2 240.5,-59.2 328.5,-59.2 328.5,-40.2 240.5,-40.2"/>
<text text-anchor="start" x="309.9053" y="-46.3" font-family="Helvetica,sans-Serif" font-size="11.00" fill="#000000">2 &gt;</text>
<polygon fill="none" stroke="#000000" stroke-width="2" points="146,-39.2 146,-215.2 329,-215.2 329,-39.2 146,-39.2"/>
</a>
</g>
</g>
<!-- order&#45;&gt;store -->
<g id="edge1" class="edge">
<title>order:w&#45;&gt;store:e</title>
<path fill="none" stroke="#000000" d="M376.7935,-228.6258C356.817,-216.8776 358.8476,-180.2 328.5,-180.2"/>
<polygon fill="#000000" stroke="#000000" points="383.2418,-230.2481 390.1216,-235.6912 387.1209,-231.224 391,-232.2 391,-232.2 391,-232.2 387.1209,-231.224 391.8784,-228.7088 383.2418,-230.2481 383.2418,-230.2481"/>
<ellipse fill="none" stroke="#000000" cx="380.1385" cy="-229.4673" rx="3.2" ry="3.2"/>
</g>
<!-- district -->
<g id="node3" class="node">
<title>district</title>
<g id="a_node3"><a xlink:href="../../tables/district.html" xlink:title="district" target="_top">
<polygon fill="#ffffff" stroke="transparent" points="8,-40.2 8,-126.2 96,-126.2 96,-40.2 8,-40.2"/>
<polygon fill="#f5f5f5" stroke="transparent" points="8,-103.2 8,-126.2 96,-126.2 96,-103.2 8,-103.2"/>
<polygon fill="none" stroke="#000000" points="8,-103.2 8,-126.2 96,-126.2 96,-103.2 8,-103.2"/>
<text text-anchor="start" x="13" y="-111.8" font-family="Helvetica,sans-Serif" font-weight="bold" font-size="11.00" fill="#000000">district</text>
<text text-anchor="start" x="61.5219" y="-111.3" font-family="Helvetica,sans-Serif" font-size="11.00" fill="#000000">[table]</text>
<polygon fill="none" stroke="#000000" points="8,-81.2 8,-103.2 96,-103.2 96,-81.2 8,-81.2"/>
<image xlink:href="../../images/primaryKeys.png" width="11px" height="12px" preserveAspectRatio="xMinYMin meet" x="13" y="-98.2"/>
<text text-anchor="start" x="28" y="-88.3" font-family="Helvetica,sans-Serif" font-size="11.00" fill="#000000">district_id</text>
<polygon fill="#ffffff" stroke="transparent" points="8,-59.2 8,-81.2 96,-81.2 96,-59.2 8,-59.2"/>
<polygon fill="none" stroke="#000000" points="8,-59.2 8,-81.2 96,-81.2 96,-59.2 8,-59.2"/>
<text text-anchor="start" x="28" y="-66.3" font-family="Helvetica,sans-Serif" font-size="11.00" fill="#000000">name</text>
<polygon fill="#ffffff" stroke="transparent" points="8,-40.2 8,-59.2 28,-59.2 28,-40.2 8,-40.2"/>
<polygon fill="none" stroke="#000000" points="8,-40.2 8,-59.2 28,-59.2 28,-40.2 8,-40.2"/>
<text text-anchor="start" x="11" y="-46.3" font-family="Helvetica,sans-Serif" font-size="11.00" fill="#000000"> &#160;</text>
<polygon fill="#ffffff" stroke="transparent" points="28,-40.2 28,-59.2 70,-59.2 70,-40.2 28,-40.2"/>
<polygon fill="none" stroke="#000000" points="28,-40.2 28,-59.2 70,-59.2 70,-40.2 28,-40.2"/>
<text text-anchor="start" x="34.6105" y="-46.3" font-family="Helvetica,sans-Serif" font-size="11.00" fill="#000000">0 rows</text>
<polygon fill="#ffffff" stroke="transparent" points="70,-40.2 70,-59.2 96,-59.2 96,-40.2 70,-40.2"/>
<polygon fill="none" stroke="#000000" points="70,-40.2 70,-59.2 96,-59.2 96,-40.2 70,-40.2"/>
<text text-anchor="start" x="77.4053" y="-46.3" font-family="Helvetica,sans-Serif" font-size="11.00" fill="#000000">2 &gt;</text>
</a>
</g>
</g>
<!-- store&#45;&gt;district -->
<g id="edge2" class="edge">
<title>store:w&#45;&gt;district:e</title>
<path fill="none" stroke="#000000" d="M133.0156,-92.2C120.6771,-92.2 113.1667,-92.2 96,-92.2"/>
<polygon fill="#000000" stroke="#000000" points="139.5,-92.2001 147.5,-95.8 143.5,-92.2 147.5,-92.2 147.5,-92.2 147.5,-92.2 143.5,-92.2 147.5,-88.6 139.5,-92.2001 139.5,-92.2001"/>
<ellipse fill="none" stroke="#000000" cx="136.3" cy="-92.2001" rx="3.2" ry="3.2"/>
</g>
<!-- store_product -->
<g id="node4" class="node">
<title>store_product</title>
<g id="a_node4"><a xlink:href="../../tables/store_product.html" xlink:title="store_product" target="_top">
<polygon fill="#ffffff" stroke="transparent" points="379,-57.7 379,-162.7 511,-162.7 511,-57.7 379,-57.7"/>
<polygon fill="#f5f5f5" stroke="transparent" points="379,-139.2 379,-162.2 511,-162.2 511,-139.2 379,-139.2"/>
<polygon fill="none" stroke="#000000" points="379,-139.2 379,-162.2 511,-162.2 511,-139.2 379,-139.2"/>
<text text-anchor="start" x="384" y="-147.8" font-family="Helvetica,sans-Serif" font-weight="bold" font-size="11.00" fill="#000000">store_product</text>
<text text-anchor="start" x="476.5219" y="-147.3" font-family="Helvetica,sans-Serif" font-size="11.00" fill="#000000">[table]</text>
<polygon fill="none" stroke="#000000" points="379,-117.2 379,-139.2 511,-139.2 511,-117.2 379,-117.2"/>
<image xlink:href="../../images/primaryKeys.png" width="11px" height="12px" preserveAspectRatio="xMinYMin meet" x="384" y="-134.2"/>
<text text-anchor="start" x="408" y="-124.3" font-family="Helvetica,sans-Serif" font-size="11.00" fill="#000000">store_id</text>
<polygon fill="none" stroke="#000000" points="379,-95.2 379,-117.2 511,-117.2 511,-95.2 379,-95.2"/>
<image xlink:href="../../images/primaryKeys.png" width="11px" height="12px" preserveAspectRatio="xMinYMin meet" x="384" y="-112.2"/>
<text text-anchor="start" x="408" y="-102.3" font-family="Helvetica,sans-Serif" font-size="11.00" fill="#000000">product_id</text>
<polygon fill="none" stroke="#000000" points="379,-76.2 379,-95.2 511,-95.2 511,-76.2 379,-76.2"/>
<text text-anchor="start" x="382" y="-82.3" font-family="Helvetica,sans-Serif" font-size="11.00" fill="#000000">...</text>
<polygon fill="#ffffff" stroke="transparent" points="379,-57.2 379,-76.2 430,-76.2 430,-57.2 379,-57.2"/>
<polygon fill="none" stroke="#000000" points="379,-57.2 379,-76.2 430,-76.2 430,-57.2 379,-57.2"/>
<text text-anchor="start" x="382" y="-63.3" font-family="Helvetica,sans-Serif" font-size="11.00" fill="#000000">&lt; 2</text>
<polygon fill="#ffffff" stroke="transparent" points="430,-57.2 430,-76.2 483,-76.2 483,-57.2 430,-57.2"/>
<polygon fill="none" stroke="#000000" points="430,-57.2 430,-76.2 483,-76.2 483,-57.2 430,-57.2"/>
<text text-anchor="start" x="447.6105" y="-63.3" font-family="Helvetica,sans-Serif" font-size="11.00" fill="#000000">0 rows</text>
<polygon fill="#ffffff" stroke="transparent" points="483,-57.2 483,-76.2 511,-76.2 511,-57.2 483,-57.2"/>
<polygon fill="none" stroke="#000000" points="483,-57.2 483,-76.2 511,-76.2 511,-57.2 483,-57.2"/>
<text text-anchor="start" x="501.8862" y="-63.3" font-family="Helvetica,sans-Serif" font-size="11.00" fill="#000000"> &#160;</text>
</a>
</g>
</g>
<!-- store_product&#45;&gt;store -->
<g id="edge3" class="edge">
<title>store_product:w&#45;&gt;store:e</title>
<path fill="none" stroke="#000000" d="M365.1372,-132.9988C350.3861,-145.8719 354.6756,-180.2 328.5,-180.2"/>
<polygon fill="#000000" stroke="#000000" points="371.4401,-130.817 380.1777,-131.6019 375.2201,-129.5085 379,-128.2 379,-128.2 379,-128.2 375.2201,-129.5085 377.8223,-124.7981 371.4401,-130.817 371.4401,-130.817"/>
<ellipse fill="none" stroke="#000000" cx="368.4162" cy="-131.8638" rx="3.2" ry="3.2"/>
</g>
</g>
</svg>
