<?xml version="1.0" encoding="UTF-8" standalone="no"?>
<!DOCTYPE svg PUBLIC "-//W3C//DTD SVG 1.1//EN"
 "http://www.w3.org/Graphics/SVG/1.1/DTD/svg11.dtd">
<!-- Generated by graphviz version 2.40.1 (20161225.0304)
 -->
<!-- Title: twoDegreesRelationshipsDiagram Pages: 1 -->
<svg width="661pt" height="327pt"
 viewBox="0.00 0.00 661.00 326.70" xmlns="http://www.w3.org/2000/svg" xmlns:xlink="http://www.w3.org/1999/xlink">
<g id="graph0" class="graph" transform="scale(1 1) rotate(0) translate(4 322.7)">
<title>twoDegreesRelationshipsDiagram</title>
<polygon fill="#ffffff" stroke="transparent" points="-4,4 -4,-322.7 657,-322.7 657,4 -4,4"/>
<text text-anchor="middle" x="72.4936" y="-7.3" font-family="Helvetica,sans-Serif" font-size="11.00" fill="#000000">Generated by SchemaSpy</text>
<!-- order -->
<g id="node1" class="node">
<title>order</title>
<g id="a_node1"><a xlink:href="../../tables/order.html" xlink:title="order" target="_top">
<polygon fill="#ffffff" stroke="transparent" points="300.5,-38.2 300.5,-99.2 380.5,-99.2 380.5,-38.2 300.5,-38.2"/>
<polygon fill="#f5f5f5" stroke="transparent" points="300.5,-75.7 300.5,-98.7 380.5,-98.7 380.5,-75.7 300.5,-75.7"/>
<polygon fill="none" stroke="#000000" points="300.5,-75.7 300.5,-98.7 380.5,-98.7 380.5,-75.7 300.5,-75.7"/>
<text text-anchor="start" x="305.5" y="-84.3" font-family="Helvetica,sans-Serif" font-weight="bold" font-size="11.00" fill="#000000">order</text>
<text text-anchor="start" x="345.5437" y="-83.8" font-family="Helvetica,sans-Serif" font-size="11.00" fill="#000000">[table]</text>
<polygon fill="none" stroke="#000000" points="300.5,-56.7 300.5,-75.7 380.5,-75.7 380.5,-56.7 300.5,-56.7"/>
<text text-anchor="start" x="303.5" y="-62.8" font-family="Helvetica,sans-Serif" font-size="11.00" fill="#000000">...</text>
<polygon fill="#ffffff" stroke="transparent" points="300.5,-37.7 300.5,-56.7 321.5,-56.7 321.5,-37.7 300.5,-37.7"/>
<polygon fill="none" stroke="#000000" points="300.5,-37.7 300.5,-56.7 321.5,-56.7 321.5,-37.7 300.5,-37.7"/>
<text text-anchor="start" x="303.2027" y="-43.8" font-family="Helvetica,sans-Serif" font-size="11.00" fill="#000000">&lt; 2</text>
<polygon fill="#ffffff" stroke="transparent" points="321.5,-37.7 321.5,-56.7 359.5,-56.7 359.5,-37.7 321.5,-37.7"/>
<polygon fill="none" stroke="#000000" points="321.5,-37.7 321.5,-56.7 359.5,-56.7 359.5,-37.7 321.5,-37.7"/>
<text text-anchor="start" x="324.3053" y="-43.8" font-family="Helvetica,sans-Serif" font-size="11.00" fill="#000000">0 rows</text>
<polygon fill="#ffffff" stroke="transparent" points="359.5,-37.7 359.5,-56.7 380.5,-56.7 380.5,-37.7 359.5,-37.7"/>
<polygon fill="none" stroke="#000000" points="359.5,-37.7 359.5,-56.7 380.5,-56.7 380.5,-37.7 359.5,-37.7"/>
<text text-anchor="start" x="362.2027" y="-43.8" font-family="Helvetica,sans-Serif" font-size="11.00" fill="#000000">1 &gt;</text>
</a>
</g>
</g>
<!-- store -->
<g id="node2" class="node">
<title>store</title>
<g id="a_node2"><a xlink:href="../../tables/store.html" xlink:title="store" target="_top">
<polygon fill="#ffffff" stroke="transparent" points="144,-66.2 144,-193.2 237,-193.2 237,-66.2 144,-66.2"/>
<polygon fill="#f5f5f5" stroke="transparent" points="144.5,-169.7 144.5,-192.7 237.5,-192.7 237.5,-169.7 144.5,-169.7"/>
<polygon fill="none" stroke="#000000" points="144.5,-169.7 144.5,-192.7 237.5,-192.7 237.5,-169.7 144.5,-169.7"/>
<text text-anchor="start" x="149.5" y="-178.3" font-family="Helvetica,sans-Serif" font-weight="bold" font-size="11.00" fill="#000000">store</text>
<text text-anchor="start" x="202.5437" y="-177.8" font-family="Helvetica,sans-Serif" font-size="11.00" fill="#000000">[table]</text>
<polygon fill="none" stroke="#000000" points="144.5,-147.7 144.5,-169.7 237.5,-169.7 237.5,-147.7 144.5,-147.7"/>
<image xlink:href="../../images/primaryKeys.png" width="11px" height="12px" preserveAspectRatio="xMinYMin meet" x="149.5" y="-164.7"/>
<text text-anchor="start" x="164.5" y="-154.8" font-family="Helvetica,sans-Serif" font-size="11.00" fill="#000000">store_id</text>
<polygon fill="#ffffff" stroke="transparent" points="144.5,-125.7 144.5,-147.7 237.5,-147.7 237.5,-125.7 144.5,-125.7"/>
<polygon fill="none" stroke="#000000" points="144.5,-125.7 144.5,-147.7 237.5,-147.7 237.5,-125.7 144.5,-125.7"/>
<text text-anchor="start" x="164.5" y="-132.8" font-family="Helvetica,sans-Serif" font-size="11.00" fill="#000000">coordinate</text>
<polygon fill="#ffffff" stroke="transparent" points="144.5,-103.7 144.5,-125.7 237.5,-125.7 237.5,-103.7 144.5,-103.7"/>
<polygon fill="none" stroke="#000000" points="144.5,-103.7 144.5,-125.7 237.5,-125.7 237.5,-103.7 144.5,-103.7"/>
<image xlink:href="../../images/foreignKeys.png" width="11px" height="12px" preserveAspectRatio="xMinYMin meet" x="149.5" y="-120.7"/>
<text text-anchor="start" x="164.5" y="-110.8" font-family="Helvetica,sans-Serif" font-size="11.00" fill="#000000">district_id</text>
<polygon fill="none" stroke="#000000" points="144.5,-84.7 144.5,-103.7 237.5,-103.7 237.5,-84.7 144.5,-84.7"/>
<text text-anchor="start" x="147.5" y="-90.8" font-family="Helvetica,sans-Serif" font-size="11.00" fill="#000000">...</text>
<polygon fill="#ffffff" stroke="transparent" points="144.5,-65.7 144.5,-84.7 171.5,-84.7 171.5,-65.7 144.5,-65.7"/>
<polygon fill="none" stroke="#000000" points="144.5,-65.7 144.5,-84.7 171.5,-84.7 171.5,-65.7 144.5,-65.7"/>
<text text-anchor="start" x="147.5" y="-71.8" font-family="Helvetica,sans-Serif" font-size="11.00" fill="#000000">&lt; 1</text>
<polygon fill="#ffffff" stroke="transparent" points="171.5,-65.7 171.5,-84.7 212.5,-84.7 212.5,-65.7 171.5,-65.7"/>
<polygon fill="none" stroke="#000000" points="171.5,-65.7 171.5,-84.7 212.5,-84.7 212.5,-65.7 171.5,-65.7"/>
<text text-anchor="start" x="177.1105" y="-71.8" font-family="Helvetica,sans-Serif" font-size="11.00" fill="#000000">0 rows</text>
<polygon fill="#ffffff" stroke="transparent" points="212.5,-65.7 212.5,-84.7 237.5,-84.7 237.5,-65.7 212.5,-65.7"/>
<polygon fill="none" stroke="#000000" points="212.5,-65.7 212.5,-84.7 237.5,-84.7 237.5,-65.7 212.5,-65.7"/>
<text text-anchor="start" x="218.9053" y="-71.8" font-family="Helvetica,sans-Serif" font-size="11.00" fill="#000000">2 &gt;</text>
</a>
</g>
</g>
<!-- order&#45;&gt;store -->
<g id="edge1" class="edge">
<title>order:w&#45;&gt;store:e</title>
<path fill="none" stroke="#000000" d="M286.2441,-69.2321C258.0204,-86.2197 281.5739,-158.7 237.5,-158.7"/>
<polygon fill="#000000" stroke="#000000" points="292.7348,-67.624 301.3658,-69.1943 296.6174,-66.662 300.5,-65.7 300.5,-65.7 300.5,-65.7 296.6174,-66.662 299.6342,-62.2057 292.7348,-67.624 292.7348,-67.624"/>
<ellipse fill="none" stroke="#000000" cx="289.6287" cy="-68.3936" rx="3.2" ry="3.2"/>
</g>
<!-- district -->
<g id="node6" class="node">
<title>district</title>
<g id="a_node6"><a xlink:href="../../tables/district.html" xlink:title="district" target="_top">
<polygon fill="#ffffff" stroke="transparent" points="8,-87.2 8,-148.2 95,-148.2 95,-87.2 8,-87.2"/>
<polygon fill="#f5f5f5" stroke="transparent" points="8.5,-124.7 8.5,-147.7 95.5,-147.7 95.5,-124.7 8.5,-124.7"/>
<polygon fill="none" stroke="#000000" points="8.5,-124.7 8.5,-147.7 95.5,-147.7 95.5,-124.7 8.5,-124.7"/>
<text text-anchor="start" x="13.5" y="-133.3" font-family="Helvetica,sans-Serif" font-weight="bold" font-size="11.00" fill="#000000">district</text>
<text text-anchor="start" x="61.0219" y="-132.8" font-family="Helvetica,sans-Serif" font-size="11.00" fill="#000000">[table]</text>
<polygon fill="none" stroke="#000000" points="8.5,-105.7 8.5,-124.7 95.5,-124.7 95.5,-105.7 8.5,-105.7"/>
<text text-anchor="start" x="11.5" y="-111.8" font-family="Helvetica,sans-Serif" font-size="11.00" fill="#000000">...</text>
<polygon fill="#ffffff" stroke="transparent" points="8.5,-86.7 8.5,-105.7 28.5,-105.7 28.5,-86.7 8.5,-86.7"/>
<polygon fill="none" stroke="#000000" points="8.5,-86.7 8.5,-105.7 28.5,-105.7 28.5,-86.7 8.5,-86.7"/>
<text text-anchor="start" x="11.5" y="-92.8" font-family="Helvetica,sans-Serif" font-size="11.00" fill="#000000"> &#160;</text>
<polygon fill="#ffffff" stroke="transparent" points="28.5,-86.7 28.5,-105.7 70.5,-105.7 70.5,-86.7 28.5,-86.7"/>
<polygon fill="none" stroke="#000000" points="28.5,-86.7 28.5,-105.7 70.5,-105.7 70.5,-86.7 28.5,-86.7"/>
<text text-anchor="start" x="35.1105" y="-92.8" font-family="Helvetica,sans-Serif" font-size="11.00" fill="#000000">0 rows</text>
<polygon fill="#ffffff" stroke="transparent" points="70.5,-86.7 70.5,-105.7 95.5,-105.7 95.5,-86.7 70.5,-86.7"/>
<polygon fill="none" stroke="#000000" points="70.5,-86.7 70.5,-105.7 95.5,-105.7 95.5,-86.7 70.5,-86.7"/>
<text text-anchor="start" x="76.9053" y="-92.8" font-family="Helvetica,sans-Serif" font-size="11.00" fill="#000000">2 &gt;</text>
</a>
</g>
</g>
<!-- store&#45;&gt;district -->
<g id="edge5" class="edge">
<title>store:w&#45;&gt;district:e</title>
<path fill="none" stroke="#000000" d="M129.9909,-114.7C118.6774,-114.7 111.4931,-114.7 95.5,-114.7"/>
<polygon fill="#000000" stroke="#000000" points="136.5,-114.7001 144.5,-118.3 140.5,-114.7 144.5,-114.7 144.5,-114.7 144.5,-114.7 140.5,-114.7 144.5,-111.1 136.5,-114.7001 136.5,-114.7001"/>
<ellipse fill="none" stroke="#000000" cx="133.3" cy="-114.7001" rx="3.2" ry="3.2"/>
</g>
<!-- order_product -->
<g id="node3" class="node">
<title>order_product</title>
<g id="a_node3"><a xlink:href="../../tables/order_product.html" xlink:title="order_product" target="_top">
<polygon fill="#ffffff" stroke="transparent" points="477.5,-38.2 477.5,-99.2 611.5,-99.2 611.5,-38.2 477.5,-38.2"/>
<polygon fill="#f5f5f5" stroke="transparent" points="477.5,-75.7 477.5,-98.7 611.5,-98.7 611.5,-75.7 477.5,-75.7"/>
<polygon fill="none" stroke="#000000" points="477.5,-75.7 477.5,-98.7 611.5,-98.7 611.5,-75.7 477.5,-75.7"/>
<text text-anchor="start" x="482.5" y="-84.3" font-family="Helvetica,sans-Serif" font-weight="bold" font-size="11.00" fill="#000000">order_product</text>
<text text-anchor="start" x="577.0219" y="-83.8" font-family="Helvetica,sans-Serif" font-size="11.00" fill="#000000">[table]</text>
<polygon fill="none" stroke="#000000" points="477.5,-56.7 477.5,-75.7 611.5,-75.7 611.5,-56.7 477.5,-56.7"/>
<text text-anchor="start" x="480.5" y="-62.8" font-family="Helvetica,sans-Serif" font-size="11.00" fill="#000000">...</text>
<polygon fill="#ffffff" stroke="transparent" points="477.5,-37.7 477.5,-56.7 529.5,-56.7 529.5,-37.7 477.5,-37.7"/>
<polygon fill="none" stroke="#000000" points="477.5,-37.7 477.5,-56.7 529.5,-56.7 529.5,-37.7 477.5,-37.7"/>
<text text-anchor="start" x="480.5" y="-43.8" font-family="Helvetica,sans-Serif" font-size="11.00" fill="#000000">&lt; 2</text>
<polygon fill="#ffffff" stroke="transparent" points="529.5,-37.7 529.5,-56.7 583.5,-56.7 583.5,-37.7 529.5,-37.7"/>
<polygon fill="none" stroke="#000000" points="529.5,-37.7 529.5,-56.7 583.5,-56.7 583.5,-37.7 529.5,-37.7"/>
<text text-anchor="start" x="548.1105" y="-43.8" font-family="Helvetica,sans-Serif" font-size="11.00" fill="#000000">0 rows</text>
<polygon fill="#ffffff" stroke="transparent" points="583.5,-37.7 583.5,-56.7 611.5,-56.7 611.5,-37.7 583.5,-37.7"/>
<polygon fill="none" stroke="#000000" points="583.5,-37.7 583.5,-56.7 611.5,-56.7 611.5,-37.7 583.5,-37.7"/>
<text text-anchor="start" x="602.3862" y="-43.8" font-family="Helvetica,sans-Serif" font-size="11.00" fill="#000000"> &#160;</text>
</a>
</g>
</g>
<!-- order_product&#45;&gt;order -->
<g id="edge2" class="edge">
<title>order_product:w&#45;&gt;order:e</title>
<path fill="none" stroke="#000000" d="M462.7227,-65.7C431.1892,-65.7 418.2222,-65.7 380.5,-65.7"/>
<polygon fill="#000000" stroke="#000000" points="469.5,-65.7001 477.5,-69.3 473.5,-65.7 477.5,-65.7 477.5,-65.7 477.5,-65.7 473.5,-65.7 477.5,-62.1 469.5,-65.7001 469.5,-65.7001"/>
<ellipse fill="none" stroke="#000000" cx="466.3" cy="-65.7001" rx="3.2" ry="3.2"/>
</g>
<!-- product -->
<g id="node4" class="node">
<title>product</title>
<g id="a_node4"><a xlink:href="../../tables/product.html" xlink:title="product" target="_top">
<polygon fill="#ffffff" stroke="transparent" points="286,-120.2 286,-203.2 395,-203.2 395,-120.2 286,-120.2"/>
<polygon fill="#f5f5f5" stroke="transparent" points="286.5,-179.7 286.5,-202.7 395.5,-202.7 395.5,-179.7 286.5,-179.7"/>
<polygon fill="none" stroke="#000000" points="286.5,-179.7 286.5,-202.7 395.5,-202.7 395.5,-179.7 286.5,-179.7"/>
<text text-anchor="start" x="291.5" y="-188.3" font-family="Helvetica,sans-Serif" font-weight="bold" font-size="11.00" fill="#000000">product</text>
<text text-anchor="start" x="360.5437" y="-187.8" font-family="Helvetica,sans-Serif" font-size="11.00" fill="#000000">[table]</text>
<polygon fill="none" stroke="#000000" points="286.5,-157.7 286.5,-179.7 395.5,-179.7 395.5,-157.7 286.5,-157.7"/>
<image xlink:href="../../images/primaryKeys.png" width="11px" height="12px" preserveAspectRatio="xMinYMin meet" x="291.5" y="-174.7"/>
<text text-anchor="start" x="306.5" y="-164.8" font-family="Helvetica,sans-Serif" font-size="11.00" fill="#000000">product_id</text>
<polygon fill="none" stroke="#000000" points="286.5,-138.7 286.5,-157.7 395.5,-157.7 395.5,-138.7 286.5,-138.7"/>
<text text-anchor="start" x="289.5" y="-144.8" font-family="Helvetica,sans-Serif" font-size="11.00" fill="#000000">...</text>
<polygon fill="#ffffff" stroke="transparent" points="286.5,-119.7 286.5,-138.7 317.5,-138.7 317.5,-119.7 286.5,-119.7"/>
<polygon fill="none" stroke="#000000" points="286.5,-119.7 286.5,-138.7 317.5,-138.7 317.5,-119.7 286.5,-119.7"/>
<text text-anchor="start" x="289.5" y="-125.8" font-family="Helvetica,sans-Serif" font-size="11.00" fill="#000000"> &#160;</text>
<polygon fill="#ffffff" stroke="transparent" points="317.5,-119.7 317.5,-138.7 364.5,-138.7 364.5,-119.7 317.5,-119.7"/>
<polygon fill="none" stroke="#000000" points="317.5,-119.7 317.5,-138.7 364.5,-138.7 364.5,-119.7 317.5,-119.7"/>
<text text-anchor="start" x="329.1105" y="-125.8" font-family="Helvetica,sans-Serif" font-size="11.00" fill="#000000">0 rows</text>
<polygon fill="#ffffff" stroke="transparent" points="364.5,-119.7 364.5,-138.7 395.5,-138.7 395.5,-119.7 364.5,-119.7"/>
<polygon fill="none" stroke="#000000" points="364.5,-119.7 364.5,-138.7 395.5,-138.7 395.5,-119.7 364.5,-119.7"/>
<text text-anchor="start" x="376.9053" y="-125.8" font-family="Helvetica,sans-Serif" font-size="11.00" fill="#000000">3 &gt;</text>
</a>
</g>
</g>
<!-- order_product&#45;&gt;product -->
<g id="edge3" class="edge">
<title>order_product:w&#45;&gt;product:e</title>
<path fill="none" stroke="#000000" d="M463.1551,-68.9604C450.6604,-76.0467 449.055,-93.5185 436,-109.7 416.0288,-134.4539 427.3057,-168.7 395.5,-168.7"/>
<polygon fill="#000000" stroke="#000000" points="469.699,-67.4731 478.2979,-69.2105 473.5995,-66.5866 477.5,-65.7 477.5,-65.7 477.5,-65.7 473.5995,-66.5866 476.7021,-62.1895 469.699,-67.4731 469.699,-67.4731"/>
<ellipse fill="none" stroke="#000000" cx="466.5785" cy="-68.1824" rx="3.2" ry="3.2"/>
</g>
<!-- review -->
<g id="node5" class="node">
<title>review</title>
<g id="a_node5"><a xlink:href="../../tables/review.html" xlink:title="review" target="_top">
<polygon fill="#ffffff" stroke="transparent" points="502.5,-120.2 502.5,-181.2 586.5,-181.2 586.5,-120.2 502.5,-120.2"/>
<polygon fill="#f5f5f5" stroke="transparent" points="502.5,-157.7 502.5,-180.7 586.5,-180.7 586.5,-157.7 502.5,-157.7"/>
<polygon fill="none" stroke="#000000" points="502.5,-157.7 502.5,-180.7 586.5,-180.7 586.5,-157.7 502.5,-157.7"/>
<text text-anchor="start" x="507.5" y="-166.3" font-family="Helvetica,sans-Serif" font-weight="bold" font-size="11.00" fill="#000000">review</text>
<text text-anchor="start" x="552.0219" y="-165.8" font-family="Helvetica,sans-Serif" font-size="11.00" fill="#000000">[table]</text>
<polygon fill="none" stroke="#000000" points="502.5,-138.7 502.5,-157.7 586.5,-157.7 586.5,-138.7 502.5,-138.7"/>
<text text-anchor="start" x="505.5" y="-144.8" font-family="Helvetica,sans-Serif" font-size="11.00" fill="#000000">...</text>
<polygon fill="#ffffff" stroke="transparent" points="502.5,-119.7 502.5,-138.7 525.5,-138.7 525.5,-119.7 502.5,-119.7"/>
<polygon fill="none" stroke="#000000" points="502.5,-119.7 502.5,-138.7 525.5,-138.7 525.5,-119.7 502.5,-119.7"/>
<text text-anchor="start" x="505.5" y="-125.8" font-family="Helvetica,sans-Serif" font-size="11.00" fill="#000000">&lt; 2</text>
<polygon fill="#ffffff" stroke="transparent" points="525.5,-119.7 525.5,-138.7 564.5,-138.7 564.5,-119.7 525.5,-119.7"/>
<polygon fill="none" stroke="#000000" points="525.5,-119.7 525.5,-138.7 564.5,-138.7 564.5,-119.7 525.5,-119.7"/>
<text text-anchor="start" x="529.1105" y="-125.8" font-family="Helvetica,sans-Serif" font-size="11.00" fill="#000000">0 rows</text>
<polygon fill="#ffffff" stroke="transparent" points="564.5,-119.7 564.5,-138.7 586.5,-138.7 586.5,-119.7 564.5,-119.7"/>
<polygon fill="none" stroke="#000000" points="564.5,-119.7 564.5,-138.7 586.5,-138.7 586.5,-119.7 564.5,-119.7"/>
<text text-anchor="start" x="567.9053" y="-125.8" font-family="Helvetica,sans-Serif" font-size="11.00" fill="#000000">1 &gt;</text>
</a>
</g>
</g>
<!-- review&#45;&gt;product -->
<g id="edge4" class="edge">
<title>review:w&#45;&gt;product:e</title>
<path fill="none" stroke="#000000" d="M487.8754,-148.3987C451.3742,-152.0425 438.6622,-168.7 395.5,-168.7"/>
<polygon fill="#000000" stroke="#000000" points="494.5091,-148.0818 502.6718,-151.2959 498.5046,-147.8909 502.5,-147.7 502.5,-147.7 502.5,-147.7 498.5046,-147.8909 502.3282,-144.1041 494.5091,-148.0818 494.5091,-148.0818"/>
<ellipse fill="none" stroke="#000000" cx="491.3128" cy="-148.2346" rx="3.2" ry="3.2"/>
</g>
<!-- store_product -->
<g id="node7" class="node">
<title>store_product</title>
<g id="a_node7"><a xlink:href="../../tables/store_product.html" xlink:title="store_product" target="_top">
<polygon fill="#ffffff" stroke="transparent" points="444,-202.7 444,-314.7 645,-314.7 645,-202.7 444,-202.7"/>
<polygon fill="#f5f5f5" stroke="transparent" points="446.5,-289.7 446.5,-312.7 643.5,-312.7 643.5,-289.7 446.5,-289.7"/>
<polygon fill="none" stroke="#000000" points="446.5,-289.7 446.5,-312.7 643.5,-312.7 643.5,-289.7 446.5,-289.7"/>
<text text-anchor="start" x="451.5" y="-298.3" font-family="Helvetica,sans-Serif" font-weight="bold" font-size="11.00" fill="#000000">store_product</text>
<text text-anchor="start" x="608.5437" y="-297.8" font-family="Helvetica,sans-Serif" font-size="11.00" fill="#000000">[table]</text>
<polygon fill="none" stroke="#000000" points="446.5,-267.7 446.5,-289.7 560.5,-289.7 560.5,-267.7 446.5,-267.7"/>
<image xlink:href="../../images/primaryKeys.png" width="11px" height="12px" preserveAspectRatio="xMinYMin meet" x="451.5" y="-284.7"/>
<text text-anchor="start" x="466.5" y="-274.8" font-family="Helvetica,sans-Serif" font-size="11.00" fill="#000000">store_id</text>
<polygon fill="none" stroke="#000000" points="560.5,-267.7 560.5,-289.7 643.5,-289.7 643.5,-267.7 560.5,-267.7"/>
<text text-anchor="start" x="563.1783" y="-275.4" font-family="Helvetica,sans-Serif" font-size="11.00" fill="#000000">int unsigned[10]</text>
<polygon fill="none" stroke="#000000" points="446.5,-245.7 446.5,-267.7 560.5,-267.7 560.5,-245.7 446.5,-245.7"/>
<image xlink:href="../../images/primaryKeys.png" width="11px" height="12px" preserveAspectRatio="xMinYMin meet" x="451.5" y="-262.7"/>
<text text-anchor="start" x="466.5" y="-252.8" font-family="Helvetica,sans-Serif" font-size="11.00" fill="#000000">product_id</text>
<polygon fill="none" stroke="#000000" points="560.5,-245.7 560.5,-267.7 643.5,-267.7 643.5,-245.7 560.5,-245.7"/>
<text text-anchor="start" x="563.1783" y="-253.4" font-family="Helvetica,sans-Serif" font-size="11.00" fill="#000000">int unsigned[10]</text>
<polygon fill="none" stroke="#000000" points="446.5,-223.7 446.5,-245.7 560.5,-245.7 560.5,-223.7 446.5,-223.7"/>
<text text-anchor="start" x="466.5" y="-230.8" font-family="Helvetica,sans-Serif" font-size="11.00" fill="#000000">stock_level</text>
<polygon fill="none" stroke="#000000" points="560.5,-223.7 560.5,-245.7 643.5,-245.7 643.5,-223.7 560.5,-223.7"/>
<text text-anchor="start" x="563.1783" y="-231.4" font-family="Helvetica,sans-Serif" font-size="11.00" fill="#000000">int unsigned[10]</text>
<polygon fill="#ffffff" stroke="transparent" points="446.5,-204.7 446.5,-223.7 494.5,-223.7 494.5,-204.7 446.5,-204.7"/>
<polygon fill="none" stroke="#000000" points="446.5,-204.7 446.5,-223.7 494.5,-223.7 494.5,-204.7 446.5,-204.7"/>
<text text-anchor="start" x="449.5" y="-210.8" font-family="Helvetica,sans-Serif" font-size="11.00" fill="#000000">&lt; 2</text>
<polygon fill="#ffffff" stroke="transparent" points="494.5,-204.7 494.5,-223.7 560.5,-223.7 560.5,-204.7 494.5,-204.7"/>
<polygon fill="none" stroke="#000000" points="494.5,-204.7 494.5,-223.7 560.5,-223.7 560.5,-204.7 494.5,-204.7"/>
<text text-anchor="start" x="525.1105" y="-210.8" font-family="Helvetica,sans-Serif" font-size="11.00" fill="#000000">0 rows</text>
<polygon fill="#ffffff" stroke="transparent" points="560.5,-204.7 560.5,-223.7 643.5,-223.7 643.5,-204.7 560.5,-204.7"/>
<polygon fill="none" stroke="#000000" points="560.5,-204.7 560.5,-223.7 643.5,-223.7 643.5,-204.7 560.5,-204.7"/>
<text text-anchor="start" x="624.9053" y="-210.8" font-family="Helvetica,sans-Serif" font-size="11.00" fill="#000000">0 &gt;</text>
<polygon fill="none" stroke="#000000" stroke-width="2" points="445,-203.7 445,-313.7 644,-313.7 644,-203.7 445,-203.7"/>
</a>
</g>
</g>
<!-- store_product&#45;&gt;store -->
<g id="edge7" class="edge">
<title>store_product:w&#45;&gt;store:e</title>
<path fill="none" stroke="#000000" d="M432.0808,-278.5052C363.024,-276.5374 337.8093,-259.368 278,-213.7 253.8726,-195.2772 267.8567,-158.7 237.5,-158.7"/>
<polygon fill="#000000" stroke="#000000" points="438.5007,-278.5919 446.4513,-282.2997 442.5004,-278.6459 446.5,-278.7 446.5,-278.7 446.5,-278.7 442.5004,-278.6459 446.5487,-275.1003 438.5007,-278.5919 438.5007,-278.5919"/>
<ellipse fill="none" stroke="#000000" cx="435.301" cy="-278.5486" rx="3.2" ry="3.2"/>
</g>
<!-- store_product&#45;&gt;product -->
<g id="edge6" class="edge">
<title>store_product:w&#45;&gt;product:e</title>
<path fill="none" stroke="#000000" d="M432.5699,-252.4556C410.2709,-234.8772 434.7009,-168.7 395.5,-168.7"/>
<polygon fill="#000000" stroke="#000000" points="438.8473,-254.3682 445.4507,-260.1437 442.6737,-255.5341 446.5,-256.7 446.5,-256.7 446.5,-256.7 442.6737,-255.5341 447.5493,-253.2563 438.8473,-254.3682 438.8473,-254.3682"/>
<ellipse fill="none" stroke="#000000" cx="435.7863" cy="-253.4355" rx="3.2" ry="3.2"/>
</g>
</g>
</svg>
