<?xml version="1.0" encoding="UTF-8" standalone="no"?>
<!DOCTYPE svg PUBLIC "-//W3C//DTD SVG 1.1//EN"
 "http://www.w3.org/Graphics/SVG/1.1/DTD/svg11.dtd">
<!-- Generated by graphviz version 2.40.1 (20161225.0304)
 -->
<!-- Title: oneDegreeRelationshipsDiagram Pages: 1 -->
<svg width="383pt" height="281pt"
 viewBox="0.00 0.00 383.00 281.20" xmlns="http://www.w3.org/2000/svg" xmlns:xlink="http://www.w3.org/1999/xlink">
<g id="graph0" class="graph" transform="scale(1 1) rotate(0) translate(4 277.2)">
<title>oneDegreeRelationshipsDiagram</title>
<polygon fill="#ffffff" stroke="transparent" points="-4,4 -4,-277.2 379,-277.2 379,4 -4,4"/>
<text text-anchor="middle" x="72.4936" y="-7.3" font-family="Helvetica,sans-Serif" font-size="11.00" fill="#000000">Generated by SchemaSpy</text>
<!-- store_product -->
<g id="node1" class="node">
<title>store_product</title>
<g id="a_node1"><a xlink:href="../../tables/store_product.html" xlink:title="store_product" target="_top">
<polygon fill="#ffffff" stroke="transparent" points="166,-95.7 166,-207.7 367,-207.7 367,-95.7 166,-95.7"/>
<polygon fill="#f5f5f5" stroke="transparent" points="168.5,-182.7 168.5,-205.7 365.5,-205.7 365.5,-182.7 168.5,-182.7"/>
<polygon fill="none" stroke="#000000" points="168.5,-182.7 168.5,-205.7 365.5,-205.7 365.5,-182.7 168.5,-182.7"/>
<text text-anchor="start" x="173.5" y="-191.3" font-family="Helvetica,sans-Serif" font-weight="bold" font-size="11.00" fill="#000000">store_product</text>
<text text-anchor="start" x="330.5437" y="-190.8" font-family="Helvetica,sans-Serif" font-size="11.00" fill="#000000">[table]</text>
<polygon fill="none" stroke="#000000" points="168.5,-160.7 168.5,-182.7 282.5,-182.7 282.5,-160.7 168.5,-160.7"/>
<image xlink:href="../../images/primaryKeys.png" width="11px" height="12px" preserveAspectRatio="xMinYMin meet" x="173.5" y="-177.7"/>
<text text-anchor="start" x="188.5" y="-167.8" font-family="Helvetica,sans-Serif" font-size="11.00" fill="#000000">store_id</text>
<polygon fill="none" stroke="#000000" points="282.5,-160.7 282.5,-182.7 365.5,-182.7 365.5,-160.7 282.5,-160.7"/>
<text text-anchor="start" x="285.1783" y="-168.4" font-family="Helvetica,sans-Serif" font-size="11.00" fill="#000000">int unsigned[10]</text>
<polygon fill="none" stroke="#000000" points="168.5,-138.7 168.5,-160.7 282.5,-160.7 282.5,-138.7 168.5,-138.7"/>
<image xlink:href="../../images/primaryKeys.png" width="11px" height="12px" preserveAspectRatio="xMinYMin meet" x="173.5" y="-155.7"/>
<text text-anchor="start" x="188.5" y="-145.8" font-family="Helvetica,sans-Serif" font-size="11.00" fill="#000000">product_id</text>
<polygon fill="none" stroke="#000000" points="282.5,-138.7 282.5,-160.7 365.5,-160.7 365.5,-138.7 282.5,-138.7"/>
<text text-anchor="start" x="285.1783" y="-146.4" font-family="Helvetica,sans-Serif" font-size="11.00" fill="#000000">int unsigned[10]</text>
<polygon fill="none" stroke="#000000" points="168.5,-116.7 168.5,-138.7 282.5,-138.7 282.5,-116.7 168.5,-116.7"/>
<text text-anchor="start" x="188.5" y="-123.8" font-family="Helvetica,sans-Serif" font-size="11.00" fill="#000000">stock_level</text>
<polygon fill="none" stroke="#000000" points="282.5,-116.7 282.5,-138.7 365.5,-138.7 365.5,-116.7 282.5,-116.7"/>
<text text-anchor="start" x="285.1783" y="-124.4" font-family="Helvetica,sans-Serif" font-size="11.00" fill="#000000">int unsigned[10]</text>
<polygon fill="#ffffff" stroke="transparent" points="168.5,-97.7 168.5,-116.7 216.5,-116.7 216.5,-97.7 168.5,-97.7"/>
<polygon fill="none" stroke="#000000" points="168.5,-97.7 168.5,-116.7 216.5,-116.7 216.5,-97.7 168.5,-97.7"/>
<text text-anchor="start" x="171.5" y="-103.8" font-family="Helvetica,sans-Serif" font-size="11.00" fill="#000000">&lt; 2</text>
<polygon fill="#ffffff" stroke="transparent" points="216.5,-97.7 216.5,-116.7 282.5,-116.7 282.5,-97.7 216.5,-97.7"/>
<polygon fill="none" stroke="#000000" points="216.5,-97.7 216.5,-116.7 282.5,-116.7 282.5,-97.7 216.5,-97.7"/>
<text text-anchor="start" x="247.1105" y="-103.8" font-family="Helvetica,sans-Serif" font-size="11.00" fill="#000000">0 rows</text>
<polygon fill="#ffffff" stroke="transparent" points="282.5,-97.7 282.5,-116.7 365.5,-116.7 365.5,-97.7 282.5,-97.7"/>
<polygon fill="none" stroke="#000000" points="282.5,-97.7 282.5,-116.7 365.5,-116.7 365.5,-97.7 282.5,-97.7"/>
<text text-anchor="start" x="346.9053" y="-103.8" font-family="Helvetica,sans-Serif" font-size="11.00" fill="#000000">0 &gt;</text>
<polygon fill="none" stroke="#000000" stroke-width="2" points="167,-96.7 167,-206.7 366,-206.7 366,-96.7 167,-96.7"/>
</a>
</g>
</g>
<!-- product -->
<g id="node2" class="node">
<title>product</title>
<g id="a_node2"><a xlink:href="../../tables/product.html" xlink:title="product" target="_top">
<polygon fill="#ffffff" stroke="transparent" points="8,-38.2 8,-121.2 117,-121.2 117,-38.2 8,-38.2"/>
<polygon fill="#f5f5f5" stroke="transparent" points="8.5,-97.7 8.5,-120.7 117.5,-120.7 117.5,-97.7 8.5,-97.7"/>
<polygon fill="none" stroke="#000000" points="8.5,-97.7 8.5,-120.7 117.5,-120.7 117.5,-97.7 8.5,-97.7"/>
<text text-anchor="start" x="13.5" y="-106.3" font-family="Helvetica,sans-Serif" font-weight="bold" font-size="11.00" fill="#000000">product</text>
<text text-anchor="start" x="82.5437" y="-105.8" font-family="Helvetica,sans-Serif" font-size="11.00" fill="#000000">[table]</text>
<polygon fill="none" stroke="#000000" points="8.5,-75.7 8.5,-97.7 117.5,-97.7 117.5,-75.7 8.5,-75.7"/>
<image xlink:href="../../images/primaryKeys.png" width="11px" height="12px" preserveAspectRatio="xMinYMin meet" x="13.5" y="-92.7"/>
<text text-anchor="start" x="28.5" y="-82.8" font-family="Helvetica,sans-Serif" font-size="11.00" fill="#000000">product_id</text>
<polygon fill="none" stroke="#000000" points="8.5,-56.7 8.5,-75.7 117.5,-75.7 117.5,-56.7 8.5,-56.7"/>
<text text-anchor="start" x="11.5" y="-62.8" font-family="Helvetica,sans-Serif" font-size="11.00" fill="#000000">...</text>
<polygon fill="#ffffff" stroke="transparent" points="8.5,-37.7 8.5,-56.7 39.5,-56.7 39.5,-37.7 8.5,-37.7"/>
<polygon fill="none" stroke="#000000" points="8.5,-37.7 8.5,-56.7 39.5,-56.7 39.5,-37.7 8.5,-37.7"/>
<text text-anchor="start" x="11.5" y="-43.8" font-family="Helvetica,sans-Serif" font-size="11.00" fill="#000000"> &#160;</text>
<polygon fill="#ffffff" stroke="transparent" points="39.5,-37.7 39.5,-56.7 86.5,-56.7 86.5,-37.7 39.5,-37.7"/>
<polygon fill="none" stroke="#000000" points="39.5,-37.7 39.5,-56.7 86.5,-56.7 86.5,-37.7 39.5,-37.7"/>
<text text-anchor="start" x="51.1105" y="-43.8" font-family="Helvetica,sans-Serif" font-size="11.00" fill="#000000">0 rows</text>
<polygon fill="#ffffff" stroke="transparent" points="86.5,-37.7 86.5,-56.7 117.5,-56.7 117.5,-37.7 86.5,-37.7"/>
<polygon fill="none" stroke="#000000" points="86.5,-37.7 86.5,-56.7 117.5,-56.7 117.5,-37.7 86.5,-37.7"/>
<text text-anchor="start" x="98.9053" y="-43.8" font-family="Helvetica,sans-Serif" font-size="11.00" fill="#000000">3 &gt;</text>
</a>
</g>
</g>
<!-- store_product&#45;&gt;product -->
<g id="edge1" class="edge">
<title>store_product:w&#45;&gt;product:e</title>
<path fill="none" stroke="#000000" d="M154.4033,-144.7565C138.025,-129.9048 147.3329,-86.7 117.5,-86.7"/>
<polygon fill="#000000" stroke="#000000" points="160.9507,-147.0526 167.3087,-153.0972 164.7254,-148.3763 168.5,-149.7 168.5,-149.7 168.5,-149.7 164.7254,-148.3763 169.6913,-146.3028 160.9507,-147.0526 160.9507,-147.0526"/>
<ellipse fill="none" stroke="#000000" cx="157.931" cy="-145.9936" rx="3.2" ry="3.2"/>
</g>
<!-- store -->
<g id="node3" class="node">
<title>store</title>
<g id="a_node3"><a xlink:href="../../tables/store.html" xlink:title="store" target="_top">
<polygon fill="#ffffff" stroke="transparent" points="16,-142.2 16,-269.2 109,-269.2 109,-142.2 16,-142.2"/>
<polygon fill="#f5f5f5" stroke="transparent" points="16.5,-245.7 16.5,-268.7 109.5,-268.7 109.5,-245.7 16.5,-245.7"/>
<polygon fill="none" stroke="#000000" points="16.5,-245.7 16.5,-268.7 109.5,-268.7 109.5,-245.7 16.5,-245.7"/>
<text text-anchor="start" x="21.5" y="-254.3" font-family="Helvetica,sans-Serif" font-weight="bold" font-size="11.00" fill="#000000">store</text>
<text text-anchor="start" x="74.5437" y="-253.8" font-family="Helvetica,sans-Serif" font-size="11.00" fill="#000000">[table]</text>
<polygon fill="none" stroke="#000000" points="16.5,-223.7 16.5,-245.7 109.5,-245.7 109.5,-223.7 16.5,-223.7"/>
<image xlink:href="../../images/primaryKeys.png" width="11px" height="12px" preserveAspectRatio="xMinYMin meet" x="21.5" y="-240.7"/>
<text text-anchor="start" x="36.5" y="-230.8" font-family="Helvetica,sans-Serif" font-size="11.00" fill="#000000">store_id</text>
<polygon fill="#ffffff" stroke="transparent" points="16.5,-201.7 16.5,-223.7 109.5,-223.7 109.5,-201.7 16.5,-201.7"/>
<polygon fill="none" stroke="#000000" points="16.5,-201.7 16.5,-223.7 109.5,-223.7 109.5,-201.7 16.5,-201.7"/>
<text text-anchor="start" x="36.5" y="-208.8" font-family="Helvetica,sans-Serif" font-size="11.00" fill="#000000">coordinate</text>
<polygon fill="#ffffff" stroke="transparent" points="16.5,-179.7 16.5,-201.7 109.5,-201.7 109.5,-179.7 16.5,-179.7"/>
<polygon fill="none" stroke="#000000" points="16.5,-179.7 16.5,-201.7 109.5,-201.7 109.5,-179.7 16.5,-179.7"/>
<image xlink:href="../../images/foreignKeys.png" width="11px" height="12px" preserveAspectRatio="xMinYMin meet" x="21.5" y="-196.7"/>
<text text-anchor="start" x="36.5" y="-186.8" font-family="Helvetica,sans-Serif" font-size="11.00" fill="#000000">district_id</text>
<polygon fill="none" stroke="#000000" points="16.5,-160.7 16.5,-179.7 109.5,-179.7 109.5,-160.7 16.5,-160.7"/>
<text text-anchor="start" x="19.5" y="-166.8" font-family="Helvetica,sans-Serif" font-size="11.00" fill="#000000">...</text>
<polygon fill="#ffffff" stroke="transparent" points="16.5,-141.7 16.5,-160.7 43.5,-160.7 43.5,-141.7 16.5,-141.7"/>
<polygon fill="none" stroke="#000000" points="16.5,-141.7 16.5,-160.7 43.5,-160.7 43.5,-141.7 16.5,-141.7"/>
<text text-anchor="start" x="19.5" y="-147.8" font-family="Helvetica,sans-Serif" font-size="11.00" fill="#000000">&lt; 1</text>
<polygon fill="#ffffff" stroke="transparent" points="43.5,-141.7 43.5,-160.7 84.5,-160.7 84.5,-141.7 43.5,-141.7"/>
<polygon fill="none" stroke="#000000" points="43.5,-141.7 43.5,-160.7 84.5,-160.7 84.5,-141.7 43.5,-141.7"/>
<text text-anchor="start" x="49.1105" y="-147.8" font-family="Helvetica,sans-Serif" font-size="11.00" fill="#000000">0 rows</text>
<polygon fill="#ffffff" stroke="transparent" points="84.5,-141.7 84.5,-160.7 109.5,-160.7 109.5,-141.7 84.5,-141.7"/>
<polygon fill="none" stroke="#000000" points="84.5,-141.7 84.5,-160.7 109.5,-160.7 109.5,-141.7 84.5,-141.7"/>
<text text-anchor="start" x="90.9053" y="-147.8" font-family="Helvetica,sans-Serif" font-size="11.00" fill="#000000">2 &gt;</text>
</a>
</g>
</g>
<!-- store_product&#45;&gt;store -->
<g id="edge2" class="edge">
<title>store_product:w&#45;&gt;store:e</title>
<path fill="none" stroke="#000000" d="M154.4759,-175.6409C134.2368,-189.4332 142.0174,-234.7 109.5,-234.7"/>
<polygon fill="#000000" stroke="#000000" points="160.7983,-173.8643 169.4739,-175.1658 164.6492,-172.7822 168.5,-171.7 168.5,-171.7 168.5,-171.7 164.6492,-172.7822 167.5261,-168.2342 160.7983,-173.8643 160.7983,-173.8643"/>
<ellipse fill="none" stroke="#000000" cx="157.7176" cy="-174.73" rx="3.2" ry="3.2"/>
</g>
</g>
</svg>
