<?xml version="1.0" encoding="UTF-8" standalone="no"?>
<!DOCTYPE svg PUBLIC "-//W3C//DTD SVG 1.1//EN"
 "http://www.w3.org/Graphics/SVG/1.1/DTD/svg11.dtd">
<!-- Generated by graphviz version 2.40.1 (20161225.0304)
 -->
<!-- Title: twoDegreesRelationshipsDiagram Pages: 1 -->
<svg width="687pt" height="334pt"
 viewBox="0.00 0.00 687.00 333.70" xmlns="http://www.w3.org/2000/svg" xmlns:xlink="http://www.w3.org/1999/xlink">
<g id="graph0" class="graph" transform="scale(1 1) rotate(0) translate(4 329.7)">
<title>twoDegreesRelationshipsDiagram</title>
<polygon fill="#ffffff" stroke="transparent" points="-4,4 -4,-329.7 683,-329.7 683,4 -4,4"/>
<text text-anchor="middle" x="72.4936" y="-7.3" font-family="Helvetica,sans-Serif" font-size="11.00" fill="#000000">Generated by SchemaSpy</text>
<!-- client -->
<g id="node1" class="node">
<title>client</title>
<g id="a_node1"><a xlink:href="../../tables/client.html" xlink:title="client" target="_top">
<polygon fill="#ffffff" stroke="transparent" points="197.5,-237.7 197.5,-298.7 277.5,-298.7 277.5,-237.7 197.5,-237.7"/>
<polygon fill="#f5f5f5" stroke="transparent" points="197.5,-275.2 197.5,-298.2 277.5,-298.2 277.5,-275.2 197.5,-275.2"/>
<polygon fill="none" stroke="#000000" points="197.5,-275.2 197.5,-298.2 277.5,-298.2 277.5,-275.2 197.5,-275.2"/>
<text text-anchor="start" x="202.5" y="-283.8" font-family="Helvetica,sans-Serif" font-weight="bold" font-size="11.00" fill="#000000">client</text>
<text text-anchor="start" x="242.5437" y="-283.3" font-family="Helvetica,sans-Serif" font-size="11.00" fill="#000000">[table]</text>
<polygon fill="none" stroke="#000000" points="197.5,-256.2 197.5,-275.2 277.5,-275.2 277.5,-256.2 197.5,-256.2"/>
<text text-anchor="start" x="200.5" y="-262.3" font-family="Helvetica,sans-Serif" font-size="11.00" fill="#000000">...</text>
<polygon fill="#ffffff" stroke="transparent" points="197.5,-237.2 197.5,-256.2 218.5,-256.2 218.5,-237.2 197.5,-237.2"/>
<polygon fill="none" stroke="#000000" points="197.5,-237.2 197.5,-256.2 218.5,-256.2 218.5,-237.2 197.5,-237.2"/>
<text text-anchor="start" x="200.2027" y="-243.3" font-family="Helvetica,sans-Serif" font-size="11.00" fill="#000000">&lt; 2</text>
<polygon fill="#ffffff" stroke="transparent" points="218.5,-237.2 218.5,-256.2 256.5,-256.2 256.5,-237.2 218.5,-237.2"/>
<polygon fill="none" stroke="#000000" points="218.5,-237.2 218.5,-256.2 256.5,-256.2 256.5,-237.2 218.5,-237.2"/>
<text text-anchor="start" x="221.3053" y="-243.3" font-family="Helvetica,sans-Serif" font-size="11.00" fill="#000000">0 rows</text>
<polygon fill="#ffffff" stroke="transparent" points="256.5,-237.2 256.5,-256.2 277.5,-256.2 277.5,-237.2 256.5,-237.2"/>
<polygon fill="none" stroke="#000000" points="256.5,-237.2 256.5,-256.2 277.5,-256.2 277.5,-237.2 256.5,-237.2"/>
<text text-anchor="start" x="259.2027" y="-243.3" font-family="Helvetica,sans-Serif" font-size="11.00" fill="#000000">2 &gt;</text>
</a>
</g>
</g>
<!-- district -->
<g id="node2" class="node">
<title>district</title>
<g id="a_node2"><a xlink:href="../../tables/district.html" xlink:title="district" target="_top">
<polygon fill="#ffffff" stroke="transparent" points="8,-126.2 8,-212.2 96,-212.2 96,-126.2 8,-126.2"/>
<polygon fill="#f5f5f5" stroke="transparent" points="8,-189.2 8,-212.2 96,-212.2 96,-189.2 8,-189.2"/>
<polygon fill="none" stroke="#000000" points="8,-189.2 8,-212.2 96,-212.2 96,-189.2 8,-189.2"/>
<text text-anchor="start" x="13" y="-197.8" font-family="Helvetica,sans-Serif" font-weight="bold" font-size="11.00" fill="#000000">district</text>
<text text-anchor="start" x="61.5219" y="-197.3" font-family="Helvetica,sans-Serif" font-size="11.00" fill="#000000">[table]</text>
<polygon fill="none" stroke="#000000" points="8,-167.2 8,-189.2 96,-189.2 96,-167.2 8,-167.2"/>
<image xlink:href="../../images/primaryKeys.png" width="11px" height="12px" preserveAspectRatio="xMinYMin meet" x="13" y="-184.2"/>
<text text-anchor="start" x="28" y="-174.3" font-family="Helvetica,sans-Serif" font-size="11.00" fill="#000000">district_id</text>
<polygon fill="#ffffff" stroke="transparent" points="8,-145.2 8,-167.2 96,-167.2 96,-145.2 8,-145.2"/>
<polygon fill="none" stroke="#000000" points="8,-145.2 8,-167.2 96,-167.2 96,-145.2 8,-145.2"/>
<text text-anchor="start" x="28" y="-152.3" font-family="Helvetica,sans-Serif" font-size="11.00" fill="#000000">name</text>
<polygon fill="#ffffff" stroke="transparent" points="8,-126.2 8,-145.2 28,-145.2 28,-126.2 8,-126.2"/>
<polygon fill="none" stroke="#000000" points="8,-126.2 8,-145.2 28,-145.2 28,-126.2 8,-126.2"/>
<text text-anchor="start" x="11" y="-132.3" font-family="Helvetica,sans-Serif" font-size="11.00" fill="#000000"> &#160;</text>
<polygon fill="#ffffff" stroke="transparent" points="28,-126.2 28,-145.2 70,-145.2 70,-126.2 28,-126.2"/>
<polygon fill="none" stroke="#000000" points="28,-126.2 28,-145.2 70,-145.2 70,-126.2 28,-126.2"/>
<text text-anchor="start" x="34.6105" y="-132.3" font-family="Helvetica,sans-Serif" font-size="11.00" fill="#000000">0 rows</text>
<polygon fill="#ffffff" stroke="transparent" points="70,-126.2 70,-145.2 96,-145.2 96,-126.2 70,-126.2"/>
<polygon fill="none" stroke="#000000" points="70,-126.2 70,-145.2 96,-145.2 96,-126.2 70,-126.2"/>
<text text-anchor="start" x="77.4053" y="-132.3" font-family="Helvetica,sans-Serif" font-size="11.00" fill="#000000">2 &gt;</text>
</a>
</g>
</g>
<!-- client&#45;&gt;district -->
<g id="edge1" class="edge">
<title>client:w&#45;&gt;district:e</title>
<path fill="none" stroke="#000000" d="M183.0017,-263.6853C163.4617,-259.064 156.7199,-244.4065 137,-227.2 115.604,-208.531 124.3958,-178.2 96,-178.2"/>
<polygon fill="#000000" stroke="#000000" points="189.5433,-264.3687 197.1259,-268.7805 193.5217,-264.7843 197.5,-265.2 197.5,-265.2 197.5,-265.2 193.5217,-264.7843 197.8741,-261.6195 189.5433,-264.3687 189.5433,-264.3687"/>
<ellipse fill="none" stroke="#000000" cx="186.3606" cy="-264.0361" rx="3.2" ry="3.2"/>
</g>
<!-- order -->
<g id="node3" class="node">
<title>order</title>
<g id="a_node3"><a xlink:href="../../tables/order.html" xlink:title="order" target="_top">
<polygon fill="#ffffff" stroke="transparent" points="379,-194.7 379,-321.7 488,-321.7 488,-194.7 379,-194.7"/>
<polygon fill="#f5f5f5" stroke="transparent" points="379.5,-298.2 379.5,-321.2 488.5,-321.2 488.5,-298.2 379.5,-298.2"/>
<polygon fill="none" stroke="#000000" points="379.5,-298.2 379.5,-321.2 488.5,-321.2 488.5,-298.2 379.5,-298.2"/>
<text text-anchor="start" x="384.5" y="-306.8" font-family="Helvetica,sans-Serif" font-weight="bold" font-size="11.00" fill="#000000">order</text>
<text text-anchor="start" x="453.5437" y="-306.3" font-family="Helvetica,sans-Serif" font-size="11.00" fill="#000000">[table]</text>
<polygon fill="none" stroke="#000000" points="379.5,-276.2 379.5,-298.2 488.5,-298.2 488.5,-276.2 379.5,-276.2"/>
<image xlink:href="../../images/primaryKeys.png" width="11px" height="12px" preserveAspectRatio="xMinYMin meet" x="384.5" y="-293.2"/>
<text text-anchor="start" x="399.5" y="-283.3" font-family="Helvetica,sans-Serif" font-size="11.00" fill="#000000">order_id</text>
<polygon fill="#ffffff" stroke="transparent" points="379.5,-254.2 379.5,-276.2 488.5,-276.2 488.5,-254.2 379.5,-254.2"/>
<polygon fill="none" stroke="#000000" points="379.5,-254.2 379.5,-276.2 488.5,-276.2 488.5,-254.2 379.5,-254.2"/>
<image xlink:href="../../images/foreignKeys.png" width="11px" height="12px" preserveAspectRatio="xMinYMin meet" x="384.5" y="-271.2"/>
<text text-anchor="start" x="399.5" y="-261.3" font-family="Helvetica,sans-Serif" font-size="11.00" fill="#000000">client_id</text>
<polygon fill="#ffffff" stroke="transparent" points="379.5,-232.2 379.5,-254.2 488.5,-254.2 488.5,-232.2 379.5,-232.2"/>
<polygon fill="none" stroke="#000000" points="379.5,-232.2 379.5,-254.2 488.5,-254.2 488.5,-232.2 379.5,-232.2"/>
<image xlink:href="../../images/foreignKeys.png" width="11px" height="12px" preserveAspectRatio="xMinYMin meet" x="384.5" y="-249.2"/>
<text text-anchor="start" x="399.5" y="-239.3" font-family="Helvetica,sans-Serif" font-size="11.00" fill="#000000">store_id</text>
<polygon fill="none" stroke="#000000" points="379.5,-213.2 379.5,-232.2 488.5,-232.2 488.5,-213.2 379.5,-213.2"/>
<text text-anchor="start" x="382.5" y="-219.3" font-family="Helvetica,sans-Serif" font-size="11.00" fill="#000000">...</text>
<polygon fill="#ffffff" stroke="transparent" points="379.5,-194.2 379.5,-213.2 414.5,-213.2 414.5,-194.2 379.5,-194.2"/>
<polygon fill="none" stroke="#000000" points="379.5,-194.2 379.5,-213.2 414.5,-213.2 414.5,-194.2 379.5,-194.2"/>
<text text-anchor="start" x="382.5" y="-200.3" font-family="Helvetica,sans-Serif" font-size="11.00" fill="#000000">&lt; 2</text>
<polygon fill="#ffffff" stroke="transparent" points="414.5,-194.2 414.5,-213.2 459.5,-213.2 459.5,-194.2 414.5,-194.2"/>
<polygon fill="none" stroke="#000000" points="414.5,-194.2 414.5,-213.2 459.5,-213.2 459.5,-194.2 414.5,-194.2"/>
<text text-anchor="start" x="424.1105" y="-200.3" font-family="Helvetica,sans-Serif" font-size="11.00" fill="#000000">0 rows</text>
<polygon fill="#ffffff" stroke="transparent" points="459.5,-194.2 459.5,-213.2 488.5,-213.2 488.5,-194.2 459.5,-194.2"/>
<polygon fill="none" stroke="#000000" points="459.5,-194.2 459.5,-213.2 488.5,-213.2 488.5,-194.2 459.5,-194.2"/>
<text text-anchor="start" x="469.9053" y="-200.3" font-family="Helvetica,sans-Serif" font-size="11.00" fill="#000000">1 &gt;</text>
</a>
</g>
</g>
<!-- order&#45;&gt;client -->
<g id="edge2" class="edge">
<title>order:w&#45;&gt;client:e</title>
<path fill="none" stroke="#000000" d="M364.8538,-265.2C331.0435,-265.2 317.5208,-265.2 277.5,-265.2"/>
<polygon fill="#000000" stroke="#000000" points="371.5,-265.2001 379.5,-268.8 375.5,-265.2 379.5,-265.2 379.5,-265.2 379.5,-265.2 375.5,-265.2 379.5,-261.6 371.5,-265.2001 371.5,-265.2001"/>
<ellipse fill="none" stroke="#000000" cx="368.3" cy="-265.2001" rx="3.2" ry="3.2"/>
</g>
<!-- store -->
<g id="node4" class="node">
<title>store</title>
<g id="a_node4"><a xlink:href="../../tables/store.html" xlink:title="store" target="_top">
<polygon fill="#ffffff" stroke="transparent" points="145,-38.2 145,-216.2 330,-216.2 330,-38.2 145,-38.2"/>
<polygon fill="#f5f5f5" stroke="transparent" points="147.5,-191.2 147.5,-214.2 328.5,-214.2 328.5,-191.2 147.5,-191.2"/>
<polygon fill="none" stroke="#000000" points="147.5,-191.2 147.5,-214.2 328.5,-214.2 328.5,-191.2 147.5,-191.2"/>
<text text-anchor="start" x="152.5" y="-199.8" font-family="Helvetica,sans-Serif" font-weight="bold" font-size="11.00" fill="#000000">store</text>
<text text-anchor="start" x="293.5437" y="-199.3" font-family="Helvetica,sans-Serif" font-size="11.00" fill="#000000">[table]</text>
<polygon fill="none" stroke="#000000" points="147.5,-169.2 147.5,-191.2 240.5,-191.2 240.5,-169.2 147.5,-169.2"/>
<image xlink:href="../../images/primaryKeys.png" width="11px" height="12px" preserveAspectRatio="xMinYMin meet" x="152.5" y="-186.2"/>
<text text-anchor="start" x="167.5" y="-176.3" font-family="Helvetica,sans-Serif" font-size="11.00" fill="#000000">store_id</text>
<polygon fill="none" stroke="#000000" points="240.5,-169.2 240.5,-191.2 328.5,-191.2 328.5,-169.2 240.5,-169.2"/>
<text text-anchor="start" x="243.5" y="-176.9" font-family="Helvetica,sans-Serif" font-size="11.00" fill="#000000">int unsigned[10]</text>
<polygon fill="none" stroke="#000000" points="147.5,-147.2 147.5,-169.2 240.5,-169.2 240.5,-147.2 147.5,-147.2"/>
<text text-anchor="start" x="167.5" y="-154.3" font-family="Helvetica,sans-Serif" font-size="11.00" fill="#000000">phone_no</text>
<polygon fill="none" stroke="#000000" points="240.5,-147.2 240.5,-169.2 328.5,-169.2 328.5,-147.2 240.5,-147.2"/>
<text text-anchor="start" x="243.5" y="-154.9" font-family="Helvetica,sans-Serif" font-size="11.00" fill="#000000">varchar[255]</text>
<polygon fill="none" stroke="#000000" points="147.5,-125.2 147.5,-147.2 240.5,-147.2 240.5,-125.2 147.5,-125.2"/>
<text text-anchor="start" x="167.5" y="-132.3" font-family="Helvetica,sans-Serif" font-size="11.00" fill="#000000">street</text>
<polygon fill="none" stroke="#000000" points="240.5,-125.2 240.5,-147.2 328.5,-147.2 328.5,-125.2 240.5,-125.2"/>
<text text-anchor="start" x="243.5" y="-132.9" font-family="Helvetica,sans-Serif" font-size="11.00" fill="#000000">varchar[255]</text>
<polygon fill="#ffffff" stroke="transparent" points="147.5,-103.2 147.5,-125.2 240.5,-125.2 240.5,-103.2 147.5,-103.2"/>
<polygon fill="none" stroke="#000000" points="147.5,-103.2 147.5,-125.2 240.5,-125.2 240.5,-103.2 147.5,-103.2"/>
<text text-anchor="start" x="167.5" y="-110.3" font-family="Helvetica,sans-Serif" font-size="11.00" fill="#000000">coordinate</text>
<polygon fill="none" stroke="#000000" points="240.5,-103.2 240.5,-125.2 328.5,-125.2 328.5,-103.2 240.5,-103.2"/>
<text text-anchor="start" x="243.2357" y="-110.9" font-family="Helvetica,sans-Serif" font-size="11.00" fill="#000000">geometry[65535]</text>
<polygon fill="#ffffff" stroke="transparent" points="147.5,-81.2 147.5,-103.2 240.5,-103.2 240.5,-81.2 147.5,-81.2"/>
<polygon fill="none" stroke="#000000" points="147.5,-81.2 147.5,-103.2 240.5,-103.2 240.5,-81.2 147.5,-81.2"/>
<image xlink:href="../../images/foreignKeys.png" width="11px" height="12px" preserveAspectRatio="xMinYMin meet" x="152.5" y="-98.2"/>
<text text-anchor="start" x="167.5" y="-88.3" font-family="Helvetica,sans-Serif" font-size="11.00" fill="#000000">district_id</text>
<polygon fill="none" stroke="#000000" points="240.5,-81.2 240.5,-103.2 328.5,-103.2 328.5,-81.2 240.5,-81.2"/>
<text text-anchor="start" x="243.5" y="-88.9" font-family="Helvetica,sans-Serif" font-size="11.00" fill="#000000">int unsigned[10]</text>
<polygon fill="none" stroke="#000000" points="147.5,-59.2 147.5,-81.2 240.5,-81.2 240.5,-59.2 147.5,-59.2"/>
<text text-anchor="start" x="167.5" y="-66.3" font-family="Helvetica,sans-Serif" font-size="11.00" fill="#000000">city</text>
<polygon fill="none" stroke="#000000" points="240.5,-59.2 240.5,-81.2 328.5,-81.2 328.5,-59.2 240.5,-59.2"/>
<text text-anchor="start" x="243.5" y="-66.9" font-family="Helvetica,sans-Serif" font-size="11.00" fill="#000000">varchar[255]</text>
<polygon fill="#ffffff" stroke="transparent" points="147.5,-40.2 147.5,-59.2 185.5,-59.2 185.5,-40.2 147.5,-40.2"/>
<polygon fill="none" stroke="#000000" points="147.5,-40.2 147.5,-59.2 185.5,-59.2 185.5,-40.2 147.5,-40.2"/>
<text text-anchor="start" x="150.5" y="-46.3" font-family="Helvetica,sans-Serif" font-size="11.00" fill="#000000">&lt; 1</text>
<polygon fill="#ffffff" stroke="transparent" points="185.5,-40.2 185.5,-59.2 240.5,-59.2 240.5,-40.2 185.5,-40.2"/>
<polygon fill="none" stroke="#000000" points="185.5,-40.2 185.5,-59.2 240.5,-59.2 240.5,-40.2 185.5,-40.2"/>
<text text-anchor="start" x="205.1105" y="-46.3" font-family="Helvetica,sans-Serif" font-size="11.00" fill="#000000">0 rows</text>
<polygon fill="#ffffff" stroke="transparent" points="240.5,-40.2 240.5,-59.2 328.5,-59.2 328.5,-40.2 240.5,-40.2"/>
<polygon fill="none" stroke="#000000" points="240.5,-40.2 240.5,-59.2 328.5,-59.2 328.5,-40.2 240.5,-40.2"/>
<text text-anchor="start" x="309.9053" y="-46.3" font-family="Helvetica,sans-Serif" font-size="11.00" fill="#000000">2 &gt;</text>
<polygon fill="none" stroke="#000000" stroke-width="2" points="146,-39.2 146,-215.2 329,-215.2 329,-39.2 146,-39.2"/>
</a>
</g>
</g>
<!-- order&#45;&gt;store -->
<g id="edge3" class="edge">
<title>order:w&#45;&gt;store:e</title>
<path fill="none" stroke="#000000" d="M365.4033,-238.2565C349.025,-223.4048 358.3329,-180.2 328.5,-180.2"/>
<polygon fill="#000000" stroke="#000000" points="371.9507,-240.5526 378.3087,-246.5972 375.7254,-241.8763 379.5,-243.2 379.5,-243.2 379.5,-243.2 375.7254,-241.8763 380.6913,-239.8028 371.9507,-240.5526 371.9507,-240.5526"/>
<ellipse fill="none" stroke="#000000" cx="368.931" cy="-239.4936" rx="3.2" ry="3.2"/>
</g>
<!-- store&#45;&gt;district -->
<g id="edge6" class="edge">
<title>store:w&#45;&gt;district:e</title>
<path fill="none" stroke="#000000" d="M133.4139,-96.583C111.6949,-114.1081 134.4605,-178.2 96,-178.2"/>
<polygon fill="#000000" stroke="#000000" points="139.8612,-94.5769 148.5696,-95.6374 143.6806,-93.3884 147.5,-92.2 147.5,-92.2 147.5,-92.2 143.6806,-93.3884 146.4304,-88.7626 139.8612,-94.5769 139.8612,-94.5769"/>
<ellipse fill="none" stroke="#000000" cx="136.8057" cy="-95.5276" rx="3.2" ry="3.2"/>
</g>
<!-- order_product -->
<g id="node5" class="node">
<title>order_product</title>
<g id="a_node5"><a xlink:href="../../tables/order_product.html" xlink:title="order_product" target="_top">
<polygon fill="#ffffff" stroke="transparent" points="537,-230.7 537,-291.7 671,-291.7 671,-230.7 537,-230.7"/>
<polygon fill="#f5f5f5" stroke="transparent" points="537,-268.2 537,-291.2 671,-291.2 671,-268.2 537,-268.2"/>
<polygon fill="none" stroke="#000000" points="537,-268.2 537,-291.2 671,-291.2 671,-268.2 537,-268.2"/>
<text text-anchor="start" x="542" y="-276.8" font-family="Helvetica,sans-Serif" font-weight="bold" font-size="11.00" fill="#000000">order_product</text>
<text text-anchor="start" x="636.5219" y="-276.3" font-family="Helvetica,sans-Serif" font-size="11.00" fill="#000000">[table]</text>
<polygon fill="none" stroke="#000000" points="537,-249.2 537,-268.2 671,-268.2 671,-249.2 537,-249.2"/>
<text text-anchor="start" x="540" y="-255.3" font-family="Helvetica,sans-Serif" font-size="11.00" fill="#000000">...</text>
<polygon fill="#ffffff" stroke="transparent" points="537,-230.2 537,-249.2 589,-249.2 589,-230.2 537,-230.2"/>
<polygon fill="none" stroke="#000000" points="537,-230.2 537,-249.2 589,-249.2 589,-230.2 537,-230.2"/>
<text text-anchor="start" x="540" y="-236.3" font-family="Helvetica,sans-Serif" font-size="11.00" fill="#000000">&lt; 2</text>
<polygon fill="#ffffff" stroke="transparent" points="589,-230.2 589,-249.2 643,-249.2 643,-230.2 589,-230.2"/>
<polygon fill="none" stroke="#000000" points="589,-230.2 589,-249.2 643,-249.2 643,-230.2 589,-230.2"/>
<text text-anchor="start" x="607.6105" y="-236.3" font-family="Helvetica,sans-Serif" font-size="11.00" fill="#000000">0 rows</text>
<polygon fill="#ffffff" stroke="transparent" points="643,-230.2 643,-249.2 671,-249.2 671,-230.2 643,-230.2"/>
<polygon fill="none" stroke="#000000" points="643,-230.2 643,-249.2 671,-249.2 671,-230.2 643,-230.2"/>
<text text-anchor="start" x="661.8862" y="-236.3" font-family="Helvetica,sans-Serif" font-size="11.00" fill="#000000"> &#160;</text>
</a>
</g>
</g>
<!-- order_product&#45;&gt;order -->
<g id="edge4" class="edge">
<title>order_product:w&#45;&gt;order:e</title>
<path fill="none" stroke="#000000" d="M523.0737,-262.2323C511.2213,-270.2007 507.7287,-287.2 488.5,-287.2"/>
<polygon fill="#000000" stroke="#000000" points="529.3156,-260.425 538.0013,-261.658 533.1578,-259.3125 537,-258.2 537,-258.2 537,-258.2 533.1578,-259.3125 535.9987,-254.742 529.3156,-260.425 529.3156,-260.425"/>
<ellipse fill="none" stroke="#000000" cx="526.2419" cy="-261.315" rx="3.2" ry="3.2"/>
</g>
<!-- product -->
<g id="node6" class="node">
<title>product</title>
<g id="a_node6"><a xlink:href="../../tables/product.html" xlink:title="product" target="_top">
<polygon fill="#ffffff" stroke="transparent" points="388,-112.7 388,-173.7 479,-173.7 479,-112.7 388,-112.7"/>
<polygon fill="#f5f5f5" stroke="transparent" points="388.5,-150.2 388.5,-173.2 479.5,-173.2 479.5,-150.2 388.5,-150.2"/>
<polygon fill="none" stroke="#000000" points="388.5,-150.2 388.5,-173.2 479.5,-173.2 479.5,-150.2 388.5,-150.2"/>
<text text-anchor="start" x="393.5" y="-158.8" font-family="Helvetica,sans-Serif" font-weight="bold" font-size="11.00" fill="#000000">product</text>
<text text-anchor="start" x="445.0219" y="-158.3" font-family="Helvetica,sans-Serif" font-size="11.00" fill="#000000">[table]</text>
<polygon fill="none" stroke="#000000" points="388.5,-131.2 388.5,-150.2 479.5,-150.2 479.5,-131.2 388.5,-131.2"/>
<text text-anchor="start" x="391.5" y="-137.3" font-family="Helvetica,sans-Serif" font-size="11.00" fill="#000000">...</text>
<polygon fill="#ffffff" stroke="transparent" points="388.5,-112.2 388.5,-131.2 410.5,-131.2 410.5,-112.2 388.5,-112.2"/>
<polygon fill="none" stroke="#000000" points="388.5,-112.2 388.5,-131.2 410.5,-131.2 410.5,-112.2 388.5,-112.2"/>
<text text-anchor="start" x="391.5" y="-118.3" font-family="Helvetica,sans-Serif" font-size="11.00" fill="#000000"> &#160;</text>
<polygon fill="#ffffff" stroke="transparent" points="410.5,-112.2 410.5,-131.2 453.5,-131.2 453.5,-112.2 410.5,-112.2"/>
<polygon fill="none" stroke="#000000" points="410.5,-112.2 410.5,-131.2 453.5,-131.2 453.5,-112.2 410.5,-112.2"/>
<text text-anchor="start" x="418.1105" y="-118.3" font-family="Helvetica,sans-Serif" font-size="11.00" fill="#000000">0 rows</text>
<polygon fill="#ffffff" stroke="transparent" points="453.5,-112.2 453.5,-131.2 479.5,-131.2 479.5,-112.2 453.5,-112.2"/>
<polygon fill="none" stroke="#000000" points="453.5,-112.2 453.5,-131.2 479.5,-131.2 479.5,-112.2 453.5,-112.2"/>
<text text-anchor="start" x="460.9053" y="-118.3" font-family="Helvetica,sans-Serif" font-size="11.00" fill="#000000">3 &gt;</text>
</a>
</g>
</g>
<!-- order_product&#45;&gt;product -->
<g id="edge5" class="edge">
<title>order_product:w&#45;&gt;product:e</title>
<path fill="none" stroke="#000000" d="M522.615,-254.7957C489.469,-235.4484 531.9145,-140.2 479.5,-140.2"/>
<polygon fill="#000000" stroke="#000000" points="529.215,-256.3576 536.1709,-261.7032 533.1075,-257.2788 537,-258.2 537,-258.2 537,-258.2 533.1075,-257.2788 537.8291,-254.6968 529.215,-256.3576 529.215,-256.3576"/>
<ellipse fill="none" stroke="#000000" cx="526.101" cy="-255.6207" rx="3.2" ry="3.2"/>
</g>
<!-- store_product -->
<g id="node7" class="node">
<title>store_product</title>
<g id="a_node7"><a xlink:href="../../tables/store_product.html" xlink:title="store_product" target="_top">
<polygon fill="#ffffff" stroke="transparent" points="538,-46.7 538,-151.7 670,-151.7 670,-46.7 538,-46.7"/>
<polygon fill="#f5f5f5" stroke="transparent" points="538,-128.2 538,-151.2 670,-151.2 670,-128.2 538,-128.2"/>
<polygon fill="none" stroke="#000000" points="538,-128.2 538,-151.2 670,-151.2 670,-128.2 538,-128.2"/>
<text text-anchor="start" x="543" y="-136.8" font-family="Helvetica,sans-Serif" font-weight="bold" font-size="11.00" fill="#000000">store_product</text>
<text text-anchor="start" x="635.5219" y="-136.3" font-family="Helvetica,sans-Serif" font-size="11.00" fill="#000000">[table]</text>
<polygon fill="none" stroke="#000000" points="538,-106.2 538,-128.2 670,-128.2 670,-106.2 538,-106.2"/>
<image xlink:href="../../images/primaryKeys.png" width="11px" height="12px" preserveAspectRatio="xMinYMin meet" x="543" y="-123.2"/>
<text text-anchor="start" x="567" y="-113.3" font-family="Helvetica,sans-Serif" font-size="11.00" fill="#000000">store_id</text>
<polygon fill="none" stroke="#000000" points="538,-84.2 538,-106.2 670,-106.2 670,-84.2 538,-84.2"/>
<image xlink:href="../../images/primaryKeys.png" width="11px" height="12px" preserveAspectRatio="xMinYMin meet" x="543" y="-101.2"/>
<text text-anchor="start" x="567" y="-91.3" font-family="Helvetica,sans-Serif" font-size="11.00" fill="#000000">product_id</text>
<polygon fill="none" stroke="#000000" points="538,-65.2 538,-84.2 670,-84.2 670,-65.2 538,-65.2"/>
<text text-anchor="start" x="541" y="-71.3" font-family="Helvetica,sans-Serif" font-size="11.00" fill="#000000">...</text>
<polygon fill="#ffffff" stroke="transparent" points="538,-46.2 538,-65.2 589,-65.2 589,-46.2 538,-46.2"/>
<polygon fill="none" stroke="#000000" points="538,-46.2 538,-65.2 589,-65.2 589,-46.2 538,-46.2"/>
<text text-anchor="start" x="541" y="-52.3" font-family="Helvetica,sans-Serif" font-size="11.00" fill="#000000">&lt; 2</text>
<polygon fill="#ffffff" stroke="transparent" points="589,-46.2 589,-65.2 642,-65.2 642,-46.2 589,-46.2"/>
<polygon fill="none" stroke="#000000" points="589,-46.2 589,-65.2 642,-65.2 642,-46.2 589,-46.2"/>
<text text-anchor="start" x="606.6105" y="-52.3" font-family="Helvetica,sans-Serif" font-size="11.00" fill="#000000">0 rows</text>
<polygon fill="#ffffff" stroke="transparent" points="642,-46.2 642,-65.2 670,-65.2 670,-46.2 642,-46.2"/>
<polygon fill="none" stroke="#000000" points="642,-46.2 642,-65.2 670,-65.2 670,-46.2 642,-46.2"/>
<text text-anchor="start" x="660.8862" y="-52.3" font-family="Helvetica,sans-Serif" font-size="11.00" fill="#000000"> &#160;</text>
</a>
</g>
</g>
<!-- store_product&#45;&gt;store -->
<g id="edge8" class="edge">
<title>store_product:w&#45;&gt;store:e</title>
<path fill="none" stroke="#000000" d="M523.7016,-114.5261C514.9977,-110.8853 509.5799,-104.5522 496,-102.2 441.2596,-92.7182 418.7658,-73.8301 371,-102.2 337.0568,-122.3601 367.9787,-180.2 328.5,-180.2"/>
<polygon fill="#000000" stroke="#000000" points="530.1363,-115.7294 537.3382,-120.7387 534.0682,-116.4647 538,-117.2 538,-117.2 538,-117.2 534.0682,-116.4647 538.6618,-113.6613 530.1363,-115.7294 530.1363,-115.7294"/>
<ellipse fill="none" stroke="#000000" cx="526.9908" cy="-115.1412" rx="3.2" ry="3.2"/>
</g>
<!-- store_product&#45;&gt;product -->
<g id="edge7" class="edge">
<title>store_product:w&#45;&gt;product:e</title>
<path fill="none" stroke="#000000" d="M523.7199,-99.0367C506.4624,-109.9189 506.4083,-140.2 479.5,-140.2"/>
<polygon fill="#000000" stroke="#000000" points="530.274,-97.2758 538.9341,-98.6767 534.137,-96.2379 538,-95.2 538,-95.2 538,-95.2 534.137,-96.2379 537.0659,-91.7233 530.274,-97.2758 530.274,-97.2758"/>
<ellipse fill="none" stroke="#000000" cx="527.1836" cy="-98.1061" rx="3.2" ry="3.2"/>
</g>
</g>
</svg>
