<?xml version="1.0" encoding="UTF-8" standalone="no"?>
<!DOCTYPE svg PUBLIC "-//W3C//DTD SVG 1.1//EN"
 "http://www.w3.org/Graphics/SVG/1.1/DTD/svg11.dtd">
<!-- Generated by graphviz version 2.40.1 (20161225.0304)
 -->
<!-- Title: oneDegreeRelationshipsDiagram Pages: 1 -->
<svg width="469pt" height="555pt"
 viewBox="0.00 0.00 469.00 555.20" xmlns="http://www.w3.org/2000/svg" xmlns:xlink="http://www.w3.org/1999/xlink">
<g id="graph0" class="graph" transform="scale(1 1) rotate(0) translate(4 551.2)">
<title>oneDegreeRelationshipsDiagram</title>
<polygon fill="#ffffff" stroke="transparent" points="-4,4 -4,-551.2 465,-551.2 465,4 -4,4"/>
<text text-anchor="middle" x="72.4936" y="-7.3" font-family="Helvetica,sans-Serif" font-size="11.00" fill="#000000">Generated by SchemaSpy</text>
<!-- administrator -->
<g id="node1" class="node">
<title>administrator</title>
<g id="a_node1"><a xlink:href="../../tables/administrator.html" xlink:title="administrator" target="_top">
<polygon fill="#ffffff" stroke="transparent" points="279,-460.2 279,-543.2 410,-543.2 410,-460.2 279,-460.2"/>
<polygon fill="#f5f5f5" stroke="transparent" points="279.5,-519.7 279.5,-542.7 410.5,-542.7 410.5,-519.7 279.5,-519.7"/>
<polygon fill="none" stroke="#000000" points="279.5,-519.7 279.5,-542.7 410.5,-542.7 410.5,-519.7 279.5,-519.7"/>
<text text-anchor="start" x="284.5" y="-528.3" font-family="Helvetica,sans-Serif" font-weight="bold" font-size="11.00" fill="#000000">administrator</text>
<text text-anchor="start" x="376.0219" y="-527.8" font-family="Helvetica,sans-Serif" font-size="11.00" fill="#000000">[table]</text>
<polygon fill="none" stroke="#000000" points="279.5,-497.7 279.5,-519.7 410.5,-519.7 410.5,-497.7 279.5,-497.7"/>
<image xlink:href="../../images/primaryKeys.png" width="11px" height="12px" preserveAspectRatio="xMinYMin meet" x="284.5" y="-514.7"/>
<text text-anchor="start" x="303.5" y="-504.8" font-family="Helvetica,sans-Serif" font-size="11.00" fill="#000000">user_id</text>
<polygon fill="none" stroke="#000000" points="279.5,-478.7 279.5,-497.7 410.5,-497.7 410.5,-478.7 279.5,-478.7"/>
<text text-anchor="start" x="282.5" y="-484.8" font-family="Helvetica,sans-Serif" font-size="11.00" fill="#000000">...</text>
<polygon fill="#ffffff" stroke="transparent" points="279.5,-459.7 279.5,-478.7 330.5,-478.7 330.5,-459.7 279.5,-459.7"/>
<polygon fill="none" stroke="#000000" points="279.5,-459.7 279.5,-478.7 330.5,-478.7 330.5,-459.7 279.5,-459.7"/>
<text text-anchor="start" x="282.5" y="-465.8" font-family="Helvetica,sans-Serif" font-size="11.00" fill="#000000">&lt; 1</text>
<polygon fill="#ffffff" stroke="transparent" points="330.5,-459.7 330.5,-478.7 383.5,-478.7 383.5,-459.7 330.5,-459.7"/>
<polygon fill="none" stroke="#000000" points="330.5,-459.7 330.5,-478.7 383.5,-478.7 383.5,-459.7 330.5,-459.7"/>
<text text-anchor="start" x="348.1105" y="-465.8" font-family="Helvetica,sans-Serif" font-size="11.00" fill="#000000">0 rows</text>
<polygon fill="#ffffff" stroke="transparent" points="383.5,-459.7 383.5,-478.7 410.5,-478.7 410.5,-459.7 383.5,-459.7"/>
<polygon fill="none" stroke="#000000" points="383.5,-459.7 383.5,-478.7 410.5,-478.7 410.5,-459.7 383.5,-459.7"/>
<text text-anchor="start" x="401.3862" y="-465.8" font-family="Helvetica,sans-Serif" font-size="11.00" fill="#000000"> &#160;</text>
</a>
</g>
</g>
<!-- user -->
<g id="node2" class="node">
<title>user</title>
<g id="a_node2"><a xlink:href="../../tables/user.html" xlink:title="user" target="_top">
<polygon fill="#ffffff" stroke="transparent" points="8,-177.7 8,-355.7 187,-355.7 187,-177.7 8,-177.7"/>
<polygon fill="#f5f5f5" stroke="transparent" points="10.5,-330.7 10.5,-353.7 185.5,-353.7 185.5,-330.7 10.5,-330.7"/>
<polygon fill="none" stroke="#000000" points="10.5,-330.7 10.5,-353.7 185.5,-353.7 185.5,-330.7 10.5,-330.7"/>
<text text-anchor="start" x="15.5" y="-339.3" font-family="Helvetica,sans-Serif" font-weight="bold" font-size="11.00" fill="#000000">user</text>
<text text-anchor="start" x="150.5437" y="-338.8" font-family="Helvetica,sans-Serif" font-size="11.00" fill="#000000">[table]</text>
<polygon fill="none" stroke="#000000" points="10.5,-308.7 10.5,-330.7 102.5,-330.7 102.5,-308.7 10.5,-308.7"/>
<image xlink:href="../../images/primaryKeys.png" width="11px" height="12px" preserveAspectRatio="xMinYMin meet" x="15.5" y="-325.7"/>
<text text-anchor="start" x="30.5" y="-315.8" font-family="Helvetica,sans-Serif" font-size="11.00" fill="#000000">user_id</text>
<polygon fill="none" stroke="#000000" points="102.5,-308.7 102.5,-330.7 185.5,-330.7 185.5,-308.7 102.5,-308.7"/>
<text text-anchor="start" x="105.1783" y="-316.4" font-family="Helvetica,sans-Serif" font-size="11.00" fill="#000000">int unsigned[10]</text>
<polygon fill="#ffffff" stroke="transparent" points="10.5,-286.7 10.5,-308.7 102.5,-308.7 102.5,-286.7 10.5,-286.7"/>
<polygon fill="none" stroke="#000000" points="10.5,-286.7 10.5,-308.7 102.5,-308.7 102.5,-286.7 10.5,-286.7"/>
<text text-anchor="start" x="30.5" y="-293.8" font-family="Helvetica,sans-Serif" font-size="11.00" fill="#000000">email</text>
<polygon fill="none" stroke="#000000" points="102.5,-286.7 102.5,-308.7 185.5,-308.7 185.5,-286.7 102.5,-286.7"/>
<text text-anchor="start" x="105.5" y="-294.4" font-family="Helvetica,sans-Serif" font-size="11.00" fill="#000000">varchar[320]</text>
<polygon fill="none" stroke="#000000" points="10.5,-264.7 10.5,-286.7 102.5,-286.7 102.5,-264.7 10.5,-264.7"/>
<text text-anchor="start" x="30.5" y="-271.8" font-family="Helvetica,sans-Serif" font-size="11.00" fill="#000000">first_name</text>
<polygon fill="none" stroke="#000000" points="102.5,-264.7 102.5,-286.7 185.5,-286.7 185.5,-264.7 102.5,-264.7"/>
<text text-anchor="start" x="105.5" y="-272.4" font-family="Helvetica,sans-Serif" font-size="11.00" fill="#000000">varchar[255]</text>
<polygon fill="none" stroke="#000000" points="10.5,-242.7 10.5,-264.7 102.5,-264.7 102.5,-242.7 10.5,-242.7"/>
<text text-anchor="start" x="30.5" y="-249.8" font-family="Helvetica,sans-Serif" font-size="11.00" fill="#000000">password</text>
<polygon fill="none" stroke="#000000" points="102.5,-242.7 102.5,-264.7 185.5,-264.7 185.5,-242.7 102.5,-242.7"/>
<text text-anchor="start" x="105.5" y="-250.4" font-family="Helvetica,sans-Serif" font-size="11.00" fill="#000000">varchar[255]</text>
<polygon fill="none" stroke="#000000" points="10.5,-220.7 10.5,-242.7 102.5,-242.7 102.5,-220.7 10.5,-220.7"/>
<text text-anchor="start" x="30.5" y="-227.8" font-family="Helvetica,sans-Serif" font-size="11.00" fill="#000000">phone_no</text>
<polygon fill="none" stroke="#000000" points="102.5,-220.7 102.5,-242.7 185.5,-242.7 185.5,-220.7 102.5,-220.7"/>
<text text-anchor="start" x="105.5" y="-228.4" font-family="Helvetica,sans-Serif" font-size="11.00" fill="#000000">varchar[255]</text>
<polygon fill="none" stroke="#000000" points="10.5,-198.7 10.5,-220.7 102.5,-220.7 102.5,-198.7 10.5,-198.7"/>
<text text-anchor="start" x="30.5" y="-205.8" font-family="Helvetica,sans-Serif" font-size="11.00" fill="#000000">last_name</text>
<polygon fill="none" stroke="#000000" points="102.5,-198.7 102.5,-220.7 185.5,-220.7 185.5,-198.7 102.5,-198.7"/>
<text text-anchor="start" x="105.5" y="-206.4" font-family="Helvetica,sans-Serif" font-size="11.00" fill="#000000">varchar[255]</text>
<polygon fill="#ffffff" stroke="transparent" points="10.5,-179.7 10.5,-198.7 47.5,-198.7 47.5,-179.7 10.5,-179.7"/>
<polygon fill="none" stroke="#000000" points="10.5,-179.7 10.5,-198.7 47.5,-198.7 47.5,-179.7 10.5,-179.7"/>
<text text-anchor="start" x="13.5" y="-185.8" font-family="Helvetica,sans-Serif" font-size="11.00" fill="#000000">&lt; 0</text>
<polygon fill="#ffffff" stroke="transparent" points="47.5,-179.7 47.5,-198.7 102.5,-198.7 102.5,-179.7 47.5,-179.7"/>
<polygon fill="none" stroke="#000000" points="47.5,-179.7 47.5,-198.7 102.5,-198.7 102.5,-179.7 47.5,-179.7"/>
<text text-anchor="start" x="67.1105" y="-185.8" font-family="Helvetica,sans-Serif" font-size="11.00" fill="#000000">0 rows</text>
<polygon fill="#ffffff" stroke="transparent" points="102.5,-179.7 102.5,-198.7 185.5,-198.7 185.5,-179.7 102.5,-179.7"/>
<polygon fill="none" stroke="#000000" points="102.5,-179.7 102.5,-198.7 185.5,-198.7 185.5,-179.7 102.5,-179.7"/>
<text text-anchor="start" x="166.9053" y="-185.8" font-family="Helvetica,sans-Serif" font-size="11.00" fill="#000000">4 &gt;</text>
<polygon fill="none" stroke="#000000" stroke-width="2" points="9,-178.7 9,-354.7 186,-354.7 186,-178.7 9,-178.7"/>
</a>
</g>
</g>
<!-- administrator&#45;&gt;user -->
<g id="edge1" class="edge">
<title>administrator:w&#45;&gt;user:e</title>
<path fill="none" stroke="#000000" d="M268.9535,-507.6332C244.5805,-502.1693 243.2498,-476.5331 228,-449.7 197.9651,-396.8515 246.287,-319.7 185.5,-319.7"/>
<polygon fill="#000000" stroke="#000000" points="279.1067,-504.6398 278.3015,-512.5992 276.7096,-512.4381 277.5148,-504.4788 279.1067,-504.6398"/>
<polyline fill="none" stroke="#000000" points="279.5,-508.7 275.5203,-508.2974 "/>
<ellipse fill="none" stroke="#000000" cx="272.3366" cy="-507.9753" rx="3.2" ry="3.2"/>
</g>
<!-- client -->
<g id="node3" class="node">
<title>client</title>
<g id="a_node3"><a xlink:href="../../tables/client.html" xlink:title="client" target="_top">
<polygon fill="#ffffff" stroke="transparent" points="300.5,-334.2 300.5,-439.2 388.5,-439.2 388.5,-334.2 300.5,-334.2"/>
<polygon fill="#f5f5f5" stroke="transparent" points="300.5,-415.7 300.5,-438.7 388.5,-438.7 388.5,-415.7 300.5,-415.7"/>
<polygon fill="none" stroke="#000000" points="300.5,-415.7 300.5,-438.7 388.5,-438.7 388.5,-415.7 300.5,-415.7"/>
<text text-anchor="start" x="305.5" y="-424.3" font-family="Helvetica,sans-Serif" font-weight="bold" font-size="11.00" fill="#000000">client</text>
<text text-anchor="start" x="353.5437" y="-423.8" font-family="Helvetica,sans-Serif" font-size="11.00" fill="#000000">[table]</text>
<polygon fill="none" stroke="#000000" points="300.5,-393.7 300.5,-415.7 388.5,-415.7 388.5,-393.7 300.5,-393.7"/>
<image xlink:href="../../images/primaryKeys.png" width="11px" height="12px" preserveAspectRatio="xMinYMin meet" x="305.5" y="-410.7"/>
<text text-anchor="start" x="320.5" y="-400.8" font-family="Helvetica,sans-Serif" font-size="11.00" fill="#000000">user_id</text>
<polygon fill="#ffffff" stroke="transparent" points="300.5,-371.7 300.5,-393.7 388.5,-393.7 388.5,-371.7 300.5,-371.7"/>
<polygon fill="none" stroke="#000000" points="300.5,-371.7 300.5,-393.7 388.5,-393.7 388.5,-371.7 300.5,-371.7"/>
<image xlink:href="../../images/foreignKeys.png" width="11px" height="12px" preserveAspectRatio="xMinYMin meet" x="305.5" y="-388.7"/>
<text text-anchor="start" x="320.5" y="-378.8" font-family="Helvetica,sans-Serif" font-size="11.00" fill="#000000">district_id</text>
<polygon fill="none" stroke="#000000" points="300.5,-352.7 300.5,-371.7 388.5,-371.7 388.5,-352.7 300.5,-352.7"/>
<text text-anchor="start" x="303.5" y="-358.8" font-family="Helvetica,sans-Serif" font-size="11.00" fill="#000000">...</text>
<polygon fill="#ffffff" stroke="transparent" points="300.5,-333.7 300.5,-352.7 325.5,-352.7 325.5,-333.7 300.5,-333.7"/>
<polygon fill="none" stroke="#000000" points="300.5,-333.7 300.5,-352.7 325.5,-352.7 325.5,-333.7 300.5,-333.7"/>
<text text-anchor="start" x="303.5" y="-339.8" font-family="Helvetica,sans-Serif" font-size="11.00" fill="#000000">&lt; 2</text>
<polygon fill="#ffffff" stroke="transparent" points="325.5,-333.7 325.5,-352.7 365.5,-352.7 365.5,-333.7 325.5,-333.7"/>
<polygon fill="none" stroke="#000000" points="325.5,-333.7 325.5,-352.7 365.5,-352.7 365.5,-333.7 325.5,-333.7"/>
<text text-anchor="start" x="330.1105" y="-339.8" font-family="Helvetica,sans-Serif" font-size="11.00" fill="#000000">0 rows</text>
<polygon fill="#ffffff" stroke="transparent" points="365.5,-333.7 365.5,-352.7 388.5,-352.7 388.5,-333.7 365.5,-333.7"/>
<polygon fill="none" stroke="#000000" points="365.5,-333.7 365.5,-352.7 388.5,-352.7 388.5,-333.7 365.5,-333.7"/>
<text text-anchor="start" x="369.9053" y="-339.8" font-family="Helvetica,sans-Serif" font-size="11.00" fill="#000000">2 &gt;</text>
</a>
</g>
</g>
<!-- client&#45;&gt;user -->
<g id="edge2" class="edge">
<title>client:w&#45;&gt;user:e</title>
<path fill="none" stroke="#000000" d="M290.0768,-403.8587C238.1027,-395.0309 245.3331,-319.7 185.5,-319.7"/>
<polygon fill="#000000" stroke="#000000" points="300.0244,-400.6486 299.3808,-408.6227 297.7859,-408.4939 298.4296,-400.5199 300.0244,-400.6486"/>
<polyline fill="none" stroke="#000000" points="300.5,-404.7 296.513,-404.3782 "/>
<ellipse fill="none" stroke="#000000" cx="293.3233" cy="-404.1207" rx="3.2" ry="3.2"/>
</g>
<!-- comment -->
<g id="node4" class="node">
<title>comment</title>
<g id="a_node4"><a xlink:href="../../tables/comment.html" xlink:title="comment" target="_top">
<polygon fill="#ffffff" stroke="transparent" points="268,-164.2 268,-313.2 421,-313.2 421,-164.2 268,-164.2"/>
<polygon fill="#f5f5f5" stroke="transparent" points="268.5,-289.7 268.5,-312.7 421.5,-312.7 421.5,-289.7 268.5,-289.7"/>
<polygon fill="none" stroke="#000000" points="268.5,-289.7 268.5,-312.7 421.5,-312.7 421.5,-289.7 268.5,-289.7"/>
<text text-anchor="start" x="273.5" y="-298.3" font-family="Helvetica,sans-Serif" font-weight="bold" font-size="11.00" fill="#000000">comment</text>
<text text-anchor="start" x="386.5437" y="-297.8" font-family="Helvetica,sans-Serif" font-size="11.00" fill="#000000">[table]</text>
<polygon fill="none" stroke="#000000" points="268.5,-267.7 268.5,-289.7 421.5,-289.7 421.5,-267.7 268.5,-267.7"/>
<image xlink:href="../../images/primaryKeys.png" width="11px" height="12px" preserveAspectRatio="xMinYMin meet" x="273.5" y="-284.7"/>
<text text-anchor="start" x="288.5" y="-274.8" font-family="Helvetica,sans-Serif" font-size="11.00" fill="#000000">comment_id</text>
<polygon fill="#ffffff" stroke="transparent" points="268.5,-245.7 268.5,-267.7 421.5,-267.7 421.5,-245.7 268.5,-245.7"/>
<polygon fill="none" stroke="#000000" points="268.5,-245.7 268.5,-267.7 421.5,-267.7 421.5,-245.7 268.5,-245.7"/>
<image xlink:href="../../images/foreignKeys.png" width="11px" height="12px" preserveAspectRatio="xMinYMin meet" x="273.5" y="-262.7"/>
<text text-anchor="start" x="288.5" y="-252.8" font-family="Helvetica,sans-Serif" font-size="11.00" fill="#000000">parent_comment_id</text>
<polygon fill="#ffffff" stroke="transparent" points="268.5,-223.7 268.5,-245.7 421.5,-245.7 421.5,-223.7 268.5,-223.7"/>
<polygon fill="none" stroke="#000000" points="268.5,-223.7 268.5,-245.7 421.5,-245.7 421.5,-223.7 268.5,-223.7"/>
<image xlink:href="../../images/foreignKeys.png" width="11px" height="12px" preserveAspectRatio="xMinYMin meet" x="273.5" y="-240.7"/>
<text text-anchor="start" x="288.5" y="-230.8" font-family="Helvetica,sans-Serif" font-size="11.00" fill="#000000">user_id</text>
<polygon fill="#ffffff" stroke="transparent" points="268.5,-201.7 268.5,-223.7 421.5,-223.7 421.5,-201.7 268.5,-201.7"/>
<polygon fill="none" stroke="#000000" points="268.5,-201.7 268.5,-223.7 421.5,-223.7 421.5,-201.7 268.5,-201.7"/>
<image xlink:href="../../images/foreignKeys.png" width="11px" height="12px" preserveAspectRatio="xMinYMin meet" x="273.5" y="-218.7"/>
<text text-anchor="start" x="288.5" y="-208.8" font-family="Helvetica,sans-Serif" font-size="11.00" fill="#000000">review_id</text>
<polygon fill="none" stroke="#000000" points="268.5,-182.7 268.5,-201.7 421.5,-201.7 421.5,-182.7 268.5,-182.7"/>
<text text-anchor="start" x="271.5" y="-188.8" font-family="Helvetica,sans-Serif" font-size="11.00" fill="#000000">...</text>
<polygon fill="#ffffff" stroke="transparent" points="268.5,-163.7 268.5,-182.7 325.5,-182.7 325.5,-163.7 268.5,-163.7"/>
<polygon fill="none" stroke="#000000" points="268.5,-163.7 268.5,-182.7 325.5,-182.7 325.5,-163.7 268.5,-163.7"/>
<text text-anchor="start" x="271.5" y="-169.8" font-family="Helvetica,sans-Serif" font-size="11.00" fill="#000000">&lt; 3</text>
<polygon fill="#ffffff" stroke="transparent" points="325.5,-163.7 325.5,-182.7 381.5,-182.7 381.5,-163.7 325.5,-163.7"/>
<polygon fill="none" stroke="#000000" points="325.5,-163.7 325.5,-182.7 381.5,-182.7 381.5,-163.7 325.5,-163.7"/>
<text text-anchor="start" x="346.1105" y="-169.8" font-family="Helvetica,sans-Serif" font-size="11.00" fill="#000000">0 rows</text>
<polygon fill="#ffffff" stroke="transparent" points="381.5,-163.7 381.5,-182.7 421.5,-182.7 421.5,-163.7 381.5,-163.7"/>
<polygon fill="none" stroke="#000000" points="381.5,-163.7 381.5,-182.7 421.5,-182.7 421.5,-163.7 381.5,-163.7"/>
<text text-anchor="start" x="402.9053" y="-169.8" font-family="Helvetica,sans-Serif" font-size="11.00" fill="#000000">1 &gt;</text>
</a>
</g>
</g>
<!-- comment&#45;&gt;user -->
<g id="edge3" class="edge">
<title>comment:w&#45;&gt;user:e</title>
<path fill="none" stroke="#000000" d="M254.1328,-237.3371C219.6278,-251.6842 232.7322,-319.7 185.5,-319.7"/>
<polygon fill="#000000" stroke="#000000" points="260.6314,-236.1443 269.1499,-238.2408 264.5657,-235.4222 268.5,-234.7 268.5,-234.7 268.5,-234.7 264.5657,-235.4222 267.8501,-231.1592 260.6314,-236.1443 260.6314,-236.1443"/>
<ellipse fill="none" stroke="#000000" cx="257.484" cy="-236.722" rx="3.2" ry="3.2"/>
</g>
<!-- password_change_request -->
<g id="node5" class="node">
<title>password_change_request</title>
<g id="a_node5"><a xlink:href="../../tables/password_change_request.html" xlink:title="password_change_request" target="_top">
<polygon fill="#ffffff" stroke="transparent" points="236,-38.2 236,-143.2 453,-143.2 453,-38.2 236,-38.2"/>
<polygon fill="#f5f5f5" stroke="transparent" points="236.5,-119.7 236.5,-142.7 453.5,-142.7 453.5,-119.7 236.5,-119.7"/>
<polygon fill="none" stroke="#000000" points="236.5,-119.7 236.5,-142.7 453.5,-142.7 453.5,-119.7 236.5,-119.7"/>
<text text-anchor="start" x="241.5" y="-128.3" font-family="Helvetica,sans-Serif" font-weight="bold" font-size="11.00" fill="#000000">password_change_request</text>
<text text-anchor="start" x="419.0219" y="-127.8" font-family="Helvetica,sans-Serif" font-size="11.00" fill="#000000">[table]</text>
<polygon fill="none" stroke="#000000" points="236.5,-97.7 236.5,-119.7 453.5,-119.7 453.5,-97.7 236.5,-97.7"/>
<image xlink:href="../../images/primaryKeys.png" width="11px" height="12px" preserveAspectRatio="xMinYMin meet" x="241.5" y="-114.7"/>
<text text-anchor="start" x="265.5" y="-104.8" font-family="Helvetica,sans-Serif" font-size="11.00" fill="#000000">request_id</text>
<polygon fill="#ffffff" stroke="transparent" points="236.5,-75.7 236.5,-97.7 453.5,-97.7 453.5,-75.7 236.5,-75.7"/>
<polygon fill="none" stroke="#000000" points="236.5,-75.7 236.5,-97.7 453.5,-97.7 453.5,-75.7 236.5,-75.7"/>
<image xlink:href="../../images/foreignKeys.png" width="11px" height="12px" preserveAspectRatio="xMinYMin meet" x="241.5" y="-92.7"/>
<text text-anchor="start" x="265.5" y="-82.8" font-family="Helvetica,sans-Serif" font-size="11.00" fill="#000000">user_id</text>
<polygon fill="none" stroke="#000000" points="236.5,-56.7 236.5,-75.7 453.5,-75.7 453.5,-56.7 236.5,-56.7"/>
<text text-anchor="start" x="239.5" y="-62.8" font-family="Helvetica,sans-Serif" font-size="11.00" fill="#000000">...</text>
<polygon fill="#ffffff" stroke="transparent" points="236.5,-37.7 236.5,-56.7 330.5,-56.7 330.5,-37.7 236.5,-37.7"/>
<polygon fill="none" stroke="#000000" points="236.5,-37.7 236.5,-56.7 330.5,-56.7 330.5,-37.7 236.5,-37.7"/>
<text text-anchor="start" x="239.5" y="-43.8" font-family="Helvetica,sans-Serif" font-size="11.00" fill="#000000">&lt; 1</text>
<polygon fill="#ffffff" stroke="transparent" points="330.5,-37.7 330.5,-56.7 404.5,-56.7 404.5,-37.7 330.5,-37.7"/>
<polygon fill="none" stroke="#000000" points="330.5,-37.7 330.5,-56.7 404.5,-56.7 404.5,-37.7 330.5,-37.7"/>
<text text-anchor="start" x="369.1105" y="-43.8" font-family="Helvetica,sans-Serif" font-size="11.00" fill="#000000">0 rows</text>
<polygon fill="#ffffff" stroke="transparent" points="404.5,-37.7 404.5,-56.7 453.5,-56.7 453.5,-37.7 404.5,-37.7"/>
<polygon fill="none" stroke="#000000" points="404.5,-37.7 404.5,-56.7 453.5,-56.7 453.5,-37.7 404.5,-37.7"/>
<text text-anchor="start" x="444.3862" y="-43.8" font-family="Helvetica,sans-Serif" font-size="11.00" fill="#000000"> &#160;</text>
</a>
</g>
</g>
<!-- password_change_request&#45;&gt;user -->
<g id="edge4" class="edge">
<title>password_change_request:w&#45;&gt;user:e</title>
<path fill="none" stroke="#000000" d="M221.8787,-88.5755C146.7322,-110.6263 285.917,-319.7 185.5,-319.7"/>
<polygon fill="#000000" stroke="#000000" points="228.565,-87.7179 236.9581,-90.2707 232.5325,-87.2089 236.5,-86.7 236.5,-86.7 236.5,-86.7 232.5325,-87.2089 236.0419,-83.1293 228.565,-87.7179 228.565,-87.7179"/>
<ellipse fill="none" stroke="#000000" cx="225.391" cy="-88.1251" rx="3.2" ry="3.2"/>
</g>
</g>
</svg>
