<?xml version="1.0" encoding="UTF-8" standalone="no"?>
<!DOCTYPE svg PUBLIC "-//W3C//DTD SVG 1.1//EN"
 "http://www.w3.org/Graphics/SVG/1.1/DTD/svg11.dtd">
<!-- Generated by graphviz version 2.40.1 (20161225.0304)
 -->
<!-- Title: twoDegreesRelationshipsDiagram Pages: 1 -->
<svg width="804pt" height="413pt"
 viewBox="0.00 0.00 804.00 413.20" xmlns="http://www.w3.org/2000/svg" xmlns:xlink="http://www.w3.org/1999/xlink">
<g id="graph0" class="graph" transform="scale(1 1) rotate(0) translate(4 409.2)">
<title>twoDegreesRelationshipsDiagram</title>
<polygon fill="#ffffff" stroke="transparent" points="-4,4 -4,-409.2 800,-409.2 800,4 -4,4"/>
<text text-anchor="middle" x="72.4936" y="-7.3" font-family="Helvetica,sans-Serif" font-size="11.00" fill="#000000">Generated by SchemaSpy</text>
<!-- administrator -->
<g id="node1" class="node">
<title>administrator</title>
<g id="a_node1"><a xlink:href="../../tables/administrator.html" xlink:title="administrator" target="_top">
<polygon fill="#ffffff" stroke="transparent" points="279,-318.2 279,-401.2 410,-401.2 410,-318.2 279,-318.2"/>
<polygon fill="#f5f5f5" stroke="transparent" points="279.5,-377.7 279.5,-400.7 410.5,-400.7 410.5,-377.7 279.5,-377.7"/>
<polygon fill="none" stroke="#000000" points="279.5,-377.7 279.5,-400.7 410.5,-400.7 410.5,-377.7 279.5,-377.7"/>
<text text-anchor="start" x="284.5" y="-386.3" font-family="Helvetica,sans-Serif" font-weight="bold" font-size="11.00" fill="#000000">administrator</text>
<text text-anchor="start" x="376.0219" y="-385.8" font-family="Helvetica,sans-Serif" font-size="11.00" fill="#000000">[table]</text>
<polygon fill="none" stroke="#000000" points="279.5,-355.7 279.5,-377.7 410.5,-377.7 410.5,-355.7 279.5,-355.7"/>
<image xlink:href="../../images/primaryKeys.png" width="11px" height="12px" preserveAspectRatio="xMinYMin meet" x="284.5" y="-372.7"/>
<text text-anchor="start" x="303.5" y="-362.8" font-family="Helvetica,sans-Serif" font-size="11.00" fill="#000000">user_id</text>
<polygon fill="none" stroke="#000000" points="279.5,-336.7 279.5,-355.7 410.5,-355.7 410.5,-336.7 279.5,-336.7"/>
<text text-anchor="start" x="282.5" y="-342.8" font-family="Helvetica,sans-Serif" font-size="11.00" fill="#000000">...</text>
<polygon fill="#ffffff" stroke="transparent" points="279.5,-317.7 279.5,-336.7 330.5,-336.7 330.5,-317.7 279.5,-317.7"/>
<polygon fill="none" stroke="#000000" points="279.5,-317.7 279.5,-336.7 330.5,-336.7 330.5,-317.7 279.5,-317.7"/>
<text text-anchor="start" x="282.5" y="-323.8" font-family="Helvetica,sans-Serif" font-size="11.00" fill="#000000">&lt; 1</text>
<polygon fill="#ffffff" stroke="transparent" points="330.5,-317.7 330.5,-336.7 383.5,-336.7 383.5,-317.7 330.5,-317.7"/>
<polygon fill="none" stroke="#000000" points="330.5,-317.7 330.5,-336.7 383.5,-336.7 383.5,-317.7 330.5,-317.7"/>
<text text-anchor="start" x="348.1105" y="-323.8" font-family="Helvetica,sans-Serif" font-size="11.00" fill="#000000">0 rows</text>
<polygon fill="#ffffff" stroke="transparent" points="383.5,-317.7 383.5,-336.7 410.5,-336.7 410.5,-317.7 383.5,-317.7"/>
<polygon fill="none" stroke="#000000" points="383.5,-317.7 383.5,-336.7 410.5,-336.7 410.5,-317.7 383.5,-317.7"/>
<text text-anchor="start" x="401.3862" y="-323.8" font-family="Helvetica,sans-Serif" font-size="11.00" fill="#000000"> &#160;</text>
</a>
</g>
</g>
<!-- user -->
<g id="node2" class="node">
<title>user</title>
<g id="a_node2"><a xlink:href="../../tables/user.html" xlink:title="user" target="_top">
<polygon fill="#ffffff" stroke="transparent" points="8,-146.7 8,-324.7 187,-324.7 187,-146.7 8,-146.7"/>
<polygon fill="#f5f5f5" stroke="transparent" points="10.5,-299.7 10.5,-322.7 185.5,-322.7 185.5,-299.7 10.5,-299.7"/>
<polygon fill="none" stroke="#000000" points="10.5,-299.7 10.5,-322.7 185.5,-322.7 185.5,-299.7 10.5,-299.7"/>
<text text-anchor="start" x="15.5" y="-308.3" font-family="Helvetica,sans-Serif" font-weight="bold" font-size="11.00" fill="#000000">user</text>
<text text-anchor="start" x="150.5437" y="-307.8" font-family="Helvetica,sans-Serif" font-size="11.00" fill="#000000">[table]</text>
<polygon fill="none" stroke="#000000" points="10.5,-277.7 10.5,-299.7 102.5,-299.7 102.5,-277.7 10.5,-277.7"/>
<image xlink:href="../../images/primaryKeys.png" width="11px" height="12px" preserveAspectRatio="xMinYMin meet" x="15.5" y="-294.7"/>
<text text-anchor="start" x="30.5" y="-284.8" font-family="Helvetica,sans-Serif" font-size="11.00" fill="#000000">user_id</text>
<polygon fill="none" stroke="#000000" points="102.5,-277.7 102.5,-299.7 185.5,-299.7 185.5,-277.7 102.5,-277.7"/>
<text text-anchor="start" x="105.1783" y="-285.4" font-family="Helvetica,sans-Serif" font-size="11.00" fill="#000000">int unsigned[10]</text>
<polygon fill="#ffffff" stroke="transparent" points="10.5,-255.7 10.5,-277.7 102.5,-277.7 102.5,-255.7 10.5,-255.7"/>
<polygon fill="none" stroke="#000000" points="10.5,-255.7 10.5,-277.7 102.5,-277.7 102.5,-255.7 10.5,-255.7"/>
<text text-anchor="start" x="30.5" y="-262.8" font-family="Helvetica,sans-Serif" font-size="11.00" fill="#000000">email</text>
<polygon fill="none" stroke="#000000" points="102.5,-255.7 102.5,-277.7 185.5,-277.7 185.5,-255.7 102.5,-255.7"/>
<text text-anchor="start" x="105.5" y="-263.4" font-family="Helvetica,sans-Serif" font-size="11.00" fill="#000000">varchar[320]</text>
<polygon fill="none" stroke="#000000" points="10.5,-233.7 10.5,-255.7 102.5,-255.7 102.5,-233.7 10.5,-233.7"/>
<text text-anchor="start" x="30.5" y="-240.8" font-family="Helvetica,sans-Serif" font-size="11.00" fill="#000000">first_name</text>
<polygon fill="none" stroke="#000000" points="102.5,-233.7 102.5,-255.7 185.5,-255.7 185.5,-233.7 102.5,-233.7"/>
<text text-anchor="start" x="105.5" y="-241.4" font-family="Helvetica,sans-Serif" font-size="11.00" fill="#000000">varchar[255]</text>
<polygon fill="none" stroke="#000000" points="10.5,-211.7 10.5,-233.7 102.5,-233.7 102.5,-211.7 10.5,-211.7"/>
<text text-anchor="start" x="30.5" y="-218.8" font-family="Helvetica,sans-Serif" font-size="11.00" fill="#000000">password</text>
<polygon fill="none" stroke="#000000" points="102.5,-211.7 102.5,-233.7 185.5,-233.7 185.5,-211.7 102.5,-211.7"/>
<text text-anchor="start" x="105.5" y="-219.4" font-family="Helvetica,sans-Serif" font-size="11.00" fill="#000000">varchar[255]</text>
<polygon fill="none" stroke="#000000" points="10.5,-189.7 10.5,-211.7 102.5,-211.7 102.5,-189.7 10.5,-189.7"/>
<text text-anchor="start" x="30.5" y="-196.8" font-family="Helvetica,sans-Serif" font-size="11.00" fill="#000000">phone_no</text>
<polygon fill="none" stroke="#000000" points="102.5,-189.7 102.5,-211.7 185.5,-211.7 185.5,-189.7 102.5,-189.7"/>
<text text-anchor="start" x="105.5" y="-197.4" font-family="Helvetica,sans-Serif" font-size="11.00" fill="#000000">varchar[255]</text>
<polygon fill="none" stroke="#000000" points="10.5,-167.7 10.5,-189.7 102.5,-189.7 102.5,-167.7 10.5,-167.7"/>
<text text-anchor="start" x="30.5" y="-174.8" font-family="Helvetica,sans-Serif" font-size="11.00" fill="#000000">last_name</text>
<polygon fill="none" stroke="#000000" points="102.5,-167.7 102.5,-189.7 185.5,-189.7 185.5,-167.7 102.5,-167.7"/>
<text text-anchor="start" x="105.5" y="-175.4" font-family="Helvetica,sans-Serif" font-size="11.00" fill="#000000">varchar[255]</text>
<polygon fill="#ffffff" stroke="transparent" points="10.5,-148.7 10.5,-167.7 47.5,-167.7 47.5,-148.7 10.5,-148.7"/>
<polygon fill="none" stroke="#000000" points="10.5,-148.7 10.5,-167.7 47.5,-167.7 47.5,-148.7 10.5,-148.7"/>
<text text-anchor="start" x="13.5" y="-154.8" font-family="Helvetica,sans-Serif" font-size="11.00" fill="#000000">&lt; 0</text>
<polygon fill="#ffffff" stroke="transparent" points="47.5,-148.7 47.5,-167.7 102.5,-167.7 102.5,-148.7 47.5,-148.7"/>
<polygon fill="none" stroke="#000000" points="47.5,-148.7 47.5,-167.7 102.5,-167.7 102.5,-148.7 47.5,-148.7"/>
<text text-anchor="start" x="67.1105" y="-154.8" font-family="Helvetica,sans-Serif" font-size="11.00" fill="#000000">0 rows</text>
<polygon fill="#ffffff" stroke="transparent" points="102.5,-148.7 102.5,-167.7 185.5,-167.7 185.5,-148.7 102.5,-148.7"/>
<polygon fill="none" stroke="#000000" points="102.5,-148.7 102.5,-167.7 185.5,-167.7 185.5,-148.7 102.5,-148.7"/>
<text text-anchor="start" x="166.9053" y="-154.8" font-family="Helvetica,sans-Serif" font-size="11.00" fill="#000000">4 &gt;</text>
<polygon fill="none" stroke="#000000" stroke-width="2" points="9,-147.7 9,-323.7 186,-323.7 186,-147.7 9,-147.7"/>
</a>
</g>
</g>
<!-- administrator&#45;&gt;user -->
<g id="edge1" class="edge">
<title>administrator:w&#45;&gt;user:e</title>
<path fill="none" stroke="#000000" d="M269.0221,-365.5974C226.9215,-356.1169 235.9706,-288.7 185.5,-288.7"/>
<polygon fill="#000000" stroke="#000000" points="279.1231,-362.6382 278.2857,-370.5943 276.6945,-370.4268 277.5318,-362.4708 279.1231,-362.6382"/>
<polyline fill="none" stroke="#000000" points="279.5,-366.7 275.522,-366.2813 "/>
<ellipse fill="none" stroke="#000000" cx="272.3395" cy="-365.9464" rx="3.2" ry="3.2"/>
</g>
<!-- client -->
<g id="node3" class="node">
<title>client</title>
<g id="a_node3"><a xlink:href="../../tables/client.html" xlink:title="client" target="_top">
<polygon fill="#ffffff" stroke="transparent" points="300.5,-38.2 300.5,-143.2 388.5,-143.2 388.5,-38.2 300.5,-38.2"/>
<polygon fill="#f5f5f5" stroke="transparent" points="300.5,-119.7 300.5,-142.7 388.5,-142.7 388.5,-119.7 300.5,-119.7"/>
<polygon fill="none" stroke="#000000" points="300.5,-119.7 300.5,-142.7 388.5,-142.7 388.5,-119.7 300.5,-119.7"/>
<text text-anchor="start" x="305.5" y="-128.3" font-family="Helvetica,sans-Serif" font-weight="bold" font-size="11.00" fill="#000000">client</text>
<text text-anchor="start" x="353.5437" y="-127.8" font-family="Helvetica,sans-Serif" font-size="11.00" fill="#000000">[table]</text>
<polygon fill="none" stroke="#000000" points="300.5,-97.7 300.5,-119.7 388.5,-119.7 388.5,-97.7 300.5,-97.7"/>
<image xlink:href="../../images/primaryKeys.png" width="11px" height="12px" preserveAspectRatio="xMinYMin meet" x="305.5" y="-114.7"/>
<text text-anchor="start" x="320.5" y="-104.8" font-family="Helvetica,sans-Serif" font-size="11.00" fill="#000000">user_id</text>
<polygon fill="#ffffff" stroke="transparent" points="300.5,-75.7 300.5,-97.7 388.5,-97.7 388.5,-75.7 300.5,-75.7"/>
<polygon fill="none" stroke="#000000" points="300.5,-75.7 300.5,-97.7 388.5,-97.7 388.5,-75.7 300.5,-75.7"/>
<image xlink:href="../../images/foreignKeys.png" width="11px" height="12px" preserveAspectRatio="xMinYMin meet" x="305.5" y="-92.7"/>
<text text-anchor="start" x="320.5" y="-82.8" font-family="Helvetica,sans-Serif" font-size="11.00" fill="#000000">district_id</text>
<polygon fill="none" stroke="#000000" points="300.5,-56.7 300.5,-75.7 388.5,-75.7 388.5,-56.7 300.5,-56.7"/>
<text text-anchor="start" x="303.5" y="-62.8" font-family="Helvetica,sans-Serif" font-size="11.00" fill="#000000">...</text>
<polygon fill="#ffffff" stroke="transparent" points="300.5,-37.7 300.5,-56.7 325.5,-56.7 325.5,-37.7 300.5,-37.7"/>
<polygon fill="none" stroke="#000000" points="300.5,-37.7 300.5,-56.7 325.5,-56.7 325.5,-37.7 300.5,-37.7"/>
<text text-anchor="start" x="303.5" y="-43.8" font-family="Helvetica,sans-Serif" font-size="11.00" fill="#000000">&lt; 2</text>
<polygon fill="#ffffff" stroke="transparent" points="325.5,-37.7 325.5,-56.7 365.5,-56.7 365.5,-37.7 325.5,-37.7"/>
<polygon fill="none" stroke="#000000" points="325.5,-37.7 325.5,-56.7 365.5,-56.7 365.5,-37.7 325.5,-37.7"/>
<text text-anchor="start" x="330.1105" y="-43.8" font-family="Helvetica,sans-Serif" font-size="11.00" fill="#000000">0 rows</text>
<polygon fill="#ffffff" stroke="transparent" points="365.5,-37.7 365.5,-56.7 388.5,-56.7 388.5,-37.7 365.5,-37.7"/>
<polygon fill="none" stroke="#000000" points="365.5,-37.7 365.5,-56.7 388.5,-56.7 388.5,-37.7 365.5,-37.7"/>
<text text-anchor="start" x="369.9053" y="-43.8" font-family="Helvetica,sans-Serif" font-size="11.00" fill="#000000">2 &gt;</text>
</a>
</g>
</g>
<!-- client&#45;&gt;user -->
<g id="edge3" class="edge">
<title>client:w&#45;&gt;user:e</title>
<path fill="none" stroke="#000000" d="M289.7278,-109.1654C260.1532,-111.9095 248.8946,-126.7858 228,-153.7 189.4258,-203.3872 248.403,-288.7 185.5,-288.7"/>
<polygon fill="#000000" stroke="#000000" points="299.5281,-104.7383 299.8734,-112.7308 298.2749,-112.7999 297.9296,-104.8073 299.5281,-104.7383"/>
<polyline fill="none" stroke="#000000" points="300.5,-108.7 296.5037,-108.8727 "/>
<ellipse fill="none" stroke="#000000" cx="293.3067" cy="-109.0108" rx="3.2" ry="3.2"/>
</g>
<!-- district -->
<g id="node4" class="node">
<title>district</title>
<g id="a_node4"><a xlink:href="../../tables/district.html" xlink:title="district" target="_top">
<polygon fill="#ffffff" stroke="transparent" points="54,-59.2 54,-120.2 141,-120.2 141,-59.2 54,-59.2"/>
<polygon fill="#f5f5f5" stroke="transparent" points="54.5,-96.7 54.5,-119.7 141.5,-119.7 141.5,-96.7 54.5,-96.7"/>
<polygon fill="none" stroke="#000000" points="54.5,-96.7 54.5,-119.7 141.5,-119.7 141.5,-96.7 54.5,-96.7"/>
<text text-anchor="start" x="59.5" y="-105.3" font-family="Helvetica,sans-Serif" font-weight="bold" font-size="11.00" fill="#000000">district</text>
<text text-anchor="start" x="107.0219" y="-104.8" font-family="Helvetica,sans-Serif" font-size="11.00" fill="#000000">[table]</text>
<polygon fill="none" stroke="#000000" points="54.5,-77.7 54.5,-96.7 141.5,-96.7 141.5,-77.7 54.5,-77.7"/>
<text text-anchor="start" x="57.5" y="-83.8" font-family="Helvetica,sans-Serif" font-size="11.00" fill="#000000">...</text>
<polygon fill="#ffffff" stroke="transparent" points="54.5,-58.7 54.5,-77.7 74.5,-77.7 74.5,-58.7 54.5,-58.7"/>
<polygon fill="none" stroke="#000000" points="54.5,-58.7 54.5,-77.7 74.5,-77.7 74.5,-58.7 54.5,-58.7"/>
<text text-anchor="start" x="57.5" y="-64.8" font-family="Helvetica,sans-Serif" font-size="11.00" fill="#000000"> &#160;</text>
<polygon fill="#ffffff" stroke="transparent" points="74.5,-58.7 74.5,-77.7 116.5,-77.7 116.5,-58.7 74.5,-58.7"/>
<polygon fill="none" stroke="#000000" points="74.5,-58.7 74.5,-77.7 116.5,-77.7 116.5,-58.7 74.5,-58.7"/>
<text text-anchor="start" x="81.1105" y="-64.8" font-family="Helvetica,sans-Serif" font-size="11.00" fill="#000000">0 rows</text>
<polygon fill="#ffffff" stroke="transparent" points="116.5,-58.7 116.5,-77.7 141.5,-77.7 141.5,-58.7 116.5,-58.7"/>
<polygon fill="none" stroke="#000000" points="116.5,-58.7 116.5,-77.7 141.5,-77.7 141.5,-58.7 116.5,-58.7"/>
<text text-anchor="start" x="122.9053" y="-64.8" font-family="Helvetica,sans-Serif" font-size="11.00" fill="#000000">2 &gt;</text>
</a>
</g>
</g>
<!-- client&#45;&gt;district -->
<g id="edge2" class="edge">
<title>client:w&#45;&gt;district:e</title>
<path fill="none" stroke="#000000" d="M285.97,-86.7C227.0032,-86.7 207.0599,-86.7 141.5,-86.7"/>
<polygon fill="#000000" stroke="#000000" points="292.5,-86.7001 300.5,-90.3 296.5,-86.7 300.5,-86.7 300.5,-86.7 300.5,-86.7 296.5,-86.7 300.5,-83.1 292.5,-86.7001 292.5,-86.7001"/>
<ellipse fill="none" stroke="#000000" cx="289.3" cy="-86.7001" rx="3.2" ry="3.2"/>
</g>
<!-- comment -->
<g id="node5" class="node">
<title>comment</title>
<g id="a_node5"><a xlink:href="../../tables/comment.html" xlink:title="comment" target="_top">
<polygon fill="#ffffff" stroke="transparent" points="635,-194.2 635,-343.2 788,-343.2 788,-194.2 635,-194.2"/>
<polygon fill="#f5f5f5" stroke="transparent" points="635.5,-319.7 635.5,-342.7 788.5,-342.7 788.5,-319.7 635.5,-319.7"/>
<polygon fill="none" stroke="#000000" points="635.5,-319.7 635.5,-342.7 788.5,-342.7 788.5,-319.7 635.5,-319.7"/>
<text text-anchor="start" x="640.5" y="-328.3" font-family="Helvetica,sans-Serif" font-weight="bold" font-size="11.00" fill="#000000">comment</text>
<text text-anchor="start" x="753.5437" y="-327.8" font-family="Helvetica,sans-Serif" font-size="11.00" fill="#000000">[table]</text>
<polygon fill="none" stroke="#000000" points="635.5,-297.7 635.5,-319.7 788.5,-319.7 788.5,-297.7 635.5,-297.7"/>
<image xlink:href="../../images/primaryKeys.png" width="11px" height="12px" preserveAspectRatio="xMinYMin meet" x="640.5" y="-314.7"/>
<text text-anchor="start" x="655.5" y="-304.8" font-family="Helvetica,sans-Serif" font-size="11.00" fill="#000000">comment_id</text>
<polygon fill="#ffffff" stroke="transparent" points="635.5,-275.7 635.5,-297.7 788.5,-297.7 788.5,-275.7 635.5,-275.7"/>
<polygon fill="none" stroke="#000000" points="635.5,-275.7 635.5,-297.7 788.5,-297.7 788.5,-275.7 635.5,-275.7"/>
<image xlink:href="../../images/foreignKeys.png" width="11px" height="12px" preserveAspectRatio="xMinYMin meet" x="640.5" y="-292.7"/>
<text text-anchor="start" x="655.5" y="-282.8" font-family="Helvetica,sans-Serif" font-size="11.00" fill="#000000">parent_comment_id</text>
<polygon fill="#ffffff" stroke="transparent" points="635.5,-253.7 635.5,-275.7 788.5,-275.7 788.5,-253.7 635.5,-253.7"/>
<polygon fill="none" stroke="#000000" points="635.5,-253.7 635.5,-275.7 788.5,-275.7 788.5,-253.7 635.5,-253.7"/>
<image xlink:href="../../images/foreignKeys.png" width="11px" height="12px" preserveAspectRatio="xMinYMin meet" x="640.5" y="-270.7"/>
<text text-anchor="start" x="655.5" y="-260.8" font-family="Helvetica,sans-Serif" font-size="11.00" fill="#000000">user_id</text>
<polygon fill="#ffffff" stroke="transparent" points="635.5,-231.7 635.5,-253.7 788.5,-253.7 788.5,-231.7 635.5,-231.7"/>
<polygon fill="none" stroke="#000000" points="635.5,-231.7 635.5,-253.7 788.5,-253.7 788.5,-231.7 635.5,-231.7"/>
<image xlink:href="../../images/foreignKeys.png" width="11px" height="12px" preserveAspectRatio="xMinYMin meet" x="640.5" y="-248.7"/>
<text text-anchor="start" x="655.5" y="-238.8" font-family="Helvetica,sans-Serif" font-size="11.00" fill="#000000">review_id</text>
<polygon fill="none" stroke="#000000" points="635.5,-212.7 635.5,-231.7 788.5,-231.7 788.5,-212.7 635.5,-212.7"/>
<text text-anchor="start" x="638.5" y="-218.8" font-family="Helvetica,sans-Serif" font-size="11.00" fill="#000000">...</text>
<polygon fill="#ffffff" stroke="transparent" points="635.5,-193.7 635.5,-212.7 692.5,-212.7 692.5,-193.7 635.5,-193.7"/>
<polygon fill="none" stroke="#000000" points="635.5,-193.7 635.5,-212.7 692.5,-212.7 692.5,-193.7 635.5,-193.7"/>
<text text-anchor="start" x="638.5" y="-199.8" font-family="Helvetica,sans-Serif" font-size="11.00" fill="#000000">&lt; 3</text>
<polygon fill="#ffffff" stroke="transparent" points="692.5,-193.7 692.5,-212.7 748.5,-212.7 748.5,-193.7 692.5,-193.7"/>
<polygon fill="none" stroke="#000000" points="692.5,-193.7 692.5,-212.7 748.5,-212.7 748.5,-193.7 692.5,-193.7"/>
<text text-anchor="start" x="713.1105" y="-199.8" font-family="Helvetica,sans-Serif" font-size="11.00" fill="#000000">0 rows</text>
<polygon fill="#ffffff" stroke="transparent" points="748.5,-193.7 748.5,-212.7 788.5,-212.7 788.5,-193.7 748.5,-193.7"/>
<polygon fill="none" stroke="#000000" points="748.5,-193.7 748.5,-212.7 788.5,-212.7 788.5,-193.7 748.5,-193.7"/>
<text text-anchor="start" x="769.9053" y="-199.8" font-family="Helvetica,sans-Serif" font-size="11.00" fill="#000000">1 &gt;</text>
</a>
</g>
</g>
<!-- comment&#45;&gt;user -->
<g id="edge5" class="edge">
<title>comment:w&#45;&gt;user:e</title>
<path fill="none" stroke="#000000" d="M620.7371,-264.8328C554.8821,-266.055 533.5451,-275.4001 461,-279.7 338.7049,-286.9487 308.0098,-288.7 185.5,-288.7"/>
<polygon fill="#000000" stroke="#000000" points="627.5003,-264.772 635.5324,-268.2999 631.5002,-264.736 635.5,-264.7 635.5,-264.7 635.5,-264.7 631.5002,-264.736 635.4676,-261.1001 627.5003,-264.772 627.5003,-264.772"/>
<ellipse fill="none" stroke="#000000" cx="624.3005" cy="-264.8008" rx="3.2" ry="3.2"/>
</g>
<!-- review -->
<g id="node6" class="node">
<title>review</title>
<g id="a_node6"><a xlink:href="../../tables/review.html" xlink:title="review" target="_top">
<polygon fill="#ffffff" stroke="transparent" points="502,-186.2 502,-247.2 586,-247.2 586,-186.2 502,-186.2"/>
<polygon fill="#f5f5f5" stroke="transparent" points="502,-223.7 502,-246.7 586,-246.7 586,-223.7 502,-223.7"/>
<polygon fill="none" stroke="#000000" points="502,-223.7 502,-246.7 586,-246.7 586,-223.7 502,-223.7"/>
<text text-anchor="start" x="507" y="-232.3" font-family="Helvetica,sans-Serif" font-weight="bold" font-size="11.00" fill="#000000">review</text>
<text text-anchor="start" x="551.5219" y="-231.8" font-family="Helvetica,sans-Serif" font-size="11.00" fill="#000000">[table]</text>
<polygon fill="none" stroke="#000000" points="502,-204.7 502,-223.7 586,-223.7 586,-204.7 502,-204.7"/>
<text text-anchor="start" x="505" y="-210.8" font-family="Helvetica,sans-Serif" font-size="11.00" fill="#000000">...</text>
<polygon fill="#ffffff" stroke="transparent" points="502,-185.7 502,-204.7 525,-204.7 525,-185.7 502,-185.7"/>
<polygon fill="none" stroke="#000000" points="502,-185.7 502,-204.7 525,-204.7 525,-185.7 502,-185.7"/>
<text text-anchor="start" x="505" y="-191.8" font-family="Helvetica,sans-Serif" font-size="11.00" fill="#000000">&lt; 2</text>
<polygon fill="#ffffff" stroke="transparent" points="525,-185.7 525,-204.7 564,-204.7 564,-185.7 525,-185.7"/>
<polygon fill="none" stroke="#000000" points="525,-185.7 525,-204.7 564,-204.7 564,-185.7 525,-185.7"/>
<text text-anchor="start" x="528.6105" y="-191.8" font-family="Helvetica,sans-Serif" font-size="11.00" fill="#000000">0 rows</text>
<polygon fill="#ffffff" stroke="transparent" points="564,-185.7 564,-204.7 586,-204.7 586,-185.7 564,-185.7"/>
<polygon fill="none" stroke="#000000" points="564,-185.7 564,-204.7 586,-204.7 586,-185.7 564,-185.7"/>
<text text-anchor="start" x="567.4053" y="-191.8" font-family="Helvetica,sans-Serif" font-size="11.00" fill="#000000">1 &gt;</text>
</a>
</g>
</g>
<!-- comment&#45;&gt;review -->
<g id="edge4" class="edge">
<title>comment:w&#45;&gt;review:e</title>
<path fill="none" stroke="#000000" d="M621.3253,-238.6677C609.2205,-230.6993 605.5215,-213.7 586,-213.7"/>
<polygon fill="#000000" stroke="#000000" points="627.8053,-240.511 634.515,-246.1626 631.6526,-241.6055 635.5,-242.7 635.5,-242.7 635.5,-242.7 631.6526,-241.6055 636.485,-239.2374 627.8053,-240.511 627.8053,-240.511"/>
<ellipse fill="none" stroke="#000000" cx="624.7274" cy="-239.6354" rx="3.2" ry="3.2"/>
</g>
<!-- review&#45;&gt;client -->
<g id="edge8" class="edge">
<title>review:w&#45;&gt;client:e</title>
<path fill="none" stroke="#000000" d="M487.8136,-209.784C473.9695,-199.5705 479.777,-171.6692 461,-153.7 433.6004,-127.4791 426.4246,-108.7 388.5,-108.7"/>
<polygon fill="#000000" stroke="#000000" points="494.2884,-211.5713 501.0421,-217.1702 498.1442,-212.6356 502,-213.7 502,-213.7 502,-213.7 498.1442,-212.6356 502.9579,-210.2298 494.2884,-211.5713 494.2884,-211.5713"/>
<ellipse fill="none" stroke="#000000" cx="491.2038" cy="-210.7198" rx="3.2" ry="3.2"/>
</g>
<!-- order -->
<g id="node7" class="node">
<title>order</title>
<g id="a_node7"><a xlink:href="../../tables/order.html" xlink:title="order" target="_top">
<polygon fill="#ffffff" stroke="transparent" points="504,-81.2 504,-142.2 584,-142.2 584,-81.2 504,-81.2"/>
<polygon fill="#f5f5f5" stroke="transparent" points="504,-118.7 504,-141.7 584,-141.7 584,-118.7 504,-118.7"/>
<polygon fill="none" stroke="#000000" points="504,-118.7 504,-141.7 584,-141.7 584,-118.7 504,-118.7"/>
<text text-anchor="start" x="509" y="-127.3" font-family="Helvetica,sans-Serif" font-weight="bold" font-size="11.00" fill="#000000">order</text>
<text text-anchor="start" x="549.0437" y="-126.8" font-family="Helvetica,sans-Serif" font-size="11.00" fill="#000000">[table]</text>
<polygon fill="none" stroke="#000000" points="504,-99.7 504,-118.7 584,-118.7 584,-99.7 504,-99.7"/>
<text text-anchor="start" x="507" y="-105.8" font-family="Helvetica,sans-Serif" font-size="11.00" fill="#000000">...</text>
<polygon fill="#ffffff" stroke="transparent" points="504,-80.7 504,-99.7 525,-99.7 525,-80.7 504,-80.7"/>
<polygon fill="none" stroke="#000000" points="504,-80.7 504,-99.7 525,-99.7 525,-80.7 504,-80.7"/>
<text text-anchor="start" x="506.7027" y="-86.8" font-family="Helvetica,sans-Serif" font-size="11.00" fill="#000000">&lt; 2</text>
<polygon fill="#ffffff" stroke="transparent" points="525,-80.7 525,-99.7 563,-99.7 563,-80.7 525,-80.7"/>
<polygon fill="none" stroke="#000000" points="525,-80.7 525,-99.7 563,-99.7 563,-80.7 525,-80.7"/>
<text text-anchor="start" x="527.8053" y="-86.8" font-family="Helvetica,sans-Serif" font-size="11.00" fill="#000000">0 rows</text>
<polygon fill="#ffffff" stroke="transparent" points="563,-80.7 563,-99.7 584,-99.7 584,-80.7 563,-80.7"/>
<polygon fill="none" stroke="#000000" points="563,-80.7 563,-99.7 584,-99.7 584,-80.7 563,-80.7"/>
<text text-anchor="start" x="565.7026" y="-86.8" font-family="Helvetica,sans-Serif" font-size="11.00" fill="#000000">1 &gt;</text>
</a>
</g>
</g>
<!-- order&#45;&gt;client -->
<g id="edge6" class="edge">
<title>order:w&#45;&gt;client:e</title>
<path fill="none" stroke="#000000" d="M489.4701,-108.7C449.6628,-108.7 434.6198,-108.7 388.5,-108.7"/>
<polygon fill="#000000" stroke="#000000" points="496,-108.7001 504,-112.3 500,-108.7 504,-108.7 504,-108.7 504,-108.7 500,-108.7 504,-105.1 496,-108.7001 496,-108.7001"/>
<ellipse fill="none" stroke="#000000" cx="492.8" cy="-108.7001" rx="3.2" ry="3.2"/>
</g>
<!-- password_change_request -->
<g id="node8" class="node">
<title>password_change_request</title>
<g id="a_node8"><a xlink:href="../../tables/password_change_request.html" xlink:title="password_change_request" target="_top">
<polygon fill="#ffffff" stroke="transparent" points="236,-164.2 236,-269.2 453,-269.2 453,-164.2 236,-164.2"/>
<polygon fill="#f5f5f5" stroke="transparent" points="236.5,-245.7 236.5,-268.7 453.5,-268.7 453.5,-245.7 236.5,-245.7"/>
<polygon fill="none" stroke="#000000" points="236.5,-245.7 236.5,-268.7 453.5,-268.7 453.5,-245.7 236.5,-245.7"/>
<text text-anchor="start" x="241.5" y="-254.3" font-family="Helvetica,sans-Serif" font-weight="bold" font-size="11.00" fill="#000000">password_change_request</text>
<text text-anchor="start" x="419.0219" y="-253.8" font-family="Helvetica,sans-Serif" font-size="11.00" fill="#000000">[table]</text>
<polygon fill="none" stroke="#000000" points="236.5,-223.7 236.5,-245.7 453.5,-245.7 453.5,-223.7 236.5,-223.7"/>
<image xlink:href="../../images/primaryKeys.png" width="11px" height="12px" preserveAspectRatio="xMinYMin meet" x="241.5" y="-240.7"/>
<text text-anchor="start" x="265.5" y="-230.8" font-family="Helvetica,sans-Serif" font-size="11.00" fill="#000000">request_id</text>
<polygon fill="#ffffff" stroke="transparent" points="236.5,-201.7 236.5,-223.7 453.5,-223.7 453.5,-201.7 236.5,-201.7"/>
<polygon fill="none" stroke="#000000" points="236.5,-201.7 236.5,-223.7 453.5,-223.7 453.5,-201.7 236.5,-201.7"/>
<image xlink:href="../../images/foreignKeys.png" width="11px" height="12px" preserveAspectRatio="xMinYMin meet" x="241.5" y="-218.7"/>
<text text-anchor="start" x="265.5" y="-208.8" font-family="Helvetica,sans-Serif" font-size="11.00" fill="#000000">user_id</text>
<polygon fill="none" stroke="#000000" points="236.5,-182.7 236.5,-201.7 453.5,-201.7 453.5,-182.7 236.5,-182.7"/>
<text text-anchor="start" x="239.5" y="-188.8" font-family="Helvetica,sans-Serif" font-size="11.00" fill="#000000">...</text>
<polygon fill="#ffffff" stroke="transparent" points="236.5,-163.7 236.5,-182.7 330.5,-182.7 330.5,-163.7 236.5,-163.7"/>
<polygon fill="none" stroke="#000000" points="236.5,-163.7 236.5,-182.7 330.5,-182.7 330.5,-163.7 236.5,-163.7"/>
<text text-anchor="start" x="239.5" y="-169.8" font-family="Helvetica,sans-Serif" font-size="11.00" fill="#000000">&lt; 1</text>
<polygon fill="#ffffff" stroke="transparent" points="330.5,-163.7 330.5,-182.7 404.5,-182.7 404.5,-163.7 330.5,-163.7"/>
<polygon fill="none" stroke="#000000" points="330.5,-163.7 330.5,-182.7 404.5,-182.7 404.5,-163.7 330.5,-163.7"/>
<text text-anchor="start" x="369.1105" y="-169.8" font-family="Helvetica,sans-Serif" font-size="11.00" fill="#000000">0 rows</text>
<polygon fill="#ffffff" stroke="transparent" points="404.5,-163.7 404.5,-182.7 453.5,-182.7 453.5,-163.7 404.5,-163.7"/>
<polygon fill="none" stroke="#000000" points="404.5,-163.7 404.5,-182.7 453.5,-182.7 453.5,-163.7 404.5,-163.7"/>
<text text-anchor="start" x="444.3862" y="-169.8" font-family="Helvetica,sans-Serif" font-size="11.00" fill="#000000"> &#160;</text>
</a>
</g>
</g>
<!-- password_change_request&#45;&gt;user -->
<g id="edge7" class="edge">
<title>password_change_request:w&#45;&gt;user:e</title>
<path fill="none" stroke="#000000" d="M222.6163,-217.2265C203.2687,-233.5879 220.14,-288.7 185.5,-288.7"/>
<polygon fill="#000000" stroke="#000000" points="228.894,-215.1798 237.6159,-216.1227 232.697,-213.9399 236.5,-212.7 236.5,-212.7 236.5,-212.7 232.697,-213.9399 235.3841,-209.2773 228.894,-215.1798 228.894,-215.1798"/>
<ellipse fill="none" stroke="#000000" cx="225.8517" cy="-216.1718" rx="3.2" ry="3.2"/>
</g>
</g>
</svg>
