<?xml version="1.0" encoding="UTF-8" standalone="no"?>
<!DOCTYPE svg PUBLIC "-//W3C//DTD SVG 1.1//EN"
 "http://www.w3.org/Graphics/SVG/1.1/DTD/svg11.dtd">
<!-- Generated by graphviz version 2.40.1 (20161225.0304)
 -->
<!-- Title: compactRelationshipsDiagram Pages: 1 -->
<svg width="787pt" height="735pt"
 viewBox="0.00 0.00 787.00 735.03" xmlns="http://www.w3.org/2000/svg" xmlns:xlink="http://www.w3.org/1999/xlink">
<g id="graph0" class="graph" transform="scale(1 1) rotate(0) translate(4 731.0284)">
<title>compactRelationshipsDiagram</title>
<polygon fill="#ffffff" stroke="transparent" points="-4,4 -4,-731.0284 783.0039,-731.0284 783.0039,4 -4,4"/>
<text text-anchor="middle" x="72.4936" y="-7.3" font-family="Helvetica,sans-Serif" font-size="11.00" fill="#000000">Generated by SchemaSpy</text>
<!-- administrator -->
<g id="node1" class="node">
<title>administrator</title>
<g id="a_node1"><a xlink:href="../../tables/administrator.html" xlink:title="administrator" target="_top">
<polygon fill="#ffffff" stroke="transparent" points="192,-640.0284 192,-723.0284 323,-723.0284 323,-640.0284 192,-640.0284"/>
<polygon fill="#f5f5f5" stroke="transparent" points="192.5,-699.5284 192.5,-722.5284 323.5,-722.5284 323.5,-699.5284 192.5,-699.5284"/>
<polygon fill="none" stroke="#000000" points="192.5,-699.5284 192.5,-722.5284 323.5,-722.5284 323.5,-699.5284 192.5,-699.5284"/>
<text text-anchor="start" x="197.5" y="-708.1284" font-family="Helvetica,sans-Serif" font-weight="bold" font-size="11.00" fill="#000000">administrator</text>
<text text-anchor="start" x="289.0219" y="-707.6284" font-family="Helvetica,sans-Serif" font-size="11.00" fill="#000000">[table]</text>
<polygon fill="none" stroke="#000000" points="192.5,-677.5284 192.5,-699.5284 323.5,-699.5284 323.5,-677.5284 192.5,-677.5284"/>
<image xlink:href="../../images/primaryKeys.png" width="11px" height="12px" preserveAspectRatio="xMinYMin meet" x="197.5" y="-694.528"/>
<text text-anchor="start" x="216.5" y="-684.6284" font-family="Helvetica,sans-Serif" font-size="11.00" fill="#000000">user_id</text>
<polygon fill="none" stroke="#000000" points="192.5,-658.5284 192.5,-677.5284 323.5,-677.5284 323.5,-658.5284 192.5,-658.5284"/>
<text text-anchor="start" x="195.5" y="-664.6284" font-family="Helvetica,sans-Serif" font-size="11.00" fill="#000000">...</text>
<polygon fill="#ffffff" stroke="transparent" points="192.5,-639.5284 192.5,-658.5284 243.5,-658.5284 243.5,-639.5284 192.5,-639.5284"/>
<polygon fill="none" stroke="#000000" points="192.5,-639.5284 192.5,-658.5284 243.5,-658.5284 243.5,-639.5284 192.5,-639.5284"/>
<text text-anchor="start" x="195.5" y="-645.6284" font-family="Helvetica,sans-Serif" font-size="11.00" fill="#000000">&lt; 1</text>
<polygon fill="#ffffff" stroke="transparent" points="243.5,-639.5284 243.5,-658.5284 296.5,-658.5284 296.5,-639.5284 243.5,-639.5284"/>
<polygon fill="none" stroke="#000000" points="243.5,-639.5284 243.5,-658.5284 296.5,-658.5284 296.5,-639.5284 243.5,-639.5284"/>
<text text-anchor="start" x="261.1105" y="-645.6284" font-family="Helvetica,sans-Serif" font-size="11.00" fill="#000000">0 rows</text>
<polygon fill="#ffffff" stroke="transparent" points="296.5,-639.5284 296.5,-658.5284 323.5,-658.5284 323.5,-639.5284 296.5,-639.5284"/>
<polygon fill="none" stroke="#000000" points="296.5,-639.5284 296.5,-658.5284 323.5,-658.5284 323.5,-639.5284 296.5,-639.5284"/>
<text text-anchor="start" x="314.3862" y="-645.6284" font-family="Helvetica,sans-Serif" font-size="11.00" fill="#000000"> &#160;</text>
</a>
</g>
</g>
<!-- user -->
<g id="node10" class="node">
<title>user</title>
<g id="a_node10"><a xlink:href="../../tables/user.html" xlink:title="user" target="_top">
<polygon fill="#ffffff" stroke="transparent" points="8,-455.0284 8,-560.0284 100,-560.0284 100,-455.0284 8,-455.0284"/>
<polygon fill="#f5f5f5" stroke="transparent" points="8,-536.5284 8,-559.5284 100,-559.5284 100,-536.5284 8,-536.5284"/>
<polygon fill="none" stroke="#000000" points="8,-536.5284 8,-559.5284 100,-559.5284 100,-536.5284 8,-536.5284"/>
<text text-anchor="start" x="13" y="-545.1284" font-family="Helvetica,sans-Serif" font-weight="bold" font-size="11.00" fill="#000000">user</text>
<text text-anchor="start" x="65.0437" y="-544.6284" font-family="Helvetica,sans-Serif" font-size="11.00" fill="#000000">[table]</text>
<polygon fill="none" stroke="#000000" points="8,-514.5284 8,-536.5284 100,-536.5284 100,-514.5284 8,-514.5284"/>
<image xlink:href="../../images/primaryKeys.png" width="11px" height="12px" preserveAspectRatio="xMinYMin meet" x="13" y="-531.528"/>
<text text-anchor="start" x="28" y="-521.6284" font-family="Helvetica,sans-Serif" font-size="11.00" fill="#000000">user_id</text>
<polygon fill="#ffffff" stroke="transparent" points="8,-492.5284 8,-514.5284 100,-514.5284 100,-492.5284 8,-492.5284"/>
<polygon fill="none" stroke="#000000" points="8,-492.5284 8,-514.5284 100,-514.5284 100,-492.5284 8,-492.5284"/>
<text text-anchor="start" x="28" y="-499.6284" font-family="Helvetica,sans-Serif" font-size="11.00" fill="#000000">email</text>
<polygon fill="none" stroke="#000000" points="8,-473.5284 8,-492.5284 100,-492.5284 100,-473.5284 8,-473.5284"/>
<text text-anchor="start" x="11" y="-479.6284" font-family="Helvetica,sans-Serif" font-size="11.00" fill="#000000">...</text>
<polygon fill="#ffffff" stroke="transparent" points="8,-454.5284 8,-473.5284 30,-473.5284 30,-454.5284 8,-454.5284"/>
<polygon fill="none" stroke="#000000" points="8,-454.5284 8,-473.5284 30,-473.5284 30,-454.5284 8,-454.5284"/>
<text text-anchor="start" x="11" y="-460.6284" font-family="Helvetica,sans-Serif" font-size="11.00" fill="#000000"> &#160;</text>
<polygon fill="#ffffff" stroke="transparent" points="30,-454.5284 30,-473.5284 73,-473.5284 73,-454.5284 30,-454.5284"/>
<polygon fill="none" stroke="#000000" points="30,-454.5284 30,-473.5284 73,-473.5284 73,-454.5284 30,-454.5284"/>
<text text-anchor="start" x="37.6105" y="-460.6284" font-family="Helvetica,sans-Serif" font-size="11.00" fill="#000000">0 rows</text>
<polygon fill="#ffffff" stroke="transparent" points="73,-454.5284 73,-473.5284 100,-473.5284 100,-454.5284 73,-454.5284"/>
<polygon fill="none" stroke="#000000" points="73,-454.5284 73,-473.5284 100,-473.5284 100,-454.5284 73,-454.5284"/>
<text text-anchor="start" x="81.4053" y="-460.6284" font-family="Helvetica,sans-Serif" font-size="11.00" fill="#000000">4 &gt;</text>
</a>
</g>
</g>
<!-- administrator&#45;&gt;user -->
<g id="edge1" class="edge">
<title>administrator:w&#45;&gt;user:e</title>
<path fill="none" stroke="#000000" d="M181.984,-687.4436C157.7599,-681.8921 157.0419,-655.8956 141,-629.5284 115.1758,-587.0825 149.6844,-525.5284 100,-525.5284"/>
<polygon fill="#000000" stroke="#000000" points="192.1147,-684.4674 191.2938,-692.4252 189.7022,-692.261 190.5231,-684.3032 192.1147,-684.4674"/>
<polyline fill="none" stroke="#000000" points="192.5,-688.5284 188.5211,-688.1179 "/>
<ellipse fill="none" stroke="#000000" cx="185.338" cy="-687.7895" rx="3.2" ry="3.2"/>
</g>
<!-- district -->
<g id="node2" class="node">
<title>district</title>
<g id="a_node2"><a xlink:href="../../tables/district.html" xlink:title="district" target="_top">
<polygon fill="#ffffff" stroke="transparent" points="10,-263.5284 10,-349.5284 98,-349.5284 98,-263.5284 10,-263.5284"/>
<polygon fill="#f5f5f5" stroke="transparent" points="10,-326.5284 10,-349.5284 98,-349.5284 98,-326.5284 10,-326.5284"/>
<polygon fill="none" stroke="#000000" points="10,-326.5284 10,-349.5284 98,-349.5284 98,-326.5284 10,-326.5284"/>
<text text-anchor="start" x="15" y="-335.1284" font-family="Helvetica,sans-Serif" font-weight="bold" font-size="11.00" fill="#000000">district</text>
<text text-anchor="start" x="63.5219" y="-334.6284" font-family="Helvetica,sans-Serif" font-size="11.00" fill="#000000">[table]</text>
<polygon fill="none" stroke="#000000" points="10,-304.5284 10,-326.5284 98,-326.5284 98,-304.5284 10,-304.5284"/>
<image xlink:href="../../images/primaryKeys.png" width="11px" height="12px" preserveAspectRatio="xMinYMin meet" x="15" y="-321.528"/>
<text text-anchor="start" x="30" y="-311.6284" font-family="Helvetica,sans-Serif" font-size="11.00" fill="#000000">district_id</text>
<polygon fill="#ffffff" stroke="transparent" points="10,-282.5284 10,-304.5284 98,-304.5284 98,-282.5284 10,-282.5284"/>
<polygon fill="none" stroke="#000000" points="10,-282.5284 10,-304.5284 98,-304.5284 98,-282.5284 10,-282.5284"/>
<text text-anchor="start" x="30" y="-289.6284" font-family="Helvetica,sans-Serif" font-size="11.00" fill="#000000">name</text>
<polygon fill="#ffffff" stroke="transparent" points="10,-263.5284 10,-282.5284 30,-282.5284 30,-263.5284 10,-263.5284"/>
<polygon fill="none" stroke="#000000" points="10,-263.5284 10,-282.5284 30,-282.5284 30,-263.5284 10,-263.5284"/>
<text text-anchor="start" x="13" y="-269.6284" font-family="Helvetica,sans-Serif" font-size="11.00" fill="#000000"> &#160;</text>
<polygon fill="#ffffff" stroke="transparent" points="30,-263.5284 30,-282.5284 72,-282.5284 72,-263.5284 30,-263.5284"/>
<polygon fill="none" stroke="#000000" points="30,-263.5284 30,-282.5284 72,-282.5284 72,-263.5284 30,-263.5284"/>
<text text-anchor="start" x="36.6105" y="-269.6284" font-family="Helvetica,sans-Serif" font-size="11.00" fill="#000000">0 rows</text>
<polygon fill="#ffffff" stroke="transparent" points="72,-263.5284 72,-282.5284 98,-282.5284 98,-263.5284 72,-263.5284"/>
<polygon fill="none" stroke="#000000" points="72,-263.5284 72,-282.5284 98,-282.5284 98,-263.5284 72,-263.5284"/>
<text text-anchor="start" x="79.4053" y="-269.6284" font-family="Helvetica,sans-Serif" font-size="11.00" fill="#000000">2 &gt;</text>
</a>
</g>
</g>
<!-- order -->
<g id="node3" class="node">
<title>order</title>
<g id="a_node3"><a xlink:href="../../tables/order.html" xlink:title="order" target="_top">
<polygon fill="#ffffff" stroke="transparent" points="426.5,-190.0284 426.5,-317.0284 535.5,-317.0284 535.5,-190.0284 426.5,-190.0284"/>
<polygon fill="#f5f5f5" stroke="transparent" points="427,-293.5284 427,-316.5284 536,-316.5284 536,-293.5284 427,-293.5284"/>
<polygon fill="none" stroke="#000000" points="427,-293.5284 427,-316.5284 536,-316.5284 536,-293.5284 427,-293.5284"/>
<text text-anchor="start" x="432" y="-302.1284" font-family="Helvetica,sans-Serif" font-weight="bold" font-size="11.00" fill="#000000">order</text>
<text text-anchor="start" x="501.0437" y="-301.6284" font-family="Helvetica,sans-Serif" font-size="11.00" fill="#000000">[table]</text>
<polygon fill="none" stroke="#000000" points="427,-271.5284 427,-293.5284 536,-293.5284 536,-271.5284 427,-271.5284"/>
<image xlink:href="../../images/primaryKeys.png" width="11px" height="12px" preserveAspectRatio="xMinYMin meet" x="432" y="-288.528"/>
<text text-anchor="start" x="447" y="-278.6284" font-family="Helvetica,sans-Serif" font-size="11.00" fill="#000000">order_id</text>
<polygon fill="#ffffff" stroke="transparent" points="427,-249.5284 427,-271.5284 536,-271.5284 536,-249.5284 427,-249.5284"/>
<polygon fill="none" stroke="#000000" points="427,-249.5284 427,-271.5284 536,-271.5284 536,-249.5284 427,-249.5284"/>
<image xlink:href="../../images/foreignKeys.png" width="11px" height="12px" preserveAspectRatio="xMinYMin meet" x="432" y="-266.528"/>
<text text-anchor="start" x="447" y="-256.6284" font-family="Helvetica,sans-Serif" font-size="11.00" fill="#000000">client_id</text>
<polygon fill="#ffffff" stroke="transparent" points="427,-227.5284 427,-249.5284 536,-249.5284 536,-227.5284 427,-227.5284"/>
<polygon fill="none" stroke="#000000" points="427,-227.5284 427,-249.5284 536,-249.5284 536,-227.5284 427,-227.5284"/>
<image xlink:href="../../images/foreignKeys.png" width="11px" height="12px" preserveAspectRatio="xMinYMin meet" x="432" y="-244.528"/>
<text text-anchor="start" x="447" y="-234.6284" font-family="Helvetica,sans-Serif" font-size="11.00" fill="#000000">store_id</text>
<polygon fill="none" stroke="#000000" points="427,-208.5284 427,-227.5284 536,-227.5284 536,-208.5284 427,-208.5284"/>
<text text-anchor="start" x="430" y="-214.6284" font-family="Helvetica,sans-Serif" font-size="11.00" fill="#000000">...</text>
<polygon fill="#ffffff" stroke="transparent" points="427,-189.5284 427,-208.5284 462,-208.5284 462,-189.5284 427,-189.5284"/>
<polygon fill="none" stroke="#000000" points="427,-189.5284 427,-208.5284 462,-208.5284 462,-189.5284 427,-189.5284"/>
<text text-anchor="start" x="430" y="-195.6284" font-family="Helvetica,sans-Serif" font-size="11.00" fill="#000000">&lt; 2</text>
<polygon fill="#ffffff" stroke="transparent" points="462,-189.5284 462,-208.5284 507,-208.5284 507,-189.5284 462,-189.5284"/>
<polygon fill="none" stroke="#000000" points="462,-189.5284 462,-208.5284 507,-208.5284 507,-189.5284 462,-189.5284"/>
<text text-anchor="start" x="471.6105" y="-195.6284" font-family="Helvetica,sans-Serif" font-size="11.00" fill="#000000">0 rows</text>
<polygon fill="#ffffff" stroke="transparent" points="507,-189.5284 507,-208.5284 536,-208.5284 536,-189.5284 507,-189.5284"/>
<polygon fill="none" stroke="#000000" points="507,-189.5284 507,-208.5284 536,-208.5284 536,-189.5284 507,-189.5284"/>
<text text-anchor="start" x="517.4053" y="-195.6284" font-family="Helvetica,sans-Serif" font-size="11.00" fill="#000000">1 &gt;</text>
</a>
</g>
</g>
<!-- store -->
<g id="node5" class="node">
<title>store</title>
<g id="a_node5"><a xlink:href="../../tables/store.html" xlink:title="store" target="_top">
<polygon fill="#ffffff" stroke="transparent" points="211,-157.0284 211,-284.0284 304,-284.0284 304,-157.0284 211,-157.0284"/>
<polygon fill="#f5f5f5" stroke="transparent" points="211.5,-260.5284 211.5,-283.5284 304.5,-283.5284 304.5,-260.5284 211.5,-260.5284"/>
<polygon fill="none" stroke="#000000" points="211.5,-260.5284 211.5,-283.5284 304.5,-283.5284 304.5,-260.5284 211.5,-260.5284"/>
<text text-anchor="start" x="216.5" y="-269.1284" font-family="Helvetica,sans-Serif" font-weight="bold" font-size="11.00" fill="#000000">store</text>
<text text-anchor="start" x="269.5437" y="-268.6284" font-family="Helvetica,sans-Serif" font-size="11.00" fill="#000000">[table]</text>
<polygon fill="none" stroke="#000000" points="211.5,-238.5284 211.5,-260.5284 304.5,-260.5284 304.5,-238.5284 211.5,-238.5284"/>
<image xlink:href="../../images/primaryKeys.png" width="11px" height="12px" preserveAspectRatio="xMinYMin meet" x="216.5" y="-255.528"/>
<text text-anchor="start" x="231.5" y="-245.6284" font-family="Helvetica,sans-Serif" font-size="11.00" fill="#000000">store_id</text>
<polygon fill="#ffffff" stroke="transparent" points="211.5,-216.5284 211.5,-238.5284 304.5,-238.5284 304.5,-216.5284 211.5,-216.5284"/>
<polygon fill="none" stroke="#000000" points="211.5,-216.5284 211.5,-238.5284 304.5,-238.5284 304.5,-216.5284 211.5,-216.5284"/>
<text text-anchor="start" x="231.5" y="-223.6284" font-family="Helvetica,sans-Serif" font-size="11.00" fill="#000000">coordinate</text>
<polygon fill="#ffffff" stroke="transparent" points="211.5,-194.5284 211.5,-216.5284 304.5,-216.5284 304.5,-194.5284 211.5,-194.5284"/>
<polygon fill="none" stroke="#000000" points="211.5,-194.5284 211.5,-216.5284 304.5,-216.5284 304.5,-194.5284 211.5,-194.5284"/>
<image xlink:href="../../images/foreignKeys.png" width="11px" height="12px" preserveAspectRatio="xMinYMin meet" x="216.5" y="-211.528"/>
<text text-anchor="start" x="231.5" y="-201.6284" font-family="Helvetica,sans-Serif" font-size="11.00" fill="#000000">district_id</text>
<polygon fill="none" stroke="#000000" points="211.5,-175.5284 211.5,-194.5284 304.5,-194.5284 304.5,-175.5284 211.5,-175.5284"/>
<text text-anchor="start" x="214.5" y="-181.6284" font-family="Helvetica,sans-Serif" font-size="11.00" fill="#000000">...</text>
<polygon fill="#ffffff" stroke="transparent" points="211.5,-156.5284 211.5,-175.5284 238.5,-175.5284 238.5,-156.5284 211.5,-156.5284"/>
<polygon fill="none" stroke="#000000" points="211.5,-156.5284 211.5,-175.5284 238.5,-175.5284 238.5,-156.5284 211.5,-156.5284"/>
<text text-anchor="start" x="214.5" y="-162.6284" font-family="Helvetica,sans-Serif" font-size="11.00" fill="#000000">&lt; 1</text>
<polygon fill="#ffffff" stroke="transparent" points="238.5,-156.5284 238.5,-175.5284 279.5,-175.5284 279.5,-156.5284 238.5,-156.5284"/>
<polygon fill="none" stroke="#000000" points="238.5,-156.5284 238.5,-175.5284 279.5,-175.5284 279.5,-156.5284 238.5,-156.5284"/>
<text text-anchor="start" x="244.1105" y="-162.6284" font-family="Helvetica,sans-Serif" font-size="11.00" fill="#000000">0 rows</text>
<polygon fill="#ffffff" stroke="transparent" points="279.5,-156.5284 279.5,-175.5284 304.5,-175.5284 304.5,-156.5284 279.5,-156.5284"/>
<polygon fill="none" stroke="#000000" points="279.5,-156.5284 279.5,-175.5284 304.5,-175.5284 304.5,-156.5284 279.5,-156.5284"/>
<text text-anchor="start" x="285.9053" y="-162.6284" font-family="Helvetica,sans-Serif" font-size="11.00" fill="#000000">2 &gt;</text>
</a>
</g>
</g>
<!-- order&#45;&gt;store -->
<g id="edge8" class="edge">
<title>order:w&#45;&gt;store:e</title>
<path fill="none" stroke="#000000" d="M412.3729,-238.8114C369.4351,-240.5331 353.932,-249.5284 304.5,-249.5284"/>
<polygon fill="#000000" stroke="#000000" points="419.0015,-238.6832 427.0697,-242.1277 423.0007,-238.6058 427,-238.5284 427,-238.5284 427,-238.5284 423.0007,-238.6058 426.9303,-234.9291 419.0015,-238.6832 419.0015,-238.6832"/>
<ellipse fill="none" stroke="#000000" cx="415.8021" cy="-238.7451" rx="3.2" ry="3.2"/>
</g>
<!-- client -->
<g id="node11" class="node">
<title>client</title>
<g id="a_node11"><a xlink:href="../../tables/client.html" xlink:title="client" target="_top">
<polygon fill="#ffffff" stroke="transparent" points="213.5,-327.0284 213.5,-432.0284 301.5,-432.0284 301.5,-327.0284 213.5,-327.0284"/>
<polygon fill="#f5f5f5" stroke="transparent" points="213.5,-408.5284 213.5,-431.5284 301.5,-431.5284 301.5,-408.5284 213.5,-408.5284"/>
<polygon fill="none" stroke="#000000" points="213.5,-408.5284 213.5,-431.5284 301.5,-431.5284 301.5,-408.5284 213.5,-408.5284"/>
<text text-anchor="start" x="218.5" y="-417.1284" font-family="Helvetica,sans-Serif" font-weight="bold" font-size="11.00" fill="#000000">client</text>
<text text-anchor="start" x="266.5437" y="-416.6284" font-family="Helvetica,sans-Serif" font-size="11.00" fill="#000000">[table]</text>
<polygon fill="none" stroke="#000000" points="213.5,-386.5284 213.5,-408.5284 301.5,-408.5284 301.5,-386.5284 213.5,-386.5284"/>
<image xlink:href="../../images/primaryKeys.png" width="11px" height="12px" preserveAspectRatio="xMinYMin meet" x="218.5" y="-403.528"/>
<text text-anchor="start" x="233.5" y="-393.6284" font-family="Helvetica,sans-Serif" font-size="11.00" fill="#000000">user_id</text>
<polygon fill="#ffffff" stroke="transparent" points="213.5,-364.5284 213.5,-386.5284 301.5,-386.5284 301.5,-364.5284 213.5,-364.5284"/>
<polygon fill="none" stroke="#000000" points="213.5,-364.5284 213.5,-386.5284 301.5,-386.5284 301.5,-364.5284 213.5,-364.5284"/>
<image xlink:href="../../images/foreignKeys.png" width="11px" height="12px" preserveAspectRatio="xMinYMin meet" x="218.5" y="-381.528"/>
<text text-anchor="start" x="233.5" y="-371.6284" font-family="Helvetica,sans-Serif" font-size="11.00" fill="#000000">district_id</text>
<polygon fill="none" stroke="#000000" points="213.5,-345.5284 213.5,-364.5284 301.5,-364.5284 301.5,-345.5284 213.5,-345.5284"/>
<text text-anchor="start" x="216.5" y="-351.6284" font-family="Helvetica,sans-Serif" font-size="11.00" fill="#000000">...</text>
<polygon fill="#ffffff" stroke="transparent" points="213.5,-326.5284 213.5,-345.5284 238.5,-345.5284 238.5,-326.5284 213.5,-326.5284"/>
<polygon fill="none" stroke="#000000" points="213.5,-326.5284 213.5,-345.5284 238.5,-345.5284 238.5,-326.5284 213.5,-326.5284"/>
<text text-anchor="start" x="216.5" y="-332.6284" font-family="Helvetica,sans-Serif" font-size="11.00" fill="#000000">&lt; 2</text>
<polygon fill="#ffffff" stroke="transparent" points="238.5,-326.5284 238.5,-345.5284 278.5,-345.5284 278.5,-326.5284 238.5,-326.5284"/>
<polygon fill="none" stroke="#000000" points="238.5,-326.5284 238.5,-345.5284 278.5,-345.5284 278.5,-326.5284 238.5,-326.5284"/>
<text text-anchor="start" x="243.1105" y="-332.6284" font-family="Helvetica,sans-Serif" font-size="11.00" fill="#000000">0 rows</text>
<polygon fill="#ffffff" stroke="transparent" points="278.5,-326.5284 278.5,-345.5284 301.5,-345.5284 301.5,-326.5284 278.5,-326.5284"/>
<polygon fill="none" stroke="#000000" points="278.5,-326.5284 278.5,-345.5284 301.5,-345.5284 301.5,-326.5284 278.5,-326.5284"/>
<text text-anchor="start" x="282.9053" y="-332.6284" font-family="Helvetica,sans-Serif" font-size="11.00" fill="#000000">2 &gt;</text>
</a>
</g>
</g>
<!-- order&#45;&gt;client -->
<g id="edge7" class="edge">
<title>order:w&#45;&gt;client:e</title>
<path fill="none" stroke="#000000" d="M412.4912,-262.1624C349.0284,-277.6194 378.7527,-397.5284 301.5,-397.5284"/>
<polygon fill="#000000" stroke="#000000" points="419.0503,-261.4238 427.4029,-264.1058 423.0251,-260.9761 427,-260.5284 427,-260.5284 427,-260.5284 423.0251,-260.9761 426.5971,-256.951 419.0503,-261.4238 419.0503,-261.4238"/>
<ellipse fill="none" stroke="#000000" cx="415.8704" cy="-261.7819" rx="3.2" ry="3.2"/>
</g>
<!-- product -->
<g id="node4" class="node">
<title>product</title>
<g id="a_node4"><a xlink:href="../../tables/product.html" xlink:title="product" target="_top">
<polygon fill="#ffffff" stroke="transparent" points="203,-53.0284 203,-136.0284 312,-136.0284 312,-53.0284 203,-53.0284"/>
<polygon fill="#f5f5f5" stroke="transparent" points="203.5,-112.5284 203.5,-135.5284 312.5,-135.5284 312.5,-112.5284 203.5,-112.5284"/>
<polygon fill="none" stroke="#000000" points="203.5,-112.5284 203.5,-135.5284 312.5,-135.5284 312.5,-112.5284 203.5,-112.5284"/>
<text text-anchor="start" x="208.5" y="-121.1284" font-family="Helvetica,sans-Serif" font-weight="bold" font-size="11.00" fill="#000000">product</text>
<text text-anchor="start" x="277.5437" y="-120.6284" font-family="Helvetica,sans-Serif" font-size="11.00" fill="#000000">[table]</text>
<polygon fill="none" stroke="#000000" points="203.5,-90.5284 203.5,-112.5284 312.5,-112.5284 312.5,-90.5284 203.5,-90.5284"/>
<image xlink:href="../../images/primaryKeys.png" width="11px" height="12px" preserveAspectRatio="xMinYMin meet" x="208.5" y="-107.528"/>
<text text-anchor="start" x="223.5" y="-97.6284" font-family="Helvetica,sans-Serif" font-size="11.00" fill="#000000">product_id</text>
<polygon fill="none" stroke="#000000" points="203.5,-71.5284 203.5,-90.5284 312.5,-90.5284 312.5,-71.5284 203.5,-71.5284"/>
<text text-anchor="start" x="206.5" y="-77.6284" font-family="Helvetica,sans-Serif" font-size="11.00" fill="#000000">...</text>
<polygon fill="#ffffff" stroke="transparent" points="203.5,-52.5284 203.5,-71.5284 234.5,-71.5284 234.5,-52.5284 203.5,-52.5284"/>
<polygon fill="none" stroke="#000000" points="203.5,-52.5284 203.5,-71.5284 234.5,-71.5284 234.5,-52.5284 203.5,-52.5284"/>
<text text-anchor="start" x="206.5" y="-58.6284" font-family="Helvetica,sans-Serif" font-size="11.00" fill="#000000"> &#160;</text>
<polygon fill="#ffffff" stroke="transparent" points="234.5,-52.5284 234.5,-71.5284 281.5,-71.5284 281.5,-52.5284 234.5,-52.5284"/>
<polygon fill="none" stroke="#000000" points="234.5,-52.5284 234.5,-71.5284 281.5,-71.5284 281.5,-52.5284 234.5,-52.5284"/>
<text text-anchor="start" x="246.1105" y="-58.6284" font-family="Helvetica,sans-Serif" font-size="11.00" fill="#000000">0 rows</text>
<polygon fill="#ffffff" stroke="transparent" points="281.5,-52.5284 281.5,-71.5284 312.5,-71.5284 312.5,-52.5284 281.5,-52.5284"/>
<polygon fill="none" stroke="#000000" points="281.5,-52.5284 281.5,-71.5284 312.5,-71.5284 312.5,-52.5284 281.5,-52.5284"/>
<text text-anchor="start" x="293.9053" y="-58.6284" font-family="Helvetica,sans-Serif" font-size="11.00" fill="#000000">3 &gt;</text>
</a>
</g>
</g>
<!-- store&#45;&gt;district -->
<g id="edge14" class="edge">
<title>store:w&#45;&gt;district:e</title>
<path fill="none" stroke="#000000" d="M197.054,-207.3459C144.8005,-221.648 162.897,-315.5284 98,-315.5284"/>
<polygon fill="#000000" stroke="#000000" points="203.5626,-206.5271 211.9494,-209.1002 207.5313,-206.0277 211.5,-205.5284 211.5,-205.5284 211.5,-205.5284 207.5313,-206.0277 211.0506,-201.9566 203.5626,-206.5271 203.5626,-206.5271"/>
<ellipse fill="none" stroke="#000000" cx="200.3876" cy="-206.9265" rx="3.2" ry="3.2"/>
</g>
<!-- store_product -->
<g id="node6" class="node">
<title>store_product</title>
<g id="a_node6"><a xlink:href="../../tables/store_product.html" xlink:title="store_product" target="_top">
<polygon fill="#ffffff" stroke="transparent" points="415,-64.0284 415,-169.0284 547,-169.0284 547,-64.0284 415,-64.0284"/>
<polygon fill="#f5f5f5" stroke="transparent" points="415,-145.5284 415,-168.5284 547,-168.5284 547,-145.5284 415,-145.5284"/>
<polygon fill="none" stroke="#000000" points="415,-145.5284 415,-168.5284 547,-168.5284 547,-145.5284 415,-145.5284"/>
<text text-anchor="start" x="420" y="-154.1284" font-family="Helvetica,sans-Serif" font-weight="bold" font-size="11.00" fill="#000000">store_product</text>
<text text-anchor="start" x="512.5219" y="-153.6284" font-family="Helvetica,sans-Serif" font-size="11.00" fill="#000000">[table]</text>
<polygon fill="none" stroke="#000000" points="415,-123.5284 415,-145.5284 547,-145.5284 547,-123.5284 415,-123.5284"/>
<image xlink:href="../../images/primaryKeys.png" width="11px" height="12px" preserveAspectRatio="xMinYMin meet" x="420" y="-140.528"/>
<text text-anchor="start" x="444" y="-130.6284" font-family="Helvetica,sans-Serif" font-size="11.00" fill="#000000">store_id</text>
<polygon fill="none" stroke="#000000" points="415,-101.5284 415,-123.5284 547,-123.5284 547,-101.5284 415,-101.5284"/>
<image xlink:href="../../images/primaryKeys.png" width="11px" height="12px" preserveAspectRatio="xMinYMin meet" x="420" y="-118.528"/>
<text text-anchor="start" x="444" y="-108.6284" font-family="Helvetica,sans-Serif" font-size="11.00" fill="#000000">product_id</text>
<polygon fill="none" stroke="#000000" points="415,-82.5284 415,-101.5284 547,-101.5284 547,-82.5284 415,-82.5284"/>
<text text-anchor="start" x="418" y="-88.6284" font-family="Helvetica,sans-Serif" font-size="11.00" fill="#000000">...</text>
<polygon fill="#ffffff" stroke="transparent" points="415,-63.5284 415,-82.5284 466,-82.5284 466,-63.5284 415,-63.5284"/>
<polygon fill="none" stroke="#000000" points="415,-63.5284 415,-82.5284 466,-82.5284 466,-63.5284 415,-63.5284"/>
<text text-anchor="start" x="418" y="-69.6284" font-family="Helvetica,sans-Serif" font-size="11.00" fill="#000000">&lt; 2</text>
<polygon fill="#ffffff" stroke="transparent" points="466,-63.5284 466,-82.5284 519,-82.5284 519,-63.5284 466,-63.5284"/>
<polygon fill="none" stroke="#000000" points="466,-63.5284 466,-82.5284 519,-82.5284 519,-63.5284 466,-63.5284"/>
<text text-anchor="start" x="483.6105" y="-69.6284" font-family="Helvetica,sans-Serif" font-size="11.00" fill="#000000">0 rows</text>
<polygon fill="#ffffff" stroke="transparent" points="519,-63.5284 519,-82.5284 547,-82.5284 547,-63.5284 519,-63.5284"/>
<polygon fill="none" stroke="#000000" points="519,-63.5284 519,-82.5284 547,-82.5284 547,-63.5284 519,-63.5284"/>
<text text-anchor="start" x="537.8862" y="-69.6284" font-family="Helvetica,sans-Serif" font-size="11.00" fill="#000000"> &#160;</text>
</a>
</g>
</g>
<!-- store_product&#45;&gt;product -->
<g id="edge15" class="edge">
<title>store_product:w&#45;&gt;product:e</title>
<path fill="none" stroke="#000000" d="M400.2199,-112.1106C366.1562,-110.1013 352.9479,-101.5284 312.5,-101.5284"/>
<polygon fill="#000000" stroke="#000000" points="407.0032,-112.3023 414.8983,-116.127 411.0016,-112.4153 415,-112.5284 415,-112.5284 415,-112.5284 411.0016,-112.4153 415.1017,-108.9298 407.0032,-112.3023 407.0032,-112.3023"/>
<ellipse fill="none" stroke="#000000" cx="403.8045" cy="-112.2119" rx="3.2" ry="3.2"/>
</g>
<!-- store_product&#45;&gt;store -->
<g id="edge16" class="edge">
<title>store_product:w&#45;&gt;store:e</title>
<path fill="none" stroke="#000000" d="M400.4901,-136.4285C348.2883,-151.3807 369.9827,-249.5284 304.5,-249.5284"/>
<polygon fill="#000000" stroke="#000000" points="407.0677,-135.5672 415.4675,-138.0979 411.0339,-135.0478 415,-134.5284 415,-134.5284 415,-134.5284 411.0339,-135.0478 414.5325,-130.9589 407.0677,-135.5672 407.0677,-135.5672"/>
<ellipse fill="none" stroke="#000000" cx="403.8948" cy="-135.9827" rx="3.2" ry="3.2"/>
</g>
<!-- review -->
<g id="node7" class="node">
<title>review</title>
<g id="a_node7"><a xlink:href="../../tables/review.html" xlink:title="review" target="_top">
<polygon fill="#ffffff" stroke="transparent" points="426.5,-338.0284 426.5,-465.0284 535.5,-465.0284 535.5,-338.0284 426.5,-338.0284"/>
<polygon fill="#f5f5f5" stroke="transparent" points="427,-441.5284 427,-464.5284 536,-464.5284 536,-441.5284 427,-441.5284"/>
<polygon fill="none" stroke="#000000" points="427,-441.5284 427,-464.5284 536,-464.5284 536,-441.5284 427,-441.5284"/>
<text text-anchor="start" x="432" y="-450.1284" font-family="Helvetica,sans-Serif" font-weight="bold" font-size="11.00" fill="#000000">review</text>
<text text-anchor="start" x="501.0437" y="-449.6284" font-family="Helvetica,sans-Serif" font-size="11.00" fill="#000000">[table]</text>
<polygon fill="none" stroke="#000000" points="427,-419.5284 427,-441.5284 536,-441.5284 536,-419.5284 427,-419.5284"/>
<image xlink:href="../../images/primaryKeys.png" width="11px" height="12px" preserveAspectRatio="xMinYMin meet" x="432" y="-436.528"/>
<text text-anchor="start" x="447" y="-426.6284" font-family="Helvetica,sans-Serif" font-size="11.00" fill="#000000">review_id</text>
<polygon fill="#ffffff" stroke="transparent" points="427,-397.5284 427,-419.5284 536,-419.5284 536,-397.5284 427,-397.5284"/>
<polygon fill="none" stroke="#000000" points="427,-397.5284 427,-419.5284 536,-419.5284 536,-397.5284 427,-397.5284"/>
<image xlink:href="../../images/foreignKeys.png" width="11px" height="12px" preserveAspectRatio="xMinYMin meet" x="432" y="-414.528"/>
<text text-anchor="start" x="447" y="-404.6284" font-family="Helvetica,sans-Serif" font-size="11.00" fill="#000000">client_id</text>
<polygon fill="#ffffff" stroke="transparent" points="427,-375.5284 427,-397.5284 536,-397.5284 536,-375.5284 427,-375.5284"/>
<polygon fill="none" stroke="#000000" points="427,-375.5284 427,-397.5284 536,-397.5284 536,-375.5284 427,-375.5284"/>
<image xlink:href="../../images/foreignKeys.png" width="11px" height="12px" preserveAspectRatio="xMinYMin meet" x="432" y="-392.528"/>
<text text-anchor="start" x="447" y="-382.6284" font-family="Helvetica,sans-Serif" font-size="11.00" fill="#000000">product_id</text>
<polygon fill="none" stroke="#000000" points="427,-356.5284 427,-375.5284 536,-375.5284 536,-356.5284 427,-356.5284"/>
<text text-anchor="start" x="430" y="-362.6284" font-family="Helvetica,sans-Serif" font-size="11.00" fill="#000000">...</text>
<polygon fill="#ffffff" stroke="transparent" points="427,-337.5284 427,-356.5284 462,-356.5284 462,-337.5284 427,-337.5284"/>
<polygon fill="none" stroke="#000000" points="427,-337.5284 427,-356.5284 462,-356.5284 462,-337.5284 427,-337.5284"/>
<text text-anchor="start" x="430" y="-343.6284" font-family="Helvetica,sans-Serif" font-size="11.00" fill="#000000">&lt; 2</text>
<polygon fill="#ffffff" stroke="transparent" points="462,-337.5284 462,-356.5284 507,-356.5284 507,-337.5284 462,-337.5284"/>
<polygon fill="none" stroke="#000000" points="462,-337.5284 462,-356.5284 507,-356.5284 507,-337.5284 462,-337.5284"/>
<text text-anchor="start" x="471.6105" y="-343.6284" font-family="Helvetica,sans-Serif" font-size="11.00" fill="#000000">0 rows</text>
<polygon fill="#ffffff" stroke="transparent" points="507,-337.5284 507,-356.5284 536,-356.5284 536,-337.5284 507,-337.5284"/>
<polygon fill="none" stroke="#000000" points="507,-337.5284 507,-356.5284 536,-356.5284 536,-337.5284 507,-337.5284"/>
<text text-anchor="start" x="517.4053" y="-343.6284" font-family="Helvetica,sans-Serif" font-size="11.00" fill="#000000">1 &gt;</text>
</a>
</g>
</g>
<!-- review&#45;&gt;product -->
<g id="edge13" class="edge">
<title>review:w&#45;&gt;product:e</title>
<path fill="none" stroke="#000000" d="M412.5509,-385.4974C328.5086,-372.2615 429.1673,-234.5759 374,-146.5284 356.0172,-117.8277 346.369,-101.5284 312.5,-101.5284"/>
<polygon fill="#000000" stroke="#000000" points="419.0203,-385.959 426.7438,-390.1193 423.0101,-386.2437 427,-386.5284 427,-386.5284 427,-386.5284 423.0101,-386.2437 427.2562,-382.9375 419.0203,-385.959 419.0203,-385.959"/>
<ellipse fill="none" stroke="#000000" cx="415.8284" cy="-385.7312" rx="3.2" ry="3.2"/>
</g>
<!-- review&#45;&gt;client -->
<g id="edge12" class="edge">
<title>review:w&#45;&gt;client:e</title>
<path fill="none" stroke="#000000" d="M412.5885,-408.2673C368.1689,-406.6016 352.3518,-397.5284 301.5,-397.5284"/>
<polygon fill="#000000" stroke="#000000" points="419.0013,-408.3834 426.9348,-412.1278 423.0007,-408.4559 427,-408.5284 427,-408.5284 427,-408.5284 423.0007,-408.4559 427.0652,-404.929 419.0013,-408.3834 419.0013,-408.3834"/>
<ellipse fill="none" stroke="#000000" cx="415.8018" cy="-408.3255" rx="3.2" ry="3.2"/>
</g>
<!-- password_change_request -->
<g id="node8" class="node">
<title>password_change_request</title>
<g id="a_node8"><a xlink:href="../../tables/password_change_request.html" xlink:title="password_change_request" target="_top">
<polygon fill="#ffffff" stroke="transparent" points="149,-514.0284 149,-619.0284 366,-619.0284 366,-514.0284 149,-514.0284"/>
<polygon fill="#f5f5f5" stroke="transparent" points="149.5,-595.5284 149.5,-618.5284 366.5,-618.5284 366.5,-595.5284 149.5,-595.5284"/>
<polygon fill="none" stroke="#000000" points="149.5,-595.5284 149.5,-618.5284 366.5,-618.5284 366.5,-595.5284 149.5,-595.5284"/>
<text text-anchor="start" x="154.5" y="-604.1284" font-family="Helvetica,sans-Serif" font-weight="bold" font-size="11.00" fill="#000000">password_change_request</text>
<text text-anchor="start" x="332.0219" y="-603.6284" font-family="Helvetica,sans-Serif" font-size="11.00" fill="#000000">[table]</text>
<polygon fill="none" stroke="#000000" points="149.5,-573.5284 149.5,-595.5284 366.5,-595.5284 366.5,-573.5284 149.5,-573.5284"/>
<image xlink:href="../../images/primaryKeys.png" width="11px" height="12px" preserveAspectRatio="xMinYMin meet" x="154.5" y="-590.528"/>
<text text-anchor="start" x="178.5" y="-580.6284" font-family="Helvetica,sans-Serif" font-size="11.00" fill="#000000">request_id</text>
<polygon fill="#ffffff" stroke="transparent" points="149.5,-551.5284 149.5,-573.5284 366.5,-573.5284 366.5,-551.5284 149.5,-551.5284"/>
<polygon fill="none" stroke="#000000" points="149.5,-551.5284 149.5,-573.5284 366.5,-573.5284 366.5,-551.5284 149.5,-551.5284"/>
<image xlink:href="../../images/foreignKeys.png" width="11px" height="12px" preserveAspectRatio="xMinYMin meet" x="154.5" y="-568.528"/>
<text text-anchor="start" x="178.5" y="-558.6284" font-family="Helvetica,sans-Serif" font-size="11.00" fill="#000000">user_id</text>
<polygon fill="none" stroke="#000000" points="149.5,-532.5284 149.5,-551.5284 366.5,-551.5284 366.5,-532.5284 149.5,-532.5284"/>
<text text-anchor="start" x="152.5" y="-538.6284" font-family="Helvetica,sans-Serif" font-size="11.00" fill="#000000">...</text>
<polygon fill="#ffffff" stroke="transparent" points="149.5,-513.5284 149.5,-532.5284 243.5,-532.5284 243.5,-513.5284 149.5,-513.5284"/>
<polygon fill="none" stroke="#000000" points="149.5,-513.5284 149.5,-532.5284 243.5,-532.5284 243.5,-513.5284 149.5,-513.5284"/>
<text text-anchor="start" x="152.5" y="-519.6284" font-family="Helvetica,sans-Serif" font-size="11.00" fill="#000000">&lt; 1</text>
<polygon fill="#ffffff" stroke="transparent" points="243.5,-513.5284 243.5,-532.5284 317.5,-532.5284 317.5,-513.5284 243.5,-513.5284"/>
<polygon fill="none" stroke="#000000" points="243.5,-513.5284 243.5,-532.5284 317.5,-532.5284 317.5,-513.5284 243.5,-513.5284"/>
<text text-anchor="start" x="282.1105" y="-519.6284" font-family="Helvetica,sans-Serif" font-size="11.00" fill="#000000">0 rows</text>
<polygon fill="#ffffff" stroke="transparent" points="317.5,-513.5284 317.5,-532.5284 366.5,-532.5284 366.5,-513.5284 317.5,-513.5284"/>
<polygon fill="none" stroke="#000000" points="317.5,-513.5284 317.5,-532.5284 366.5,-532.5284 366.5,-513.5284 317.5,-513.5284"/>
<text text-anchor="start" x="357.3862" y="-519.6284" font-family="Helvetica,sans-Serif" font-size="11.00" fill="#000000"> &#160;</text>
</a>
</g>
</g>
<!-- password_change_request&#45;&gt;user -->
<g id="edge11" class="edge">
<title>password_change_request:w&#45;&gt;user:e</title>
<path fill="none" stroke="#000000" d="M135.5092,-557.9915C122.8361,-548.1114 121.4584,-525.5284 100,-525.5284"/>
<polygon fill="#000000" stroke="#000000" points="141.8901,-560.0606 148.3895,-565.9528 145.6951,-561.2945 149.5,-562.5284 149.5,-562.5284 149.5,-562.5284 145.6951,-561.2945 150.6105,-559.1039 141.8901,-560.0606 141.8901,-560.0606"/>
<ellipse fill="none" stroke="#000000" cx="138.8462" cy="-559.0735" rx="3.2" ry="3.2"/>
</g>
<!-- order_product -->
<g id="node9" class="node">
<title>order_product</title>
<g id="a_node9"><a xlink:href="../../tables/order_product.html" xlink:title="order_product" target="_top">
<polygon fill="#ffffff" stroke="transparent" points="605.5,-58.0284 605.5,-207.0284 739.5,-207.0284 739.5,-58.0284 605.5,-58.0284"/>
<polygon fill="#f5f5f5" stroke="transparent" points="605.5,-183.5284 605.5,-206.5284 739.5,-206.5284 739.5,-183.5284 605.5,-183.5284"/>
<polygon fill="none" stroke="#000000" points="605.5,-183.5284 605.5,-206.5284 739.5,-206.5284 739.5,-183.5284 605.5,-183.5284"/>
<text text-anchor="start" x="610.5" y="-192.1284" font-family="Helvetica,sans-Serif" font-weight="bold" font-size="11.00" fill="#000000">order_product</text>
<text text-anchor="start" x="705.0219" y="-191.6284" font-family="Helvetica,sans-Serif" font-size="11.00" fill="#000000">[table]</text>
<polygon fill="none" stroke="#000000" points="605.5,-161.5284 605.5,-183.5284 739.5,-183.5284 739.5,-161.5284 605.5,-161.5284"/>
<image xlink:href="../../images/primaryKeys.png" width="11px" height="12px" preserveAspectRatio="xMinYMin meet" x="610.5" y="-178.528"/>
<text text-anchor="start" x="634.5" y="-168.6284" font-family="Helvetica,sans-Serif" font-size="11.00" fill="#000000">order_id</text>
<polygon fill="none" stroke="#000000" points="605.5,-139.5284 605.5,-161.5284 739.5,-161.5284 739.5,-139.5284 605.5,-139.5284"/>
<image xlink:href="../../images/primaryKeys.png" width="11px" height="12px" preserveAspectRatio="xMinYMin meet" x="610.5" y="-156.528"/>
<text text-anchor="start" x="634.5" y="-146.6284" font-family="Helvetica,sans-Serif" font-size="11.00" fill="#000000">product_id</text>
<polygon fill="none" stroke="#000000" points="605.5,-117.5284 605.5,-139.5284 739.5,-139.5284 739.5,-117.5284 605.5,-117.5284"/>
<image xlink:href="../../images/primaryKeys.png" width="11px" height="12px" preserveAspectRatio="xMinYMin meet" x="610.5" y="-134.528"/>
<text text-anchor="start" x="634.5" y="-124.6284" font-family="Helvetica,sans-Serif" font-size="11.00" fill="#000000">cup_size</text>
<polygon fill="none" stroke="#000000" points="605.5,-95.5284 605.5,-117.5284 739.5,-117.5284 739.5,-95.5284 605.5,-95.5284"/>
<image xlink:href="../../images/primaryKeys.png" width="11px" height="12px" preserveAspectRatio="xMinYMin meet" x="610.5" y="-112.528"/>
<text text-anchor="start" x="634.5" y="-102.6284" font-family="Helvetica,sans-Serif" font-size="11.00" fill="#000000">milk_type</text>
<polygon fill="none" stroke="#000000" points="605.5,-76.5284 605.5,-95.5284 739.5,-95.5284 739.5,-76.5284 605.5,-76.5284"/>
<text text-anchor="start" x="608.5" y="-82.6284" font-family="Helvetica,sans-Serif" font-size="11.00" fill="#000000">...</text>
<polygon fill="#ffffff" stroke="transparent" points="605.5,-57.5284 605.5,-76.5284 657.5,-76.5284 657.5,-57.5284 605.5,-57.5284"/>
<polygon fill="none" stroke="#000000" points="605.5,-57.5284 605.5,-76.5284 657.5,-76.5284 657.5,-57.5284 605.5,-57.5284"/>
<text text-anchor="start" x="608.5" y="-63.6284" font-family="Helvetica,sans-Serif" font-size="11.00" fill="#000000">&lt; 2</text>
<polygon fill="#ffffff" stroke="transparent" points="657.5,-57.5284 657.5,-76.5284 711.5,-76.5284 711.5,-57.5284 657.5,-57.5284"/>
<polygon fill="none" stroke="#000000" points="657.5,-57.5284 657.5,-76.5284 711.5,-76.5284 711.5,-57.5284 657.5,-57.5284"/>
<text text-anchor="start" x="676.1105" y="-63.6284" font-family="Helvetica,sans-Serif" font-size="11.00" fill="#000000">0 rows</text>
<polygon fill="#ffffff" stroke="transparent" points="711.5,-57.5284 711.5,-76.5284 739.5,-76.5284 739.5,-57.5284 711.5,-57.5284"/>
<polygon fill="none" stroke="#000000" points="711.5,-57.5284 711.5,-76.5284 739.5,-76.5284 739.5,-57.5284 711.5,-57.5284"/>
<text text-anchor="start" x="730.3862" y="-63.6284" font-family="Helvetica,sans-Serif" font-size="11.00" fill="#000000"> &#160;</text>
</a>
</g>
</g>
<!-- order_product&#45;&gt;order -->
<g id="edge9" class="edge">
<title>order_product:w&#45;&gt;order:e</title>
<path fill="none" stroke="#000000" d="M591.3392,-175.4706C555.6942,-192.9637 588.1821,-282.5284 536,-282.5284"/>
<polygon fill="#000000" stroke="#000000" points="597.6673,-174.1559 606.2324,-176.0531 601.5836,-173.3421 605.5,-172.5284 605.5,-172.5284 605.5,-172.5284 601.5836,-173.3421 604.7676,-169.0037 597.6673,-174.1559 597.6673,-174.1559"/>
<ellipse fill="none" stroke="#000000" cx="594.5342" cy="-174.8069" rx="3.2" ry="3.2"/>
</g>
<!-- order_product&#45;&gt;product -->
<g id="edge10" class="edge">
<title>order_product:w&#45;&gt;product:e</title>
<path fill="none" stroke="#000000" d="M591.0798,-147.3946C565.5414,-133.3095 591.3584,-75.5902 555,-53.5284 498.7651,-19.4058 470.97,-38.2132 407,-53.5284 361.1872,-64.4965 359.6074,-101.5284 312.5,-101.5284"/>
<polygon fill="#000000" stroke="#000000" points="597.6825,-148.8294 604.7355,-154.0463 601.5912,-149.6789 605.5,-150.5284 605.5,-150.5284 605.5,-150.5284 601.5912,-149.6789 606.2645,-147.0105 597.6825,-148.8294 597.6825,-148.8294"/>
<ellipse fill="none" stroke="#000000" cx="594.5555" cy="-148.1499" rx="3.2" ry="3.2"/>
</g>
<!-- client&#45;&gt;district -->
<g id="edge2" class="edge">
<title>client:w&#45;&gt;district:e</title>
<path fill="none" stroke="#000000" d="M198.9471,-374.1044C155.1998,-365.0184 150.5364,-315.5284 98,-315.5284"/>
<polygon fill="#000000" stroke="#000000" points="205.538,-374.7493 213.1494,-379.1113 209.519,-375.1388 213.5,-375.5284 213.5,-375.5284 213.5,-375.5284 209.519,-375.1388 213.8506,-371.9455 205.538,-374.7493 205.538,-374.7493"/>
<ellipse fill="none" stroke="#000000" cx="202.3532" cy="-374.4376" rx="3.2" ry="3.2"/>
</g>
<!-- client&#45;&gt;user -->
<g id="edge3" class="edge">
<title>client:w&#45;&gt;user:e</title>
<path fill="none" stroke="#000000" d="M206.4232,-405.1521C181.7444,-432.7081 101.0117,-525.5284 100,-525.5284"/>
<polygon fill="#000000" stroke="#000000" points="210.0241,-395.3934 215.8874,-400.8361 214.7988,-402.0087 208.9356,-396.566 210.0241,-395.3934"/>
<polyline fill="none" stroke="#000000" points="213.5,-397.5284 210.7787,-400.46 "/>
<ellipse fill="none" stroke="#000000" cx="208.6016" cy="-402.8053" rx="3.2" ry="3.2"/>
</g>
<!-- comment -->
<g id="node12" class="node">
<title>comment</title>
<g id="a_node12"><a xlink:href="../../tables/comment.html" xlink:title="comment" target="_top">
<polygon fill="#ffffff" stroke="transparent" points="596,-400.0284 596,-549.0284 749,-549.0284 749,-400.0284 596,-400.0284"/>
<polygon fill="#f5f5f5" stroke="transparent" points="596.5,-525.5284 596.5,-548.5284 749.5,-548.5284 749.5,-525.5284 596.5,-525.5284"/>
<polygon fill="none" stroke="#000000" points="596.5,-525.5284 596.5,-548.5284 749.5,-548.5284 749.5,-525.5284 596.5,-525.5284"/>
<text text-anchor="start" x="601.5" y="-534.1284" font-family="Helvetica,sans-Serif" font-weight="bold" font-size="11.00" fill="#000000">comment</text>
<text text-anchor="start" x="714.5437" y="-533.6284" font-family="Helvetica,sans-Serif" font-size="11.00" fill="#000000">[table]</text>
<polygon fill="none" stroke="#000000" points="596.5,-503.5284 596.5,-525.5284 749.5,-525.5284 749.5,-503.5284 596.5,-503.5284"/>
<image xlink:href="../../images/primaryKeys.png" width="11px" height="12px" preserveAspectRatio="xMinYMin meet" x="601.5" y="-520.528"/>
<text text-anchor="start" x="616.5" y="-510.6284" font-family="Helvetica,sans-Serif" font-size="11.00" fill="#000000">comment_id</text>
<polygon fill="#ffffff" stroke="transparent" points="596.5,-481.5284 596.5,-503.5284 749.5,-503.5284 749.5,-481.5284 596.5,-481.5284"/>
<polygon fill="none" stroke="#000000" points="596.5,-481.5284 596.5,-503.5284 749.5,-503.5284 749.5,-481.5284 596.5,-481.5284"/>
<image xlink:href="../../images/foreignKeys.png" width="11px" height="12px" preserveAspectRatio="xMinYMin meet" x="601.5" y="-498.528"/>
<text text-anchor="start" x="616.5" y="-488.6284" font-family="Helvetica,sans-Serif" font-size="11.00" fill="#000000">parent_comment_id</text>
<polygon fill="#ffffff" stroke="transparent" points="596.5,-459.5284 596.5,-481.5284 749.5,-481.5284 749.5,-459.5284 596.5,-459.5284"/>
<polygon fill="none" stroke="#000000" points="596.5,-459.5284 596.5,-481.5284 749.5,-481.5284 749.5,-459.5284 596.5,-459.5284"/>
<image xlink:href="../../images/foreignKeys.png" width="11px" height="12px" preserveAspectRatio="xMinYMin meet" x="601.5" y="-476.528"/>
<text text-anchor="start" x="616.5" y="-466.6284" font-family="Helvetica,sans-Serif" font-size="11.00" fill="#000000">user_id</text>
<polygon fill="#ffffff" stroke="transparent" points="596.5,-437.5284 596.5,-459.5284 749.5,-459.5284 749.5,-437.5284 596.5,-437.5284"/>
<polygon fill="none" stroke="#000000" points="596.5,-437.5284 596.5,-459.5284 749.5,-459.5284 749.5,-437.5284 596.5,-437.5284"/>
<image xlink:href="../../images/foreignKeys.png" width="11px" height="12px" preserveAspectRatio="xMinYMin meet" x="601.5" y="-454.528"/>
<text text-anchor="start" x="616.5" y="-444.6284" font-family="Helvetica,sans-Serif" font-size="11.00" fill="#000000">review_id</text>
<polygon fill="none" stroke="#000000" points="596.5,-418.5284 596.5,-437.5284 749.5,-437.5284 749.5,-418.5284 596.5,-418.5284"/>
<text text-anchor="start" x="599.5" y="-424.6284" font-family="Helvetica,sans-Serif" font-size="11.00" fill="#000000">...</text>
<polygon fill="#ffffff" stroke="transparent" points="596.5,-399.5284 596.5,-418.5284 653.5,-418.5284 653.5,-399.5284 596.5,-399.5284"/>
<polygon fill="none" stroke="#000000" points="596.5,-399.5284 596.5,-418.5284 653.5,-418.5284 653.5,-399.5284 596.5,-399.5284"/>
<text text-anchor="start" x="599.5" y="-405.6284" font-family="Helvetica,sans-Serif" font-size="11.00" fill="#000000">&lt; 3</text>
<polygon fill="#ffffff" stroke="transparent" points="653.5,-399.5284 653.5,-418.5284 709.5,-418.5284 709.5,-399.5284 653.5,-399.5284"/>
<polygon fill="none" stroke="#000000" points="653.5,-399.5284 653.5,-418.5284 709.5,-418.5284 709.5,-399.5284 653.5,-399.5284"/>
<text text-anchor="start" x="674.1105" y="-405.6284" font-family="Helvetica,sans-Serif" font-size="11.00" fill="#000000">0 rows</text>
<polygon fill="#ffffff" stroke="transparent" points="709.5,-399.5284 709.5,-418.5284 749.5,-418.5284 749.5,-399.5284 709.5,-399.5284"/>
<polygon fill="none" stroke="#000000" points="709.5,-399.5284 709.5,-418.5284 749.5,-418.5284 749.5,-399.5284 709.5,-399.5284"/>
<text text-anchor="start" x="730.9053" y="-405.6284" font-family="Helvetica,sans-Serif" font-size="11.00" fill="#000000">1 &gt;</text>
</a>
</g>
</g>
<!-- comment&#45;&gt;review -->
<g id="edge5" class="edge">
<title>comment:w&#45;&gt;review:e</title>
<path fill="none" stroke="#000000" d="M581.9369,-446.6021C565.6855,-441.9586 558.3553,-430.5284 536,-430.5284"/>
<polygon fill="#000000" stroke="#000000" points="588.5691,-447.4793 596.0279,-452.0973 592.5345,-448.0038 596.5,-448.5284 596.5,-448.5284 596.5,-448.5284 592.5345,-448.0038 596.9721,-444.9595 588.5691,-447.4793 588.5691,-447.4793"/>
<ellipse fill="none" stroke="#000000" cx="585.3967" cy="-447.0597" rx="3.2" ry="3.2"/>
</g>
<!-- comment&#45;&gt;user -->
<g id="edge6" class="edge">
<title>comment:w&#45;&gt;user:e</title>
<path fill="none" stroke="#000000" d="M582.0763,-471.375C573.6432,-472.4615 567.5717,-474.3467 555,-475.5284 371.3889,-492.7864 318.2378,-452.5614 141,-503.5284 121.1256,-509.2435 120.6798,-525.5284 100,-525.5284"/>
<polygon fill="#000000" stroke="#000000" points="588.5137,-470.9972 596.711,-474.1222 592.5069,-470.7628 596.5,-470.5284 596.5,-470.5284 596.5,-470.5284 592.5069,-470.7628 596.289,-466.9346 588.5137,-470.9972 588.5137,-470.9972"/>
<ellipse fill="none" stroke="#000000" cx="585.3192" cy="-471.1848" rx="3.2" ry="3.2"/>
</g>
<!-- comment&#45;&gt;comment -->
<g id="edge4" class="edge">
<title>comment:w&#45;&gt;comment:e</title>
<path fill="none" stroke="#000000" d="M584.4561,-501.3904C550.0898,-530.713 560.625,-566.0284 673,-566.0284 797,-566.0284 797,-545.0284 749.5,-514.5284"/>
<polygon fill="#000000" stroke="#000000" points="590.0564,-497.2697 598.6336,-495.428 593.2782,-494.899 596.5,-492.5284 596.5,-492.5284 596.5,-492.5284 593.2782,-494.899 594.3664,-489.6288 590.0564,-497.2697 590.0564,-497.2697"/>
<ellipse fill="none" stroke="#000000" cx="587.4789" cy="-499.1662" rx="3.2" ry="3.2"/>
</g>
</g>
</svg>
